<?xml version="1.0" encoding="utf-8"?>
<!-- Generator: Adobe Illustrator 28.0.0, SVG Export Plug-In . SVG Version: 6.00 Build 0)  -->
<svg version="1.1" id="Layer_1" xmlns="http://www.w3.org/2000/svg" xmlns:xlink="http://www.w3.org/1999/xlink" x="0px" y="0px"
	 viewBox="0 0 1014.4 506.9" style="enable-background:new 0 0 1014.4 506.9;" xml:space="preserve">
<style type="text/css">
	.st0{fill:#E7C1F3;stroke:#000000;stroke-miterlimit:10;}
	.st1{display:none;fill:#E7C1F3;stroke:#000000;stroke-miterlimit:10;}
</style>
<g id="surface1202">
	<path vector-effect="non-scaling-stroke" class="st0" d="M895,157.8c-15.9-11.8-26-9.6-43.9-4.9c-12.8,7.2-27,17-36.5,28.3
		c-4.7,9.6-15.3,17.4-16.1,28.4c-1.6,9.6-3.7,20.2,5.3,26.8c6.4,5.1,15.1,10.7,23.6,10.1c10.6-2.6,23.1-3.8,32.7-9.5
		C890.8,226.3,922.7,187.4,895,157.8"/>
	<path vector-effect="non-scaling-stroke" class="st1" d="M157.6-238.4c4,12.9,13.9,21.4,28.1,21.4c20.1,4.6,32.2-13.7,26.4-31.9
		c-5.3-13.9-22.9-11.7-35-10.9c-3.8,0.2-13.5,3.7-16.9,5.5C160-249.9,156.2-242.8,157.6-238.4"/>
	<path vector-effect="non-scaling-stroke" class="st0" d="M54.4,129.7C-23.9,114.4-8,40.5,54.3,13.9c39.7-19.1,83.4,6.8,81.3,51.6
		C136.7,106.4,93.5,139,54.4,129.7"/>
	<path vector-effect="non-scaling-stroke" class="st1" d="M431.6,714c19.5,25.9,50.8,21.8,75.4,5.7c22.4-15.3,39.8-40,66.5-48.8
		c25.6-10.4,53.5-17.6,76.4-33.5c54.2-36.8,100.1-83.7,148.6-127.1c11.2-6.6,21.6-16,32.7-22.8c18.6-9.2,34.7-23.3,50.2-36.8
		c21-21.5,34.6-49.7,57-69.6c12.4-14.6,29.7-25.3,43.7-38.4c21.2-16.7,40.6-38.2,52.5-62.7c9.6-16.1,16.5-34.7,23.5-51.9
		c6.1-14.2,13.9-29.6,16.4-44.8c9.8-34.1,0.3-69-5.6-103.2c-8.1-60.4,41.5-161.6-57.4-162.7c-45.6-1.4-88.9,20.8-134.4,17.2
		c-61.3-10.5-89.5-32-139.8,19.3c-22.2,24.3-62.7,22.3-80.8,50.6c-14.9,21.9-19.6,49.4-26.5,74.6c-7,33.1-15.4,66.4-22.2,99.5
		c-5.7,33.4,0.1,69.3-14.7,100.8c-4.4,11.5-14,20.8-21.2,30.5c-7.9,12.8-19.8,24.4-26.4,38c-11.5,25-17,52-24.8,78.7
		c-4.4,10.6-6.9,24.7-17.4,30.8c-14.9,10.8-23.8,29.2-24.9,47.4c-8.9,38.9-11.5,79.7-22.3,118.1C448.8,650.5,411.9,686.4,431.6,714"
		/>
	<path vector-effect="non-scaling-stroke" class="st1" d="M579.3,630.2c38.4-4.3,67.6-30.4,96.2-53.9c32.3-25.6,65.5-50.5,97.3-76.6
		c28.5-24.2,64-38.9,91.5-64.2c16.8-15.8,28.1-36.7,43.2-53.8c14.2-18.1,32.7-33.4,51-47.2c20.8-17.2,40.4-36.6,53.9-60.2
		c14.7-29,26.5-60.3,35.7-91.4c9.6-36.9-1.7-74.6-5.3-111.4c-5.1-37.7,15.5-92.5-26.2-114.5C971.5-63.8,925.7-29.5,880-28.3
		c-31-0.8-68.2-9.6-91.2,17.3c-11.4,15.2-22.3,31.4-38.7,41.9c-11.6,7.1-27,7.1-39.7,11.1c-32.7,8.1-48.8,41.4-58.8,70.9
		c-9.5,28.9-18.1,58.8-20.2,89.4c0,43.4-4.8,83.5-34.4,117.4c-23.2,29.2-36.3,47.8-40.1,86.5c-2.5,25.5,1.6,51.9-6.3,76.7
		c-8.8,25.6-28.8,45.5-37.6,71.1C494.7,612.6,516.2,643.5,579.3,630.2"/>
	<path vector-effect="non-scaling-stroke" class="st1" d="M571.2,592.2c15,5.2,29.4-1.7,43.6-6.4c12.1-10.2,26-19,38.5-28.7
		c28.1-17.6,57.2-34,84-53.6c17.6-13.3,35.5-27.4,54.1-39.3c20.4-11.6,41.9-23.1,59.6-38.9c25.1-24.3,40.9-56.9,67.8-79.4
		c25.3-21.5,53.7-40.9,72.2-69c27.3-48,48.2-105,38.3-160.8c-3.4-20.7-7.5-41.9-8.8-62.9c-0.4-19.5-0.4-40.9-9.8-58.5
		c-26-35.2-72.7-9-105.7,0.6c-32.5,8.9-71.7,1-97.9,26.4c-12.5,12.8-26.4,25-40.3,36.1c-47,19.4-75.9,13.6-97.9,68.6
		c-10.9,24.2-16.7,50.7-17.9,77.1c0.3,36.6-4,75.3-24.8,106.1c-7.1,14.3-18.5,25.6-27.4,38.2c-27.5,33.9-25.4,75.4-19.6,115.5
		c1.6,19.7,0.9,41.3-7.8,58.8c-6.6,15-20.2,30.4-17.8,47.3C553.8,582.1,557.3,591.1,571.2,592.2"/>
	<path vector-effect="non-scaling-stroke" class="st1" d="M649.8,525.1c-29.2,6.3-38.2-4.5-44.4-31.9c-7.6-24.8-12.1-50.9-14.8-76.6
		c1.5-53.4,40.4-73.4,59.1-118.5c10-22.3,16.4-46.9,17.5-71.4c0.5-38.9,3.7-83,31.7-112.8c17.9-20.9,47.5-23.9,70-36.7
		c10.1-6.6,20.5-14.5,30-21.1c10.4-12,24.7-19.6,38.1-26.4c22.4-9.9,48.5-8.8,71.4-14.2c25.3-4.5,57.3-23.4,79-3.8
		c13,16.6,14.2,38.9,18,58.1c4.4,23.8,11.7,48.5,12.1,71.6c1.2,41.9-16.7,95.9-39,129.9c-16.3,25.6-42.4,41.6-63.5,61.4
		c-36.7,26.1-52.4,71.9-89.9,96.1C804.8,441.4,783,452,763.8,465C728.7,490.7,692.8,516.9,649.8,525.1"/>
	<path vector-effect="non-scaling-stroke" class="st0" d="M649.8,497.3c-34.7-4.7-49.8-72.2-41.3-101.3
		c6.3-21.2,21.5-38.1,34.2-55.7c12.1-17.5,21.8-37.5,28.3-57.8c19.4-52.1-2.3-119.4,44.2-160.2c19-15.3,44.1-21.5,63.7-35.9
		c23.1-14.3,42.8-35.7,69.2-44.1c21.3-5.9,44.6-5.7,66.3-9.6c40-7.2,62.4-5.4,74.2,38.5c8.7,26.2,15.9,54,15.8,81.9
		c-2.4,40-14,80.5-36.2,114.1c-18.9,26.8-47.2,44.4-71.6,65.6c-20,16.2-33.5,38.7-49.3,58.5c-19.4,25-47.8,38.1-75,52.5
		C734,464.5,696.8,506.1,649.8,497.3"/>
	<path vector-effect="non-scaling-stroke" class="st1" d="M643.5,470.2c-22.8-20.8-28.8-59.2-13.3-86.1
		c7.5-14.5,19.6-27.1,28.4-40.9c9.8-14.9,17.2-31.8,23.1-48.6c5.8-17.1,11.1-35.2,12.4-53.3c1.7-25.5,1-52.5,10.7-76.6
		c13-37.5,54.8-48,83.3-70.3C824,67.9,846.2,50.1,893.6,49c24-0.5,54.1-5.8,71.6,14.7c34.1,43.5,34.7,105.9,15.7,156
		c-10.1,33.4-33.3,60.9-60.9,81.6c-23.9,18-48.2,36.5-64.9,61.8c-21.5,32.8-47.6,50.4-83.1,65.6C731.5,446,690.2,497.1,643.5,470.2"
		/>
	<path vector-effect="non-scaling-stroke" class="st1" d="M642.6,439.6c-8.6-21-3.2-44.2,11.5-61c11.6-16.7,24-33.4,31-52.7
		c11.9-29.1,19.9-60.7,20.9-92.2c1.3-97.9,44-93.3,108.9-146.2c27.7-21.7,63.4-28.9,97.9-25.3c32.8,0.4,53.4,19.3,63,49.8
		c12.9,34.1,7.7,72.5-3.9,106.2c-14.1,49.5-60.3,76.1-97.4,106.9c-39.7,39.5-44.1,69.4-103.3,90.4c-26.6,9.8-49.3,27.7-74.9,39.6
		C670.3,463.1,660.7,459.7,642.6,439.6"/>
	<path vector-effect="non-scaling-stroke" class="st1" d="M684.9,432.3c-28.3-3.3-23.5-16.7-16.9-38.6c12.3-12.1,20-29.4,25.9-45.4
		c8.6-24,15.2-49.3,19.8-74.4c3.3-23.2,3.7-47.4,6.5-70.6c3-29.2,22-53.8,46.2-68.7c19-13.4,37.3-27.5,55.8-40.8
		c31.3-21.9,72.5-27.3,108.2-15c61.8,30.4,49.1,124,16.3,171.7c-18.4,26.7-46.9,43.2-71.6,62.3c-20.5,14.8-35.1,35.9-50.2,55.2
		c-21.4,24.4-49.1,32.6-78.7,41.8C725.8,415.7,706.2,431.5,684.9,432.3"/>
	<path vector-effect="non-scaling-stroke" class="st1" d="M718.2,378.5c-12-24.4,6.8-80,7.5-109.4c2.5-49.6-0.4-97,46.7-127.3
		c32.4-24.2,65-57.3,107.3-59.2c96-7.7,103.1,103.2,59.3,163.4c-22.5,31.7-60.1,47.5-87.6,73.1c-19.8,18-32.9,43.3-55.7,56.9
		C776.9,386,732.5,398.3,718.2,378.5"/>
	<path vector-effect="non-scaling-stroke" class="st0" d="M925.9,103.6c-39.8-23.3-86.9-6.1-119.1,22.3
		c-17.9,14.3-38.3,28.3-51.9,46.5c-19.2,26.4-17.6,60.8-17.9,91.5c0.2,25-3.5,51.7-0.9,76.3c4,30.7,36.5,32.4,57.8,18.5
		c23.4-15.5,38.3-41.8,61.5-56.7c27.7-20.6,60.7-35.7,79.4-64.8C960.9,198.2,968.8,133,925.9,103.6"/>
	<path vector-effect="non-scaling-stroke" class="st1" d="M754.2,317.5c-4.5-40.1-13.5-84.5,0.9-123.5
		c10.3-25.9,34.2-42.7,54.9-59.9c17.1-14.3,36.9-26.5,58.9-30.8c26.4-4.2,58.2,6.4,69.7,32.1c16.3,33.9,6.4,77.6-17.4,105.6
		c-23.1,27.6-58.1,41.5-86.7,62c-8.2,7.3-18.6,15-26.9,21.9c-4.6,4.9-11.5,11.2-17.6,13.8c-5.6,1.2-12.4,2.9-17.5,4.8
		C761.8,339.5,757.2,327.4,754.2,317.5"/>
	<path vector-effect="non-scaling-stroke" class="st1" d="M891.4,256.4c39-24.4,61.8-81.9,33.5-122.1c-30.5-36.3-81-19.6-111.6,7.7
		c-21,16.7-42.5,35.2-51.6,61.2c-6.8,28.8-3.9,60.3,6.4,87.9c1.5,11.8,12,15.9,22.1,18.4c15.3-4.1,31.4-12.9,44.7-21.1
		C854.3,278.6,873.5,268.4,891.4,256.4"/>
	<path vector-effect="non-scaling-stroke" class="st1" d="M790,280.5c-35.9-31.2-22.7-88.3,11.4-115.7c21.2-20.6,47.9-42.1,79-40.9
		c55.8,5.6,59,69.9,27.8,105.7c-15.9,18.1-38.2,29.6-59.9,39.2C830.4,275.8,809.2,288.6,790,280.5"/>
	<path vector-effect="non-scaling-stroke" class="st1" d="M790,252.8c-16.9-27.6-4-61.4,18.6-81.6c22.2-22.4,56.4-46.8,88.2-29.4
		c32.4,18.7,21.8,69.5-4.5,89.1C869.9,249.5,814.2,279.3,790,252.8"/>
</g>
</svg>
