<?xml version="1.0" encoding="utf-8"?>
<!-- Generator: Adobe Illustrator 28.0.0, SVG Export Plug-In . SVG Version: 6.00 Build 0)  -->
<svg version="1.1" id="Layer_1" xmlns="http://www.w3.org/2000/svg" xmlns:xlink="http://www.w3.org/1999/xlink" x="0px" y="0px"
	 viewBox="0 0 847.7 834.1" style="enable-background:new 0 0 847.7 834.1;" xml:space="preserve">
<style type="text/css">
	.st0{fill:#F90786;stroke:#000000;stroke-width:1.0729;stroke-linecap:square;stroke-miterlimit:6.974;}
	.st1{display:none;fill:#F90786;stroke:#000000;stroke-width:1.0729;stroke-linecap:square;stroke-miterlimit:6.974;}
</style>
<g id="surface1312">
	<path vector-effect="non-scaling-stroke" class="st0" d="M469.9,600.1c5.5-9.7,8.5-21.1,14.6-30.4c4.6-6.4,4.7-15.2,8.2-22.1
		c3.4-7.2-1.1-15.7-7.3-19.8c-4.7,2.7-11.6,1.8-16.5,3.7c-25.8,7.2-54.9,16.4-76.2,33.6c-18.5,20.6-23.2,50.9-18.5,77.6
		c2.4,13.7,9.9,34.7,26.3,34.5c17,0.2,28.9-11.9,40.2-23.3C452,637,462.3,619,469.9,600.1"/>
	<path vector-effect="non-scaling-stroke" class="st1" d="M58.7,63c4.2,8.8,15.1,12.8,23.2,17.1c12.7,2.5,26-5.3,33.6-15
		c8.8-17.5,8.7-42.9-4.9-57.8C95.7-6.4,80.4-4.7,64,5.6C50.6,21.2,50,45,58.7,63"/>
	<path vector-effect="non-scaling-stroke" class="st1" d="M411.1,887.6c35.2,3.2,67.6-13,100.2-23.1c32.2-6.1,66.8,0.6,98.8-7.9
		c34.2-8.8,64.3-29.7,98.1-39.5c29.8-7.8,63-6.5,89.7-23.6c44.9-25.1,81.4-93.8,89.1-143.2c13.4-73.9-20.7-149.2-69.3-204.1
		c-11.6-15.9-29-28.6-36.9-47c-12.9-28.2-7.3-60.2-14.6-89c-6.6-40.2-34.9-75.9-32.3-117.9c2.3-30.1,24.7-53.2,31.7-81.9
		c8.9-32.2-3.1-72.1-35-86.9c-23.5-10.9-49.9-7.4-74.8-5c-45.7,2.8-63.8-48.7-99.9-67.7c-39.9-24.8-86.4-7.1-114,27.4
		c-22.7,23.7-38.2,54.5-65.4,73.7c-12.2,12-31.2,16.1-46.9,22C310,82.2,289.3,88.4,270,97.2c-61.1,28.8-70.5,33.8-111.5,88.2
		c-21.8,21.2-54.7,17.4-80.3,31.4c-47.4,19.9-74.1,68.6-88.6,115.6c-5.2,11.1-9.3,23.5-12.8,35.2c-2.7,6.2-2.2,14.5-7.3,19.5
		c2.3,5.4-1,10.7-3.7,15.1c-4.9,7.1-14.4,27.1-22.5,27.5c-5.6,1.2-11.8-2.6-17.3-3.5c-7.3-2.8-13.6-9.7-19.4-14.8
		c-21.4-19.5-45.9-41.9-75.1-22.3c-28.3,22.6-22.6,63.8-15.2,95.3c11.6,44.9,8.8,97.5,41.4,133.9c31.2,34.8,68,23.3,107.5,14.6
		c71.2,6.6-2.5,136.7,84.3,185.7c28.7,16.4,64.4,11.7,94,0.1c26.1-6.7,52.7-26.4,80.4-16.6c20.2,10.1,34.7,28.8,53.2,41.3
		C314.3,874.2,364.1,883.7,411.1,887.6"/>
	<path vector-effect="non-scaling-stroke" class="st1" d="M325.6,842c-41.3-15.1-60.6-48.4-89.6-77.6c-10.1-13.3-31.2-10.4-43.7-2.1
		c-18.1,8.1-35.3,19.4-54.4,25.4c-40.4,13.6-84.2,6.3-99.7-38.2c-12.5-38.5-1.6-80.5-15-118.9c-4.4-13.4-12-25.6-20.8-36.5
		c-2.9-5.2-8.2-11.4-11.1-16.6c-8.6-4-18.2-8.7-28-6.9c-18,10.9-35.7,28.2-58.4,24.1c-13.9,0.3-21.8-13.8-29.9-23.2
		c-11.7-26.5-13.3-88.5,29.1-82.5c9,2.3,19.5,4.7,28.1,8.4c10.3,6.9,22.9,7.9,34.2,2.7c4.5-2.6,6.9-10.6,5.8-15.7
		c3.4-1.7,3.3-7.3,4.5-10.5c2-6.5,3.5-15.1,5.2-21.6c6.4-27.2,11.6-55.1,17.9-82.4c14-51.2,37.3-112.3,93.2-128.8
		c23.2-9.3,49.7-2.1,72.7-10.5c12.1-3.4,19.7-13,25.9-23.4c8.2-11.7,15.9-24.5,25-35.6c22.9-26.1,54.5-43.3,85.8-57.2
		c23.1-9.5,48.2-15,70.8-25.5c37.2-19.9,57-59.9,86.1-88.9c24.8-24.8,61.4-36.9,91.6-13.5c19.2,12.9,30.8,34,43.6,52.7
		c7.8,16.4,19.8,30.7,36.3,38.7c17.2,1.2,34.9-3.9,52-2.1c12,2.3,23.1,4.2,23.7,19.2c4.3,13.2-2.9,26.1-5.8,38.9
		c-19.1,47.2,7.9,95,24.6,138.5c11.2,22.8,16.9,48.6,16.8,74c0,47.8-8.8,68.4,34.1,100.4c102.3,78.9,124.3,222.5,20.3,310.3
		c-30.2,22.1-69.5,20.1-103.7,31.7c-39.5,13.9-76.4,41.3-120.1,39c-21.5,0.1-44-6.7-65.4-3.1c-23,5.2-44.2,17.7-66.5,25
		C403.1,859.4,361.8,856.4,325.6,842"/>
	<path vector-effect="non-scaling-stroke" class="st0" d="M319,818.7c34.8,18.7,78.4,19.2,115.4,6.4c24.5-8.5,45.8-25.1,70.9-31.9
		c15.6-4.4,32.6,0.1,47.9,3.6c40.7,11.3,79.9-7.3,115.9-24.7c40.6-19.8,92.2-12.3,126.9-44.2c90.6-85.7,52-221-53.4-273.8
		c-56.5-34.8-1.5-90-30.7-164.3c-13.7-33.3-28.9-66.3-44.8-98.6c-20.3-41.8-38.7-34.7-68-59.6c-16.8-23.2-17.1-53.3-27.9-79.1
		C559.1,19.3,526.8-11.8,490,6.1c-33.2,17.4-52.2,52.4-77.2,79.2c-25.1,28.8-52.8,32.4-87.2,42.7c-45.3,15.4-86.7,45.4-108.5,88.8
		c-10.5,20.3-24.6,47.9-51.4,44.5c-21.6-0.3-44.1-8.5-65.6-1.8C41.6,274.1,21.9,341.2,10,393.3c-8.8,44.6-17.1,113.8,0.5,156
		c9.7,26.6,27,50.6,35,78c9,28.6,5.6,59.3,10.7,88.5c5.5,42.8,41.2,59.5,80.5,46.1c24.6-9.8,47-26.1,64.2-46.1
		c4.9-5.6,13.7-7.7,20.5-10.1c3.1-1.9,8,1.8,10.8,3.1c6.8,10.6,15.2,20.9,21.4,31.8C266.4,772.3,288.5,802.2,319,818.7"/>
	<path vector-effect="non-scaling-stroke" class="st1" d="M354.7,814.7c-55.6-7.8-82.3-61.9-94.7-111.1
		c-3.4-14.7-7.9-28.7-18.4-39.9c-4.2-5-7.7-12-13.8-14.8c-4.9-2.6-15.8-5.9-21-3.9c-10.6,4.8-12.9,19.4-18,29.3
		c-5.9,13.8-12.8,28.7-23,40c-21.5,28.9-75.3,37.8-86.5-4.5c-9.1-29.5-4.8-62.2-16.3-91.3c-6.9-21.2-18.8-40.6-28-60.9
		c-9-18.9-13.6-40.2-16.5-60.8c-8.3-68.1,7.3-212.3,93-222.2c20.5-1.4,39.6,7.1,59.2,11.3c6.2,3.1,13.3,2.6,19.6,0.2
		c5.1-2.2,11.6-3.9,15.3-8.3c20.3-21.2,27.8-51.5,45.3-74.9c16.6-22.9,40.1-40.4,66-51.6c26-11.9,57.7-9.7,81.5-26.5
		c24.8-18.5,40.7-46.1,61.3-68.8C471,44.5,483.6,31.1,500,28c11.2-4.7,22.9,0.5,32.7,6.3c14.3,11.2,20.4,30.8,24.5,47.9
		c5.9,27.9,1.4,66.3,30,82.6c13.3,8.6,28.9,13.5,42.4,21.6c14.1,10.3,25.4,24.3,34.1,39.4c15.7,28.4,31.1,58,38,89.9
		c3.7,20.7,2.3,42.6-2.5,62.9c-4.7,25.7-14.4,58.6,6.8,79.5c17.1,16.5,41.1,21.8,60.7,34.4c34.1,22.7,57.5,61.2,63.4,101.6
		c7.3,49.4-16.9,103-60.7,127.8c-27.5,13.1-59,12.7-87.6,22.4c-37.5,11.5-74.9,37.8-115.5,25.6c-15.9-4.3-32.3-10.3-49-7.6
		c-24,5.1-43.5,21.6-64.9,32.6C423.7,812.9,388,820.9,354.7,814.7"/>
	<path vector-effect="non-scaling-stroke" class="st1" d="M325.6,789.4c-50.2-32.9-40.9-83.6-62.6-130.7
		c-6.6-17-20.5-28.6-31.9-42.3c-17-12.8-28.4-25.2-50.9-16.2c-16.8,19.1-15.1,47-21.8,70.2c-4.5,12.5-13.5,24.7-23.4,33.2
		c-8.7,2.1-20.8,3.2-27.5-3.9c-14.9-24.7-11.8-55.5-22.8-81.3c-4.4-16.9-14.3-31.9-23.2-46.7c-9.3-17-17.9-34.8-23.6-53.3
		c-17.9-66-12.1-142.4,26-200.4c22.7-30.2,56.5-34.9,89.2-17.8c9.5,3.7,19.5,9.6,29.1,12.1c19.4,1.4,30.1-5.4,41.6-20.3
		c28.7-41.3,34.2-87.6,83.1-115.4c26.4-18.1,60.3-12.7,89.3-22.6c16.7-8,28-23.6,38.4-38.2c7.4-11.5,17-21.8,24.6-33.1
		c4.7-6.7,13.4-12.5,19.2-18.1c3.7-4.8,11.8-8.5,17.7-9.5c20.2-8.1,33.4,11.2,40.2,27.7c6.7,27.5,0.3,58.9,14.5,84.4
		c11.1,19.9,41.9,22.2,60.6,33.2c40.8,19,61.5,69.8,73.8,110.5c10.1,38.1-7,75.3-12.3,112.6c-3.9,52.2,31.3,66.8,74.1,80.4
		c72,31.5,94.7,135.6,31.5,187.4c-23.4,21.2-57,20.4-86.2,27.3c-34.6,6.9-68.4,26.5-104.5,22.1c-35.3-7.5-53.8-19-88,4
		c-21.3,12.3-40.3,29.1-62.1,40.7C403.5,803.6,360.2,810.6,325.6,789.4"/>
	<path vector-effect="non-scaling-stroke" class="st1" d="M325.6,401.2c-25.4-13.9-19.6-48.7-5.5-68.8c6.6-7.2,17.8-9.9,27.3-10.4
		c11.2,18.3,12.7,43.8,5.5,63.7C348.5,400,338.5,399.9,325.6,401.2"/>
	<path vector-effect="non-scaling-stroke" class="st1" d="M321.5,770.5c-36.6-32.9-27.6-87.4-49.2-127.8
		c-10.7-19.6-27.4-34.8-41.1-52c-9.7-8.5-19.3-19.5-30.3-26.1c-9.7-2.1-20-8.2-29.7-2.6c-12,4.7-22.1,13.5-30.9,22.8
		c-2.5,7.2-12.1,7.7-18.1,10.5c-18.8-2.9-13-3.9-26.4-15.7c-8.1-5.7-13.6-14-19.1-22.1c-7.7-10.3-15.3-21-19.9-33.1
		c-18.7-43.8-21.9-93.7-10.2-139.8c8.4-32.9,24.5-71.6,61.1-79.4c17-0.9,33.5,4.9,47.2,14.9c8,5.1,17.9,10.1,25.5,15.9
		c11.6,2,27.1,4.8,37.1-3.1c21.2-12.1,31.3-35.7,42.8-56c6.8-12.6,10.1-27.3,18-39.1c22.5-40.9,58.1-61.7,104.1-44.3
		c2.1,2.1,7,2.9,9.7,4c2.3,2.4,7.1,4.3,10.1,3.7c10,5.8,12,5,22.2,0.7c5.7-7.6,7.6-17.8,9.2-27c5.2-9.9,6.1-22,12.5-31.3
		c4-7.9,7.5-17.9,13.7-24.3c1.5-8.1,8.4-13.6,14.6-18.3c7.7-6.7,14.3-15.7,25.7-9.9c2.2,0.9,4.8,0.9,5.3,3.8
		c4.8,1.9,9.2,7.7,10,12.8c2.5,19,1.7,38.8,2.1,57.9c4.4,68.7,98.3,2.3,144.1,118c27,60.6,1.4,91-6.4,148.1
		c-1.6,26.1,7.4,55.1,29.2,71c16.5,13,38.1,15.6,57.2,23c59,21.3,78.9,102.4,30.1,145.2c-16.5,14.8-39.6,17.6-60.8,20.3
		c-22.4,2.4-44.8,8.5-66.9,12.4c-22.4,4.6-45.4,1.1-67.6-3c-13.3-2.5-26.7-0.4-39.9,1.7c-33,14.2-57.8,41-87.2,60.8
		C412.5,788.4,358.3,803.2,321.5,770.5"/>
	<path vector-effect="non-scaling-stroke" class="st0" d="M408.5,770.5c39.4-13,68.3-45,98.8-71.5c56.4-46.2,103.3-26.2,167.1-35.8
		c24.3-3.2,50-1.9,73.6-8.3c6.3-5.9,15.4-11.7,21.5-17.7c10.9-21.6,10.3-50.7-8-67.9c-20.9-23.7-58.2-17.5-82.8-36.1
		c-31.6-23.4-44.1-66.8-40.7-104.9c4.7-30.6,20.7-58.9,21.3-90.3c-1.1-38.8-18.8-80-52-101.7c-41.6-21.2-80.5-9.7-117.9,13.5
		c-15,6.1-30.8,11.8-46.2,16.8c-19.9,5.8-41.5,15.1-50.2,35.3c-15.5,33.2-7.7,73-23.9,106.2c-6.7,6.5-14,13.6-21.8,18.9
		c-21,5.2-42.7-2.2-58.1-16.8c-9-9.3-15.5-22-21.8-33.1c-3.2-6.8-8.5-13.8-14.5-18.4c-3.6,1.9-9.1,2.6-12.9,4.1
		c-52.3,16-59.3-3.7-97.9-31.9c-14-9.7-33.3-13.4-48.4-4C79.5,333,72.7,349.4,65,362c-23.5,51.4-20.4,152.2,35.4,181.2
		c18.3,11.6,39.9-4,57.8-10c20.7-4.5,26.6-4.1,45.4,6.1c20.8,17.5,36.2,40.5,54,60.9c36.6,39.1,36.5,66.7,46.8,115.6
		C315,766.7,360.6,789.8,408.5,770.5"/>
	<path vector-effect="non-scaling-stroke" class="st1" d="M383.8,764.7c-64.9,5.5-71.4-55.3-79-104.4c-4.5-23.7-16.9-44.8-32.9-62.6
		c-12.3-14.8-24.6-30-35-46.2c-7.1-11.5-15.7-22.7-25-32.5c-5.5-8.6-15.4-12.6-24.7-15.8c-24.5-7.1-48.4,10.5-73,11.1
		c-9.6-0.1-18.7-6.6-26.6-11.5c-4.9-3.9-7.6-11.4-10.9-16.6c-10.8-18.9-15.3-40.9-14.4-62.5c0.6-25.7,9.5-51.1,23.7-72.5
		c8.7-5.4,18.3-14.2,29.1-13.1c15.6,3.6,28.2,12.8,38.5,24.7c8.1,9.8,18.8,18.4,26.9,28.2c8,4,16.7,9,25.4,11.4
		c11.3,2.7,23.8,4.1,34.5,9.1c12.5,3.2,22.1,12.8,33.5,18.2c15.5,8,32.8,14.2,50.2,16.8c64.5,6.3,67.9-57.9,78.3-104.8
		c6.6-29.6,29.9-48.4,58.5-55.5c16.1-4.8,33.1-8.1,48.1-15.9c18.6-10.2,37.1-25.8,59.4-25.4c48.8-3.4,77.6,51.7,75.8,94.7
		c-1.2,34.6-25,64.1-24.8,98.6c0.3,30.1,9.4,59.8,18.3,88.4c3.1,9.8,7.1,19.7,9.3,29.7c2.3,2.1,1.8,7.1,3,9.7c1.5,2,2.3,6.2,1.4,8.6
		c3,10.4,2.1,18.8-5.8,27.3c-11.1,13.9-30,18.8-44.9,27.5c-29.4,13.9-59.8,26.2-85.9,45.9C475.2,709.7,439.7,759.3,383.8,764.7"/>
	<path vector-effect="non-scaling-stroke" class="st1" d="M93.1,473.2c-18.3-17.4-21.4-63.7-8.9-86c-1.8-12.6,15.3-20.4,23.5-27.7
		c11.1-0.8,22.5,7.3,30.2,14.6c7,7.2,11.6,17.3,17.5,25.3c6.5,9.2,11.6,19.9,17.7,29.4c2,4.8,1.8,11.8,4.2,16.7
		c1.4,13.7-17.3,18.8-25.6,26.6C133.8,482.1,109.5,489.1,93.1,473.2"/>
	<path vector-effect="non-scaling-stroke" class="st1" d="M350.2,746.2c-40.9-29-25.5-88.1-48.3-127.8
		c-8.6-17.1-23.2-30.5-34.4-45.8c-12.1-15.5-21.5-33.1-30.2-50.6c-3.7-8.4-6.1-17.7-11.7-25.3c-1.4-8.3-5.1-17-9.2-24.3
		c10.3-35.6,64-14.4,90.4-12.2c29.8,6,63.5,3.5,81.3-24.3c23-30.9,16.3-74.9,39.2-105.8c17.3-25.8,50.8-25.7,78-32.6
		c19.4-5.6,35.2-20.3,52.8-29.8c32-9,55.4,11.1,65,40.7c19.3,54.7-35.4,82-24.6,130.1c4.3,32,16.1,63.5,16.1,96.1
		c3.3,50.4-35.6,81.3-74.2,105.5c-43.8,25.6-69,73.6-113.1,98.7C404.5,752.2,374.5,760.2,350.2,746.2"/>
	<path vector-effect="non-scaling-stroke" class="st1" d="M122.2,403.2c-14-17.1-21.8-0.1-21.1,15c-1.9,15,8.7,32.7,22.5,16.5
		c6.9-4.2,4.6-12.2,3.5-19C124.3,411.9,126.5,405.7,122.2,403.2"/>
	<path vector-effect="non-scaling-stroke" class="st0" d="M383.8,741.6c-37.8,1.9-50.4-30.4-55.6-62.3c-6.6-55.9-15-74.7-52.1-116.8
		c-12.7-19.4-22.5-41-21.7-64.6c7.3-21.1,32-23.1,51.3-21c57.8,8.1,93.7-9.1,109.6-67.4c9.5-31.3,13.4-70.2,48.5-83.1
		c21.1-4.7,43.5-0.5,64.8-0.6c14.3-0.8,19.9-16.3,31.3-22.4c19.7-7.1,19.3-13.8,35,4.9c8.1,6.4,5.9,19.7,5.5,28.9
		c-4.7,7.5-11,15.8-17.9,21.6c-24.4,10.2-28.8,14.3-24.9,41.1c6.7,24.2,22.5,46.5,29.7,71.2c23.3,71,1,118.2-58.1,160
		C480.1,666.2,450.5,738,383.8,741.6"/>
	<path vector-effect="non-scaling-stroke" class="st1" d="M354.7,716.6c-26.4-31-15.8-77.5-32.4-113.2
		c-8.5-22.4-27.6-38.6-38.2-59.8c-3.2-5.5-4.1-13.4-5.9-19.4c-3.1-5.7,2.2-12.9,5.9-17.1c21.5-29.2,78.9,11.1,121.4-43.6
		c12-15,19.2-33.7,24.6-52c4.8-14,6.8-30.6,15.9-42.6c4.7-6.9,10.9-13.5,17.6-18.5c20.6-2.9,35.5-0.5,47.2,18.5
		c10.8,17.3,15.5,37.9,27.1,54.8c22.3,30.1,46.3,64.2,41.7,103.7c-1.9,55.8-50.1,82-83.7,118.7c-25.3,28.3-46.8,63.1-83.2,78.3
		C393.9,731.8,368.5,734.5,354.7,716.6"/>
	<path vector-effect="non-scaling-stroke" class="st1" d="M383.8,717.3c-45.7-6-37.8-77.2-47.3-111.1c-3.2-13.2-6.5-27-13.5-38.8
		c-2.6-4.9-3.9-11.2-6.6-16c-5.1-6.2-4.5-16.5,0.1-22.7c7.1-14.6,29.9-9.1,42.9-16c20.1-5.1,39.2-16.6,53.5-31.6
		c19.2-19,25.3-46.2,37.4-69.6c2.8-6.2,7.3-14.7,10.5-20.8c1-0.1,9.9-3.5,7.9-5.5c11,0.8,17.1-1.2,24.1,9.2
		c9.7,15.6,20.3,30.9,31.7,45.3c11.9,14.3,25.1,28.4,33,45.4c18.6,38.1,1.5,83.7-28.3,110.9c-15.5,15.2-31.2,30.5-44.7,47.5
		C459.8,676.3,429.9,721.6,383.8,717.3"/>
	<path vector-effect="non-scaling-stroke" class="st1" d="M352.5,644.6c2.4,18.2,5.5,38.9,18.1,52.9c20.1,15.9,46.7,6,64.1-9.2
		c21.4-17,35.1-42,51.1-63.8c21.1-28.7,55-51.2,61.6-88.2c9.9-45.4-28.9-76-61.8-99.4c-6.5,1.4-16.5,1.7-22.1,5.4
		c-6.3,12.9-15.3,24.8-23.7,36.2c-10.4,15.7-25.4,27.7-41.4,37.4c-14.7,9.4-33,16.8-44.4,30.2c-8.7,14.3-7.1,32.1-5.8,48
		C349.4,610.8,350.4,627.9,352.5,644.6"/>
	<path vector-effect="non-scaling-stroke" class="st1" d="M436.9,673.2c15.5-14.6,26.3-34,37.3-52.1c10.1-15.8,21.3-31,33.1-45.5
		c8.6-8.4,13.2-19.8,18.8-30.2c2.6-8.5,4.5-18.9,3-27.6c-7.7-24-18.8-34-43.6-39.3c-21.9,7.5-26.7,18.7-43.6,31.3
		c-22.7,20.5-57.1,28-72.7,56c-12.8,30.8-9.8,70.8-1.5,102.6c2.6,11.6,13.5,18.7,23.3,23.9C408.5,693.5,425,685.7,436.9,673.2"/>
</g>
</svg>
