<?xml version="1.0" encoding="utf-8"?>
<!-- Generator: Adobe Illustrator 28.0.0, SVG Export Plug-In . SVG Version: 6.00 Build 0)  -->
<svg version="1.1" id="Layer_1" xmlns="http://www.w3.org/2000/svg" xmlns:xlink="http://www.w3.org/1999/xlink" x="0px" y="0px"
	 viewBox="0 0 743.8 697.4" style="enable-background:new 0 0 743.8 697.4;" xml:space="preserve">
<style type="text/css">
	.st0{fill:#FF7D2E;stroke:#000000;stroke-miterlimit:10;}
	.st1{display:none;fill:#FF7D2E;stroke:#000000;stroke-miterlimit:10;}
</style>
<g id="surface1297">
	<path vector-effect="non-scaling-stroke" class="st0" d="M242.2,460.4c-26.7-37.6-28-83.6-1.4-121.5c15.4-21.4,38.5-37,59.2-52.8
		c35.5-28.9,69.1-65.2,115.7-74.8c5.8,0.5,13.3-2.5,19-2.7c2.6,0.7,7.9,0.7,10.5,0.3c8.9,1.2,19.3-0.5,27.6,3.4
		c14.6,0.8,29.2,7.2,39.9,17.3c15.6,10.8,8,34.1-0.3,47.5c-12.3,15-25.1,31.3-40.9,42.7c-24.6,21.5-55.3,35.2-81.2,54.1
		c-27.4,19.1-46.3,47.2-66.7,72.3c-9.2,16.1-25.9,25-40.6,34.1C267.3,478.4,250,475.1,242.2,460.4"/>
	<path vector-effect="non-scaling-stroke" class="st1" d="M137,833.2c5.8,2,16.7,5,22.8,6.5c37.2,3.3,74.3-5.9,109.7-16.6
		c26.4-5.3,53.2-10.9,79.6-15.9c44.8-8.5,90.4-15.9,134.3-28.4c29.9-9.4,58.7-23.4,87.6-35.4c38.7-20.2,83-32.4,115.5-62.7
		c36.8-31.9,32.5-86.6,58.7-125.2c20.7-31,46.3-59.2,66.7-90.6c21.4-35.1,37.9-73.5,57.4-108.9c6.5-10.4,14-21.2,15-33.8
		c-0.4-4.7,5.5-16.1,2.4-20.4c-6.5-15.1-12.8-30.9-22.2-44.5c1.6-3.4-5-9.2-5.4-12.1c1.7-6.8-3.1-13.6-3.4-20.2
		c-7.2-66.8,4.9-127.2-37.2-186.7C764.9-38,667.9-50.6,585.2-76.9c-54.5-13.8-109.8-33.3-167.2-25c-25.9,1.6-51.3,11.9-77,13.1
		c-8.1,2.7-17.8,0.4-26.1,2.2c-11.3-2.9-24.2-4.3-34.5-9.8c-32.7-18.3-61.7-43.3-96.4-57.9c-53.3-23.8-113.9-22.4-171-27
		c-82.1-4.7-129.9,26.7-169.3,97.7c-20.5,38.4-41,80.9-35.1,125.5c3.6,26.3,13.7,52,19,78c3.7,44.6-18.9,87.6-12,132.5
		c5.2,38.7,22.9,75,39.4,110c10.2,28.3,19.3,58.4,33.1,85.3c11.2,29.7,31.3,55.9,52.9,78.8c17.3,18.7,38.3,34.4,54.2,54.3
		c37.6,35.5,34.4,91.3,45.8,137.9C51.6,769.6,88.6,814,137,833.2"/>
	<path vector-effect="non-scaling-stroke" class="st1" d="M140.5,769.8c62.2,35.6,181.6-2.4,251.4-12.2
		c81.7-12.8,165.4-46.4,218.9-111.8c22.6-29,32.1-65.7,55.5-94.1c17.2-21.9,41.1-38.1,61.2-57.2c40.7-35.8,69.5-85.4,73.4-140.1
		c4.3-38.9-2.7-79.5,1.9-118.4c4.4-43.9,15.9-89.3,3.8-132.9C787.8,23.4,707-10.6,634.7-28.1c-45.4-12.9-91-26.3-137.4-35.1
		c-38.7-7.3-79.1-5-116.9,5.8c-34.2,7.4-70.3,21.6-105.3,10.1c-34.3-12.2-59-42.3-90.6-58.9c-60.1-33.5-137.9-33.7-204-23.6
		c-35.6,8.5-66,32.1-83.6,63.9c-14.2,25.4-24.6,56.1-18.1,85c7.2,41.9,46,66.2,67.3,100.3c0.6,10.3,2.9,26.6-1.8,35.5
		c-18.8,26.9-47,49.3-54.4,81.8c-9,35.7,8.3,72.1,13.6,106.9c9.6,42.4,15.2,88,40.1,124.4c14.7,25.3,36.3,45.2,57.3,64.6
		c22.1,17.9,43.6,38.5,56,63.8C90.6,656.7,70.9,726.2,140.5,769.8"/>
	<path vector-effect="non-scaling-stroke" class="st1" d="M175.2,738.2c58,22.7,122.9,6.4,182-4.1c50.6-9.2,102.9-18.3,147.3-45.8
		c30.4-18.3,55.9-45.3,72.9-76.1c16.8-32.3,34.1-64.1,59.8-89.9c21.5-22,48.8-38.5,72-58.5c56.3-45.8,60.8-108.4,60.9-175.6
		c0.9-81.1,44.3-174.1-26-238.5C700.4,9.4,639.3-2.6,584-17.7c-44.9-10.5-89.9-25.5-136.1-23.7c-35.5,0.5-69.8,12.7-102.9,23.3
		c-28.1,8.6-58.1,15.4-86.3,4.3c-24.3-8-44.1-26.9-64.1-41.9C161.2-82.5,120-97,77.4-97.3C40.6-97.7-0.7-96-31.5-74.1
		c-16.9,10.7-26.1,26.2-33.3,43.9c-2.7,17.4-3.7,35.7,6.5,50.4c7.7,16.9,23.9,28.1,36.6,40.4c19.9,18.3,34,41.3,33.3,68.5
		c-0.6,49.8-30.5,91.3-51.4,133.8c-15.8,39.7-17.3,84.6-14.1,126.1C-48,459.5-3,495.8,45.5,538.9c23.3,20.6,39.6,47.6,51.4,75.5
		C114.4,659.5,123.4,720.6,175.2,738.2"/>
	<path vector-effect="non-scaling-stroke" class="st1" d="M176.3,697.5c-24.9-18.2-36.7-48.3-49.2-75.4
		c-15.7-36.6-35.8-72.5-65.7-99.4C41,503.4,18.2,485.2,1.3,463.1c-30.9-40.2-32.2-94.8-14.4-140.4c13.5-34.4,31.8-66.8,41-102.7l0,0
		c13.5-50.2,35.2-125.2,8.5-172.9C27.2,33.7,18,18.8,8.1,6.4C2.1-0.7,5.8-12.5,5-20.7c1.8-15.1,19.6-20.6,30.9-26.6
		c7.7-3.9,17.1-6.8,25.2-6.5c4.8-2.5,12-3.1,16.5-1.6c17.3-2.8,34.8,1.9,51,6.2C167.8-35.8,196.3-4.5,234,11.2
		c44.1,22.1,93.4,4.1,135.6-13.2c27.9-10.5,57.5-17.7,86.9-17.9c45.7-0.9,90.2,13.1,133.6,23.7C655.9,19.2,738.9,41.2,758.6,114
		c11.8,46-2.8,92.7-6.5,138.3c-5.8,45.2-4.5,93-22.8,135c-26.4,60.8-95.4,85-133.3,136c-43.8,53.1-60,119.2-125.8,151.5
		c-36.5,19-77.3,26.4-116.1,34.6C295.4,720.4,228,733.8,176.3,697.5"/>
	<path vector-effect="non-scaling-stroke" class="st0" d="M238,693.3c57.2,13.1,192.4-17.2,238.1-54.8
		c37.7-30.4,56.7-76.6,86.9-113.4c29.8-40.3,69.4-71.5,107.1-103.9c64-54.5,55.3-146.2,69.2-221.3c25.6-138.6-75.6-160.7-184.2-186
		C502.4,1.8,446.9-6.9,395.6,11.2c-101,38.7-113.7,55.1-219.3,11.5c-5.4-2-11.9-4.5-16.4-6.7c-5-1.1-12.3-0.6-16.4-1.8
		c-15.8-4.8-30.2,3.8-39.9,14.9c-14.8,27.6-17.4,60.6-25.4,90.3C65.1,172.2,61.4,228.4,42.6,279c-28.4,62.4-65.2,110.1-20.7,176
		c18.4,24.7,43.3,43.2,63.6,65.2c17.6,17.9,30.8,39.9,43.2,60.3C152.8,628.5,179.9,684.7,238,693.3"/>
	<path vector-effect="non-scaling-stroke" class="st1" d="M238.5,668.7c54.3,17.9,153-9.8,201.6-38.1
		c42.4-25.6,65.2-71.7,96.3-108.6c24.7-29.5,51.4-57.4,79.5-83.7c24.9-23.2,52.9-45.2,69.9-75.3c23.3-43.2,27.6-93.5,34.8-141.3
		c9-58.9,10.2-120.4-49.2-152.8c-27.9-16.6-60.5-24.5-91.8-32c-29.9-7-60.5-13.8-91.1-16.6c-53.2-6.1-103.8,13.4-150.7,36.3
		c-94.1,45.9-144.3-16.1-195.7,15.3C90.9,107.2,90.9,199,78.2,254.4c-7.2,41.9-34.5,77.1-46.7,117.1
		c-18.1,69.7,43.4,103.1,79.7,150.7C152.6,571.1,170.4,649.4,238.5,668.7"/>
	<path vector-effect="non-scaling-stroke" class="st1" d="M209.2,629.3c-27.3-21.6-44.2-54-62.4-82.6
		c-15.3-25.9-33.6-49.4-52.8-71.9c-78.6-80.7-21.3-119.2,3.4-204.6c16.5-57.1,7.8-133,63.9-168.5c39-15,79.9,2.8,119.5-4.1
		C342.1,85,393.1,40.7,456.7,38.1c45.2-2.9,90.9,7.2,134.2,17.2c60.9,14.4,120.1,43.6,117,114.8c-1,55.8-10,126.6-37.5,175.2
		c-23.2,38.4-60.7,66-90.9,98c-29.9,30.7-60.8,61.3-88.1,93.9c-21.5,24.6-41.6,52.3-68.4,70.3C364.7,643.7,267.8,677,209.2,629.3"/>
	<path vector-effect="non-scaling-stroke" class="st1" d="M242.2,626.1c-50.4-20.9-73.2-75.5-102.1-117.7
		c-22.8-37.8-63-71.2-60.3-118.5c3.2-29.3,17.6-55.9,27.6-82.8c10.2-27.1,18.2-55.4,23-83.6c5-25.8,11.4-52.1,26-73.8
		c8.6-10.8,23.1-16.2,35-21.2c19.5-3.1,40.2-2.5,59.4-2.7c19.8-2.2,39.7-6.5,57.5-13.5c50.2-21,98.1-52.1,152.3-55.8
		c56-2.5,166.4,12.8,204.7,52.6c39.1,37.3,26.7,98,19.9,144.9c-7.3,44.4-27.3,86.3-59.1,117.1C574.4,421.6,523.9,472.4,471,520.4
		c-25.9,26.4-49.4,55.8-79.7,76.4C348.6,625.3,292,645.7,242.2,626.1"/>
	<path vector-effect="non-scaling-stroke" class="st1" d="M337.2,601.6c46.7-19.5,73.8-64.2,110.4-96.5
		c23.7-21.2,50.4-39.4,74.6-60.1c35.5-33,71-66.5,103.9-102.1c38.8-43.5,52.1-104,49.8-161c-4.5-55.2-37.2-78.6-87.5-93
		c-39.4-9.7-80.4-15.3-121-13.5c-57.7,3.3-107.7,34.7-158.7,58.6c-29.3,13.7-61.4,18.5-92.7,25c-41.8,7.9-56.9,51.7-66.3,88.2
		c-9.3,27.4-18.7,55.1-29.7,81.9c-34.6,83.3-4.1,108.5,37.7,177.9C199.6,580.5,244.9,640.3,337.2,601.6"/>
	<path vector-effect="non-scaling-stroke" class="st0" d="M270,593.8c31.5,5.1,63.9-10.7,87.2-31.2c25.4-22.5,44.1-51.5,68.7-74.8
		c24.9-22,54.7-37.8,80.5-58.5c37.7-29.9,72.5-64.4,105.8-99c26.1-29,43-66.4,45.6-105.5c2.7-26.5,1.7-57-13.4-79.8
		c-25.8-34.9-71.8-43-112.3-48.3c-58.7-7.8-119,4-171,31.7c-29,14.5-56.7,31.2-86.1,43.8c-41.5,15.9-80.1,29.5-98.3,73.8
		c-13.8,23.6-23.8,50.4-33.8,75.3c-14.2,35.1-23.5,74.2-9.4,110.1c10.7,27,25.8,52,39.9,76.7C195.2,545.3,223.5,589.5,270,593.8"/>
	<path vector-effect="non-scaling-stroke" class="st1" d="M240.3,563.6c-43.2-27.5-69.1-87.3-88.1-133.3
		c-10.8-33.3-5.6-69.1,7.2-101c10.8-26.7,23.4-53.8,41.8-76.1c22.5-29.5,57-45.1,88.1-63.5c36.1-21.4,72.2-43.9,111.8-58.5
		c57.5-21.2,192.8-29.5,228,30.6c27,48,9.4,110.9-24.7,150.9c-33.6,36.5-70.7,70.5-110.3,100.4c-46.4,29.5-83.6,49.4-116.6,95.6
		c-16.4,20.6-33.1,42-56.6,55C297.2,577.7,263.1,580.4,240.3,563.6"/>
	<path vector-effect="non-scaling-stroke" class="st1" d="M169.6,428.1c19.5,65,77.3,168.9,154.9,107.9
		c22.9-17.5,37.6-43.3,56.5-64.5c16.2-20.2,36.8-36.7,58.8-50.2c55.4-30.4,104.3-71.6,148.2-116.8c19-23.3,35.3-50.9,35.1-81.8
		c0.2-18-2.4-39.6-16.2-52.6c-31.3-37.5-89-33.5-133.6-32.8c-66,1.3-124.8,33.7-177.3,71.1c-28.3,20.8-60.3,39.2-83.3,65.9
		C177,315.9,154.4,373.9,169.6,428.1"/>
	<path vector-effect="non-scaling-stroke" class="st1" d="M267.9,531.2c52.6,9.5,80.1-56.4,111.2-87.6
		c17.4-18.9,38.4-34.3,60.6-47.1c39.9-22,76.3-49.9,109.3-81.2c8.5-6.6,15.5-15.4,22.3-23.6c7.6-8.3,16.2-18.3,19.8-29.1
		c3-8.1,8.3-16.2,7.8-25.1c0.4-11.1,2.4-23.3-3.2-33.5c-14.6-45.9-83.2-44.5-123-44.2c-64.5-0.1-115.6,25.3-164.9,64.9
		c-29.4,22.8-61.4,43.3-86.6,71c-39,44.1-49.6,105.2-25.2,159.2c10,20.8,20,43.3,38.2,58.4C244.1,523.5,253.4,530,267.9,531.2"/>
	<path vector-effect="non-scaling-stroke" class="st1" d="M242.2,494.1c-35.8-35-51.1-92.5-33.3-139.8
		c11.6-36.6,43.8-61.4,72.8-84.1c43.9-33.2,85.6-76.1,141.9-84.4c36.7-5.4,129.1-7,142.7,34.4c2.4,12.4,3.5,26.4-3.5,37.2
		c-3.7,8.4-6.9,18-14,23.8c-12,11.9-22,26-35.4,35.7c-36.4,36.2-84.5,56.4-123.6,87.9c-23.1,18.1-38.6,43.2-57,65
		c-15.4,20.7-26.2,28.8-49.3,39.3C268.9,507.8,252.1,505.6,242.2,494.1"/>
</g>
</svg>
