<?xml version="1.0" encoding="utf-8"?>
<!-- Generator: Adobe Illustrator 28.0.0, SVG Export Plug-In . SVG Version: 6.00 Build 0)  -->
<svg version="1.1" id="Layer_1" xmlns="http://www.w3.org/2000/svg" xmlns:xlink="http://www.w3.org/1999/xlink" x="0px" y="0px"
	 viewBox="0 0 1080.8 823" style="enable-background:new 0 0 1080.8 823;" xml:space="preserve">
<style type="text/css">
	.st0{fill:#FEB8D6;stroke:#000000;stroke-miterlimit:10;}
	.st1{display:none;fill:#FEB8D6;stroke:#000000;stroke-miterlimit:10;}
</style>
<g id="surface1192">
	<path vector-effect="non-scaling-stroke" class="st0" d="M654.7,356.4c-12.9-5.3-27-9.2-36.2-20.5c-4.3-3.4-9.6-8.7-10.8-14.3
		c1-5-2.4-10.7,0-15.7c10.5-18.7,27.3-30.4,47-38c20.9-6.9,47.7-7.2,65.8,6.5c9.6,7.1,14.9,10.6,14,23.4c0.6,16.6-14.1,30-23.1,42.9
		C693.8,357.2,677.9,360.2,654.7,356.4"/>
	<path vector-effect="non-scaling-stroke" class="st0" d="M485.5,821.9c-32-3.3-61-21-88.4-36c-27.1-15-56-27.6-78.6-48.6
		c-20-18.6-32.1-44.1-49.5-64.4c-22.9-26.8-50.6-49.9-79.2-69.7C148,572.5,87.4,531.4,74.7,479.3c-6.4-25.4,8.6-49.8,9.8-74.5
		c1.6-48.2-60.9-56.4-70.1-98.7c2.1-7.2,2.6-15.1,6.1-21.4c5.9-8.7,13-18,16.3-27.7c9.6-18.5-2.5-39.1-8.7-56.4
		c-8.4-23.4-18.5-46.5-23.6-70.5C-19.3,41.4,61.2,1.9,137.6,5.2c32.8-0.2,65.5,5.9,97.9,4.3c36.4-2.3,72.3-11.1,108.7-8.6
		C398.5,3.4,452,26.2,506.4,18.4c79-11.4,140.5-29.5,218.3,2.3c56.1,20.9,118.8,20.6,171.9,48.6c41.3,21.2,52,52.7,67.7,92.9
		c9.7,22.8,25.5,42.5,40.5,61.7c8.3,7.7,16.4,16.1,23.1,24.8c17.3,14,32.1,31.7,43,50.6c27.2,56.7-10.6,98.6-48.4,136.6
		c-41.6,42.6-88,81.2-142.4,105.6c-21.8,7.5-42,19.8-63.1,27.7c-18.3,12.2-37.2,24.1-54.9,36.3c-28.7,18.7-57.6,36.4-79.5,62.8
		C638.1,738.8,581.1,830.9,485.5,821.9"/>
	<path vector-effect="non-scaling-stroke" class="st1" d="M452.5,755c27.7,12.4,61.2,16.1,87.3-2.1c16.5-9.7,26.4-27.6,38.9-41.4
		c14.8-23.1,35.7-41.9,54.8-61.4c22.9-22.6,49.4-41.2,77.4-56.9c24.1-14.8,48.7-29,74.3-41.1c51.5-20.2,105.6-36.8,149.4-72
		c23.5-19.4,46.1-40.2,66.5-62.9c27.8-27.4,57.6-67.5,37.9-107.6c-15.9-31.2-45.3-52.8-67.8-79c-16.4-19.9-32.1-40.2-45.7-62.1
		c-7.9-13.6-13.2-29.1-21.9-42.4c-16.1-25.7-44.2-41.5-73.2-48.6c-34-9.4-70-9.2-104.2-17c-28.9-6.3-56.6-18.6-85.9-22.9
		c-51.8-8.6-103.6,7.5-155.2,10.2c-40.7,3.2-84.8-12-126.7-13.6c-38.9-3.1-76.7,11.3-115.4,11.1c-33.1-0.2-65.6-11.2-98.7-11.7
		c-38.1-1.7-85.2,9-99.6,48.8c-8.6,39.9,19,87.3,43.9,117.1c20.6,27,81.7,54.4,55.2,93.6c-28.1,37-6.9,67-8.3,107.6
		c-4.5,56.5-20.4,80,20.9,130c20.6,25.8,48.9,45.1,74.7,64.8c22.3,17.4,44.1,35.7,65.9,52.8c27.2,20.4,51.8,43.5,77.5,64.4
		C398.5,730.9,425.6,742.9,452.5,755"/>
	<path vector-effect="non-scaling-stroke" class="st1" d="M396.5,660.9c33.8,3.3,68.2-2.3,101.9-4.8c47.4-2.7,87.6-13.4,123.9-45.9
		c17-14.5,33.3-31.1,53.4-41.3c37.1-19.4,78.2-30.1,117.9-42.7c47-12,93.4-30.6,130.4-62.6c33.1-27.5,65.3-58.7,87.7-95.7
		c26.6-51.1-22.6-86.7-53-121c-24.1-28.9-50.1-57.6-71.3-88.3c-31.3-54.6-73.1-63.3-131.5-66.4c-21.1-1.3-42.4-3.6-62.5-9.3
		c-28.9-9.5-57.7-21.1-87.9-23.9c-60.2-4.8-119.2,22.1-178.7,10.4c-30.3-4.7-60.7-9.5-90.7-5c-30.1,5.1-59.8,16.7-90.2,14.4
		c-33.9-1.1-66.4-17.4-99.3-18.2c-25.3-1.4-58.6,7-63.6,34.2c-7.8,41.1,46.7,95,75.3,119.4c18.8,15.9,37.1,32.2,53.1,49.7
		c4.8,7.6,11.7,22.2,4.2,28.8c-11.8,17-29.9,29.1-37.7,48.3c-10.9,28-5.7,59.9-9.3,88.7c-13.1,95.6,54,129.2,118.6,180.8
		C318.9,635.1,356,656.6,396.5,660.9"/>
	<path vector-effect="non-scaling-stroke" class="st1" d="M338.1,615.8c36.8,18.5,78.7,18.8,118.9,15.6c31.1-2.6,63.5-3.8,93-14.2
		c20.5-8,41.4-23.2,43.6-46.1c-6-34.2-69.2-45.7-97.8-51.9c-31.9-5.4-66-3.3-95.2-17c-16.4-6.8-22.9-15.7-25.4-32.7
		c4.3-14.3,15-25.9,29.5-29.3c28.6-10.8,59.9-4.9,87.5,5.1c13.5,5.9,26.8,14.6,40,20c11.3,4.4,21.6,12.2,32.5,15.9
		c14.2,4.5,27.5,12,41.1,17.6c23.4,8.7,45.3,21.2,70,23.7c58.7,5.3,128.1-11,181.4-34.6c42.5-20.1,76.8-53.3,106.7-88.7
		c60.8-68.9,19.2-95-27.9-150.7c-20.3-24.8-42.8-48.6-64.3-71.7c-20.8-20.8-39.9-45.1-69.5-52.5l0,0c-36.5-11-76.5-7-112.9-17.7
		c-56.5-19-93.1-37.2-154.7-23.5c-34.8,5.4-68.5,24.5-104,21.9c-27.5-2.6-55-12.3-82.7-7.7c-36.6,4.8-72.6,16.4-109.4,15.3
		c-16.7,0.1-34.3-2.1-49.9-6c-13.6-1.7-29-7.3-41.3-1c-6.6,9.2-2.2,24.4,3.3,33.6c2,4.5,4.5,10.8,7.7,14.3
		c2.8,5.4,5.1,12.2,8.9,16.7c30.5,48.7,84.7,92.9,144.9,85.2c49.7-9.4,56-35,72.4-76.7c7.9-17.7,27.8-39.4,48.6-33.6
		c9-0.3,12.6,1.3,17.9,8.3c7.9,6.1,13.2,14.9,17.7,23.3c6.1,9.2,2.4,22.3-2.4,31c-7,5.9-12.2,14.1-19.3,19.2c-5,5-13,6.2-18.2,10.2
		c-8.4,6.9-19.3,10.9-28.2,15.7c-21,12.2-37.1,31.6-58.2,42.4c-51.3,28.1-128.6,17.7-139.3,92.2c-5.8,58.2-8.3,119.2,42.2,158.7
		C275.1,571.1,305.4,595,338.1,615.8"/>
	<path vector-effect="non-scaling-stroke" class="st1" d="M260,215.2c-12.9-5.6-23.4-15.1-31.4-26.5c-2.8-6.3-4.1-20.6,0.3-25.9
		c22.8-17.6,60.8-23.4,87.7-13.7c10,4.2,18.5,14.7,16.7,25.9c-0.6,6.2-1.2,14.8-5.4,19.8c-3.3,6-6.6,13-12.9,16.3
		C296.8,220.9,279.5,221.5,260,215.2"/>
	<path vector-effect="non-scaling-stroke" class="st0" d="M344.6,588.7c-6.4-3.1-11.3-9.4-17-13.5c-10.3-6.4-18.1-16.4-27.9-23.4
		c-16.9-14-36.5-27.2-47.2-46.8c-9.6-20.7-13.6-43.6-15.3-66.3c-2.4-23.9,1-50.3,17.6-68.4c22.3-19.4,55.2-20.9,81.5-29.5
		c20.1-5,37-16.7,51.9-29.4c13.8-14.1,27.2-27.9,41.8-40.6c14.1-11.7,30.6-21.9,44.4-33.4c36.8-30.9,28.5-52.5,24.3-94.3
		c2.3-32.4,41.8-42.1,68.1-44.5c34.5-4.7,66.9,9.7,98.1,20c26.9,10.2,54.3,14,82.1,17.9c21.6,2.9,44.5,7.4,63.6,17.7
		c31.9,18.6,59.4,44.4,84.7,70.3c15.4,16.3,28.2,34.2,41.8,51.3c12.6,15.5,26.5,30.8,33.2,49.6c9.6,35.7-21.3,65.3-42,90.4
		c-35,41.6-83.8,70.5-136.5,81.2c-45.3,9.6-92.7,11.7-136.6-3.8l0,0c-35.1-12.8-71.3-24.7-104.1-42.6
		c-45.6-26.2-95.5-53.2-149.5-44.3c-90.2,12.5-104,111-7.9,128c35.4,7,73.3,6.3,107.3,17.3c8.6,4.2,17.5,8.3,24.9,12.9
		c0.5,3.1,4.2,5.7,5.9,6.9c-0.4,5.1-0.8,10.8-1.2,15.3c-12.3,10.8-30.4,14.5-45.4,17C437.8,611.3,386.8,613.8,344.6,588.7"/>
	<path vector-effect="non-scaling-stroke" class="st1" d="M647.8,475.5c6.5,2.2,14.3,4.5,21,5.9c68.5,17.9,146.8,7.8,204.5-35.1
		c29.8-25.7,58.4-56.5,71.4-94.2c8.3-28.5-14.5-53.8-28.7-76.4c-20.9-33.5-48.3-63-80.9-85.3c-53.4-41.5-112-36.9-173-56
		c-25.6-7.1-51.2-17.5-78.2-17.2c-28-0.7-54.6,12.6-56.4,43.4c-0.9,51-18,69.8-56.3,100.1c-21.2,15.9-40.1,36.2-51,60.5
		c-4,8.9-10.5,24.3-5.3,33.3c4.1,12.1,16.6,17.6,27.8,21.4c13.8,7.4,29.1,12.4,43,19.8c30.2,13.5,57.5,33.1,86.9,48.2
		C596.2,457.1,623.7,465.1,647.8,475.5"/>
	<path vector-effect="non-scaling-stroke" class="st1" d="M682.9,472c-31.7-7.2-63.1-17.1-92.2-31.9c-25.5-12.4-48.8-29.8-72.8-44.1
		c-23-14.7-48.4-27.4-65.1-49.1c-1.8-7.2-4.6-15.5-3.6-22.7c2.4-8.2,3.5-17.6,8.9-24.2c16.9-27.3,45.7-43.7,65.5-68
		c41.2-50.8,10.8-107.5,104.5-88.9c48.5,13.2,98.4,18.2,146.1,32.9c65.1,23.3,117.2,71.9,138.2,138.1c14.5,36.7-8.8,75.2-31.6,102.6
		C833.7,473.8,751.9,484.5,682.9,472"/>
	<path vector-effect="non-scaling-stroke" class="st1" d="M648.4,451.6c63.9,20.3,140.8,20.8,195.3-22.9
		c33.5-30.6,45.7-78.6,41.4-122.7c-8.5-53.9-53.6-91.2-101.7-111.3c-33.5-13.7-69.7-19.7-105.2-25.4c-28.3-3.5-59.9-14.7-87.2-2.4
		c-16.7,6.8-23.8,24.8-31.8,39.7c-10.6,16.8-22.4,33.5-37.2,46.8c-18,18.3-43.8,35.4-48,62.3c-6.1,29.2,21.8,49,42.7,63.9
		C557.8,407.9,599.3,439.4,648.4,451.6"/>
	<path vector-effect="non-scaling-stroke" class="st1" d="M682.9,449.6c-45.3-8.3-87.1-28.8-124-56.1
		c-28.1-21.5-79.7-48.4-62.6-90.6c12.7-24.4,36-40.8,54-60.9c22.2-22.9,37.9-59.3,73.1-62.6c28.5-3.8,57.7,2.6,85.5,6.8
		c47.2,7.7,95.3,23.9,129.4,58.2c30.9,32.8,26.2,68.2,14.1,107.8c-4.9,19.9-7.6,42.3-21,58.6C796.1,453.6,734.1,457.5,682.9,449.6"
		/>
	<path vector-effect="non-scaling-stroke" class="st0" d="M765.8,433.2c50.6-16.7,49.9-56.2,66.4-98.8c43.8-95-76.7-132.6-149.2-140
		c-55.1-5.5-76.6,2.8-112.8,44.4c-22.1,27.2-77.7,60.1-53.9,99.6c14.1,23.8,39.9,38.4,61.3,54.7C631.2,431.9,701,452.6,765.8,433.2"
		/>
	<path vector-effect="non-scaling-stroke" class="st1" d="M678.5,426.6c43.7,8.5,100-2.9,114.6-50.7c6.1-15,11.9-30.7,18.7-45.3
		c7.9-17.7,15.6-38.3,8.1-57.1c-21.5-54.1-122.9-73.1-174.6-65.9c-43,5.6-73.2,47.6-102.7,75.7c-35.3,39.5-3.8,68.2,29.7,92.4
		C604.3,399.6,639.2,419.1,678.5,426.6"/>
	<path vector-effect="non-scaling-stroke" class="st1" d="M649.5,406.9c49.7,17,103.9,12.7,125.2-42.3
		c10.9-27.6,36.4-56.1,27.1-87.2c-11.6-36.9-66.9-51.9-101.4-56.5c-36.3-5.8-75.2,1-102.7,26.7c-31.6,28.4-81.2,64.9-35.1,105.2
		C588.1,375.2,617.1,396.6,649.5,406.9"/>
	<path vector-effect="non-scaling-stroke" class="st1" d="M682.9,401c-24.6-3.9-48.2-12.1-68.8-26.3c-13.5-6.6-25.1-17.8-37.1-26.6
		c-4.8-5.7-8.7-12.7-12.9-18.8c-7.1-20.2,6.2-39.7,21-52.7c15.8-15.6,33.8-31.1,55.2-38.2c52.2-20.3,179.7,7.8,134.1,84.6
		c-10.6,20.3-21.8,41-36.3,58.8C724.1,397.3,702.6,400,682.9,401"/>
	<path vector-effect="non-scaling-stroke" class="st1" d="M654.7,378.1c-9-4.5-19.3-7.2-28-12.4c-9.2-6.5-19.4-12.3-28.3-19.2
		c-4.8-7.6-13.4-14.4-15.9-23.1c0.5-5.8-1.7-15,1.8-19.9c30.9-53,99.3-73.5,153.9-44.7c46.4,25.3,16,64.5-6,95.6
		C711.6,381.6,686.7,387.4,654.7,378.1"/>
</g>
</svg>
