<?xml version="1.0" encoding="utf-8"?>
<!-- Generator: Adobe Illustrator 28.0.0, SVG Export Plug-In . SVG Version: 6.00 Build 0)  -->
<svg version="1.1" id="Layer_1" xmlns="http://www.w3.org/2000/svg" xmlns:xlink="http://www.w3.org/1999/xlink" x="0px" y="0px"
	 viewBox="0 0 1081 952.1" style="enable-background:new 0 0 1081 952.1;" xml:space="preserve">
<style type="text/css">
	.st0{fill:#05409F;stroke:#000000;stroke-miterlimit:10;}
	.st1{display:none;fill:#05409F;stroke:#000000;stroke-miterlimit:10;}
</style>
<g id="surface1257">
	<path vector-effect="non-scaling-stroke" class="st0" d="M760.3,666.3c-17.6,0.2-29.1-14.3-37.3-28.3c-5.4-27.4-7.5-60.3-35-75.1
		c-21.1-11.4-45-18.4-63-35.1c-13.6-21.2-5.6-34,13-47.6c16.1-5.5,33.3-1.6,47.8,6.4c20.3,9.2,39.3,22,60.3,29.3
		c31.6,9.1,64.8,15.9,93.2,32.9c27.4,19,30.4,59.6,8,83.7C824.1,653.8,792.2,668.9,760.3,666.3"/>
	<path vector-effect="non-scaling-stroke" class="st1" d="M302.2,305.3c-21.2,2.2-23.1-5.1-28.9-24.2c2.7-12,16.8-15.7,25.6-7.7
		c5.5-1.5,11.1,1.1,14.5,5.4c3.4,4,0.8,13.3,1.9,18C312,302.1,309.3,306.7,302.2,305.3"/>
	<path vector-effect="non-scaling-stroke" class="st0" d="M641.4,943.6c90.4,24.8,133.4-11.7,203.2-60.5c27-17.2,57.8-27,87.2-39.1
		c82.9-22.4,174.7-61.9,131.7-164.6c-5.2-11.1-7.2-24.3-9.1-35.8c1.1-4.1,0.1-9.8,0.4-13.4c1.8-3.6,1.5-9.8,1.2-13
		c11.5-33.3,24.8-67.7,24.5-103.1c-0.7-38.2-20-71.8-38.8-103.3c-15.2-26.2-31.5-51.7-52-73.4c-32.3-29.9-66.7-57.5-106-77.2
		c-47.8-21.5-82.4-45.4-103.1-94.5c-10.4-22-20.2-44.1-37.2-60.7c-21.7-22.2-49.2-38.1-72-57.7c-39.2-41.1-78.4-63.6-130.6-29.9
		c-32.8,25.1-64.1,48-105.8,51.6c-18.2,3.3-26.1,5.2-36.9,19.9c-5.3,5.5-6.2,7.9-2.3,13.7c2.4,7.1,6.4,15.6,11.8,19.7
		c36.1,24.3,43.8,53.3,20.7,90.1c-4.4,6.1-9.4,14.2-12.6,20.6c-4.8,6.8-11.6,13.1-16.3,19.4c-7.3,9.6-13.1,21.4-22.2,28.6
		c-5.8,6.9-10.1,14.5-12.7,21.6c-3.6,2.5-6.9,8.1-8.2,10.8c-3.4,2-7.3,6.3-8.8,8.8c-4.6,2-10,5.8-13.6,7.5c-7.3,1-15.9,3.3-20.9,7.2
		c-3.4,5.1-9.2,8.5-14.5,8.6c-2,4.2-8.1,5.6-11.2,7.2c-14.3,10.1-28.6,19.5-43.8,26.7c-41.6,23.4-87.9,41.6-117.9,80.2
		c-32.1,39.7-27.3,96.1-54.6,137.8c-18.3,27.3-45.5,48.5-60.8,77.4c-21.7,40-0.1,76.6,33.5,100.6c134,96.8,209.7,4,304.9,61.7
		c26,13.6,42.8,39.8,65.1,57.8c36.9,31.3,87.7,33.5,133.2,34.7C579.1,930.8,610.8,934.2,641.4,943.6"/>
	<path vector-effect="non-scaling-stroke" class="st1" d="M500.7,887.6c-49.5-5.5-70.5-55.2-113.3-73.3
		c-116-63.9-203.8,25.1-305.3-52.6C17.6,709.2,62.2,670,104,624c22.3-23,24.8-56.5,32.6-85.4c6.7-27.4,22.7-51,45.4-67
		c26.1-15.1,59.1-24.4,88-12.9c3.4,3.3,4.5,13.1,3.7,17.9c3.1,9,3.3,19.7,6.4,28c6.6,19.7,16.9,38.7,29.8,54.1
		c7.9,6.3,21.9,14.4,31.8,10.9c6.2-2.6,13.7-6.4,18.5-10.8c1.4-4.8,7.7-8.5,7.2-13.8c-0.8-6.1,2-14.3,0.4-20.3
		c-0.7-5.7-5.5-11.1-5.3-16.4c-10.8-16.9-25.7-32-42.7-41.6c-3.7-4.1-10.5-6.7-15.2-7.7c-6.5-10-7.2-25.8,4.6-31.4
		c17.9-21.1,44.8-29.5,68-42.9c24.3-11.3,32.5-39.3,38.2-63.2c7.8-49.2,46.7-84.2,68.5-126.2c24-44.8,15-83.9,65.5-116
		c25-17.5,56.5-18.3,82.2-4.2c26.2,10.7,50.9,25.7,71.3,43.3c30.6,27.6,39.2,68.8,62.1,100.7c17.3,26.1,39.9,48.1,67.7,62
		c48.5,22.1,100.6,41.9,137.2,82.3c21.6,24.3,35.6,54.1,50.4,82.7l0,0c23.7,43,28.8,83.2,15.6,130.4c-6.5,23.4-12,47.1-10.8,71
		c0.4,30.2,17.3,59.3,12.5,89.7c-13.9,59.1-83.6,70.6-132.5,86.8c-41.9,10.6-84.3,22.6-127.5,22.3c-13.6,0-28.5-4.8-41.8-5.7
		c-15.1-2.9-32.2-2.2-45.8,4.7c-11,12.7-26.2,22.4-40.9,29.6C601.8,891.3,549.8,894.9,500.7,887.6"/>
	<path vector-effect="non-scaling-stroke" class="st1" d="M523.2,836.4c52,23.6,102.9-14.4,150.7-31.2c27.3-9.5,57.4-7.1,85.3-1.4
		c42.8,11.1,87.9,11.8,130.8,0.8c41.8-11,97-20.4,116.6-63.7c7.3-15.9,4.4-34.8,1.9-51c-2.6-17-4.3-36-3.8-52.4
		c2.8-43.9,17.6-86.5,8-130.1l0,0c-11.1-41.3-32.3-80.3-53.9-116.7c-30.6-42.9-79-55.2-125.9-70.4c-37.9-14.5-65.9-46.1-90.7-76.5
		c-13.3-16.5-24.5-35.2-33.7-53.8c-7.8-14.4-14.3-29.7-25.2-41.7c-21-25.7-54.6-41.5-87.4-40.4c-49,5.2-57,55.4-76.8,90.7
		c-15,27.5-38.5,48.8-56.5,73.7c-39.6,54-13.7,97.5-36.1,132.5c-14.1,20.8-36.2,26.6-36.4,54.9c12,39,31.4,126-19.2,143.2
		c-26.1,9.6-56.1,10.2-82.7,3.9c-18.1-4.4-27-21.2-31.9-37.4c-8.4-19.5-22.9-39.3-44.2-44.2c-14.8,2.3-29.9,10.7-34.6,25
		c-6.3,19.9-2.2,41-8.6,60.5c-2.3,7.2-8.8,14-14.4,18.3c-6.1,7.4-14,13.7-21.6,18.6c-14,11.3-27.5,23.9-37.3,38.5
		c-13.1,30.6-1.3,49.9,22.9,69.1c27.2,17.1,60.6,21.8,92.1,18.7c78.9-10.4,121.7-8.9,198.8,11.1c26,6,55.1,6.4,76.9,22.3
		C498.6,817.1,508.8,830.2,523.2,836.4"/>
	<path vector-effect="non-scaling-stroke" class="st1" d="M668.8,784.5c37.5-8.2,75.6-1.1,112.9,4.7c50.8,8.1,103.6,3,151.7-15.5
		c48.3-18,59.9-44.8,56.5-94.4c0.6-135.3,31.4-131.1-45.5-261c-15.7-27.9-40.2-45.2-71.3-52.2c-23.7-4.4-49.1-6.4-69.4-20.7
		c-20.2-14-36.5-34-54.7-50.6c-14.8-13.4-30.1-27.1-46.1-39c-13-12.2-28.8-23.3-36.4-40.1c-9.6-13.1-13.1-30.3-23.1-43.1
		c-6.8-8.4-17.6-12.9-27.5-16.9c-8.9,1.8-20.8,2.5-27.9,8.7c-15.2,20.2-25.1,44.8-44.1,61.8c-54.5,48.9-101.8,72.4-78,156.6
		c5.1,16.6,6.2,34.8-1.1,50.6c-9.3,12.7-20.8,24.8-26.2,39.5c-10.1,31.5-8.3,65.8-8,97.9c4.4,65.9-19.2,60.3-74.1,65.4
		c-42.8,3.1-85.4,10.6-127.4,17.8c-26.7,4.6-54.7,10.6-77.4,25.2c-36.6,27.1-20.8,59,18.3,69.3c28.4,8.3,58.3,1.1,86.4-0.8
		c38.5-3.5,77.6-1.5,115.3,0.2c22.7,1.5,46.3,0.6,68-3.9c18.1-3.7,39-9.9,56-1.2c19,9.8,32.5,25.8,48.6,38.7
		C580.6,814.4,627.7,793.2,668.8,784.5"/>
	<path vector-effect="non-scaling-stroke" class="st1" d="M382.9,704.6c1.2-4.6,10.1-15.6,2.4-16.5c-2.8-16.2-34-17.5-47.6-18.4
		c-14.5,1.4-59.2,7.5-67.7,17.8c-5.8-2.4-10.5,1.3-14.4,5.4c-7.8,5.1-17.4,9.5-26.5,11.8c-1.7,0.7-5.8,1.8-7.6,2.2
		c0,0,5.3,1.5,5.3,1.5c4,1.9,9.9,4.2,14.4,2.9c3.6,1.7,10.5,3.2,14.4,3.1C290.5,716.2,354.2,724.9,382.9,704.6"/>
	<path vector-effect="non-scaling-stroke" class="st0" d="M816.5,776.9c46.1,0.6,109.3-6.2,141.5-42.6
		c21.4-31.8,13.8-73.6,19.4-109.8c4.4-38.4,6.4-79-9.6-115.1c-8.1-17.4-19-34.2-31-49.2c-10.7-16.8-24.1-32.4-39.8-44.6
		c-27.5-16.7-62.5-11.2-89.9-27.6c-21.8-11.4-35.6-33.5-51.7-51.4c-14.7-17.1-32.3-31.6-52.7-41.5c-25-13.2-55.1-12-82.2-18
		c-15.6-3.9-33.2-9-49-10.5c-22.9-0.5-46.1,6.2-63.6,20.3c-27,20-34.8,53-23.4,83.7c12.1,25.6,22.3,52.8,4.1,77.8
		c-11.2,17.4-23.7,34.2-30.3,53.6c-10.1,33.8-7.5,72.2,11.8,101.9c18.9,26.1,47.3,47.3,55,79.6c11.5,36.7,30.8,80.3,72.2,87.8
		c23.5,4.1,47.3-2.3,70.3-3.9C717.8,762.9,766.8,774.6,816.5,776.9"/>
	<path vector-effect="non-scaling-stroke" class="st1" d="M616.1,749.8c-55.5-11.4-48.2-76.5-79.2-112.2
		c-16.4-18.8-36.7-34.2-50.6-55c-31.3-49.6-0.2-94,26.2-136.7c9.6-15.8,11-36.1,4.7-53.4c-5.7-13.8-13.2-27.7-15.9-42.7
		c-3.8-41.9,34-59,70.6-53.7c24.6,4.6,49.7,9.5,74.7,11.5c35,1.4,70.7,13.1,92.6,41.8c10.9,13.5,21.7,27.9,32.4,41.5
		c7.7,7.2,17.2,13.8,24.9,21c18.6,8.8,38.6,16,58.2,21.9c17.7,6,36.7,12.1,50.4,25.7c10.8,7.1,20.2,17.9,28.8,27.4
		c47.8,52,35.8,126.1,26.2,189.7c-4.7,34.5-22.9,60.2-55.9,71.6c-57.3,22.1-119.6,16.6-178.6,8.2
		C689.1,750.9,652.4,754.4,616.1,749.8"/>
	<path vector-effect="non-scaling-stroke" class="st1" d="M760.3,750.3c-30.2-3.4-60.8-7.6-90.9-11.6c-35.4-3.8-66.8-13.8-80-50.3
		c-11.7-29.9-19.6-47.5-42.6-70.7c-28.3-24.1-62.8-55.3-53.5-96.4c6.6-37.8,37.7-66,46-103.3c4.4-19-4.8-37.2-10.1-54.9
		c-6-18.3-0.8-30.1,14.5-41.2c31.7-6.2,63.5,4.4,95.2,5.3c104.1,4.1,85.2,77.4,171,111.4c52.8,18.2,106.3,35.7,133.2,89.3
		c20.5,42.7,14,92.2,5.4,137.2c-5.2,22-13.9,45.5-33.5,58.5C871.1,755.2,812,754.7,760.3,750.3"/>
	<path vector-effect="non-scaling-stroke" class="st1" d="M669.1,725c78.5,20.1,238.3,41.4,267.5-59.5c10.7-38.3,15.4-81,2-119.1
		c-22.8-57.8-76.1-72.7-128.5-92.9c-49.5-17.9-68.9-44.3-103-80.6c-31-30.9-80.1-27.6-120.4-24c-33.4,6.9-19.7,32.8-26.6,57.3
		c-9.1,51-67.8,94.5-45.5,149.5c15.5,34.1,52,51.6,73.1,81.5C614.2,679.9,612.3,710.4,669.1,725"/>
	<path vector-effect="non-scaling-stroke" class="st1" d="M702.6,722c-81.3-19.8-64.4-51.1-107.1-103.6
		c-50.2-45.4-96.4-69.5-54.1-143.1c11.1-18.9,22.2-38.3,33.2-57.2c7.7-13.7,13-30.4,26.7-39.5c20.8-13.8,49.6-12.3,72.3-4
		c18.6,8.2,33.3,22.4,47.2,36.9c29.6,29.7,67.3,48.8,106.9,61.6c41.7,14.9,87,37.4,101.6,82.6c13.4,43.9,7.6,103.5-24.1,138.4
		C853.7,740,765.8,739,702.6,722"/>
	<path vector-effect="non-scaling-stroke" class="st0" d="M760.3,722.2c-38-3.3-82.3-11.4-107.3-42.8c-13-18.2-19.2-40.8-33-58.5
		c-17.2-20.4-42-33.2-60-52.7c-41.7-39.9-8-94.5,20.3-131.5c10.6-15.7,23.8-32.1,41.1-40.3c18.5-7,40.5-6.7,57.9,3.3
		c28.9,16,51.5,41.8,81.2,57c44.2,25.5,99.7,31.2,137.2,67.9c37.1,37.9,36.1,101.3,10.9,145.4C876.3,715.6,812.6,725.3,760.3,722.2"
		/>
	<path vector-effect="non-scaling-stroke" class="st1" d="M702.6,699.8c-51.7-19.4-41.8-66.5-78.5-96.8
		c-21.9-19.7-52.8-32.6-65.4-60.7c-17.5-38.8,15.5-83.5,42.4-109.8c18.7-19.8,49.2-27.1,73.8-15.2c31.2,14.8,56.7,39.4,88.1,53.3
		c47.9,23.6,109.1,30.5,139.4,78.9c20.3,41.1,16.8,99.2-19.5,129.8C834.6,716.7,758.1,723.7,702.6,699.8"/>
	<path vector-effect="non-scaling-stroke" class="st1" d="M726.8,697.5c50.9,15.6,132.7,1.3,163.1-45.8c21.5-32.6,20.4-82.4-7-111.3
		c-31.6-34.9-82-40.3-122.5-60.5c-20.5-9-39.9-21.4-58.8-33.4c-13.9-8.1-29.1-17.5-45.6-18.3c-40.1-4.9-73.8,34.8-85.8,69.7
		c-10,28.1,7.9,56.1,31.3,71.1c9.8,7.2,20.5,13.9,30.6,20.6C681.8,623.1,656.5,678.1,726.8,697.5"/>
	<path vector-effect="non-scaling-stroke" class="st1" d="M702.6,669.9c-13.1-11.1-16.7-29.8-21.8-45.5
		c-8.8-36.7-47.8-47.9-74.4-68.7c-30.1-20-31.2-59.3-7.1-84.6c11.7-15,25.4-22.8,43.7-27.2c34.5-2.8,62.5,21.8,91.9,36.2
		c39.6,23.3,89.1,27.2,126,55.1c37.6,24.5,41.3,82.2,14,115.8C835.5,693.6,747.6,712.3,702.6,669.9"/>
	<path vector-effect="non-scaling-stroke" class="st1" d="M730.4,672.5c-38.5-16-22.6-72.1-56.6-93c-20.5-16.4-49.6-21.8-65.8-43.5
		c-10.4-10.2-12.9-29.4-5.6-42.1c5.2-14.9,17.5-25.4,32.1-30.6c16.9-8.8,37.7-0.4,53.9,6.7c24.2,11.2,46.5,26.7,72,35.1
		c29.5,11.3,62.1,16.9,88.4,34.9c34.3,22.4,41.1,69,15.1,100C833.9,673.9,771.8,693.3,730.4,672.5"/>
</g>
</svg>
