<?xml version="1.0" encoding="utf-8"?>
<!-- Generator: Adobe Illustrator 28.0.0, SVG Export Plug-In . SVG Version: 6.00 Build 0)  -->
<svg version="1.1" id="Layer_1" xmlns="http://www.w3.org/2000/svg" xmlns:xlink="http://www.w3.org/1999/xlink" x="0px" y="0px"
	 viewBox="0 0 1019 861.5" style="enable-background:new 0 0 1019 861.5;" xml:space="preserve">
<style type="text/css">
	.st0{fill:#FEFD01;stroke:#000000;stroke-miterlimit:10;}
	.st1{display:none;fill:#FEFD01;stroke:#000000;stroke-miterlimit:10;}
</style>
<g id="surface1292">
	<path vector-effect="non-scaling-stroke" class="st0" d="M830.3,612.9c-5.8-7.3,1.2-15.5,5-22c4.6-6.1,17.3-4.3,24-5
		c9.4,2.7,17,12.2,22,20.3c-1.3,11.7-13.2,23.6-25.5,20.6C844.2,625.5,836.3,623.7,830.3,612.9"/>
	<path vector-effect="non-scaling-stroke" class="st1" d="M559.7,8.2c-8.4,1.8-13.4,9.4-18.3,15.8c0.1,5.7,2.9,11.5,5.4,16.5
		c5.8,8.6,18.2,10.2,27.3,13.7c11.5-3,25.3-10.1,28.7-22.7c1.2-3.3,0.8-12.1-3.2-13.7c-0.9-4.5-5.6-7.9-9.8-9
		C580.3,3.5,569.4,3.2,559.7,8.2"/>
	<path vector-effect="non-scaling-stroke" class="st0" d="M376.1,81c24.2,12.1,54.5,9.4,78.2-2.6c15.2-7.5,27.5-18.6,30-36.1
		C472.5,9.6,428,10.1,400,17.9C370.6,26.5,342.2,58.1,376.1,81"/>
	<path vector-effect="non-scaling-stroke" class="st1" d="M437.7,322c3.6,2.6,13.4-2.4,17.7-2.1c2.9-1.3,11-3.7,14.1-3.6
		c3.9-3.9,10.4-6.3,15.1-8.8c10.5-4.7,16.7-14.9,24-23.1c-1.2-3.6-0.4-8.9,1.4-12.1c-8.9-44.2-37.1-73.4-85.3-68.1
		c-36.5,5.8-119.9,31.4-88.1,80.1C363.4,313.3,405,309.7,437.7,322"/>
	<path vector-effect="non-scaling-stroke" class="st1" d="M46.6,346.4c7.9,4.7,17.4,8.8,26.9,6.3c4.2-3.7,11.5-2.4,14.3-7.8
		c5.3-3.6,11.5-11.5,6-17.2c-5.3-8.1-15.2-12.4-24.2-14.3C51.8,311.7,27,330.6,46.6,346.4"/>
	<path vector-effect="non-scaling-stroke" class="st1" d="M285.3,444.7c13.7,18.4,51.9,15,56.7-9.4c-9.5-20.6-42.2-27.4-56.5-8.6
		C279.7,435.8,279.1,435.4,285.3,444.7"/>
	<path vector-effect="non-scaling-stroke" class="st1" d="M348,660.6c19.3,5.1,40.5,5.3,58.8-3.3c21.7-10.3,34.5-29.9,20.3-52.3
		c-28.2-32.6-91.3-27.7-110.1,12.4c-6.8,8.5-2.1,8.4-2.6,18.1C315,651.1,336.3,655.2,348,660.6"/>
	<path vector-effect="non-scaling-stroke" class="st0" d="M709.3,829.7c16.3,23.2,56.1,30.6,73.7,5.4c9.8-13.6,1.2-33.7-4.4-47.7
		c-4.7-14.7-24.9-34.8-16.8-50c3.3-9.6,9-14.6,18.7-17.4c15.3-6.2,33.9-9.7,49.8-3.8c9.8,1.8,21.6,6.3,30.1,11.1
		c4.5,7.1,12,15,8.8,24c-7.7,31.2,6.3,49.3,37.5,54.5c38.8,3.9,121.1-7.8,110.7-61.5c-5.5-8.9-12.1-18.8-20-25.8
		c-10.6-8.1-17.5-21.4-17-34.8c0.1-15.5-1.8-33.8,0.3-48.7c4.4-27.7,39.5-48.1,23.4-77.5c-8.5-14.9-26.3-22.5-38.5-32.7
		c-8.6-2.7-10.3-11.4-10.6-18.9c-0.3-5.5,5-11,6.8-15.7c9-17.2,6.5-38.2-8.4-50.8c-14-14.9-30.1-27.9-40.6-45.4
		c-21.1-25.4-18.5-65.7-47-85.4c-21.9-15.7-48.7-27.6-64.5-49.8c-8.5-10.2-10.7-23.5-17.7-34.2c-21.4-28.1-59.4-14-82.3,4
		c-15.4,8.1-34.8,16.1-50.8,6.3c-11.6-7.5-5.8-4.8-10.2-15.9c-0.6-14.9,8.7-29.3,5.1-44c-6.6-24.4-26.8-41.9-34.5-65.4
		c-7.2-15.2-20.9-24.3-36.2-28.7c-6.4,2.9-15.7,4.2-20,9.2c-15.4,8.4-15.6,28.5-18.1,43.3c-5.4,26.4-21.1,46.4-4.1,72.3
		c6.4,12.2,15.8,23.7,19,36.9c1.7,5.4,3.3,12.4,1.7,17.6c3.2,3.9,1.9,11.3,2.1,15.6c-0.7,6.8-3.9,7.4-2.8,14.8
		c-4.1,9.8-6.7,21-6.5,31.2c3.7,31.1-20.3,44.4-46.5,48.8c-15.9-0.2-20.9-10.2-29.9-20.7c-14.6-15.4-36.4-14.8-50.2,1
		c-19.7,23.8,11.3,42,32.7,44.3c1.5,3.6,10.6,9.3,5.9,12.6c-4.6,10.3-9.4,11.2-18.3,15.6c-8.3,2.5-14.9,9-21.9,12.7
		c-12.1,5.1-22.2,14.4-29.8,24.4c-8.1,15.8-4.4,37.2,6.3,50.5c21.8,31.2,65.4,28.6,98.2,21.7c23.6-4.6,64.8-31.2,72.7,5.4
		c-5.6,14.3-10.5,29.9-10.5,44.3c-0.5,5.4,0.6,11.7-2,16.2c1.4,2,2.1,5.9,1.8,7.8c-0.7,20.5,4.6,39.1,14.2,57.4
		c13.1,16.9,6.2,40.8,18.3,57.7c12.5,16.6,35.1,22.2,52.7,30.2C682.2,764.5,689.3,795.9,709.3,829.7"/>
	<path vector-effect="non-scaling-stroke" class="st1" d="M47.9,853.9c31.4-3,52.4-29.3,74.4-49.1c7.4-8.1,13.6-18.3,16.7-28.9
		c2.1-8.3,2.9-18.2,7.5-25.6c4.6-8,14.6-7.8,22.5-8c13.5-0.1,29.2-0.7,41.3,5c19.4,5.8,28.2,26.1,42.2,38.4
		c18.6,18.2,54.3,19.1,68.4-4.2c7.7-20.3-4.3-42.1-13.7-59.5c-6.9-11.9-16.6-23.1-21.4-35.8c-3.8-13.2,2.4-28.3-7.5-39
		c-23.1-22-59.7-10.4-87.7-6.3c-25.7,3.3-52,5.4-76,14.6c-24,8.9-52.5,7.1-72.8,23.2c-7.5,8.5-11.5,19.1-12.8,29.7
		c-5.2,11.4-12.9,20.8-24,25.8c-16.5,11.2-36.2,18.6-50.6,31.7c-21.8,17.2-17.3,44.6,5.4,57.5C-13.5,839.9,16.1,855.4,47.9,853.9"/>
	<path vector-effect="non-scaling-stroke" class="st1" d="M409.4,59.2c-1.4-4.8,0.8-10.5,2.8-14.9c2.4-6.8,14.9-3.2,20.6-2.1
		c-0.9,6.1-2.5,16.6-8.4,18.9C420.1,61.4,411.6,62.8,409.4,59.2"/>
	<path vector-effect="non-scaling-stroke" class="st1" d="M584.5,207.4c14.3,4.1,26.2-7.3,30.5-20.1c7.2-17.9-14.3-37.1-31.7-36.4
		c-2.4,0.2-8.1-1.9-10,0c-8.6,5.7-16,14.2-18.8,24.3c-1.2,10.9,8.2,21.2,15.9,27.8C573.8,207,579.8,206.6,584.5,207.4"/>
	<path vector-effect="non-scaling-stroke" class="st1" d="M465.8,275.1c-9.9,25-96,22.9-106.2-2.9c-7.7-7.2,0-16.8,3.4-24.3
		c18.2-13.8,42.7-22,65.6-20.8C451.7,226,477.4,252.5,465.8,275.1"/>
	<path vector-effect="non-scaling-stroke" class="st0" d="M375.2,644.2c13.7-1.1,26.3-6.3,29.7-21c-3.4-10.8-14.4-18.5-25.6-18.7
		c-13.4-2.6-27.9,6.6-33.9,18.6C349.5,636.2,361.7,644.1,375.2,644.2"/>
	<path vector-effect="non-scaling-stroke" class="st1" d="M165.8,710.5c13,2.3,30.2,1.6,38.3-10.5c8.7-11-0.7-18.9-9.3-25
		c-12.1-4.7-27-4.2-39.7-2.3c-11.1,3.3-17.5,11.6-16.4,23.3C145.8,703,155.3,710.4,165.8,710.5"/>
	<path vector-effect="non-scaling-stroke" class="st1" d="M920.5,783.1c-14.1-2.5-20.4-13-19.3-26.7c1.8-6.6,2.9-14.5,0.4-21.1
		c-1.6-5.8-4.8-11.1-11.1-12.3c-6.6-2.4-14.1-5.6-20.4-8.9c-33.2-15.6-72.5-19-107.5-7.2c-11.3,3.5-21.9,12-32.1,17.7
		c-8.5,7.2-19,16.2-30.9,15.8c-27.6,1.1-73.3-13.5-89.5-37c-4-8.6-10.1-16.6-13.8-25.3c-3.6-6.3-9.8-11.8-12.4-18.7
		c-14.2-25.8-14-56.4-7.6-84.5c2.4-9,6.9-17.8,11-26.1c5.5-7.5,7.6-12.9,5.5-22.3c0.2-6.5-6.1-9.1-10.5-12.7
		c-6.2-6.3-14.9-9.1-23-12c-21-5.2-41,5.1-60.1,12.2c-29.8,11-78.5,13.6-89.9-23.6c-3.5-43.9,50.6-48.4,78.6-66.5
		c15.6-10.7,25.8-27.9,41.8-37.5c14.6-12.7,37.2-20.6,41.2-41.3c1.8-32.2,8-48.5,34-67.9c13.7-8.8,30.3-6.6,45.2-9.4
		c28,0.3,54.9-9.7,82.1-13c11.3-0.1,23.5,4.2,31.5,11.7c19.2,9.6,34.4,24.5,51.7,36.4c39,23.6,47.3,28,60.6,72.7
		c9.7,26.9,31.7,46,49.4,66.8c18.7,18.3,13.7,34.7,3.9,55.7c-2,21.5-5.1,20.8,12.2,36.5c15.9,14.2,39.3,16.1,43.7,41.3
		c-1,8.5-4,17.1-7.7,24.2c-6.5,6.6-8.3,16.2-11.7,24.2c-3.3,15.6-1.9,32.9-3.1,48.5c-0.2,14-9.2,29-4.1,42.1
		c8,13.9,29.2,20.3,30.9,37C995,780.7,940.4,791.4,920.5,783.1"/>
	<path vector-effect="non-scaling-stroke" class="st1" d="M-13.3,811c-18.6-12.9-16.5-30.7,1.9-42.4c20.3-14.4,53.6-32,78.1-33.9
		c36.7,2,60.8,36.4,29,64.1C58.4,830.9,30,835.7-13.3,811"/>
	<path vector-effect="non-scaling-stroke" class="st1" d="M649.9,708.2c-24.1-9.3-41.6-31.5-55.6-52.2
		c-17.2-24.2-11.8-55.9-1.1-81.2c6.6-13.6,17.3-24.4,25.8-36.4c0.1-9.7-2.3-19.9-11.7-24.2c-7.8-6.3-17.6-13-26.6-16.9
		c-32.2-18.2-52.2-11-83.4,2.6c-17.8,8-39.3,10.4-56.8,1.3c-16.9-12.8-11.4-33.4,5.8-42.2c14.1-9.5,31.1-12.6,45.8-19.8
		c13.3-6.3,23.6-17.5,32.8-28.1c10.4-11.2,22.6-20.8,35-29c48.6-29.3,17.9-46,40.9-74.1c27.7-28.7,72.8-21.4,108.9-24
		c20.5-0.2,42.9,3.7,60.4,14.1c9.3,8.2,18.8,16.5,30.1,21.6c51.7,23.7,40.7,25.6,60.4,72.4c13.4,25.5,44,40.7,53.3,67.7
		c5.7,16.2-2.1,33.3-0.2,49.1c1.2,12.6,5.4,25.4,14.1,33.8c17,9.8,42,20.9,37.6,44.1c-5.4,19.9-15.9,39.4-15.1,60.5
		c0.7,21-3.5,47.4-22.4,59.3c-7.8,1-18,5.9-25.3,3.5c-19.5-3.6-39-8.5-57.5-14.7c-24.3-6.4-50.8-6.8-75-3
		C727.3,701,694.3,732.1,649.9,708.2"/>
	<path vector-effect="non-scaling-stroke" class="st0" d="M16.2,782.6c0.2,0.6,1.7,10,2,10.4c3.7,1.8,11.1,4.9,15.3,4.7
		c16.4,2.5,33.7-5.3,44.9-17.1c1.9-27.4-18.8-21.3-37.5-18.2C33.5,769.2,18.4,772,16.2,782.6"/>
	<path vector-effect="non-scaling-stroke" class="st1" d="M738.4,689.9c33-10.3,69.3-9.1,103-3c39.3,9.9,90.9,31,99.9-27.3
		c1.5-15,2.2-30.5,5.7-45.2c1.9-13.7,8.4-30.4-0.1-42.9c-3.7-6.5-12-11.3-18.2-15.1c-5-4.5-10.5-10.5-15.2-15.1
		c-14-17.3-9.6-42.8-12.6-63.6c-0.7-22.8-18.2-39.3-35-52.5c-9.7-7-21.3-12.8-27.7-23.4c-7.4-15.4-5.1-35.7-19.8-47.5
		c-17.4-10.4-40.1-9-58.8-3.8c-5.9,0.9-13.4,1.6-19.1-0.5c-7.1,3.2-16.2,1.6-23.5-0.2c-11-2.2-20.5-9.5-29-16.4
		c-5.7-8.9-10.4-21-21.3-25.3c-16-4.3-41.4-2.8-51.2,12.1c-7.7,11.6-4.2,26.4-10,38.6c-7.3,17.7-27.3,25.7-41.9,36.6
		c-13.4,8.5-23.9,21.1-33.2,33.8c-12.7,17.6-18.5,22-38.2,29.8c-10,3.1-22.9,5.1-31.1,11.3c-1,2.4-3.1,5.4-1.2,7.5
		c-5.6,7.4,4.9,11.6,10.5,12.6c19.6,0.4,25.2-9.5,41.4-15.5c5.9-1.1,13.7-3.3,18.6-5.8c2,0.8,7.6,2.3,8.9,2.6
		c27.8,1.7,49.7,21,74.1,31.5c10.1,5.8,20.8,11.3,30.8,16.5c10.3,13.5-0.9,28-11.2,37c-46.8,30.2-54.2,86.4-8.2,121
		c15,14,36.3,22.1,56.1,24.5C701,704.1,720.4,697.4,738.4,689.9"/>
	<path vector-effect="non-scaling-stroke" class="st1" d="M649.9,685c-58.5-24.5-70.2-86-7.6-114c18.8-7.4,27.4-26.3,32.8-44.5
		c4.3-15.8-29.7-18.8-40.2-24.2l0,0c-28.6-7.3-54-25.1-77.2-42.3c-18.4-11.3-9.3-28.7,1.2-42.3c16.3-17.7,40.4-26,57.2-42.5
		c9-7.9,15.1-20.1,18.9-30.3c3.8-12.6,12.8-9.1,21.3-4.8c6.9,1.6,12.7,7.7,17.4,11.1c14,6,28.5,9.9,42.9,11.5
		c22.6,5.3,69.1-3.8,83.5,12.9c9.7,9.8,3.9,25.3,7.2,37c2.1,13.1,21.1,12.4,30.6,16.5c13.9,6.1,28.1,12.3,37.4,24.2
		c13.2,16.5,16.7,38.6,19.6,58.4c2.2,13.6,2.5,28.7,12.2,38.6c29.4,26.6,40.7,29.4,31,72.2c-5,23.8-2.1,55.6-27.9,66.6
		c-20.5,6.6-42.5-1.9-62.2-5.8c-21.8-5.3-45-6.9-66.5-6.9c-20.3-0.8-39.9,4.7-57.9,10.6C699,692.8,673.5,694.2,649.9,685"/>
	<path vector-effect="non-scaling-stroke" class="st1" d="M680,684.6c-41.4-0.6-96.9-45.2-60.8-86.2c8.8-7.4,19.8-14,30.9-17.3
		c7.1-2.9,16.4-3.9,22.5-8.8c8.8-5.7,10.8-18.6,15.8-27.2c3-8.7,9.2-16.4,14.3-24c2.1-15.3-11.6-21.2-24.9-20.8
		c-11.5-0.9-24.1-2.4-35.5-4c-25.8-6.3-51.1-19.5-67.4-40.9c-20.4-29.2,22.5-48.7,43.5-60.5c9.6-4.5,18.7-11,27.3-17
		c24.2-14,53.1-3.4,79.4-2.9c18.5,3.3,50.8-1,54.5,23.3c1.4,8.9-5.5,18-1.8,26.6c2.6,10.9,12.1,15.2,22.5,12.3
		c21.8,5.3,40.1,0.5,60.1,16.9c17.5,14,23.3,37.2,26.8,58.1c2.3,11.5,2.1,24.8,8.8,34.4c4.4,9.1,12.2,15,19.8,20.6
		c23.1,20,18.1,44.1,12,70.1c-5.5,52.5-34.9,49.7-77.1,39.7c-30-6.2-61-10.5-91.1-8.4c-22.4,1.3-43.1,13.5-64.6,16.1
		C694.1,684.5,680.1,686.2,680,684.6"/>
	<path vector-effect="non-scaling-stroke" class="st1" d="M733.3,665.7c41.7-13.8,86.4,0.2,128.3,6.7c22.6,4.5,50.5,4.6,56.5-23
		c5-14.1,7.7-29.5,8.5-44.3c1.6-32.8-33.1-38.8-42.6-67c-1.8-13-3-26.6-5.6-38.7c-14.4-53.1-53.3-51.9-98.6-50.8
		c-11.8,0.5-32.1-6.7-30.3-19.8c0.3-5.3,0.3-11.3,1.4-15.6c2.5-5.8,2.1-11.9-1-16.4c-21.4-14-50.2-13.4-73.5-7.4
		c-14.1,4.2-27.1,10.1-40.5,14.9c-16,5.5-33.1,12.9-43.8,25.9c-5.9,5.5-3.3,15.7-3.4,22.4c8.1,11.6,18.4,22.2,31.1,27.4
		c14.7,6.2,31.4,9,45.9,9.5c31.8-2.3,77-1.4,50.2,40.6c-27.5,35.4,4.9,42.3-51.5,55.7c-71.3,10.5-63.3,74.1-0.1,89.7
		c15.4,2.7,30.7,1.7,45.3-2.6C717.3,671.4,726.2,665.2,733.3,665.7"/>
	<path vector-effect="non-scaling-stroke" class="st0" d="M649.9,665.6c-31.2-12.7-42-48.7-7.7-65.6c26.3-10.8,57-5.6,82.7-16.6
		c3.8-2.6,11.4-5.9,14.1-9.3c-3.8-9.3-10.7-18-7.9-28.7c1-10.4,6.7-20.5,6.8-31.3c0.6-11.6,0.2-27.6-6.9-36.6
		c-2.5-4.2-7.3-1.6-11.2-2.1c-8.1-0.3-16.3,1.2-24.2,2.8c-19.6,2.9-40.4,5.7-59.8,0.2c-11.3-3.1-22.3-8.1-28-18.9
		c-8.1-7.3-2.3-18.3,2.4-26c14.8-13.1,35.7-15.8,54.4-19.4c16.2-0.7,37.4-5.1,49.1,9.1c5.7,6.9,8.7,17,14,24.3
		c1.9,3.5,4.4,7.6,5.7,11.4c8.8,6.4,21.3,5.3,31.4,2.8c23.7-2,48.2-7.8,71.7-0.8c23.4,9.4,36.7,33.7,38.8,58
		c0.9,12.4,1,26.3,9.2,36.6c10.8,11,25.3,20.6,33.1,34.2c6.6,17.8,2,37.3-4.3,54.5c-7,26.6-38.1,27-60.2,21.6
		c-17.4-3.3-35.5-6.2-52.8-9.9c-17.9-3.2-36.8-6.7-54.7-2.4C714.8,664.8,682.4,682.1,649.9,665.6"/>
	<path vector-effect="non-scaling-stroke" class="st1" d="M644,473.2c5.1-1.7,11.1,1.3,16.2,1.1c11.8-0.4,26-2.4,34.7-11.1
		c0,0,7.6-9.4,7.6-9.4c-3.2-5.3-9.6-15-14.5-18.7c-9.5-3.9-20.4-6.6-30.7-5.4c-16,0.8-34,7.2-39.2,24
		C624.7,461.8,633.1,471.6,644,473.2"/>
	<path vector-effect="non-scaling-stroke" class="st1" d="M649.9,660.1c-27.5-13.1-31.6-45.4-0.1-56.2c29.4-10.4,61.9-4.1,92.2-3.7
		c18.3,0.9,43.1-21,28.2-38.7c-8.7-9.3-20.2-17.6-20.3-31.5c0.1-16.6-2.1-36,7.9-50.3c28.7-21,82.5-24.9,102.4,10
		c15,20.5,3.3,46.3,16.4,66.3c11.3,8.7,21.8,18.3,31.2,28.4c13.1,17.9,6.5,41.8-2.4,59.8c-10.9,15.8-25.5,18-43.1,16.5
		c-17.4-2.1-35.3-6.3-51.9-10.1c-13.4-4.6-28.2-5.7-40.5-11.2c-4.3,1.6-11.2,2.1-15.1,1.8c-9,1.6-18.2,5-25.9,8.9
		C705.3,665.4,675.8,672.3,649.9,660.1"/>
	<path vector-effect="non-scaling-stroke" class="st1" d="M649.9,449.3c-2,0.9-6,3.2-7.8,4.4c6.5,4.3,15,6.1,22.7,5.3
		c9.5-5.1,8.7-5.5,0-10.9C661.2,448.3,653.5,448.9,649.9,449.3"/>
	<path vector-effect="non-scaling-stroke" class="st1" d="M800.2,641.2c-10.7-4.4-20.3-11.8-30-17.8c1.7-13.9,9.8-25.2,16.2-37.2
		c2.3-5.4,7.4-12.9,4.4-18.8c-2.4-4.6-4.4-10.9-9.2-13.5c-22.3-15.1-28-39.4-16.7-63.6c12-17.4,38.3-21.2,57.9-18.4
		c21.2,2.9,37.6,21.6,39.7,42.4c2.1,14.2-2.8,29.5,5.3,42.3l0,0c3.9,3.4,11,8.8,15.1,12c10.6,9,23.8,18.9,26,33.3
		c3.8,20.1-7,42.3-24.8,51.6C856.1,659.8,826.4,649,800.2,641.2"/>
	<path vector-effect="non-scaling-stroke" class="st0" d="M680,661.8c-10.4,0-21.8-1.6-30.2-8.4c-11.8-5-17-18.2-15.1-30.3
		c20.8-25.2,63.7-21,90.5-9.2c5.1,2.6,12,6.2,16.7,8.2c4.3,1.6,3.7,1.5,0.1,3c-2.9,3.7-6.9,7.6-9.5,11c-1.9,4.8-6,7.5-10,9.7
		C709.8,653.6,695.2,663,680,661.8"/>
	<path vector-effect="non-scaling-stroke" class="st1" d="M890.4,641.4c15-13.7,19.1-38.3,6-54.4c-9.5-10.8-22.8-17.2-33.3-26.3
		c-6.3-3.9-9.6-7.3-8.7-14.9c-1.5-11.8,5.1-23.7,1.2-35.4c-3.8-21.7-27-36.4-47.9-32.8c-43.3,1.9-53,46.8-18.7,70
		c4.8,4.1,12.9,6.4,14.6,12.4c2.7,10.6,0,17.2-5.4,25.9c-2.8,9.7-11.8,19.2-8.6,29.4c-0.6,10.6,10.5,15.8,17.8,20.7
		C828,647,872.1,659.5,890.4,641.4"/>
	<path vector-effect="non-scaling-stroke" class="st1" d="M642.5,641.4c-0.8-9.1-3.4-19.8,7.5-23c20.8-12.4,49.9-7.9,69,5
		c-0.4,20-7.6,21.9-23.8,29.2c-9.2,5.4-20.4,3-30.1,2.6C657,652.2,649.4,646.1,642.5,641.4"/>
	<path vector-effect="non-scaling-stroke" class="st1" d="M673.4,618c9.2-1,19.2,1.2,27.5,5.3c2.3,9.8,3.4,19.4-8.1,22.6
		c-12.3,6-29.8,4.5-40.4-4.3C649.8,623.6,655.5,618,673.4,618"/>
	<path vector-effect="non-scaling-stroke" class="st1" d="M830.3,638.9c-32.4-11-37-29.9-18.9-57.9c4.8-4.9,7.5-12.4,10.7-18.2
		c4.5-5.4,5.4-9.4-3-9c-18.2-9.3-44.7-20.8-41.4-45.5c2.3-19.6,26.4-28.3,43.7-24.3c17.1,5.3,27.4,15.4,28.5,33.8
		c-0.3,13.1-7.7,25.4-11.1,37.8c4.9,4.7,14.4,8.8,21.4,10.9c9,7.4,21.2,12,29.5,20.3c12.9,13.6,11.5,35.8-2,48.5
		C872.9,649.3,848,644.8,830.3,638.9"/>
	<path vector-effect="non-scaling-stroke" class="st0" d="M680,629.7c8,9.9,5.4,13.7-6.9,12.2c-6.6,0-10.1,1.4-8.6-7
		C664.7,629,675.6,631.4,680,629.7"/>
	<path vector-effect="non-scaling-stroke" class="st1" d="M794.5,496.1c11.2-6.6,25-8.8,35.6,0.1c13.9,5,15.4,26.1,6.7,36.4
		c-15.5,10.3-21.1,9.4-36.9,0.7C785.9,528,780.4,503.8,794.5,496.1"/>
	<path vector-effect="non-scaling-stroke" class="st1" d="M860.3,639.4c-21.4-1.1-58.5-12.6-48.6-40.4c3.7-13,16.1-24.7,28.6-28.4
		c5.9,1.3,15.6,2,21.2,4.2c8.1,4.7,18.5,8.3,24.5,15.6C902.9,614.2,888.3,638,860.3,639.4"/>
	<path vector-effect="non-scaling-stroke" class="st1" d="M798.8,520.3c0-5.7-2.1-12.8,2.3-17.4c7.3-4.4,17.2-6.4,24.5-0.8
		c4.2,4.9,4.9,12,6,18.1c-1.9,1.9-4.6,4.7-6.9,6.1C815.9,532.6,806.4,525.2,798.8,520.3"/>
	<path vector-effect="non-scaling-stroke" class="st1" d="M822.9,617.2c-10-12.8,1.8-29.5,13.5-36.3c18.7-5.2,42.4,3.4,50.4,21.4
		c2.3,7.4-0.6,14.6-2.8,21.2c-5.5,5-13.8,8-20.6,9.7C849.7,634.1,829,631,822.9,617.2"/>
</g>
</svg>
