<?xml version="1.0" encoding="utf-8"?>
<!-- Generator: Adobe Illustrator 28.0.0, SVG Export Plug-In . SVG Version: 6.00 Build 0)  -->
<svg version="1.1" id="Layer_1" xmlns="http://www.w3.org/2000/svg" xmlns:xlink="http://www.w3.org/1999/xlink" x="0px" y="0px"
	 viewBox="0 0 822.5 726.1" style="enable-background:new 0 0 822.5 726.1;" xml:space="preserve">
<style type="text/css">
	.st0{fill:#1B2716;stroke:#000000;stroke-miterlimit:10;}
	.st1{display:none;fill:#1B2716;stroke:#000000;stroke-miterlimit:10;}
</style>
<g id="surface1262">
	<path vector-effect="non-scaling-stroke" class="st0" d="M390.2,412.2c10.1,1.2,22,2.9,30.9-3.3c15.4-8.5,28.6-24.9,33.6-41.8
		c3.6-14.3,2.9-16.3-7.6-26.8c-9-10.7-21.1-18.3-33-24.5c-27-17.4-57.8-27.4-88.7-33.9c-16.7-0.3-36.5-0.5-46.2,15.3
		c-12.2,19,3.5,47.7,15.9,62.8C319.9,387.5,354.3,405.7,390.2,412.2"/>
	<path vector-effect="non-scaling-stroke" class="st1" d="M606.8,917.9c-46.9-16.3-73.9-64.9-121.4-79.3
		c-19-8.3-40.7-10.5-60.8-15.4c-25.2-5.9-51-12.1-75.9-19.1c-29.9-9.8-59.2-21.8-88.8-32.6c-23.5-7.9-48-14.3-70.7-24.4
		c-35.8-13.8-67-38.1-92.8-66.2c-21.8-21.1-44.7-42.4-62.5-67.1C9.7,582.5,2.7,541.5-19.3,508.9c-9.3-10.1-18.4-21.9-27.5-32.2
		c-6.3-5.8-13.7-11.9-18.8-19c-8.8-11.9-17.3-24.8-23.9-38.1c-7-18.3-10.3-38.6-13.1-57.8c-6.8-39.6-31.2-81.5-8.9-120.4
		c32-61.3,107.4-62,140.2-125.6l0,0c13.2-20.1,26.8-40.3,45.5-55.7C105.6,35,143.1,18,180.7,4.4c49.4-26,100.7-49,152.7-69.4
		c44.4-21.4,90.3-45.3,140.7-46c26-0.7,52.5,4.1,76.8,13.3c29.6,12.8,59.3,28.8,92.6,26.8c47.5-4.3,96.8-10.9,143.1,4.2
		c91.1,22.8,140.8,91,163.8,178.6c28,84.8-32,101.9-15.6,191.8c17.9,63.7,28.5,86.9-11.3,146c-27,46.8-27.4,82.9-88.5,97.8
		c-9.8,2.9-21.5,4.7-30.4,9.8c-8.5,0.1-13.3,8-11.9,15.8c-3.6,10.3,9.1,17.8,11.9,26.9c20.5,31.6,41.5,59,27.2,98.8
		c-9.5,22.6-29.7,38.1-45.5,56c-18.7,15.5-14.9,41-8.8,61.7C807.7,914.9,678.6,948.1,606.8,917.9"/>
	<path vector-effect="non-scaling-stroke" class="st0" d="M544.4,47.4c1.6,0.2,4.7,7.9,5.3,9.1c6.9,3.7,16.3,6.6,24.4,5.6
		c2.4-0.3,5.5,1.5,5.5-2.1c7.3-1,10.5-7.2,11.7-13.8c-0.7-8.6-2.1-17-3.1-25.1c-8.2-2.6-11.5-2-3.4-9.2c0.1-4.7-7.5,4.3-8.5,4.5
		c-1.9,1.2-9,4.5-11.2,5.4c-4.8,2.7-12,3.5-11.9,10.3C549.1,35.1,545.1,42.6,544.4,47.4"/>
	<path vector-effect="non-scaling-stroke" class="st1" d="M637.2,888.2c-42.9-10.2-60-56.7-98.8-73c-46.4-16-97.2-16.2-144.4-29.7
		c-42-9.8-81.8-28.3-121.9-43.8c-28.3-9.4-56.9-19.4-83.6-32.7c-24.6-13-46.9-30.4-68.3-48.1C85.5,631.6,52.1,598,38.3,553.6
		c-8.1-21.4-17.9-42.7-31.7-61.1c-19.9-23.2-43.5-44.4-56.6-72.4C-63.2,395.2-61.4,366-66.2,339c-6-32.3-18.9-69,4-97.7
		C-35,205,16.4,194.9,42.6,157.8c20-28.8,34.1-63.2,63-84.1c29.3-23.5,66.3-35.8,100.9-46.8C243.7,14,280.8,2.2,317.2-11
		c38.8-12.6,72.3-38.5,108.6-54.3c37.8-15.2,84.4-15.1,116.6,9.9c13.3,8.6,23.3,21,33.5,32.1c1.6,7.5,10.9,14.2,17.4,13.1
		c6.6-4.8,15.4-2.6,21.1-6.7c12.8-8.2,28.3-12.1,41.3-17.8c43.8-15.9,90.9-17.8,134.5-2.3l0,0C845-18.6,890.6,31.5,895.5,89.7
		c5.9,33.7-10.5,64.2-13.9,96.5c1,23.2,6.5,47.1,7.9,69.9c1.5,32.8,2.2,65.5,3.7,97.8c1.8,39-28.9,63.6-58.3,82.9
		c-24.8,15.9-48.7,34.7-75.1,47.2c-15.9,11.3-34.8,19.6-45.5,36.2c-17.4,18.1-19.5,41.7-5.5,62.1c16.5,19.3,38.9,32.5,55.8,50.5
		c39.8,44,12,72.7-28.5,99.1c-8.7,6.5-20.2,10-26.6,18.7c-8.7,9.1-14.4,20.2-8.1,32c1.4,8.5,8.1,15.8,12,22.7
		c6.6,11.3,13.2,24.5,14.2,37c1.2,18.1-11.5,31-24.4,41C682.6,892.7,658.8,894.1,637.2,888.2"/>
	<path vector-effect="non-scaling-stroke" class="st1" d="M454.7,773.2C398,767.9,345,745.8,292.6,725
		c-30.7-11.8-62.7-22.5-92.1-36.9c-41.4-22.2-81.2-49.9-111-86c-26.4-30.6-31.4-72.7-53.1-105.4C12.5,463-23.1,436.5-32.2,394.6
		c-3.5-23.5-2.1-50.2-5.5-74.4c-7.1-37.8-4-64.4,28.3-89.1c23.9-17.4,50.8-32.3,68.8-56.4c16.5-19.1,24.1-44.6,40.2-64.2
		c32.8-44.9,90.6-58.5,142.5-67.7c35.8-4.6,73.8-6.4,106.4,11.7c12.8,6.1,24.8,16.3,38.2,20.7c27.7,4.7,56.1,4.5,83.8,9.2
		c42.8,10.6,83.8,28.1,125.4,42.1c16.3,7,34.4,12,52.3,12.9c7.1-5.6,9.6-17.2,7.7-25.8c-0.2-22.5-3.8-46.2-4.4-68.8
		c-1.8-24,7.1-45.9,29.6-56.7C724-35.8,779.2-24.6,817,4.3c27.5,23.7,48.3,62,34,98.1c-11.8,23.7-28.7,32.4-47.6,48.4
		c-10,8.4-15.7,15.7-2.9,24.8c7.5,10.3,18,17.5,27.1,26.3c15.3,16.7,27.7,37.2,30.6,60.1c3.5,32.6-0.4,67.7-16.9,96.5
		c-14.1,24-39.5,39-60.1,56.8c-25.7,23.5-51.5,47.4-77.8,70.1c-20.1,19.5-36.6,44.7-39.6,73.1c-5.6,28.5,8,51.9,32.3,66.6
		c14.9,12.9,33.1,25.7,34.5,47c-1.7,13.1-17.6,22.8-27.9,29.9c-22.1,10.2-47.4,13.6-69.2,24.7c-21.4,9.1-36.4,28.5-57.1,38.6
		C538.5,780.8,494.6,778,454.7,773.2"/>
	<path vector-effect="non-scaling-stroke" class="st1" d="M753.2,107.1c23.8,0.9,45-6.2,58.3-27c6.4-7.1,1.2-17.1,2.8-25.3
		c-5.1-19.9-21.4-36.9-40.1-45.1C762,1.3,746.5,1,732.2,1c-40,5-49.1,38-32.7,71.6C714.1,94.7,727.3,103,753.2,107.1"/>
	<path vector-effect="non-scaling-stroke" class="st1" d="M424.2,745.6c-47.4-8.1-91.9-28.4-137.1-44.4
		c-79.6-27.8-171.5-65.1-205.8-148.6c-9.1-25.4-18.5-51.3-35.8-72.5c-21.3-28.7-53.4-54.3-56.2-92.4c-2.4-17.6,0.3-35.8,0.7-53.4
		c0.6-14.6-1-29.8,0.5-44.4c4.1-48.3,58.5-66.3,83.2-102.6c39.1-57.9,43.4-98.1,121.9-116.9c33.6-9.1,70.3-7.9,102.3,6.5
		c16.2,7.6,30.5,19.2,46.6,26.9c17.8,11,39.4,15.3,60.1,14.9c53.6-4.2,100-3.3,148.3,24.4l0,0c31.5,17.5,62.9,38.3,99.1,43.8
		c35.5,5.9,71.4,3.6,106.4,12c70.8,19.5,94.9,75.9,58.6,139.6c-12.6,20.5-31,35.4-47.6,51.8c-18.5,15.4-34.7,33.6-51.3,50.6
		c-16.8,16.6-34.2,33.2-49.3,50.9c-10.5,15.6-19.9,33.3-26.2,50.3c-10.9,28.4-17.5,60.4-38.3,82.2c-5.7,6-12.3,11.6-18,16.6
		c-7,4.7-15,10.4-16.4,18.3c-6.9,15.7-6.1,33.5-15,47.2C530.9,754.7,469.3,749.9,424.2,745.6"/>
	<path vector-effect="non-scaling-stroke" class="st0" d="M421.7,718.1c24.3,2.6,57.7,0,67.4-26.6c3.7-27.8,5.2-40.4,28-58.3
		c21.3-12.8,45.6-21.8,66.3-36.1c29.8-21.1,41.1-57.1,56-88.6c12.7-24.7,32.5-44.6,51.4-64.5c19.9-21.4,40.6-42.5,61.1-63.2
		c30.6-28.6,69.1-65.9,58.2-111.8c-11-47.5-67.9-54.9-108.8-59.2c-29-2.3-59.2-6-86.9-11.7c-74.7-20.7-97.2-64.4-186-50.5
		c-88.2,14.3-111.2-51.4-186.5-62.7c-35.2-2.7-72.7,6.4-98.8,31.2c-18.1,17.4-29,41.2-41.2,62.6c-9.3,17-22.9,31.8-34.9,46.4
		c-16.3,15-32.1,31.4-41.5,51.3c-9,21.8-7.5,46.6-11.8,69.4c-7.6,37.3-2.6,68.4,22.6,97.9c15.3,18.3,32.4,36.9,42.6,58.4
		c13.4,26.7,19.8,56.9,36.9,81.1c41.4,54.4,108.5,79.3,170.9,99.2C331.5,696.1,375.3,713.1,421.7,718.1"/>
	<path vector-effect="non-scaling-stroke" class="st1" d="M272.1,661.4c-68.6-20.1-143.6-55-164.2-129.7
		c-6.6-20.5-15.6-40.5-28.1-58.1c-11-16.2-24.9-30.8-35.4-47.4c-20.7-28.8-12.7-65.3-4.4-97.1c4.9-28.9,11.4-58.4,31.4-80.9
		c16.7-22.9,36-44.2,49.1-69.6c11.1-18.9,21.3-39.7,38.1-54.2c17.1-13.8,39-22.6,60.9-22.7c37.9-2.2,70.4,20,99.9,41
		c21.8,14.4,45.8,26.9,71.7,31.7c29.6,6.7,60-1.5,89.7,1.5c32.1,2.8,61.8,18,92.4,27c53.8,19.5,112.5,13.6,167.3,28.1
		c70.2,19.7,62.4,78.1,18.5,122.1c-10.7,12.8-24,23.1-35.2,34.8c-21.4,22.4-43.2,44.6-63.8,67.4c-24.4,24.3-37.8,56.1-52.5,86.3
		c-21.3,46.8-71.9,59.8-114.7,79c-17.8,6.6-32.2,19.1-45.6,32c-4.7,5.8-9,13.5-15.2,17.6C395.5,701.5,314.8,671.2,272.1,661.4"/>
	<path vector-effect="non-scaling-stroke" class="st1" d="M241.7,637.4c-39.5-14.6-81-34.7-103.2-72.2c-12.7-20.8-18.1-45.5-28-67.6
		c-12.6-32.9-42.8-55.9-55.1-88.8c-11.5-27.2,1.5-56.7,8.1-83.6c4.6-19.6,9-40.1,18.4-58c6.4-13.5,16.2-25.6,24-38.3
		c20.7-26.9,33.9-59.5,56.7-84.7c21.3-22,49.6-28.3,79.1-22.6c23.3,7.1,43.8,20.6,63.8,34.1c54.9,41.4,111.9,53.6,179.6,51.3
		c41.6,2.4,82.5,13.3,123.7,18.9c42.7,9.2,133.9,3.2,157.5,42.9c30.3,50.5-55.1,107.6-83.5,142.7c-21.8,21.7-44.7,43.4-60.8,69.9
		c-22.4,38.4-30.8,80.8-76,100.7c-18.8,10.3-39.7,16.9-60.2,22.8c-16.4,6.1-33.1,13.4-49.1,20.5c-21.9,12.4-43.1,29.5-69.3,31.1
		C325.2,661.2,281.7,650,241.7,637.4"/>
	<path vector-effect="non-scaling-stroke" class="st1" d="M298.2,636.1c52.3,8.9,93.2-12.8,140.3-30.9c41.5-13.2,88.5-19,122.9-47.9
		c21.6-18.8,31-46.5,42.5-71.8c9.8-20.7,25-38.6,41-54.8c22.2-23.1,46-45.4,68.5-68.3c29.6-29.2,66.7-77,15.1-105.4
		c-36-14.5-76.1-14.6-114.2-19.3c-28.2-3-57.5-7.3-85.4-8.6c-27.3-1.5-55.5,0.7-82-1.9c-38-4.2-74.6-16.1-108-33.5
		c-45-20.2-88.6-72.7-141.4-51.8c-30.7,12-45.4,45.4-62.8,70.9c-20.3,29.8-38.2,61.6-44.5,97.4c-7.8,42-33,76-5.1,116.4
		c11.3,19,26.1,35.9,35.2,55.8c10.9,20.9,15.4,44.9,25.2,65.9C171.9,606.4,239.6,627.9,298.2,636.1"/>
	<path vector-effect="non-scaling-stroke" class="st1" d="M236.8,608.7c35.6,11.8,74.8,16.2,111.7,8.2c22.5-5,44.1-14.6,66.6-19.5
		c43.3-12.1,91.8-15.1,129.4-41.7c36.5-23.9,38.5-72.3,64.1-104.6c34.1-42.6,81.2-73.4,114-117.3c43.4-61.4-24.9-77.2-74.2-81.6
		c-38.9-4.8-78.3-9-117.6-8c-49.9,2.8-97.1,3.5-144.6-15.1c-29.9-11.2-59.3-24.4-86.9-40.6c-22.5-12.5-45.4-29.8-72-30.3
		c-8.5-0.6-18.4-0.9-25.6,4.4c-10.8,5.6-21.4,12.6-28.1,22.9c-16.6,20.2-31,42.6-42.9,65.9c-19.6,38-15.9,83.5-33.3,122.4
		c-7.8,34.4,17.2,62.3,32.3,90.7c12.1,20.4,16.9,44.2,24.2,66.5C165.7,569.7,199.4,596.4,236.8,608.7"/>
	<path vector-effect="non-scaling-stroke" class="st0" d="M302.5,605.2c-45.7,0.1-98.3-14-122.8-55.7c-14.4-26.8-16-58.5-27.7-86.4
		c-8.3-24.3-24.7-47.4-23.1-73.8c2.4-16.5,8.5-33.2,9.3-50.1c1.9-24.7-1.3-50.4,7-74.3c4.9-17.1,14.7-32.6,25.1-46.8
		c9.3-16.3,24.9-27.4,40.6-37.1c34-6.5,61.8,11.4,91.3,25.6c26.7,13.6,55.9,25.2,83.6,35.1c32.3,10.4,65.3,21.2,98.7,18.7
		c53.3-3.1,106.2-6.3,158.7,1.2c37.2,5.7,89.8,14.4,66.4,63.7c-25.5,42.5-68.9,69.2-102.9,103.4c-18.6,16.6-28.7,41-35.5,63.7
		c-19.3,71.7-85.6,78.3-147,89C382.5,586.3,344.3,603.4,302.5,605.2"/>
	<path vector-effect="non-scaling-stroke" class="st1" d="M241.7,581.1c-24.4-13.2-35.8-17.8-48.2-44.2c-7.5-18-9.4-38.8-10.1-58.2
		c-2.2-21.3,0.4-43.1,4-63.9c6.4-65.5-49.6-113.3-6.8-180.6c10-10,21.9-25.9,35.8-29.3c29.3-8.7,57.3,6.2,84.3,16.3
		c41.5,16.6,83.5,33.4,126.5,45.8c43.7,14.6,89.9,3.6,134.6,2c48.9-1,182.9-0.3,115.9,77.9c-15.7,18.7-35.5,34.1-54.8,48.9
		c-19.4,13.8-44.1,30.8-54.4,54.5c-11.9,31.3-13.5,70.4-43.7,91c-42.4,28.3-95.3,25.3-143.7,33C335.1,581.6,287.7,597.9,241.7,581.1
		"/>
	<path vector-effect="non-scaling-stroke" class="st1" d="M235.2,555.3c-5.8-6.6-12.6-13.7-17.8-20.9c-6.6-19.6-4.6-39.1,12.2-52.8
		c11.2-9.6,26.8-10.2,40.3-15.1c7.9-1.7,12.3-10.6,16.4-16.7c-0.3-6.3-4.3-13.8-8.7-18.2c-0.9-2.4-3.8-8.1-5.6-9.8
		c-23.6-21.6-44.8-47-59.3-75.6c-11.6-19.1-21-40.3-23.4-62.8c0.6-15.1,5.8-30,15.2-41.9c4.1-8.4,13-11.4,21.3-14.3
		c31.4-11.1,64.6,6.2,95,14.4c42.4,12.7,82.9,32.2,126,42.3c44.1,11.1,89-4.3,133.5-4.4c32.6,0.3,69.6,1.1,94.5,25
		c-1.2,9.3,0.5,19.9-5.2,27.9c-14,18.9-30.5,34.1-49.2,47.1c-10.9,8.8-24.4,14.4-35.3,23.3c-10.8,6.8-23.6,13.9-29.9,25.5
		c-11.3,15.3-11,36-13.4,54.1c-3,24-14.6,45.1-36.3,56.9c-42.4,22-92.1,15.4-138.2,19.3C324.1,561,274.5,582.2,235.2,555.3"/>
	<path vector-effect="non-scaling-stroke" class="st1" d="M328.3,524.7c24.5,12.5,53.6,13.4,80.5,17.5c37,1.9,87.5,2.5,107.5-34.7
		c7.3-13.7,7-27.8,5.6-42.8c-2.5-15.5-7.8-34.4,1.3-48.5c14.9-18.5,38.8-26.5,60.5-34.4c19.7-11.5,42.1-21.4,55.9-40.2
		c13-14.1,10.9-20,4.6-37.1c-6.3-3.2-15-5.3-21.9-7.2c-38.9-9.2-79.1,0.1-117.8,4.2c-32.2,4.5-64.4-4.5-94.2-16.5
		c-46-16.3-127.1-54-173.5-34.2c-27.9,17-18.2,53.9-6.2,78.2c20.5,43.9,50,68.7,87.2,97.4c6.1,5.9,13.6,12.2,20,17.8
		c2.6,11.5,9.2,23.5,2.5,34.9c-3,7.8-7.3,16.9-11.3,24.3c-6.4,2.3-8.9,10.5-9.9,16.5C318.9,521.6,327.6,523.9,328.3,524.7"/>
	<path vector-effect="non-scaling-stroke" class="st1" d="M420.6,523.8c23,5.4,47.8,2.1,68-10.3c6.1-9.9,14.1-21.6,10.2-33.7
		c-8.3-33.3-38.2-46-13.6-82.7c25.7-39.5,83.1-23.4,115.6-51c5.2-6.7,20.8-14.8,13.2-23.5c-14.8-9.7-34-12-50.9-9
		c-20.7,2.5-41.3,8.9-61.9,10.3c-9.9,0.4-22.4-1.7-31.9-2.3c-46.3-15.4-88.4-41-136.2-51.6c-22.1-5-47.5-9.3-68.5-0.7
		c-32,17.8-11.3,60.4,2.5,83.6c20.6,30.7,51.8,50.5,82.6,68.4c18.3,12.8,31.6,20.2,35,43.2c0.5,9.6-2.2,19.4-1.2,28
		C388,513.3,401,520.3,420.6,523.8"/>
</g>
</svg>
