<?xml version="1.0" encoding="utf-8"?>
<!-- Generator: Adobe Illustrator 28.0.0, SVG Export Plug-In . SVG Version: 6.00 Build 0)  -->
<svg version="1.1" id="Layer_1" xmlns="http://www.w3.org/2000/svg" xmlns:xlink="http://www.w3.org/1999/xlink" x="0px" y="0px"
	 viewBox="0 0 1080.9 928" style="enable-background:new 0 0 1080.9 928;" xml:space="preserve">
<style type="text/css">
	.st0{fill:#A6BD03;stroke:#000000;stroke-miterlimit:10;}
	.st1{display:none;fill:#A6BD03;stroke:#000000;stroke-miterlimit:10;}
</style>
<g id="surface1272">
	<path vector-effect="non-scaling-stroke" class="st0" d="M653.6,505.2c16.2-7.6,34.2-12.4,52-13.6c15.3-1.1,35.1,3.5,38.6,20.6
		c-2.8,9.6-6.6,21.2-14.8,27.9c-17.3,22.8-54.1,18.6-74.2,1.9c-5.3-4.3-15.4-10.8-12.2-18.7C643.8,515.8,647.4,509.5,653.6,505.2"/>
	<path vector-effect="non-scaling-stroke" class="st0" d="M196.3,914.4c63.5,26,132.3,3.5,198.3,6.6c64.2,1.1,131.4,4.7,192-20.1
		c28-10.2,53.7-27,82.3-35.8c34.4-10.5,71.2-9,106.4-14.9c32.2-5.3,62.2-19.2,92-31.8c53.7-20,114.9-22.6,162.7-56.9
		c41.6-36.9,36.5-65.4,8.2-109c-11.4-16.1-24.9-34.7-18.9-55.5c9.2-22.8,22.7-44.3,36.2-64.8c22-32.2,38.3-68.5,6.3-100.7
		c-23.4-23.4-55.1-38-76.2-63.9c-38.6-46.1-60.7-54.6-120.5-52.5c-34.9,3-68.7-5.6-97.9-24.9c-18.4-13-39.2-24.3-52.6-42.9
		c-4.1-14.4,2.3-29,11.2-40.3c5.8-10.2,12.5-25.1,7.4-36.6c-18.8-38.5-77.2-45.2-115.6-48.8c-37.5-2.9-75.6,0.2-113-4.8
		c-33.1-4.2-65.7-14.7-98.1-22c-7.9-2.1-17.2-5.4-24.8-8.6c-8.1-7.8-27.5-15.8-22.7-29.2c1.8-10.9,6.6-21.3,10.5-31.5
		c-0.1-10.4,0.6-29.2-14.6-25c-4.1,4.8-10.3,9.5-16,12.3c-7.5,5.3-10.2,16-16.7,22.2c-26.3,20.2-62.7,22.6-92,38.2
		c-33.3,14.3-66.7,60.1-36.1,92.2c16.4,19,43.5,24.4,60.1,42.5c1.1,2.3,7.7,8.8,7.5,11.6c-2.9,13.8-16.7,23.8-29,29.5
		c-37.8,17.2-81.4,41.2-86,87c-8.2,51.1,15.4,43.6,55.5,43.3c28-1.7,56.7-3.1,84-8.4c27.2-4,110.8-20.7,68.3,31.1
		c-6.7,3.9-13.2,9.5-18.9,14.7c-18.4,10.3-39.5,16-59.4,22.5c-32,7-65.1,10.8-95.3,24c-37.3,14.4-60.9,48-89.7,73.9
		c-25.2,19.7-56.3,32.3-77.8,56.5c-39.3,55.3,23,72.4,17.8,114.2c-6.3,18.4-20,34.4-24.8,53.4c-6,17-2.7,36.4-0.9,53.9
		c1.2,17.3,5.9,34.1,20,45.3c28.8,15.7,63.9,4.2,94.8,10.8C149.4,878,169.2,903.3,196.3,914.4"/>
	<path vector-effect="non-scaling-stroke" class="st1" d="M164.4,769.1c-12.7,14.5-35.1,17.6-53.3,15.3c-8.1-3.5-19.9-6.5-20.1-17.2
		c3.7-10.2,10-19,20.1-23.8c14.2-4.8,31.4-8.5,45.3-1.2C171.4,745.9,168.8,757.6,164.4,769.1"/>
	<path vector-effect="non-scaling-stroke" class="st1" d="M284.8,887.6c50.7,6.4,102.6,10.2,153.9,11.2
		c64.7,1.5,120.7-11.3,169.7-55.6c35.6-25,80.6-20.9,121.9-21.2c56.1,1.6,107.6-23.3,161.8-33.3c51.6-11.5,149.8-27.1,132.6-99.9
		c-5.3-11.7-12.3-23.2-19.7-33.7c-6.6-7.8-14.7-16.1-19.5-25.3c-20.9-25.2-4.5-54.2,12.5-76c17.9-28.7,53.8-66.2,32-100.6
		c-14.3-21.9-38.6-34.7-59.3-49c-17.7-11.5-34.5-25.2-52.9-34.7c-39.8-20.8-86.6-18.8-128.4-33.4c-31.4-10.5-57.6-32.9-86.5-48.1
		c-16.5-9-34.3-17.6-51.8-23.1c-9.8-3.4-19.2-12.1-27.3-17.3c2.3-13.8,14-23.2,22.5-32.9c10.9-9.1,19.6-21.5,18-35.9
		c-11.2-20-50.1-27.4-71-25c-41.3-2.6-80,15.8-120.4,20.7c-29.3,4.6-74.4-7.1-96.6,14.6c-12.7,13-13.6,33.3-19,49.1
		c-4.4,17.5-13.2,38.4-32.4,41.9c-2.3,2.9-4.2,1.3-5.9-0.1c-9.1,2.2-19.5,1.1-27.3,5.8c-13.9-3.3-28.5,5.7-40.5,10.6
		c-4.8,3.8-16.3,7.9-16.1,13.9c0.9,11.3,17,20.8,26.6,14.8c19.8,2.6,40.9-10.6,58.2-18.3c4.5-9.2,16-12.5,24.5-15.7
		c7-3.7,16.2-2.5,22.7-6.5c7.3,2.6,15.8-1.6,22.8,0c25-3.2,50.6-6.4,73.2-16.9c20-9.1,53.9-15.1,71.2-3.9
		c-9.4,20.9-11.5,20.4-30.9,30.8c-48.9,22.6-51.6,38.3-65.4,86.1c-16.1,42.4-70.6,66.1-111.2,77.7c-50.1,13.8-107,15-148,49.6
		c-18.4,15.9-29.1,39-49,52.5c-21.2,17.1-49.8,26.4-64.3,50c-22.9,41.2,62.3,74.6,90.5,84.9c21.6,6.2,44.1,8.3,65.1,12.9
		c28.9,10,59.3,15.7,85.3,32.2c27.7,17.9,10.3,49.2-8.1,66.1c-10.4,11.9-19.7,25-29.8,36.2c-4.6,7.4-9.7,15.2-12.4,22.7
		C259.3,879.2,271.9,886.6,284.8,887.6"/>
	<path vector-effect="non-scaling-stroke" class="st1" d="M528.9,857.9c7.3-6.6,15.2-13.8,20.5-22.2c6-12.6,14.9-23.9,26.5-31.8
		c34.5-19.2,77.7-12.5,115.6-9.9c37.5,4.7,75.7,5.4,112.8-2.5l0,0c31.7-5.5,63.5-13.1,95.1-19.2c45-7,128.9-33.3,96.5-93.2
		c-36.3-57.4-87.1-69.6-25.5-137.1c44.9-54.2,45.8-80.2-14.8-120.6c-64.1-47.7-107.5-50.2-180.1-69.4
		c-29.8-10.6-56.4-28.5-84.2-42.9c-39.5-19.2-86.3-19.9-125.1,0.4c-33.2,15-71,33.3-81.6,70.8c-7.5,33.8-38.1,52.6-64.6,70
		c-38.6,27.8-76.4,36.1-122,41.7c-32.3,6.3-71.3,12.2-87.5,44.1c-5.3,15-15.2,29.2-27.4,38.5c-19.5,13.1-41.9,21.8-56.3,40.8
		c-1.4,20.8,16.3,31.4,33.7,36.7c18,7.2,37.5,12.2,55.8,17.6c39.5,11.4,77.1,29,113.3,47.8c44.2,23.2,50.1,46.3,17.9,84.4
		c-25.4,31-30.7,56.9,14.2,69.2C416.2,883,479.6,887.6,528.9,857.9"/>
	<path vector-effect="non-scaling-stroke" class="st1" d="M406.3,856.6c29.5,5.3,78.7,2.4,93.5-28.3c6.3-10.9,9.4-25.1,18.3-34.3
		c12.2-11.2,28.9-19.9,45.4-22.1c49.6-10.7,101.3-0.7,151,5.1l0,0c50.5,9.1,101.3-1.5,151.3-8.8c43.7-9.3,139.7-21.5,112.5-86.5
		c-17.9-30.9-51.6-50.2-65.3-83.5c-12.7-40.1,36.4-61.4,52.5-92.1c28-42.1-23.1-74.5-54-94.8c-45.1-30-100.4-35.7-150.9-50.6
		c-37-8.7-67.4-34.7-104.6-40.8c-26.2-3.5-53.6,0.2-77.3,11.7c-16.5,8.7-34,18-44,34c-7.4,8.9-10.2,21-14.5,31.1
		c-5.8,11.1-12.3,22.4-21.9,30.1c-35.4,28.9-75,53-106.8,85.6c-5.8,6.6-14.6,11.9-19.9,18.5c-4,6.4-10.2,12-13.2,18.3
		c-25.9,15.8-54.6,25.4-81.8,36.7c-18.9,8.3-37.2,18.7-54.2,29.4c-5.5,17.5,19.3,31,32,37.1c22.5,15.6,48.3,27.4,71.9,39.7
		c22.5,10.6,46.1,20.3,64.5,35.9c34.8,31.2,9.1,58.6-13.3,85.6C363,842.8,381.6,848.7,406.3,856.6"/>
	<path vector-effect="non-scaling-stroke" class="st0" d="M741.2,765.5c45.8,4.9,92.1-2.2,137.2-10.6
		c76.2-13.4,123.8-47.1,48.1-110.1c-27.4-24.8-64.4-66.5-28.1-100c34-35.4,72.5-57.4,25.8-104.4c-49.8-44.5-109.4-53.8-172.1-67.7
		c-45.2-9.9-89.6-40.6-136.8-28.3c-19,3.6-36.6,16-47.3,31.3c-6.9,10.9-10.7,23.5-18.5,33.6c-11.1,17.1-29.9,28.9-46.4,40
		c-15,10.6-29.9,21.6-43.7,33.4c-17.9,17-34.6,35.8-43.6,58.8c-5,14.3-12.4,29.5-24.1,38.7c-20.6,11.5-44.1,16.2-65.6,24.1
		c-17.3,6.5-37.7,15.8-31.8,37.6c27.2,36.3,75.5,47.1,115,64.6c24.9,10.2,42,31.3,63.8,45.3c29.6,1.7,58.6-8.1,87.9-6.9
		C621.8,745.9,681.5,756.1,741.2,765.5"/>
	<path vector-effect="non-scaling-stroke" class="st1" d="M650.2,736.6c37.9,5.8,75.4,16,113.7,18.6c43.7,3,88.5-3.5,131-13.9
		c28.1-6.6,64.4-26,46.2-59.6c-17.5-25.2-43.5-42.9-63.1-66.2c-67.7-84.9,80-98,34.1-161.5c-34.3-47.7-98.4-58.6-152.8-68.5
		c-21.6-3.7-43.8-7.4-65-12.9c-28.4-6.7-61.4-11.7-86.3,7.2c-12.5,14.5-22.6,31.9-37.4,44.2c-38.3,28.8-84.8,49.9-112.9,89.9
		c-13.7,18.6-16.7,41.6-22.6,62.9c-11.8,42.1-66.7,30.8-91.3,59.7c-3.6,9.7,7.7,15.3,11.6,22.7c20.5,13.9,48,19.3,72.1,23.3
		c20.1,3,40.9,3.1,60.3,7.8c21.1,4.4,40.6,15.1,60.3,22.4C581,725.5,616,729.6,650.2,736.6"/>
	<path vector-effect="non-scaling-stroke" class="st1" d="M714.2,736.2c-25-5.7-50.6-11.4-75.4-17.7l0,0
		c-18.7-4.8-38.3-10.6-55.1-19.8c-20.9-11.5-40.4-26-62-35.5c-19.2-8.9-40.3-13.9-58.6-23.6c-7.1-15,1.8-30.6,1.6-45.7
		c0.5-17.1-3.1-35.7,2.3-52c8.8-32.6,36-56.2,63.2-73.7c18.5-13.1,40-21.9,58.5-34.2c18.2-9.7,33.4-23.9,50.3-34.6
		c33-16,70.5-8.3,105.4-5.6c43.8,5.6,90.6,12.1,127.1,38.1c97.8,74.3-90.8,91.3-8.7,185c16.1,18.9,36.5,33.7,52.2,52.2
		c53.1,62.1-68.2,72.9-107.2,75.2C776.2,747.1,745,740.3,714.2,736.2"/>
	<path vector-effect="non-scaling-stroke" class="st1" d="M774.6,735.3c-45.7-5.1-90.7-17.9-133.7-33.9c-26-9.8-47.8-27.3-69.8-43.8
		c-40-27.2-73.4-43.8-83-96.1c-7.1-61.2,65.7-95,111.9-116.1c36.7-17.6,72.6-40.3,114.3-40.3c46.1-0.3,94.6,3.4,135,26.8
		c13.1,6.1,22.4,17.6,29.7,29.3c2.8,6.9,1,14.6,0.4,21.4c-11.6,25.8-38.5,42.4-50.3,68.6c-31.8,69.2,109,114.8,73.6,159.3
		C866.1,736.2,817.8,736.9,774.6,735.3"/>
	<path vector-effect="non-scaling-stroke" class="st1" d="M709.2,710.9c-70.7-22.1-81.9-41.2-133.3-88.2
		c-27.1-23.4-71.2-46.2-65.7-87.8c14.9-49.2,70.9-68.9,114-86.7c24.4-8.9,47.5-21,72.5-27c49.6-10.4,107.2-7.8,149.5,21.7
		c35.7,28.4,6.5,54.9-14.5,80.2c-15.6,19.8-28,47.4-17.2,71.7c13.7,27.2,38.7,46.2,58.3,68c11.7,13.9,22,25.6,9.8,42.6
		c-22.1,16.1-52,19.9-77.9,20.7C771.8,727.4,740.1,720.5,709.2,710.9"/>
	<path vector-effect="non-scaling-stroke" class="st0" d="M739.9,708c30,8.3,114.7,17.5,125.7-20c-0.8-14.2-13-26.9-22.7-36.7
		c-8.3-9.9-17.8-19.6-26.6-29c-27.6-30.8-26.8-55.2-5.8-89.6c8.7-18.9,30.8-35.6,33.2-56.2c5.4-24.1-26.6-39.4-46.9-44.5
		c-37.2-9.1-77-6.2-112.8,7.1c-46.2,17.4-168.3,44.3-149.5,111.3c13.2,23.1,39.3,34,58.5,50.6c20.3,16.2,36.7,37.5,53.3,56.5
		C671.4,684.5,705.8,697.6,739.9,708"/>
	<path vector-effect="non-scaling-stroke" class="st1" d="M706.9,681.4c25.5,13,54.3,21.8,83.1,22.3c16.7,0,57.7-4.4,47.4-29.3
		c-3.3-14.9-16.5-24.8-25.3-36.5c-10.3-12.2-23.5-24.1-29.7-39.1c-9.4-29.8,10.7-58.8,25.2-83.5c8.9-15.3,23.8-32.6,16.6-51
		c-17.3-24.3-51-27.3-78.6-26.5c-41.3,4.6-81.4,18.1-120.4,32.1c-28.5,11-69.9,27.3-71.5,62.5c2.9,20,22.1,31,37.1,42
		c19.9,13.6,39.8,28.2,55.6,46.5C663.9,643.6,680.5,668.3,706.9,681.4"/>
	<path vector-effect="non-scaling-stroke" class="st1" d="M744.4,681.4c-28.4-14.6-34-17-54-42.8C678.2,616.3,658,599.7,637,586
		c-37.6-27.4-97.9-54.9-33.6-95.9c21.4-12.7,46.1-18.8,69.7-26.1c29-8.1,59.4-16.7,89.8-14.1c14.4,1.7,32.2,5.4,40.9,18
		c5.1,15.8-0.1,24.7-6.8,38.7c-7.7,14.2-15.2,29.1-22.5,43.5c-8.2,15-14.9,31.7-13.5,49.2c9.5,22.7,30.1,38.3,43.9,58.2
		c4.5,6.2,2.7,17.6,0,24.2C786.3,691.3,763.7,686.4,744.4,681.4"/>
	<path vector-effect="non-scaling-stroke" class="st1" d="M679.3,590.7c4.3,2.7,10.5,6.8,15.6,5.9c2,0.5,4.8,2.3,7,1.3
		c4.8,1.3,9.8,4.7,14.5,5c22.1-12.1,33.6-36.8,46.4-57.7c47.6-75.9,12.1-92.3-63.7-76.8c-30.8,6.9-102.2,20-103,58.7
		c10.6,28,48.1,44.5,72.8,58.8C669,585.8,679.2,590.7,679.3,590.7"/>
	<path vector-effect="non-scaling-stroke" class="st1" d="M653.9,560.7c-10.3-5.4-20.1-12.3-27.9-21c-7.7-5.9-9-15-5.9-23.8
		c3.6-14.4,22.2-18.5,33.7-24.9c22.4-9,105.5-29.7,109.2,7c2.7,23.9-15.7,51.9-34.3,65.9C707.7,582.3,675.9,572.7,653.9,560.7"/>
</g>
</svg>
