<?xml version="1.0" encoding="utf-8"?>
<!-- Generator: Adobe Illustrator 28.0.0, SVG Export Plug-In . SVG Version: 6.00 Build 0)  -->
<svg version="1.1" id="Layer_1" xmlns="http://www.w3.org/2000/svg" xmlns:xlink="http://www.w3.org/1999/xlink" x="0px" y="0px"
	 viewBox="0 0 889.7 672" style="enable-background:new 0 0 889.7 672;" xml:space="preserve">
<style type="text/css">
	.st0{fill:#CB8D72;stroke:#000000;stroke-miterlimit:10;}
	.st1{display:none;fill:#CB8D72;stroke:#000000;stroke-miterlimit:10;}
</style>
<g id="surface1217">
	<path vector-effect="non-scaling-stroke" class="st0" d="M625,447.7c16.8,1.5,34.1-2.9,49.7-8.8c10.1-4.1,13.8-14.6,16.7-24.3
		c-9.9-8.6-16.2-21.7-28.5-27.3c-6.2-3.3-12.8-7.2-18.8-11c-8.3-3.1-17.9-5.4-26.5-7.2c-21.8-1.3-34.2,12.8-32.6,34.2
		C583.5,425.9,601.7,447.7,625,447.7"/>
	<path vector-effect="non-scaling-stroke" class="st1" d="M235.5,805.4c38.9,24.7,95.6,23.9,129.8-8.8
		c22.4-21.7,20.9-52.2,32.7-78.7c2.4-9.7,12.8-12.4,21-15.7c6.2-3.8,13.4-2.5,20-0.5c27.7,4.1,62.6,47.2,80.4,68.6
		c13.8,17.5,27.7,35.8,47.7,46.6c20.2,9.8,47,7.1,62.6-9.8c28.2-23.5,14.8-77.4,44.9-89c26.8-10.3,58.6-10.6,86.2-3.1
		c35.6,16.1,68.6,41.4,108.8,19.8c39.8-20.5,62.5-62.5,80.8-101.6c12.4-25.5,27.4-51.6,29.5-80.4c3.4-29.8-15.8-55.6-28.2-81.1
		c-4.8-14.1-7.4-30.1-9.6-44.8c-2.8-24.9-11.6-48.7-17.4-72.9c-15.7-53.7-44.9-121.6-108.8-126.8c-31.6-6-67.6,19.1-96.9-1.4
		c-16.5-14-28.1-53-34.6-74.2c-6.1-21.9-19.3-42.2-22.8-64.3c-8.9-31.6,4.8-65-1.5-96.5c-14.4-74.3-93.2-83.2-155.7-77.6
		c-23.7,1.2-48,3.7-69.9,10.3c-25.5,6.8-49.9,19.1-75.2,22.2c-24.2,4.8-48.8,0.3-72.2,5.6c-41.6,6.9-69.9,42.9-79.7,81.3
		c-12.4,30-11.1,47.8-43.6,60.8c-47.1,4.1-85.5,3.8-109,51.5C46.3,163.7,43.3,185,37,203.5c-5,15-10.9,27.8-15.5,42
		c-5.1,7.2-10.5,16.9-13.8,24.4C-1,291.4-11.8,311-23,330.4c-23.2,28.3-69.4,37.5-74.9,78.3c-6.7,31.6,13.2,61.8,22.7,90.7
		c5.7,18.8,11.6,39.5,21.4,55.4c9.1,20.1,23.6,37.2,27.3,57.8c5.6,30.8-7.3,60.5-8.6,90.3c-3,30.3,11.1,66.3,40.8,75.5
		c46.7,17.8,79.3-35.8,122.8-36.3C192.2,735.6,194.2,774.9,235.5,805.4"/>
	<path vector-effect="non-scaling-stroke" class="st1" d="M295.3,781.4c27.2,1.8,46.6-20,48.7-45.9c4.1-21.3,7.1-26.2,22.5-41
		c6.1-6.4,14.5-10.5,22.4-14.1c9.2-5,18.8-10.2,29.2-12.2c25-6.9,45.7,7.2,64.7,21.7c18,14.4,36.6,28.5,56.1,40.7
		c6.7,7.1,17.2,10.1,25.3,15c6.2,7.1,16,2.1,23.1-1.1c-0.5-2.4,4.5-6,6-7.3c21.3-55.1,48.2-62.9,102.1-75.4
		c14.2-5.4,28.6-11.8,28-29.3c1.3-7.8-0.5-16.5-1.6-24.2c-0.3-7.8,1.4-16.7,2.5-24.3c28.6-30.2,74.4-34.5,113.8-37.6
		c13.3-0.2,28.9,2.7,38.4,13.1c-0.4,3.3-0.2,8.8-0.2,12.1c-2,3.3-3.1,8.3-2.8,12.1c-12.3,16.7-26.4,32.6-39,49.2
		c-6.7,6.5-12.3,15-14.1,24.2c-4.3,8.7-1.8,16.5,3.8,23.8c2.8,5.1,8.4,10.9,15,8.7c6.2,1,14.5,1,20-2.2
		c16.7-13.7,23.4-16.7,33.4-37.2c4-9.4,10.6-19.4,11.5-29.6c2-3.2,4.6-8.1,3.2-12.1c5-6,4.2-15.3,7.1-22.3
		c1.7-10.1,6.3-21.1,6.3-31.4c0.1-21.9-6.8-43.8-3.4-65.8c1.9-37.2,3.4-75-6.4-111.3c-20-62.3-49.9-143.3-131.6-121
		c-20.3,6.6-43.3,14-63.1,2.7c-31.6-18-41.7-55.5-52.3-87.4c-7.6-30-26.5-56-33.6-85.6c-7.6-27.2,5.6-55.5,0.8-82.6
		c-5.2-51.3-63.5-66.1-107.1-62.1c-29,1.5-59.2,3.8-87,12c-21.3,5.1-41.7,15.8-62.9,19.4C320-20.2,268-39.2,239,22.6
		C221.8,57,218.7,107,178.7,123c-16.5,6-34.8,3-51.7,6.1c-29.3,2.7-48.5,29.1-56.5,55.1c-6.9,20.8-15.6,40.9-24.3,60.5
		c-10,17.6-19.6,35.1-25.3,54.5c-9.2,19.4-14.2,41-22.3,60.7c-31.5,51.9-55,44-43.7,113.8c8,106.4,77.4,99.8,57.8,196.5
		c-1.2,15.2-4.9,52.4,15.7,52.6c10,2,19.3,0.8,27.6-4.6c38.3-19.9,66.5-16.5,107.5-13.6c26.1,1.1,56.8,4,71.4,28.4
		c7.4,14.3,15.5,28.5,26.9,39.2C272.9,776.7,283,783.7,295.3,781.4"/>
	<path vector-effect="non-scaling-stroke" class="st1" d="M238.9,682c-32-7.6-65.4-6-97.6-12.2c-36.7-9.5-66.3-21.3-88.4-53.5
		c-21-30.8-50.6-57.2-64.5-92.3c-10.1-29.4-8.6-63.1,4.1-91.2c9.7-19.9,19.2-40.1,28-60.1c3.2-10.3,4.8-22.1,7.4-31.9
		c5.8-39.6,24.8-74.2,43.1-108.4c14-25.3,21.3-56.3,46.5-72.7c15.8-8,34.8-6.6,51-8.4c40.1-3.8,55.3-45.6,70.4-76.7
		c20-64.9,41.6-86.1,111.6-78.2c25.9,1.9,51-5.7,74.8-14.3c27.2-8.3,55.9-12.1,83.9-14.3c31.5-3.9,75.5-4.9,91.4,27.8
		c9.7,21.7,1,45.5,0.1,67.5c-2.9,29.3,17.1,52.6,29,77c12.6,23.4,19.2,49.7,28.7,74c13.5,33.5,39.4,66.7,76.3,73
		c25.9-0.3,49.4-14.3,75.2-14.1c32.1,3.8,53.8,29.6,66.8,56.8c13.3,27.4,23.4,56.7,25.4,86.7c2.5,52.6-14.7,94.3-69.6,106.3
		c-41.6,12.9-85.3,18.9-125.4,35.5c-25.4,10.2-21.6,41.5-33.4,61.4c-13.5,20.6-37.4,30.9-57.6,43.3c-17.1,10.3-33.2,25.4-52.2,30.4
		c-26.5,7.5-52.3-9.8-72.5-24.4c-50.6-41.5-71.9-20.3-124.3,0.3c-21.4,11.4-46,20.2-69.4,22.2C277.3,693.8,258.4,683.9,238.9,682"/>
	<path vector-effect="non-scaling-stroke" class="st0" d="M238.9,657.6C155,641,77.9,624.5,23.4,552C-1.8,523.1-5.3,481.6,8.1,446.5
		c7.1-17.9,18.1-35,24.4-53.1c11.9-28.1,11.2-59.4,19.5-88c11.4-34.8,32.2-65.3,50.6-96.3c9.2-15.7,22.3-27.7,39.9-32.3
		c17.8-2.7,38.4-0.8,53.3-11.2c20.2-12.8,29.6-35.3,41.3-54.8c12.4-21.6,20.4-46,33.3-67c8.3-16.8,25.7-27,43.7-29
		c19.9,0.2,40.5,4.4,60,4.7c20,0.3,39-7,57.8-11.2c20.2-4.7,41.6-5.6,62.2-6c32.2-1.1,81.9-11.8,74.4,37.2
		c-7.7,25,0.8,51.6,15.9,72.1l0,0c11.9,16.2,24.1,33.3,33.1,51c8.3,16.6,12.6,35.1,20.5,51.2c18.4,38.8,48.6,80.5,92.5,89
		c31.8,5.2,63.7-21.5,93.9-6.6c27.9,11.6,42.4,41.9,52.7,67.8c12.4,31,16.7,66.4,4.6,97.5c-13.8,34.3-50.7,48.6-83.4,57
		c-29.7,9.3-60.1,16-89.9,21.4c-15.3,2-28.1,11-38.1,21.2c-9.3,15-10.1,34-19.5,48.4c-9.5,15-23.2,26.3-37.7,35.1
		c-14.3,9.5-29.6,19-45.4,23.8c-61.6,18.2-84-48.2-126.4-41.8c-23.3,2.9-43.1,17.1-64.1,24.9C333.5,672.8,284.3,671.2,238.9,657.6"
		/>
	<path vector-effect="non-scaling-stroke" class="st1" d="M238.9,637.3c-32.1-10.2-60.6-31.6-95.3-32.8
		c-19.9-3.5-40.6-6.5-58.3-17.1c-33.7-18.5-64.4-49-70.2-88.4c-3.4-42,24.8-75.8,38.2-113.4c10.8-34,5-72.3,23.5-104.2
		c7.3-14.9,16.5-29,26.4-42.3c9.7-14.9,22.2-27.9,37.9-36.4c17.1-5.6,36.8-4.1,53.5-10.6c23.5-10.2,32.8-35.6,44.8-56.3
		c10.1-20,20.6-40.2,32.3-59.3c6-9.7,10.4-21.3,20.4-27.6c7.1-5.4,14.6-12,24-11.8c24.8-3.5,48.8,9.3,73.5,7.8
		c19.4-0.1,39.1-5.7,58.6-5.6c42.1,1.8,68.9,31.6,91.3,63.9c16.4,21.7,36.2,40.7,51.6,63.1c20.8,41,43.8,82.6,78.2,114.4
		c22.9,22.9,54.5,40.9,87.8,33.6c17.2-3.3,34.7-8.4,52.5-7.9c16.1,5.3,29.5,13.1,39.1,27.5c22.9,32.1,37,76.1,23.4,114.6
		c-18.5,57.8-115.8,68.4-167.6,78.7c-91.1,11.6-21.9,79-135.4,122.7c-34.3,10.6-63.8-8.7-87.5-32c-8.2-8.5-20.9-13.1-32.4-14.8
		c-14.7,4.3-29,11.6-41.9,19.3c-26.9,15.2-56.8,28.6-87.7,29.7C291.4,654.8,265.4,643.6,238.9,637.3"/>
	<path vector-effect="non-scaling-stroke" class="st1" d="M292.6,638c44.5,10.5,88.6-8.7,123.4-35.6c9.1-10.1,21.8-14.7,32.8-22.2
		c9.8,0.2,21,3.5,28.4,10.1c18.9,21.1,39.4,44.6,69.2,48.5l0,0c34.4-1.5,67.3-22.3,81.2-54.2c10.2-27.5,9.8-45.8,38.8-60.4
		c26.8-8.4,55.5-7.7,82.7-14.4c56.7-13.1,127.9-34.5,116.6-107.2c-4.7-30.1-20.3-63.1-48.9-76.7c-17.2-8.8-38.1-1.7-56.2,1
		c-39.2,8.7-74.9-14.6-102.6-39.5c-19.2-18.8-37.6-38.3-57.4-56c-6.4-6.4-17-9.9-24-14.9c-7.5-5-18-5.8-26.2-8
		c-15.6-4-19.1-26-23-39c-7.7-38.9-34-76.5-71.9-89c-26.8-8.3-56,0.8-81.8-8.1c-22.6-6.7-49.5-19.7-70.7-6.2
		c-7.3,6.6-15.4,12.1-21,19.4c-9,14.7-19.6,28.9-26.9,44c-11.9,21.6-17.9,45.7-31.5,65.9c-16.9,29.9-54.8,21.2-82.4,31
		c-21.3,13.4-37.9,33.4-50.2,54.8c-21.2,34.2-9,77.1-25.3,112.3c-10.3,22.8-26,43.2-33.8,66.5c-15.1,41.7,5.7,82.7,41.5,105
		c42.2,27.9,67.4,12.2,110,15.2c18.9,6.4,31.4,22.3,47.3,32.2C249.6,625,270.5,634.1,292.6,638"/>
	<path vector-effect="non-scaling-stroke" class="st1" d="M266.5,614.7c-22.7-11-39.2-31.2-57-48.4c-9.1-5.5-19.4-13.2-30.6-10.5
		c-15.6-0.3-29.7,8.6-45,10c-28.1,5.5-58.4-8.1-76.4-29.7c-23.6-24.5-22.8-62.3-5.9-90.3c9.8-20.2,25.7-37.4,34.2-58.2
		c18.5-46.1-5.5-71.4,33.4-118.2c9.3-6.5,17.9-17.7,29.6-19.3c18.3-6.6,38.9-2.5,57.7-7c37.4-10.1,39.7-51.9,48.7-83.1
		c4.7-12.6,10.5-25.1,17.7-36.4c5-8.2,9.9-17.6,18.2-23c7.2-5.3,13.1-13.8,22.6-14.5c23.7-5.5,45.4,9,66.3,18.2
		c16.8,6.4,36.3,6.1,53.8,8.7c74.6,12.5,45.1,94.4,78.3,119.9c15.3,13.4,38.7,10,57.6,11.9c23.3,2.7,42.7,15.9,59.5,31.5
		C646,291,662.9,306,681.8,318c60,43.6,98.1,1.7,137,24c31,18.8,45.1,62.7,33.6,96.6c-14.6,36.8-55.9,49-90.8,58.8
		c-18.7,5.2-38.3,8.7-57.6,10.5c-21.4,2.6-47.1,3.2-63.5,18.8c-19.4,18.3-16.9,49.3-33.9,69c-18.7,26.2-54.4,36.9-82.6,20.4
		c-17.2-12.3-28.7-31.2-40.8-47.5c-7.1-12.1-21.2-17.4-34.2-15.6c-6.3,5.5-13.3,10.8-19.4,15.6C388,621.8,330.1,648.4,266.5,614.7"
		/>
	<path vector-effect="non-scaling-stroke" class="st1" d="M475.3,375.2c12,4.2,5.9,7.2-2.7,8.2C473.1,381.4,474.3,377,475.3,375.2"
		/>
	<path vector-effect="non-scaling-stroke" class="st0" d="M479,423.4c-16.4-21.6-8.2-6.8-10.1-29.1c0,0,17,2.5,17,2.5
		C490.1,409.6,490.8,415,479,423.4"/>
	<path vector-effect="non-scaling-stroke" class="st1" d="M294,612.6c55.4,20.8,103.1-13.2,127.9-61.9c5.5-7.6,11.4-16.3,19.4-22.2
		c6.7-7.8,13.1-7.6,22.6-6.6c16.8,1.6,23.1,20,31.6,32.2c8.3,15.3,15.4,32.2,28.4,44.3c26.3,21.6,54.9,12.7,75.1-12.3
		c13-20.4,12.1-48.4,30.2-65.7c19-16.3,46.4-18.3,70.3-20.9c22.4-1.8,45.5-5.7,67-12.3c27.2-8.7,58.1-19.3,72.8-45.7
		c13.6-25.3,6.4-60.8-15-79.6c-15.2-16.8-39.3-15.9-60.1-13.3c-20.2,1.6-41.7,1.1-60.1-8.3c-29.6-12.4-54-34.2-79.9-52.6
		c-21.4-18.5-49.9-27.1-77.9-24.1c-30,1.5-65.8,15.1-73.4-25.3c-8.8-28.2-7.2-69.7-39.1-81.4c-9.3-4.9-20.4-3.7-30.1-4.9
		c-27.6-7.7-44.9-34.6-72.1-42.2c-18.2-2.2-27.7,0.9-39.7,14.4c-14,11.3-19.3,30.4-22.5,47.3c-4.9,28.3,8.5,62.5-20.5,81.5
		c-17.4,14.6-39.9,20.7-61.5,23.1c-18,1.4-40.8-0.8-53.5,13.1c-5.4,7.3-12,14.8-15.5,22.3c-5.1,24.7-1.7,50.9-14,72.8
		c-15.6,33.8-49.1,58.4-54.1,96.6c-5.1,36.6,27.2,70.1,62.3,71.5c24,2.5,42.8-14.7,65.5-16.6C222.6,529.5,246.5,603.4,294,612.6"/>
	<path vector-effect="non-scaling-stroke" class="st1" d="M294.2,175.8c1.4,7.2,5.6,13.8,10.5,19.1c5.8,5.6,16.7,1.3,24,0.8
		c12.2-7.2,14.7-22.8,15.8-35.8c-2.7-5.7-7.4-12.4-9.8-18.1c-7.9-6.2-21.7-6.4-30.3-1.6C296.9,153.4,290.5,159.9,294.2,175.8"/>
	<path vector-effect="non-scaling-stroke" class="st1" d="M118.8,539.1c-38,0.3-65.9-32.1-53.6-69.4c9-26.1,31-44.7,46-67.1
		c9.2-13.2,17.4-28.2,22.8-43c6.5-15.5,12.2-32.4,26.1-42.5c15.3-10.6,34.5-15.2,51.2-22.2c22.5-8.2,44.6-17.8,65.2-29.3
		c10.3-6.6,19.7-15,30-21c5.2-8.9,15.4-12.6,22.4-18.8c6.2,0.9,13.9-0.7,19.4-1.8c8.6-0.5,17.4-0.1,25.6,0.3c15.3-0.1,31.8,0,45,8.3
		c30.1,25.1,14.5,127.4,17.7,167.5c-1.1,26.5,8.5,53.7,2.3,79.4c-4.7,11.5-12.2,21.2-17.1,32.1c-16.2,34.3-26.8,72.2-63.1,89.9
		c-29.7,13.1-63.5,3.1-87.1-17.1c-15.6-13.2-27.8-30.3-42.3-43.9c-20.2-19.6-38.9-27.2-66.2-19.5
		C148.9,528.7,133.8,533.9,118.8,539.1"/>
	<path vector-effect="non-scaling-stroke" class="st1" d="M539,589.5c-18.2-11.6-25.1-33.9-30.9-53.5c-2.6-9.3-5.5-19.1-6.6-28.7
		c-1.1-4-3.9-8.7-1.2-12.8c0.9-6.1,2.9-12.9,3-19.1c4.9-5.3,6.8-14.7,9.6-21.3c8-24.7,3.2-51.1-3.5-75.6c-2.1-7.4-3.4-17.8-7.1-24.2
		c0.5-5.7-0.5-12.2-1.6-17.4c-2.2-5.9-1.6-8.5-0.3-14.2c1.6-6.5,1.4-14.7,5.7-19.6c20.5-26.1,60.5-28.4,89.4-18.2
		c40.8,19.9,74.4,52.2,116.6,68.6c31.8,12.1,66.3-1,97.5,11.5c11.5,9.5,24.2,22.8,24.7,38.2c4.5,10.3-0.1,20.3-2,30.3
		c-22.7,43.2-92.5,55.3-136.9,59.4c-31.1,3.5-72.3,5.5-88.1,36.5c-6.9,13.9-7.6,30.9-15.9,43.8c-5.4,8.9-13,16.5-22,21
		C559.1,594.5,546.6,598.1,539,589.5"/>
	<path vector-effect="non-scaling-stroke" class="st0" d="M539,563c-14-24.4-10.1-53.4-5.4-79.9c1.7-18.5,1-37.5-1.1-56
		c-1.8-32.7-14.9-64.3-13.3-97.2c7.3-29.6,37.5-40.7,64.9-33.9c22.3,4.1,41,18.9,60.2,29.2c28.4,17.4,56.9,36.6,89.9,42.2
		c22.3,3.6,47.5-2.9,67.5,8.7c25.5,12.4,28.1,50.9,7.5,68.8c-19.8,18-46.9,25.7-72,32.7c-29.4,6.8-60.1,6.4-89.2,12.8
		c-23.2,4-46.1,13.1-58.9,33.4c-1.4,8.2-5.1,16.6-7.2,24.3c-2.2,9.1-5.9,17.9-12.9,24.1c-7.1,0.3-15.5,0.7-22.5,0.7
		C544,569.9,541,566.3,539,563"/>
	<path vector-effect="non-scaling-stroke" class="st1" d="M298.9,585.8c-43.2-23.9-66.8-90.7-124.2-82.7c-20,1.6-37,15.8-56.3,20.7
		c-13.3-1-29.3-2.8-35.6-16.6c-11.3-13.4-6-33.2,1.4-47.4c12.3-20.8,32.1-36.7,45.1-57.2c15.8-22.1,27.1-48.7,47.8-66.7
		c33-27.1,75.5-37.1,113.2-54.8c25.4-11.5,50.3-31.6,79.4-27.8c30.7-0.2,44.3,27.9,46.2,54.4c3.1,31.7,1.4,63.7-1.5,94.8
		c-2.6,21.6-2.8,43.5-5.4,64.6c-2.6,21-8.2,41.6-13.7,61.7C385.1,577.7,348.4,611.3,298.9,585.8"/>
	<path vector-effect="non-scaling-stroke" class="st1" d="M568.9,493.4c-21.8-26.6-21.9-64.6-29.4-97.1c-3.4-22.1-9-46.4-0.6-67.9
		c13.8-24.1,46.9-22.1,68.7-10.7c44.9,18,83.2,53.1,132,61.1c17.7,2.8,38.6,0.3,54.4,9.8c10.1,5.6,19.9,21,14.7,32.3
		c-6.7,19.9-26.7,30.8-44.8,38.9c-35.8,13.8-74.6,15.9-112.2,21.7C624.2,484.2,596.5,497.6,568.9,493.4"/>
	<path vector-effect="non-scaling-stroke" class="st1" d="M298.9,566c-37-29.2-64.5-80-117.4-80.3c-21.5-2.3-40.4,9.4-59.7,16.6
		c-13.1,4.6-26.9-7.8-26.4-21.2c-0.4-4.4,2.7-8.1,5.1-11.4c5.4-10.3,13.1-20.1,20.6-28.8c15.9-19.4,28.5-41.5,42.8-62.1
		c26.4-42.7,73.4-63.8,119.8-76.2c27.8-5.5,52-28.5,80.7-25c10.9,1.5,21.6,5.7,25.4,16.7c15.4,32,10,71.1-1.8,103.1
		c-3.2,10.3-9.2,18.9-14,28c-4.5,5.6-10.4,12.1-8.4,19.7c-0.6,11.1,5.8,20.8,8.7,31c3.7,14.7,4.5,30.8,3.4,45.7
		c-2.1,17-6.9,34.8-18.5,47.4C339,584.5,317.7,581.7,298.9,566"/>
	<path vector-effect="non-scaling-stroke" class="st1" d="M682.3,468.6c25.1-4,51.7-6.5,74.3-18.9c9.9-6.3,26.3-10.1,29-22.9
		c14-14.4-1.9-25.6-15.1-31.5c-18.2-5.7-38.5-6-56.4-12.9c-32.1-14.3-61.5-34.6-94-48c-87.9-36.5-75.8,42.8-61.6,100.8
		c5.1,19.2,16.6,39.2,38,42.3C625.1,479.1,654,472.1,682.3,468.6"/>
	<path vector-effect="non-scaling-stroke" class="st0" d="M322.5,492.6c21.4,9,37.9,48.2,10,58.5c-7.7,2.4-15.7-6-23.5-6.9
		c-5.9-2.5-7.6-10.3-12.5-14.2c-4.8-5.2-12.7-8.9-16.1-15.5c-25.9-27.9-64.7-42.5-101.5-49.3c-9.2-2-19.8-3.9-27.8-8.2
		c-3-17.3,3-27.1,8.5-42.5c24.2-44.5,57.7-83.3,109.4-93.3c13.3-3,27.2-5.2,40.1-7.7c12.4-3.6,25-8.4,37.3-10.1
		c14.6-2.8,23,5.9,27.6,18.4c5.6,14.3,0.1,31.7-7.4,44.1c-9.4,17-26.9,28.5-38.9,42.7C306.6,435.5,285.1,469.3,322.5,492.6"/>
	<path vector-effect="non-scaling-stroke" class="st1" d="M207.8,450.1c44,16.6,57.2,6,83.4-29.3c11.2-15.2,21.8-31.4,30.7-47.9
		c1.5-3.6,0.6-9.2,1.7-12.6c1.8-4.3,0.1-9-1.5-12.8c-27.7-20.3-68.8-12.1-95.1,6.6c-7.2,7.1-16.9,12.7-22.1,21.1
		c-9.3,12.3-16.9,25.7-22.5,39.6C181.9,439.6,185.9,440.8,207.8,450.1"/>
	<path vector-effect="non-scaling-stroke" class="st1" d="M599.1,465.3c-35.6-11.2-41.9-67.6-36.8-99.1
		c7.1-39.6,55.8-22.5,80.8-11.4c26.3,11.9,49.7,29.7,76.1,41.4c13.3,7.3,28.4,11.8,41.9,18.6c-7.5,17.8-7.8,22.1-27,29.3
		c-14.5,5.4-29.3,13.6-45.1,14C660.4,464.4,628.1,471.9,599.1,465.3"/>
	<path vector-effect="non-scaling-stroke" class="st1" d="M238.3,366.6c9.2-3.8,20.3-12,30.7-9.9c7,1.7,16.5,1.2,19.6,9.2
		c4.9,5.1,2.4,10.4,0.4,16.2c-0.8,10.3-7.9,17.6-15.1,24.2c-10.2,13.8-18.8,16.4-34.8,20.3c-8.6-0.5-18.7-5.1-23.7-12
		c-1.9-5.8,2-12.1,0.4-17.7c2.2-5.9,7.1-11.9,10.4-16.9C228.7,374.6,232.8,369.2,238.3,366.6"/>
	<path vector-effect="non-scaling-stroke" class="st1" d="M718.3,415.3c-1.4,15-2,21.6-17.8,26.7c-15.6,6.4-32.5,11.9-49.1,14.8
		c-51.9,9-77-11.6-79.2-64.2c1.6-51.6,50.2-38.7,82.3-22.2C677.3,382,699.7,400.1,718.3,415.3"/>
</g>
</svg>
