<?xml version="1.0" encoding="utf-8"?>
<!-- Generator: Adobe Illustrator 28.0.0, SVG Export Plug-In . SVG Version: 6.00 Build 0)  -->
<svg version="1.1" id="Layer_1" xmlns="http://www.w3.org/2000/svg" xmlns:xlink="http://www.w3.org/1999/xlink" x="0px" y="0px"
	 viewBox="0 0 676.7 863.3" style="enable-background:new 0 0 676.7 863.3;" xml:space="preserve">
<style type="text/css">
	.st0{fill:#036554;stroke:#000000;stroke-miterlimit:10;}
	.st1{display:none;fill:#036554;stroke:#000000;stroke-miterlimit:10;}
</style>
<g id="surface1252">
	<path vector-effect="non-scaling-stroke" class="st0" d="M504,262.7c5.5-15.3,12.5-42.8,2-56.6c-15.8-5.7-35.7-2.6-47.4,10
		c-17.2,15.6-23.4,40.7-18.3,63.1c2.3,11.4,5.4,26.8,18.2,30.4c5.8-1.5,13.1-3.8,19-4.8C488.4,292.4,495.9,276.9,504,262.7"/>
	<path vector-effect="non-scaling-stroke" class="st1" d="M-363.3,170.7c-24.7-4.1-28-17.4-35.5-38.1c-6.4-24.2-8.5-55,12.7-72
		c8.6,3.6,18.8,8.2,25.7,13.8c1.9,7.6,10.3,15,11.7,23c4.2,15.5,9,33.8,4.1,49.5C-346,156.5-352.1,172.3-363.3,170.7"/>
	<path vector-effect="non-scaling-stroke" class="st1" d="M79.7,55.3c30.2-1.7,49-33.6,47.3-61.7c-6.3-19.3-13.4-30.5-35.3-31.4
		C74.6-37.5,52.2-18.4,47-2.5c-3,13.2-6,28,2.4,40C54.9,51.8,65.4,55.2,79.7,55.3"/>
	<path vector-effect="non-scaling-stroke" class="st1" d="M-217.9,303.6c9,3.1,18.8,12.9,18.1,22.7c-3.3,12-3.8,25.6-10.1,36.8
		c-2.9,10-6.6,21.7-13.7,29.5c-0.4,5.8-6.4,12.7-10.8,16.1c-8.7,3.5-17.3,13.9-26.9,8.3c-26.2-12.7-20.2-41.8-11.1-64.4
		c6.1-17.8,13.2-38.7,31.7-46.8C-234.5,300.2-225.2,300.4-217.9,303.6"/>
	<path vector-effect="non-scaling-stroke" class="st1" d="M-142.1,332c-51.2-19.1-23.3-72.4-26.4-113c0.1-17.5-3.2-36.9-12.5-52
		c-13.2-23-34.2-42.9-40.5-69.5c-3.3-10.6-8.2-23.5-6.4-34.6c-5.4-14.9-7.2-34.6-4.3-50.1c25.1-6.8,29.6,9.7,43.4,25.9
		c25.6,24,65,7.7,87.4-13.2c12.1-10.2,24.2-2.3,34.3,6.3c0.6,8.1,1.3,18.7-1.8,26.4c-13.7,43.1-17,92.1-5.8,136.8
		c8.1,29.9,15.6,62.8,8.3,93.7C-74.5,322.4-107.6,352.1-142.1,332"/>
	<path vector-effect="non-scaling-stroke" class="st0" d="M462.3,848.7c1.2,0.3,6.7,9.4,7.9,10.1c0,0,13,2,13,2l1.6,1.9l2.1-1
		c6.2-5.8,13.4-14.5,18.9-21c10.7-29.5,24.9-59.2,26.8-91c2.1-31.3-4.8-62.7-11.6-93.1c-4.8-12.2-6.7-26.1-11.2-38.4
		c0.1-6.7,1.3-15.4,1.3-22.1c7.7-29.1,17.9-58.7,27.5-86.8c7.5-19.9,12.7-41.7,24.2-59.5c5.7-7,13.1-15.5,18.6-22.6
		c6.3-4.4,14.9-10.6,20.4-16c6.5-9.2,16.7-17.5,22.7-27c10.7-16.4,14.4-37,19.6-55.6c4.2-27.5,4.7-55.9,11.7-83
		c1.5-11.7,9.4-24.1,10.3-35.6c1.3-2.6,5.7-10,4.2-13.5c3.2-8.9,4.4-20.5,5.3-29.8c1.4-24.7-1.1-52.2-11.5-74.3
		c-7.2-16.2-14.8-33.6-27.9-46.1c-6.9-9.7-16.9-19.9-27.2-26C594.9,6.9,575.3-1.1,555.7,0.9c-24.4,2.4-42.3,22.1-61.9,34.3
		c-11.1,12.3-26,19.2-40.8,25c-19.2,5.6-41.7,4.7-61,6.9c-51.8,8.9-69.5,64-91.5,103.8c-3,9.9-10,17.5-17.2,23.1
		c-7.5,6.3-14.4,13.9-24,12.7c-19.8,1.4-39.6,4.8-57,13.4c-23.2,12.1-46.1,28-66.9,42.1C109,286.5,91,317.3,69.6,343.9
		c-18.8,25.6-35.3,52.3-51.5,78.4c-23.8,38-24.6,91.1,13.6,118.7c23.6,12.2,51.4,11.2,75.9,14.9c16.6,1.2,33.8,3.2,49.1-0.4
		c15.4-1.9,31.3-7.6,45.7-10c31.1-6.3,26.6,29.2,25.3,48.9c-4.8,26.3-15.6,50.3-22.4,75.3c-8.4,37-10.4,78,6.6,112.3
		c40.9,73.8,95.2,27,154.9,14.3c22.7-6.3,46.6-0.1,64.9,12C442.5,821.9,453.7,834.5,462.3,848.7"/>
	<path vector-effect="non-scaling-stroke" class="st1" d="M82.1,502.6c19.8,1.6,40.7,0.1,57.6-11.2c8.5-12.2,8.1-12.2,1.6-25.5
		c-5.8-15.4-20.9-27.7-32.8-38.5c-6.9-2.2-18.4-9.8-25.1-4.6c-15.4,8.9-32,20.5-34.6,39.4c-0.2,7.1-4.6,18.4,1.9,23.7
		c1.6,5.2,8,9.7,13.1,10.9C67.4,502,76.5,500.8,82.1,502.6"/>
	<path vector-effect="non-scaling-stroke" class="st1" d="M278.2,776.9c-48.9,0.7-57-59.1-45.2-96.1c5-21.6,19.2-40,31.1-58.2
		c16.7-25.8,32.9-53.1,42.5-82.4c9.3-32.4-0.2-70.8-22.5-95.6c-6.4-7.2-11.3-19-20.6-21.4c-14-5.1-29.8-9.4-42.1-16.9
		c-17.8-16.8-26.6-40.6-34.5-62.8c-13.6-34.5,0.8-73.8,34-90.1c29.5-12.1,53.1,11.2,76-17.2c7.1-19.4,16.1-39.6,25.4-57.6
		c13-26.5,25.9-54.7,49.8-72.3c25.7-16.5,59-13.5,86.3-23.8c18.4-6.1,32.4-19.3,48.2-28.1c17-12.8,35.1-24.2,56.3-25.3
		c55.3,2.3,96.5,68.9,94.9,120.4c0.8,20-3.3,42.2-9.7,60.7c-4.8,14.2-11.7,28.8-13.7,43.2c-8.3,34.4-3.2,72.7-20.6,104
		c-11,23-28,35.7-45.7,52.1c-25.3,21.3-37.5,53.1-47.4,83.4c-12.5,30.8-29.7,59.9-41.3,90.5c-7.8,18.8-4.7,39.8,0.9,58.1
		c7.2,23.8,15.6,48.3,15.2,72.9c1,31.5-10.9,59-46.5,53.9c-23.6-5.6-45.8-17.8-69.9-17C343.8,751.8,311.6,768.4,278.2,776.9"/>
	<path vector-effect="non-scaling-stroke" class="st1" d="M308.3,712c12.6-2.7,26.5-1.1,39.3-1.3c14.6-1.6,30-3.4,44.4,0.6
		c15.1,1.6,27.2,14.9,42.7,15.1c12.4,0.6,23.8-1,26.5-15.4c5.7-13,1.6-35.8-3.6-48.9c-6.5-15.1-15.8-29.7-23.3-44.4
		c0.8-7.6,2.3-16.9,3.5-24.4c21.8-32.8,47.6-64.4,64.8-100.5c10.2-21.6,19.1-44.5,29.5-66c25.8-40.5,67.7-52.8,77.3-104.1
		c5.9-31.5,7.5-64.3,18.8-94.6c17.7-47.2,28.8-90.8,1.1-137.2C612.9,61.4,578,38.8,544,51.2c-36.5,14.6-65.9,44.9-105,53.9
		c-28,5.2-56.6,13.8-75.4,36.8C327,186,316.6,243.3,308,298.2c-2.7,12.5-7.2,25.4-10.5,37.7c-4.5,2.2-9,9.9-10.1,14
		c-0.2,7.7,0.5,17.7,0,25.3c4.4,5,5.9,13.3,8.3,19.2c6.1,23.5,16.5,45.9,27.4,67.5c19.8,36.3,29.3,70.5,12.6,110.3
		c-10.5,27.8-23.3,55.4-36.3,82.1c-6,9.1-15,17.5-20.6,26.9c-4.3,5.7-11.4,9.4-12.4,17.1c0.4,4.7-0.7,14.9,4.4,17.1
		C283.1,718.2,296.1,712.7,308.3,712"/>
	<path vector-effect="non-scaling-stroke" class="st1" d="M422.9,542.2c60.9-10.2,75.7-87.4,106.3-131.8
		c12.3-19.9,33.5-34.2,48.6-52c22-24.6,23.9-60.1,28.4-91.2c3.5-20.6,12.4-40.1,19.3-59.6c13.5-35.3,15.5-77-5.5-109.8
		c-6.6-11.6-18.9-19-28.6-27.5c-8.1-5.7-18.6-6.3-28.1-7.4c-34.3,3.3-61.5,29.4-91.7,43.8c-28.1,13.5-60.9,18.2-86.6,36.6
		c-23.4,19.1-37.8,47.9-46.9,76.2c-5.7,16.4-5.1,35.1-7.5,52c2,20.6,1.1,42.2-2.4,62.6c-4,6.8-2.2,16.8-5.1,24.1
		c-5,19-5.2,41,1.6,59.7c6.9,29.6,26.2,54.2,42.6,79C381.7,515.8,395.7,543.2,422.9,542.2"/>
	<path vector-effect="non-scaling-stroke" class="st0" d="M430.1,503.6c-42.1-11.9-83-53.5-91.4-96.9c-4.2-24.8,1.5-50.7,6.2-74.9
		c1.9-17.1,1-35.1,0.3-52.2c-5.3-46.6,11.8-97.9,50.1-126.8c24.2-16.7,54.2-23.2,79.9-37.5c29.2-12.7,55-36.1,87.8-39.2
		c31.8-0.1,54.8,27.5,61.9,56.6c5.5,29.9-2,59.8-14.8,86.8c-7.3,18.5-13.2,38.4-16.5,58.1c-4,24.1-8.3,49.7-23.7,69.4
		c-13.9,17-31.9,31.6-44.8,49.4c-18.9,25.9-30,58-49.8,83C460.3,494.5,453,503.6,430.1,503.6"/>
	<path vector-effect="non-scaling-stroke" class="st1" d="M424.4,474.2c52.9,13.5,69.8-59,97.6-90c53.1-64,47.6-47.9,67.3-130.4
		c8.8-34.7,30.5-66.3,29.2-102.7c-0.8-26.8-18.1-58.8-46.3-62.4c-25.8-5.8-48.5,12.8-70.3,22.8c-41.8,25.4-95.8,35.1-124.7,76.9
		c-30.7,41.8-18.7,91-19.6,138.2c-1.7,25.8-8.3,52.7-3.7,77.8C361.6,439.1,391.2,464.7,424.4,474.2"/>
	<path vector-effect="non-scaling-stroke" class="st1" d="M391.3,436c-29.8-22.3-27-62.3-23.4-95.3c2-20.9,0.3-42.5-1.4-63.4
		c-7-68.7,31.8-109.7,92-134.8c29.9-12.7,57.9-31.5,89.1-41c38.5-11,62.2,22,63.1,57.5c-5.9,42.2-29.5,79.3-38.1,120.9
		c-8.9,47.1-41,73-66.9,110.3c-16.8,22.6-28.8,52.5-56.9,63.2c-5,0-14,0.6-18.9,1.3C416.7,450,401.6,446,391.3,436"/>
	<path vector-effect="non-scaling-stroke" class="st1" d="M422.5,434.3c47.9,14.2,70.1-47.3,96.4-76.2c10-14,21.5-28.5,30.1-43.4
		c13-25.8,18.4-54.9,29-81.6c6.6-16.7,15.2-33.8,19.9-51.1c8.1-31.1-1-73.3-40.3-71.6c-21.1,2.4-40.9,13-59.7,22.3
		c-22.8,10.5-46.4,21.1-67.7,34.5c-57,35.1-58.1,83.8-51.6,143.7C380.5,358.6,364.5,415.2,422.5,434.3"/>
	<path vector-effect="non-scaling-stroke" class="st1" d="M389.4,360.5c1.1,17.8,5,40,21.7,49.6l0,0c39.3,29,69.2-13.7,89.8-43.1
		c27.7-34.2,48.7-72.1,60.5-114.1c7.4-26.7,24.2-51.4,28.3-78.3c0-5,2.1-12.4,2.3-16.8c-2.2-9.2-5-20.4-10.4-27.6
		c-20.9-14.9-45.9-6.2-66.5,3.7c-54.9,22.6-127,51.9-130,120.2c-1.9,18.7,1.5,38,2.1,56.1C389,326.9,387.2,344.3,389.4,360.5"/>
	<path vector-effect="non-scaling-stroke" class="st0" d="M427.1,401.4c-30.2-15.7-27.3-53.9-29.7-83c-2.3-32.8-9.2-68.9,7.4-99.2
		c18.8-38.2,61.4-56.5,98.9-71.5c18-6.7,37.5-13.7,57-12.9c6.5,2.6,12.5,10,16.9,15.2c10.6,24.5-6.9,51.1-14.4,74.4
		c-15.1,40.6-28.1,83-54.8,118C487.8,368,465.9,411,427.1,401.4"/>
	<path vector-effect="non-scaling-stroke" class="st1" d="M504.9,332c25.2-35.3,37.5-77.8,52.3-118.1c4.1-14.1,12.1-29,8.8-44
		c3.7-17.3-13.8-23.4-28-20.1c-44.8,4.4-93.6,26.3-120.3,63.6c-20.3,31.6-15.4,70.8-10.4,106.2c1.5,18.7,4.5,38.9,13.5,55.6
		c6.5,9.4,18.2,9.6,28.4,10.8C474.3,376.5,489.7,352.8,504.9,332"/>
	<path vector-effect="non-scaling-stroke" class="st1" d="M430.1,360.1c-10-14.6-12.4-33.2-14.8-50.4c-2.8-17.2-5.2-37.6-3.2-55
		c5.4-57.1,65.9-89.6,117.8-91.8c11.4,0.6,21.1,11.5,23.9,21.5c-2.8,6.5-3.2,14.9-5.1,21c-4.4,21.5-11.9,42.2-19.4,62.1
		c-12.4,31.2-29.7,60.4-51.8,85.1C457,365.3,453.4,375,430.1,360.1"/>
	<path vector-effect="non-scaling-stroke" class="st1" d="M430.1,329C411,269.9,413.6,216.4,474,185c18.7-7.4,42.8-12.7,60.4,0
		c5.7,29.6-5.8,59.3-15.6,86.7c-6.2,15.5-14,30.4-23.8,43.3c-7.6,9.9-13.9,22.5-25.7,27.2C450.2,358.2,439.9,347.7,430.1,329"/>
	<path vector-effect="non-scaling-stroke" class="st1" d="M468,325.7c-14.4,8.3-22.5,2.8-28.4-11c-10-19.3-13.2-42.8-9.4-63.6
		c1.4-15.2,11-27.7,18.9-39.8c8-7,18.9-12.1,27.6-18c8.8-2.8,20.7-3.8,29.4-5.1c22.6,11.5,17.6,39.6,11.8,59.2
		c-4.9,18.7-12.6,36.6-23.6,51.8C486.8,309.8,480.7,322,468,325.7"/>
</g>
</svg>
