<?xml version="1.0" encoding="utf-8"?>
<!-- Generator: Adobe Illustrator 28.0.0, SVG Export Plug-In . SVG Version: 6.00 Build 0)  -->
<svg version="1.1" id="Layer_1" xmlns="http://www.w3.org/2000/svg" xmlns:xlink="http://www.w3.org/1999/xlink" x="0px" y="0px"
	 viewBox="0 0 845.7 531.3" style="enable-background:new 0 0 845.7 531.3;" xml:space="preserve">
<style type="text/css">
	.st0{fill:#AF2419;stroke:#000000;stroke-miterlimit:10;}
	.st1{display:none;fill:#AF2419;stroke:#000000;stroke-miterlimit:10;}
</style>
<g id="surface1277">
	<path vector-effect="non-scaling-stroke" class="st0" d="M291.7,167.1c11.2-2.4,25.3-3.5,33.3-12.7c2.8-7.1,6.3-13.5-1.8-18.3
		c-9.9-12-24.4-14.6-39-17c-18.6-2-38.6,0.1-54.9,9.5c-3.2,3.8-6.5,8.3-9.7,12.1c-1.5,10.6,2,22.7,13.5,25.5
		C251.6,172.2,272.9,171,291.7,167.1"/>
	<path vector-effect="non-scaling-stroke" class="st1" d="M436.5,489.6c-14.9-2.8-30.5-5.4-45-9.9c-11.5-2.4-21.5-7.6-23.7-20.1
		c-0.6-4.8,3-8.9,6.5-11.8c2.5-3.3,7.9-5.8,12-5.9c9.6,1.4,20.7,0,29.1,5.7c11.3,4.3,23.3,7.2,31.5,16.4c4.2,3.5,12.3,3.9,14.3,9.3
		c4.1,4.6,6.4,12.5,11.9,15.9C464,499,447.9,490.4,436.5,489.6"/>
	<path vector-effect="non-scaling-stroke" class="st1" d="M176.6,636.7c25.9,10,55.1,5.8,79.2-7.2c12.8-8,25.2-18.2,39.7-23
		c36.2-12.1,76-8.9,112.6-19.9c26.2-8.3,55.3-20.1,71.4-43.1c2.1-3.7,6.9-7.7,10.1-9.1c-1-8,12.2-12,18.5-13.3
		c40.1,22.6,88.9,39.8,134.7,27.8c31.2-7.4,57.8-27.2,85.3-42.1c29.8-17.1,62.9-30.2,86.9-54.9c11.8-12.3,16.2-28.5,22.5-43.4
		c22.8-32,79.9-17.4,114.4-23.5c30.1-0.3,90.2-23.2,59.9-59.6c-19.6-20.6-49.3-26.3-74.5-36.4c-23.7-8.8-44.7-23-63.9-38.6
		c-14.4-12-29.9-23.1-43.1-35.9c-23.6-19.7-41.7-44.5-64.7-64.5c-15.1-17.5-60.8-37.2-47.7-64.3c7.7-18.4,17-34.9,11.2-55.1
		c-13.7-34.2-48.6-55.2-82.2-63.9c-44.2-13.3-90.6,0.1-134.2,2.9c-37,2.3-74.4,1.4-109.6,6.1c-40.9,6.4-79.3,20-118.7,23.9
		c-36.1,1.8-70-5.6-105.3-5.8C136.4-5.4,89.7,2,54.9,26.4C14.8,54.5,30,85.7,34.4,123.3c-0.4,7.1,0,14.4-1.6,19.3
		c-1.8,5.3-4.6,7.6-4.5,12.3c-4,6.2-10.4,11.2-14.7,16.9c-10.2,12-23.4,22.7-29.1,37.3c-6.6,15.4-3.7,33-3.1,48.6
		c0.1,16.8-0.9,34-9.2,48c-13.1,29.6-39,58.3-29.9,91.7c10,30.9,27.3,60.4,44.9,86c20.7,24.2,48.5,37.1,75.3,51.1
		c21.3,11.2,44.8,22.2,65.1,32.7C165,591.4,131.4,614,176.6,636.7"/>
	<path vector-effect="non-scaling-stroke" class="st1" d="M150.2,544.9c-52.8-13.6-101.1-45.6-132.6-90.3
		c-21.2-26.8-52.9-56.7-40-94.1c8.9-28,25.6-53.4,31.3-82.4c8.5-49.4-1.3-55.9,34.3-98.5C98.4,118,10.3,56.1,120.6,20.3
		c28.2-8.4,58.3-10.1,87.4-8.1c30.3,2.6,61.1,6.8,91.2,2.9c38.3-5.4,75.3-19.5,113.4-24c48-6.1,96.3-1.1,144-3.7
		c34.8-1.9,72-2.7,102.4,15.8c15.9,9.7,29.8,25.9,28.2,45.1c-2.7,14.4-12,26.4-17.3,39.3c-1.3,2.2-2.9,6.1-2.6,7.5
		c1.5,4.4,3.2,9.7,5.2,13.4c18.7,16.9,42.5,27.1,61.8,42.8c21,16.4,37.9,37.1,55.4,56.5c18.9,18.9,39.4,36.2,59,53.9
		c22.1,23.7,46.1,45.9,71.8,64.3c11.2,4.7,5,17.3-3.4,20.8c-11.3,2-25.7,3.2-36.3,4.4c-24.7,3.1-49.5,5.2-71.2,16.1
		c-65.6,31.6,4.2,59.2-79.9,105.6c-26.3,14.4-53.1,29.2-81.1,38.6c-33.9,12.6-65.4,2.4-91.9-19.1c-19.9-15.2-40.3-28.6-61.8-40.2
		c-40.3-19.9-84.5-43.7-130.2-39c-10.2,0.1-19.9,5.8-28.5,9.5c-11.8,8.3-15.1,24.2-16.2,37.4c-0.7,18.6-6,47.4,16.4,53.5
		c21.9,4.5,46.5,3.8,64.8,16.5c10.5,5.6,6,5.5,2.8,13.9c-10.7,18.8-49.6,19.6-67.9,15.8c-19.5-3-35.3-16.2-54.3-18.1
		C237.5,544.5,194,556.3,150.2,544.9"/>
	<path vector-effect="non-scaling-stroke" class="st0" d="M150.2,526c-25.4-7.4-52.3-21.7-63.7-46.6c-5.9-10.5-4.9-23.8-12.3-33.6
		c-7.1-9.5-20.4-10.6-29.5-17.7c-16.3-8-30.9-19.5-40-35.5c-7-16.5-3.6-34.4,2.3-50.7c6-18.3,12.5-36.8,18.9-55
		c7.5-21.8,8.6-45.9,16.3-68c6.5-14.3,16.3-27.1,24.3-40.5C97.8,135.3,69.9,91.1,93,58.1c47-51,127.6-27.2,188.1-28.9
		c36.7-1.3,70.8-13.6,105.9-21.5c35.8-7.6,73.2-8.2,109.3-5.8c36.5,5,165.6-3.8,148.3,56.3c-4.2,13.1-14.1,24.2-19.2,36.6
		c1.9,6.9,2.5,14.9,9.1,18.4c26.2,17.4,56.8,26.1,81.5,45.3c21,14.5,36.8,35.2,53.5,53.5c13.5,15.7,28.8,29.1,43,43.3
		c15.1,15.2,32.1,33.5,32.5,55.3c1.6,6.2-5,9.6-7.8,13.5c-5.6,6.7-14.9,10.6-22,13.8c-15.2,7.4-29.9,14.5-43.7,22.7
		c-72,46.4-15.1,72.2-91.7,110.3c-62.1,30.9-95.8,6.2-149.8-23.7c-40.5-21.9-85-40-129.7-48.9c-29.2-5.7-60.3-3.3-86,10.9
		c-38.6,21.5-8.7,60.9-43.2,93.1C238.5,529,190,536.8,150.2,526"/>
	<path vector-effect="non-scaling-stroke" class="st1" d="M150.2,507.3c-32-14.7-33.3-37.3-9.1-61.1c7.5-6.8,14.2-15,21.7-21.7
		c-0.1-8.7-3.6-16.9-12.9-18.4c-28.1-6.2-58.1,1.7-85.8-3.8c-14.7-1.7-27.6-10.6-35.8-22.1c-9.4-20.5-0.8-42.9,3.9-63.2
		c5.1-19.3,12.1-38.1,18.1-57c4.7-15.2,7.1-31.6,14-45.9c4.6-12,13.8-22.2,18.7-33.9c12.8-25.1,14.7-53.1,17.1-80.5
		c7.5-86.7,121.7-58.3,180.3-60.2c49.8-0.4,93.9-22.2,142.4-27c37.2-5.1,147.8,2.4,174.5,27.6c18.2,14.5,0,36.7-8.5,51.2
		c-4.1,4.9-1,12.2-1.4,17.5c6.6,6.5,16.4,11.2,23.7,15.1c41.7,15.9,86.4,28.7,116.4,62.6c17.7,18.9,33.4,39.2,50.9,56.8
		c19,19.9,52.5,51,24.1,76.1l0,0c-25.5,19.9-55.2,34.9-80.5,54.9c-5.3,3.8-10.3,8.3-14.9,12.4c-6.3,3.6-10.9,9.1-14.5,14.9
		c-8.7,11.3-13.2,26.3-22.3,36.5c-44.8,41.6-103.7,3.4-148.2-17.7c-22.8-10.2-46.9-16.9-70.6-23.5c-30.4-9.4-62-15.8-93.8-13.8
		c-31.2,3.8-80,11.5-95.6,41.4c1.4,19.4,7.5,42.7-5.5,58.9C231,513.7,185.9,519.7,150.2,507.3"/>
	<path vector-effect="non-scaling-stroke" class="st1" d="M579.6,417c-14.6-6.3-29.4-14.1-44.4-18.8c-22.2-5.5-45.2-7.6-67.3-12
		c-54.6-12.4-103.3-19.1-158.5-6.3c-27.3,6-55.1,15.1-82.5,13.9c-22.6-1.6-45.2-8.7-68-9.6c-33.7-3.4-71.7,7.6-101.6-11
		c-28.6-26.7-4.9-75.6,5.3-106c5.7-15.9,9.6-32.5,15.9-47.8c5.3-14.8,13.3-28.9,19.5-42.9c19.4-37.2,4.1-96.8,45-118.4
		c55.8-27.4,120.8-1.3,179.3-14.9c38.2-6.5,74.2-22.2,112.9-23.4c41.7-0.1,94.5,1.6,127.9,28.7c7.3,12,2.8,23.7-4.5,34.1
		c-4.3,6.4-9.9,11.9-9.2,19.8c-5.3,10.7,10.8,15,17.1,20c45.6,20.4,100.1,24.7,136.8,60.9c22.3,20.4,39.2,45.5,59.4,67.3
		c33.2,37.5,31.5,54.4-10.2,83c-27.6,20.6-58.1,37.5-87,55.3c-12.2,6.2-20.9,17.3-31.1,25.1c-8.1,4.4-17.3,8.7-26.2,10.1
		C598.9,422,587.8,422,579.6,417"/>
	<path vector-effect="non-scaling-stroke" class="st1" d="M178.8,493c-11.9-3.4-16.1-10.5-15.6-22.7c3.6-3.8,7.4-8.3,10.9-12.2
		c8.2-7.7,20.9-10.2,31.3-13.8c6.4-0.8,14.3,3.3,20.4,5.2c8.7,3.3,6.1,13.6,7.4,20.9c-3.9,7.8-11.8,12.8-18.7,17.8
		C204.2,494.5,190.4,493.1,178.8,493"/>
	<path vector-effect="non-scaling-stroke" class="st1" d="M85.9,365.2c29.2,8.6,61.3,3.6,91.4,5.5c27.4,1.4,54.9,6.6,82.4,4.9
		c32.7-2.3,65.3-9.1,98-11.2c30.8-1.6,61.7,2.1,92.1,6.3c21.5,2.9,43.9,4,65.3,0c17.4-2.7,34.6-11.8,52.4-11
		c18.3-0.7,34.7,10.7,52.7,12c38.4,3.2,75.7-15.9,106.1-38.1c31.4-24.4,45.6-41.3,17.5-76.8c-16.9-23.3-34.5-46.5-54.4-67.3
		c-21.2-20-48.8-31.5-76.5-39.5c-23.9-6.7-48-14.2-71.6-21.6c-7.9-2.1-33.2-14.4-28-24.6c1-7.7,5.6-13.8,10.8-19.3
		c5.1-6.7,10.7-15.7,9.2-24.3c-9.9-20.6-35.8-23.6-55.9-28.5C426.5,21.5,378.1,41.8,329.2,52c-49.6,8.8-100.5-2.5-150.1,5.9
		c-66.8,11.7-50.9,89.5-74.8,135.9C92.8,216,87.1,240.2,78.6,263C64.7,294,42,349.2,85.9,365.2"/>
	<path vector-effect="non-scaling-stroke" class="st0" d="M233.2,362.3c60.6,5.8,121-11.4,181.8-5.6c34.3,2.5,70.5,6.2,102.9-8.2
		c17.8-7.3,35.3-19.7,55-19.6c31-2.5,51.9,26.5,90.3,18.2c26.2-6.9,52.7-21.6,64.6-47c9-26.3-20.2-55.7-33.5-76.5l0,0
		c-21.6-33.4-48.3-52.7-86.1-64.7l0,0c-25.6-9.3-53.3-14.8-79.2-22.3c-29-7.4-69.5-17.8-36.8-51.6c5.6-6,8.8-14.7,9.6-22.2
		c-6.5-6.9-13-14.6-22.2-16.3C422.4,28,370.7,59.9,314.7,63.2c-51.7,6.9-143.2-18.7-171.2,37.1c-11.1,21.7-13.1,47-19.2,69.9
		c-4.5,16.8-11.4,32.3-16.7,48.4c-6.8,22.5-14.6,45-24.6,66c-26.6,61.2,12.9,75.7,67,73.5C177.8,357.8,205.8,358.5,233.2,362.3"/>
	<path vector-effect="non-scaling-stroke" class="st1" d="M121.6,344.6c-43.8-7.7-33.4-45.7-17.6-75.1c6.9-14.9,12.1-30.8,16-46.8
		c5.1-19.3,12.8-38.2,16-57.9c5.4-30.8,11.9-67.2,42.5-82.9c49.9-19.8,105.4-6.3,157.6-11.3c38.8-1,77.1-22.5,115.8-11.5
		c15.4,0.7,13,19.4,4.6,27.6c-11.5,12.5-11.2,27.8,1.4,39.3c20.5,13.3,46.6,15.9,70.1,21.3c22.4,4.3,44.7,10.6,65.9,18.9
		c14.8,4.8,28.3,13,40.3,22.7c5.2,4.5,8.1,11.8,12.9,16.7c1,5.5,2.8,13.3,4.1,18.4c-0.1,8.9-1.3,19.2-0.1,27.4l0,0
		c9.2,2.3,14.7,11.2,19.9,18.4c4.2,5.6,10.7,11.4,12.8,18.2c0.7,3,2,6.4-0.3,9.1c2.4,2.8-1.6,6.7-3.3,8.8
		c-5.3,6.7-11.8,12.9-20.8,13.3c-7-1-17.1-1.7-22.5-6.2c-5.7-7.9-14-15-13-25.7c-1.2-9.9,8.3-17.7,6.4-27.3
		c0.7-9.5-13.8-8.8-20.2-8.1c-7.4,2.7-15.2,8.4-23.3,9.7c-6.8,5.3-10.5,13.9-15.2,20.8c-6.6,5.5-13,11.8-17.7,18.9
		c-6.7,7-15.5,13.4-23.1,19.2c-41.3,34.5-92.5,28.3-142.1,27.8c-42.7-0.1-85.3,8-127.5,5.9c-22.8-1.1-45.5-5.3-67.8-6
		C169.3,346.6,145.1,349.7,121.6,344.6"/>
	<path vector-effect="non-scaling-stroke" class="st1" d="M261.1,344.5c43.3,3.9,86.9-3.3,130.3-3.7c29.2-1.5,60,0.8,87.9-8.7
		c27.4-9.4,50.2-31.6,53.6-60.8c5.6-35.4,78.7-46.3,73.1-74.2c1.1-12.8-23.9-25.7-34.1-29c-34.3-13.9-71.5-16.3-106.9-23.9
		c-18.3-4.3-34.8-15.8-43.9-31.7c-8.6-17.6-10-31.9-32.8-32.5c-41.4-0.7-83.4-2.5-124.3-3.2c-51.9-0.9-101.1,5-113.7,63.9
		c-6.7,36.8-14.1,74-24.5,109.8c-6.7,24.9-38,58.6-7.1,77.9c19.9,10.8,44.3,6.7,65.9,8.6C210.3,337.8,235.7,341.8,261.1,344.5"/>
	<path vector-effect="non-scaling-stroke" class="st1" d="M178.8,324.9c-3.9-0.3-10.4-0.8-14.3-1c-24.6-3.4-46.3-5.1-36.8-36.4
		c7.5-18,17.6-35.2,19.1-54.9c2.3-18.3,5.9-36.9,7.6-54.9c2.5-25.6,5.8-53.9,25.5-72.2c25.2-21.2,60.5-21.3,91.5-21.2
		c30,0.7,60.6,2.1,89.5,9c34.2,5.7,46.5,43.3,76.1,56.4c31.9,12,67.1,8.7,99.5,18c10,3.1,20.9,5.5,28.7,12.4
		c6.6,4.4,13.6,9.9,11.3,18.3c0.1,16.7-34.8,30-47.2,38.8c-37.4,24.9-3.7,57.7-50.2,82.5c-36.3,17.9-79.4,13.3-117.9,16.5
		c-30,2.1-59.2,3.7-88.3,0.7C241,333.9,210.4,327.1,178.8,324.9"/>
	<path vector-effect="non-scaling-stroke" class="st1" d="M260.6,326.5c53.3,8.4,107.9,1.5,161.4-2.7c22.3-2.6,47.7-7.7,61.3-27.4
		c6.9-12.3,6-26.4,5-40c-0.6-15.6,11-24.7,24-30.6c12.1-6.1,24.6-12.6,35.1-21.3c7.5-20.1-9.8-25.2-25.4-30.6
		c-33.8-11.7-75.9,5.7-105.4-18.7c-9.7-5.9-16-16.1-23.8-24c-13.2-15.7-30.9-27.9-51-32.8c-32.4-8.6-67.1-10.6-100.5-8.1
		c-51.1,3.1-78.1,33.8-75.7,84.8c0.5,31.1,2.6,63.3-7.5,93c-4.4,7.8-6,16.8-5.6,25.7c1.6,11.3,22,13.5,31.2,16.6
		C209.2,315.9,235.5,319.5,260.6,326.5"/>
	<path vector-effect="non-scaling-stroke" class="st0" d="M236.1,308.7c-18.2-6.6-49.6-14.4-42.8-39.7c3.6-12.1,11.8-23.4,12.3-36.3
		c-1.8-2.4-4-6.1-3.5-9.2c-7.2-6.1-11.2-15.3-16.2-23c-26.9-64,10.8-104.2,76.2-103.8c41.4,0,90.4,5.1,116.9,40.4
		c7.7,9.1,13.4,20.4,16.5,31.4c3.7,8.7,1.5,22-5.9,27.4c-11.7,7-36.1,2-49.6,2.4c-28.9-2.6-58.3-0.2-86.2,6.6
		c-8.6,3.8-17.1,10.1-25.6,13.4c-5.1,1.6-10.9,5-12.5,10.2c-2.9,2.5-5.1,6.2-3.4,9.7c14.9,0.1,28.9,7.4,44.1,8.4
		c29.5,1.7,60.4-1.8,86.9-14.4c11.1-7.8,26.8-8.4,35.3-18.9c17.8-8.5,39.3-3.2,58-4.8c2.7,0,6.2-1.5,7-3.8c1.9-0.8,5.9-2.5,7.3-3.2
		c10.5-4.6,19.8-12.7,30.9-13.7c7.6-0.2,15.5,0.8,22.5,1.1c10.2-1.1,5.1,9.5,4.7,15.3c-6.2,2.8-17.3,3.3-23.8,6
		c-10.7,1.2-21.5,1.7-30.8,6c0.7,2.1,1,5.3-0.3,6.9c2.2,4.4,2.4,9.8,3.8,14.1c6.9,14.1,16.7,34.8,10.7,49.9
		c-14.6,33.8-73,30.1-103.9,33.3C321.4,322.7,276.9,324.8,236.1,308.7"/>
	<path vector-effect="non-scaling-stroke" class="st1" d="M318.6,184.4c15.4-2.7,35.9-2.3,46.4-15.3c13.4-17.9-6.3-39.8-21.7-48.7
		c-27.8-16.5-61.7-18.8-93.1-16.3c-20.4,2.3-45,9.4-54.8,28.9c-11,17.8-5.9,41.9,8.8,55.4c15.5,9.7,36.2,4.5,52.9,2.6
		C277.6,188.3,298.2,186,318.6,184.4"/>
	<path vector-effect="non-scaling-stroke" class="st1" d="M286.5,309.9c32,6.8,65.7,3.9,98.1,1.3c23.4-3.5,62.2-3.8,66.1-33.2
		c-3-34.4-44.8-42.2-72.4-37.3c-28.2,5-54.8,16-82.8,20.5c-18.1,4.5-44.3,4.4-53.6,22.2C251.9,303.1,267.4,304,286.5,309.9"/>
	<path vector-effect="non-scaling-stroke" class="st1" d="M236.1,180.6c-4.2,0.2-10.4-1.6-14.2-3.3c-16.5-5.7-22-20.6-18-36.7
		c6.6-13.6,20.1-22.8,34.1-26.4c29.5-11.2,122.4-0.1,108.9,44.8c-11.2,11.1-27.4,14.5-41.8,16.9C281.9,178.8,259.1,182,236.1,180.6"
		/>
	<path vector-effect="non-scaling-stroke" class="st1" d="M315.9,274.2c15.7-6.2,32.4-11.4,49-14.4c18.8-3.6,44.8-6.1,58.2,9.7
		c2.2,7.4,7.7,13.4-1,17.7C409,299.5,390,300,373.3,301.7c-20.2,1.5-40.7,0.6-60.1-1.8c-9.1-0.3-15.7-5.6-18.7-13.5
		C297.6,277.4,308.5,277.7,315.9,274.2"/>
</g>
</svg>
