<?xml version="1.0" encoding="utf-8"?>
<!-- Generator: Adobe Illustrator 28.0.0, SVG Export Plug-In . SVG Version: 6.00 Build 0)  -->
<svg version="1.1" id="Layer_1" xmlns="http://www.w3.org/2000/svg" xmlns:xlink="http://www.w3.org/1999/xlink" x="0px" y="0px"
	 viewBox="0 0 1081.4 620.2" style="enable-background:new 0 0 1081.4 620.2;" xml:space="preserve">
<style type="text/css">
	.st0{fill:#A86D34;stroke:#000000;stroke-miterlimit:10;}
	.st1{display:none;fill:#A86D34;stroke:#000000;stroke-miterlimit:10;}
</style>
<g id="surface1182">
	<path vector-effect="non-scaling-stroke" class="st0" d="M585.9,163.2c15.4,5.3,33.5,5.2,49.6,3.3c10-0.4,21.1-3.2,25.7-13.1
		c3-10.7-11.4-15.6-19.5-18.9c-7.2-2.4-14.8-6.8-22.6-7.4c-15.9-3-35.4-9.2-50.4-0.9c-6.6,3.9-4.6,13.5-4.9,20
		C568.9,153.6,577.4,160.1,585.9,163.2"/>
	<path vector-effect="non-scaling-stroke" class="st1" d="M136,581c41.8,22.2,93.4,19.3,137.3,5.8c24.5-7.6,45.2-24.5,68.2-33.9
		c30.5-13.6,64.4,1.2,95.7-4c5.2-0.9,13.7-1.6,18-3.5c7-4.6,16.3-11.2,18.6-18.9c-8.5-15.5-19.8-21.3-36.6-21.8
		c-29.9-3.2-59.7,8.6-89.2,6.1c-28.4-4.2-57.4-10.6-85.9-8.4C232,503.8,74,534.5,136,581"/>
	<path vector-effect="non-scaling-stroke" class="st0" d="M734.5,614c27.5,8.6,59,7.5,85.6-3.8c28.4-11,43.8-41.9,23-67.3
		c-12.5-17.5-33.7-26.9-45.4-44.9c-9.6-22-1.8-42.4,18.9-53.7c12.8-5.5,29.2-5.8,43-6.7c25.9-0.6,51.7-6.7,77.4-8.7
		c20.6-1.9,41.5,3.8,61.9,5.3c27.1,1.4,62.9,0,78.2-26.1c6.3-17.3,6.4-40.9-9.2-53c-24.9-18.2-60.8-18.6-89-8.4
		c-10.3,4-22.5,7.4-30.6,15.3c-10.8,2.8-27.7,7.9-35-3.5c-9.3-15.8-2.6-35.8-12.8-51.3c-9-11.2-21.6-20.5-35.8-23.6
		c-4.8-2.7-10.5-3.2-15.7-4.7c-5.8-0.8-11.1-5.1-16.5-7.2c-3.6-1.6-9-3.8-12.4-5.7c0.5-5.6,7-9,12.2-9.5c27.9-7.8,57.4,1.4,85.9-1.7
		c16.3-1.1,59-12.2,45.2-34.7c-5-11.1-17.8-14.9-26.2-22.8c-12.4-9.6-22.1-22.3-32-34.3c-21.3-24.4-57.1-31.3-76-57.7
		c-6.8-9-9.3-21.3-16.5-29.9c-34.3-36.3-103.5-32.3-150.2-35.7c-21.6-1-44.4-2.2-64.7-9.9c-39-22-76.2-34.9-121.8-27.3
		c-81.1,15.7-43.8,56.6-77,72.5c-23.4,7.7-48.8,2.1-72.7,2.1c-26.8-0.9-53.9,0.4-80.3,0.4c-41.5,0.6-84.3-11.4-124.2,2.7
		c-15.8,5.8-29.5,17-41.3,28.2c-12.3,10.1-24.8,20.3-33.2,33.1c-10.7,18.5,0,39.8-6.4,58.4c-3.9,9.7-9.9,16.9-17.3,23.4
		c-7.2,7.5-14,16.3-19.9,24.4c-10.2,22.9,16.6,37.4,35,41.9c12.8,4.7,66.3,9,55.5,29.4c-7.2,22.1-29.4,35.6-31.1,59.5
		c6.5,30.5,40.5,42.9,65.9,53.3c30.6,11.6,63.2,15.9,95.3,17.1c17,0.1,34.8-1.2,51-4.5c2.9-0.4,8.9-0.1,11,0.3c4.9-2,10.6-2.6,15-3
		c30.4-2.6,61-1.2,90.2,4.7c27.3,5.2,53.3,16.9,78.3,25.5c30.1,7,59.8,7.3,88.9,12.8c29.7,6.1,84.6,14.6,103.4,37.4
		c11.2,13,7,32.5,15.3,47C685.9,592.9,710.7,608.8,734.5,614"/>
	<path vector-effect="non-scaling-stroke" class="st1" d="M554.8,630.5c15.8,0.4,31-6.7,41.1-18.8c-8.3-20.7-36.8-23.6-56.6-21
		c-13.8-0.2-25.3,8.6-32.4,19.9c4.2,4.3,9.4,10.3,14.6,13.4C530.6,630.6,544,629.8,554.8,630.5"/>
	<path vector-effect="non-scaling-stroke" class="st1" d="M1005.6,662c12.1,2.8,26.2,0.5,38.1-1.9c7.1-1.4,13.5-8.8,17.8-14.2
		c0.3-12.8-16.6-19.7-27.6-21.1c-19.4-3.1-43-2-55.6,15.1C979.3,653.1,993.2,660.8,1005.6,662"/>
	<path vector-effect="non-scaling-stroke" class="st1" d="M194.4,749c10.8,2.9,24,2.4,34.5-1.4c9.1-3.4,21.9-13.2,20.1-23.9
		c-6.2-6.5-12.9-14.2-22.5-14.7c-14.7-4.3-30.4-2.8-45.1,0.9c-7,2-12.5,9.2-17.8,13.9C166,738.2,180.3,747.6,194.4,749"/>
	<path vector-effect="non-scaling-stroke" class="st1" d="M195.9,819.3c13.8,12.3,44,11.9,60.5,4.9c8.3-1.4,14.2-10.2,17.5-17.2
		c-9.3-17.1-29.5-22.2-47.6-22.7c-10.8,1.3-24.5,2.8-31.6,12.1C185.5,805.9,185,810.9,195.9,819.3"/>
	<path vector-effect="non-scaling-stroke" class="st0" d="M406.8,391.3c-28.7-2.1-59.5-7-83.2-24.5c-15.3-14.9,4.2-26.5,19.3-27
		c15.7-3,32.5-5.5,48.2-8.3c21.7-1.8,49.5-9.4,67.6,6.1c12.5,12,8.1,32.3-3.6,43.3c-13.5,9.2-32.4,10.4-48.3,10.3"/>
	<path vector-effect="non-scaling-stroke" class="st1" d="M164.1,563.1c1.4-23.1,31.6-26,49.4-31.5c17.9-3.2,40.9-9.7,58.1-2.7
		c6.3-2.6,12.1,2.4,15,7.8c2.1,3.4,4,8.4-0.1,10.9c-6,6.1-12,13.6-19.9,17.3C237,580.1,190.1,588.2,164.1,563.1"/>
	<path vector-effect="non-scaling-stroke" class="st1" d="M732.8,586.9c-15.5-7.5-26.5-25.1-24-42.4c1.6-9.3,8.4-17.7,8.8-27.2
		c1.6-4.3,2.9-8.1-2.2-10.3c-42.7-18.9-90.8-26.7-135.6-39.2c-28.6-7.1-57.7-12.8-85.5-20.2c-16.6-4.3-32.2-13-48.3-17.2
		c-25.4-7.5-52-10.9-77.9-11.5c-60.4-4.7-118.1,25.7-178.1,13.9c-32.7-5.1-114.4-25.7-93.4-70.6c11.3-18.2,25.3-36.2,41.3-49.5
		c3.9-7.5,10.9-13.6,17.3-17.8c-2.8-4.6-9.2-7.4-13.7-7.9c-25.5-8.3-127-2.8-95.6-49.2c11.8-15.8,30.1-29.3,33.1-49.5
		c1.6-9.3-0.2-19.4,2.3-27.9c5.7-19.2,25.2-29.2,39.9-40.2c18-14.4,40-23.3,61.9-25.3c28-2.9,55.4-5.5,82.3-6.5
		c43-2.9,85.2,3.5,126.7,8.7c13.6,2.3,27.2-3.7,37.7-10.1c7.2-6.7,11-15.6,16.1-22.8c3.6-10.5,6-22.2,13.3-30.5
		c24.3-21.3,62.4-16.4,89.5-5.1c36.4,18.5,75,22.4,114.2,23.8c38.5,2.5,79.4,1.8,112.7,22.6c18.4,12.1,21.6,35.9,41.1,47.8
		c15.9,13.2,36.3,20.3,51.6,33.5c15.8,13,28.3,34.5,21.5,54.4c-4.2,8.7-20.4,11.2-29.1,13.3c-15.8,2.8-32.7,4.6-47.6,7.6
		c-15.5,3.8-33.2,8.1-45.7,16.6c-3.5,5.6-6.8,11.8-5.1,17.4c5,6.9,9.4,14.1,16.4,17.9c14.4,8.3,30.3,14.1,44.9,20.3
		c16.5,5.3,28.6,14.8,27,33.2c-2.1,18.3,6.4,39.4-5.4,55.2c-13.8,9.6-31.8,11.2-47.3,15.9c-25.7,11-33.4,28.1-42.8,52.1
		c-4.9,12.1-9.2,24.5-14.7,35.5c-1.5,1.7,0.5,3.9,0.5,4.4c-0.7,1.7-1.2,9.8-1.3,9.4c20.7,6,38.4,15.9,56,25.7
		c20.3,10.8,31.5,37.7,9.9,52C786.4,602.3,751.5,600,732.8,586.9"/>
	<path vector-effect="non-scaling-stroke" class="st1" d="M647.5,464.4c-29.9-5.2-57.6-19.7-86-29.8c-22.6-8.6-49.3-12.4-66.5-30.8
		c-9.9-13.7-0.6-31.5-0.5-46.9c0.3-23.2,2.4-29.6,17.7-46.1c-0.3-0.7,16.2-2.7,12.7-5.5c4.7,1.2,12.6-1.8,17.3-0.6
		c5.6,1.4,13.6-2.1,19.2-0.8c8.4-0.3,22.5-2,26-8.7c-19.5-3.9-40.8-1.3-60.4,0.1c-6.5,1-12.8,8.3-20.1,4.3c-7.7,2-16.9,0.3-24.8,0.6
		c-8.1,0.2-17.2,3.2-25.3,3.5c-25,6.8-50.3,14.5-76,18.9c-25.2,4.5-51.8,5.1-76.8,10.7c-5.7,2.1-13.2,6.1-17.7,10.1
		c-3.6,15.7,6.1,25.3,15.2,36.4c2.6,5.9,10.5,11.8,9.1,18.5c-11.3,10.1-24.8,17.3-39.3,20.4c-36.8,10.3-77,9.5-112.8-2.5
		c-55.5-20.2-57.7-46.6-15.3-84.8c13.4-12.8,30.4-20.8,46.1-28.9c16.5-5.7,26.9-21.2,28-37.4c2.9-17.3,18.8-25.5,24.2-40.8
		c5-12.4,3.5-12.2-7.7-17.8c-18.4-6.6-41.2-11.6-59.7-5.9c-9.9,13.1,6.8,23,6.3,36.3c2.7,25.6-41.3,29.6-59.6,30.5
		c-14.2-0.5-31.9-0.2-42.6-9.1c-4-5.5-8.8-9.4-4.6-15.9c5.1-10.7,13.7-19.2,22.7-26.1c6.1-5.6,11.2-13,18.7-16.2
		c15.2-15.6,2.6-30.2,13.4-44.2c4.8-11.6,15.6-19.2,24.3-27.1c20.8-17.8,47.6-25.7,73.8-28.7c37.8-5.3,76.2-6.8,113.4-0.4
		c29.2,2.2,57.9,19.6,86.4,9c10.2-4.9,17.2-15.9,25.6-22.5c7.4-10.6,16.1-20.1,22.6-30.4c16.3-21.4,45.4-19.8,67.8-11.6
		c16.3,4.3,33.3,7.4,49.3,10.1c46.4,8,94,5.9,139,17.1c37,7.8,43.5,35.8,69.8,56c16.7,11.3,35.7,20,50.5,32.7
		c39.5,38.5-12.7,53.1-45.2,57.8c-22.8,6-88.7,5.9-81.7,40.7c1.9,9.2,9.5,17.7,14.8,24.9c4,5.4,11.4,9.4,13.9,15.2
		c4.5,11.3,11.6,11.5,4.1,23.4c-6.9,9.6-2.8,12.1,2.1,20.5c7.3,6.3,27.8,13.6,24.4,24.4c-0.7,3.5-2,8.1-2.3,11.2
		c-8.4,4.7-16.8,10.2-24.2,15.5c-18.3,11.8-29.8,21.9-35.7,43.2C711,471.1,676.3,468,647.5,464.4"/>
	<path vector-effect="non-scaling-stroke" class="st1" d="M587.3,415.8c-26.4-4.2-66.4-7.8-72.6-39.4c-0.2-13.5,0.4-30.4,12.3-39.1
		c26.2-17.5,60.5-13.2,90.5-12.2c15,2.5,30.1,6.7,44.3,12c10.9,5.2,21.4,12.4,32.3,17.8c9.6,4.6,16.9,13.8,20.3,23.7
		c-1.7,1.4-5.1,4.1-6.8,5.5c-9.7,8.3-20.4,16.6-32.7,20.5C647.7,415.9,616.5,420.5,587.3,415.8"/>
	<path vector-effect="non-scaling-stroke" class="st0" d="M196.2,415.4c-23.7-3.7-52.3-10.9-63.7-34.2
		c-3.5-14.1,10.2-28.7,19.7-38.4c9.7-8,21.3-16.4,33.1-20.8c17.9-7.7,45.9-8,51.9-30.3c2.2-14.2,4.5-29.7,12.2-42.2
		c8.1-11.9,17.6-23.6,22.5-37.4c-8.9-11-22.9-16.1-36.3-18.9c-24.8-5.3-52.6-10.5-71.5-28.6c-5.8-23.3,13.9-38,32.8-47.4
		c37.6-16.5,80.2-17,120.3-14.3c26.1,2.6,50.9,11.7,75,20.2c34.5,13.8,53-7.9,70.9-33.4c36-41.7,59.1-39.2,109.3-31.5
		c35.5,6.1,72.7,8.2,107.7,12.6c39.8,4.2,66.7,14.3,91.2,45.7c14.9,15,33,23.7,49.6,35.5c22.4,11.7,32.8,36.4,4.3,47.9
		c-34.6,12.3-72.6,8.8-106.6,20.2c-20.5,7.4-24.5,7.6-33.1,27.6c-0.5,13.2,3.9,25.4,10.3,35.8c2,4,0.6,8.5,4.1,11.1
		c-2,3.5-11.3,3-15.1,4.4c-11,2.7-23.3-3.4-32.3-7.8c-6.9-2.2-12.7-6.6-19-8.8c-7-2.4-15.7-3.7-22.4-5.9c-27.8-3.2-56.8-2.3-84,0.6
		c-10.2-1.2-20.8-1-30.1-0.8c-13.4-2.5-26.9-1.5-39.3,0c-5.8,0.4-10.2,4.7-14,7.3c-7.6,4.9-15,10.4-21.9,14.5
		c-39.6,21-85.1,21.7-127.9,23.4c-21,0.9-42.3,3.3-32.3,29.5c4.5,14.5,16.3,25.3,17.2,39.9C274.9,416.4,216.7,420,196.2,415.4"/>
	<path vector-effect="non-scaling-stroke" class="st1" d="M461.1,254.9c23.5,1.1,46.8,8.8,70.5,8.6c34.3-1.7,71.5,0.3,104.5-9.6
		c10.8-4.8,20.1-14.2,26.8-23.7c6.2-3.2,13.2-7,19.5-10c38.9-20.4,87-11.5,126.7-29c5.9-3,14.4-6.7,13.5-14.6
		c-2.3-4.1-2.7-11.6-7.1-14.1c-14.6-12.1-31.4-22-46.5-33.5c-23.3-22.1-43.3-41.7-76.5-47.4C637.9,71.1,582.1,65,527,62.7
		c-14.4,5-30.6,6.5-41.1,18.3c-16.7,11.3-24.4,30.7-36.4,45.4c-6.4,5.3-13.3,10.6-20.1,14.6c-12.7,2-26.9,3-37.6-4.5
		c-21.9-11.8-44.5-23.7-69.2-27.1c-39.8-6.3-82.4-4.4-118.9,13.1l0,0c-15,6-26.1,23.4-18.8,38.9c15.8,20.8,62.3,26.8,86.7,32.9
		c9.5,2.6,17.8,8,20.5,17.5c-5.7,10.3-13.1,19.6-20.5,28.4c-13.4,16.9-23.4,51.5,0.1,63.4c34.5,12.5,74.8,9.2,109.5-0.1
		c16-4.2,30.2-13.5,39.8-26.6c3.5-7.4,8.2-14.8,16-17.8C444.4,256.5,453.2,252,461.1,254.9"/>
	<path vector-effect="non-scaling-stroke" class="st1" d="M557.2,395c-34.7-13.6-27.1-52.7,8.9-56.8c27.2-4.4,57.2-1,81.2,13.1
		c5.2,2.8,11,6.2,15.7,9.7c2.1,5.2,7.5,16.5,2.4,20.3c-13.1,10.5-29.5,17.9-46.2,19.8C599,403.9,575.9,404,557.2,395"/>
	<path vector-effect="non-scaling-stroke" class="st1" d="M165.1,396.5c-6.7-4.4-11.5-11.3-15.9-17.8c1.5-4.4,2.6-10,4.8-14.1
		c4.7-9.6,15-15.2,23.1-21.7c9.4-5.3,23.3-8.7,34.1-8.2c23.8,2.8,33.1,26.5,45.1,43.9l0,0c1.6,17.8-8.2,21.3-22.7,26.2
		C210.4,409.7,186,406.9,165.1,396.5"/>
	<path vector-effect="non-scaling-stroke" class="st1" d="M286.5,295.9c-21.4-11.8-14.6-40.1,0.1-54.8c8.2-9.4,17.2-19.4,25.1-29.1
		c1.2-13.5-2-16.9-15.2-19.7c-23.7-5.3-114.6-15-100-50.4c24.7-37.9,107.2-35.6,145.4-21.1c34.4,10.9,40,45.1,80.2,36.7
		c26-5.1,36.1-17.4,46.2-40.7c17.6-36.2,50-50.2,89-47.8c29.3,1.2,59.3,5.2,88.2,10.2c20.9,3.3,42.7,6.9,62.3,15.2
		c23.9,9.7,41.3,29.5,61.7,44.6c10.8,7.5,20.9,16.5,30.9,25.1c3,16-1.7,19.4-16.7,23.3c-31.5,9-65,10.5-96.4,20.1
		c-25.3,4.7-47.4,19.2-70,30.4c-23.4,10.1-49.8,11.7-75,12c-38,2-93.3-23.8-126,2.1c-12,10.6-12.7,29.2-27.3,37.5
		C363.1,307.7,314.9,308.9,286.5,295.9"/>
	<path vector-effect="non-scaling-stroke" class="st0" d="M580.3,349.3c11.7,0,24.6-1,35.5,4.3c6.7,2.5,17.1,3.7,18.8,11.5
		c2.6,13.6,2.2,14-9.9,19.1c-15.6,5.1-31.8,6.2-47.3,2.5C548.4,380.2,553.5,353.9,580.3,349.3"/>
	<path vector-effect="non-scaling-stroke" class="st1" d="M196.2,394.3c-12-2.9-17.4-6.2-25.3-15.7c2.5-5.7,5.7-12.9,9.3-17.9
		c11.8-3.7,28.7-8.1,38.6,1.3c6,5.6,16.5,12.4,13.4,21.1C225.5,394.9,208.3,399.4,196.2,394.3"/>
	<path vector-effect="non-scaling-stroke" class="st1" d="M346.7,295.6c-32.2,5.2-78.8-8.9-50.2-48.1c13.5-16,32.9-27.4,42.6-46.3
		c11.5-19.9-41.9-15-52.6-18.1c-20.9-2.3-40.9-5.5-59.9-13.1c-10.7-3-18.3-12.2-21.1-22.2c5.1-17.6,24.3-24.6,39.5-28.1
		c39-8.6,112.3-6.4,121,40.9c3.7,12,11,15.6,22.2,13.3c11.7,1,24.2-1.8,34.7-3.5c26.7-4.4,41.7-17.1,50.7-41.8
		c15-54,65.7-58.5,112.8-52.6c37.7,4.8,75,9.8,109.8,22.8c25.8,9.6,44.9,29.9,65.7,45.8c6.7,6.4,12.8,13.6,18.8,19.6
		c-2.2,12.9-13.5,19.1-24.9,20.5c-11.2,3.2-23.8,5.5-34.1,7.4c-27.3,6.6-53.5,13.4-79.6,20.2c-20.8,8.3-42.8,15.9-64,19.1
		c-45.2,8.8-90.6-5.6-134.6-0.5c-17.8,2.6-43.9,4.8-50.1,23.1c-4.2,10.6-5.2,23.3-14.7,29.8C368.7,288.7,357.9,296.8,346.7,295.6"/>
	<path vector-effect="non-scaling-stroke" class="st1" d="M286.5,177.3c-17.6-0.7-36.2-3.6-52.6-10.1c-7-1.8-12.2-8.4-15.4-14.5
		c-6.8-9.4,8.6-19,15.4-23.8c18.2-7,38.3-9.7,57.7-7.8c18.4,1.3,39.1,4.8,51.6,19.7c8.2,5.5,4.9,16.1,1.8,23.9
		C329.8,179,305.9,176.7,286.5,177.3"/>
	<path vector-effect="non-scaling-stroke" class="st1" d="M315.7,248.4c-28.7,24.5,1.4,43.1,28.6,36.9c7.9-0.3,17.8-3.1,21.8-10.5
		c12-18.1-1.4-26.5,13.1-39.4c18.5-14.7,44.8-13.6,67.3-16.2c39-3.5,78.6,0.2,117.5-2.3c33.2-2.5,66.5-9.2,98.7-17.6
		c18.8-4.5,38.5-9,57.4-13.4c14-3.4,29.8-6.5,39.6-18c6.3-4.5-1.2-10.7-4-15.4c-5.1-8.5-14.3-14.1-21.3-21
		c-29.8-27.1-70-37.6-108.6-44.9c-39.4-6-85.9-16.5-121.2,7.5c-25.7,18.8-15.7,60.6-44.6,76.5c-28,16.2-68.7,11.2-91.6,34.6
		c-12.9,9.5-20.3,26.1-36.7,30.5C327.1,238.9,319.7,244.5,315.7,248.4"/>
	<path vector-effect="non-scaling-stroke" class="st0" d="M316.6,131.2c-14.9-7-33.1-7.2-49.2-5.6c-14.6,0.2-28.7,6.5-38.5,17.3
		c-3.7,11.8,9.9,20.9,19.8,23.9c22.8,6.4,48.3,7.3,71.1,0.4c7.6-2.4,13.5-9.5,15.1-17.3C338.8,143.9,321.2,134.4,316.6,131.2"/>
	<path vector-effect="non-scaling-stroke" class="st1" d="M466,200.9c38,0.9,76.1,6.2,114.1,5.1c32.9-0.9,65.5-8.3,97.6-14.9
		c13.1-3.2,74.4-14.2,67.1-31.7c-3-12.2-12.8-19.5-22-27.2c-19.3-16.6-43.6-26.3-67.8-33.2c-6.9-1.9-15.6-4.4-22.6-5.9
		c-39.4-7.4-87.8-19.7-122.7,5.7c-15.8,14.4-16,36.6-20.4,55.7c-3.8,24.7-18.8,25.5-22.5,39.6c-1.4-6-6-2.3-9.1-1.2
		c-6.1,0.8-8.3,0.4-6.1,7.1C451.7,200,465.9,200.9,466,200.9"/>
	<path vector-effect="non-scaling-stroke" class="st1" d="M314.3,158.4c3.5-3.1,6.6-7.7,8.9-11.8c-10-9.6-22.8-15.9-36.8-16.5
		c-23.4-3.3-68.6,12.8-29.9,33.7C274.6,166.6,299.3,171.6,314.3,158.4"/>
	<path vector-effect="non-scaling-stroke" class="st1" d="M707.7,176.9c-49.9,16.5-104.2,24.1-156.5,18.2
		c-16.7-3.3-43.4-3.4-47.1-24.2c-4.3-36.4-2.3-75.9,42.4-81.2c44.8-6.2,90.1,7.8,131.8,23.3c20.2,8.8,55.5,25.2,53,50.9
		C724.3,169.1,715.7,173.3,707.7,176.9"/>
	<path vector-effect="non-scaling-stroke" class="st1" d="M256.4,153c-6.4-5.8-8.6-6.2,0-11c8.3-1.7,17-5.3,25.6-5
		c18.5,4.6,43,8.5,10.1,19.8C279.1,161.9,268.8,156.6,256.4,153"/>
	<path vector-effect="non-scaling-stroke" class="st0" d="M670.6,182.2c15.3-3.7,31-9.3,44.5-17.5c2.7-4.7,2.3-14.4,0-19.1
		c-18-19.4-43-29.1-67.7-37c-26.6-8.4-54.5-16.6-82.7-15.4c-30.5-0.4-55.7,14.9-51.5,48.4c-0.6,31.1,20.1,42.9,48.2,46.4
		C597.6,194,635,189.4,670.6,182.2"/>
	<path vector-effect="non-scaling-stroke" class="st1" d="M278,145.7c1.3-0.2,4.5,0.5,5.8,0.8C282.1,147,276.5,149.3,278,145.7"/>
	<path vector-effect="non-scaling-stroke" class="st1" d="M557.2,179c-18.2-4.3-32.7-19.5-33.7-38.5c-1.1-11.3-1-27.1,11-32.6
		c33.2-22.2,78.2-2.9,113,7c16.5,6.2,34.3,11.4,47.7,23.5c9,5.4,10.8,12.4,7.9,22.3c-3.8,9.5-34.6,15.8-44.8,18.6
		C625.3,186.1,589.9,188.1,557.2,179"/>
	<path vector-effect="non-scaling-stroke" class="st1" d="M587.3,178c-14.4-2.2-31.3-5.6-42-16.1c-10.6-12.7-15.7-32.7-5.4-46.9
		c22-19.3,56.4-8.9,81.8-2.2c21.7,7.2,45.5,12.4,63.3,27.5c8.5,4.8,6.9,16.9,1.6,23.7c-8.5,4.1-18.4,7-27.5,9.4
		C635.9,179.6,611,179.7,587.3,178"/>
	<path vector-effect="non-scaling-stroke" class="st1" d="M557.2,157.4c-9.9-9.8-8.6-11.9-10.5-25.1c-0.7-14.1,14-19.3,25.6-21.1
		c18.4-0.5,36.7,5.1,54.2,10.1c13.5,4.4,28,7.8,39.8,16.1c13.6,8.1,17.4,8.8,7.3,23.9c-8.5,7.8-24.7,8.6-36,10.7
		C612.9,175,576,175.9,557.2,157.4"/>
</g>
</svg>
