<?xml version="1.0" encoding="utf-8"?>
<!-- Generator: Adobe Illustrator 28.0.0, SVG Export Plug-In . SVG Version: 6.00 Build 0)  -->
<svg version="1.1" id="Layer_1" xmlns="http://www.w3.org/2000/svg" xmlns:xlink="http://www.w3.org/1999/xlink" x="0px" y="0px"
	 viewBox="0 0 600.5 842.8" style="enable-background:new 0 0 600.5 842.8;" xml:space="preserve">
<style type="text/css">
	.st0{fill:#0163C1;stroke:#000000;stroke-miterlimit:10;}
	.st1{display:none;fill:#0163C1;stroke:#000000;stroke-miterlimit:10;}
</style>
<g id="surface1247">
	<path vector-effect="non-scaling-stroke" class="st0" d="M252.8,195.4c-9.6-6.4-24.8-16.8-20.3-30.2c2.3-18.9,14.3-28,30.2-36.1
		c31.4-17.7,79.3-21.8,107.4,4c17.1,11.3,25.1,34.9,18.7,54.2c-7.8,17.6-33.5,19.3-50.4,19.7C310.5,206.7,278.7,207.3,252.8,195.4"
		/>
	<path vector-effect="non-scaling-stroke" class="st1" d="M220.2,1140.5c-16.8,14.3-37.1,1.9-48.4-13c-2.4-4-2-10.7-5.4-14.1
		c-5.8-30.3-10.6-82.2,20.3-99.7c2-4.4,21.6-3.3,25.2-4.6c7.4,4.1,18.2,11.4,23.3,18.2c5.9,11.5,6.5,26.9,7,39.5
		C241.6,1091.8,246.5,1126.9,220.2,1140.5"/>
	<path vector-effect="non-scaling-stroke" class="st1" d="M512.4,918.4c24.4,2.5,54.6,1.1,79.1,2.4c40.7,2.2,86.2-8.6,95.3-54.6
		c8.2-33.9,12.2-75.9-5.8-107.3c-12.2-26.2-42-37.5-62.8-55.6c-2.7-2.8-12.3-5.5-10-10.7c4.4-5.5,0.8-9,7.5-13.4
		c10.5-14.3,30.5-12.8,46.3-12.6c14,0.7,30.9-2.1,44.8-4c106.9-24.5,89.7-136.9,76.1-219.1c1.5-4.7-1.4-11.8-3.4-15.5
		c0.1-4.6,0.5-12.3-3.1-15.7c-5-22.7-17.9-43.5-30.7-62.3c-25.8-40.9-38.2-53.4-16.9-100.6c1.7-8.4,6-19.1,2.6-27.2
		c-5.8-11.3-15.6-21.8-26.4-27.4c-23.9-7.5-43.3-24-63.7-36.9c-7.7-9.9-17.1-20.3-25.2-29c-19.8-14.7-28-40.4-31.8-63.5
		c-2.1-25.4,13.3-48.3,27.3-67c5-6.3,10.6-13.1,14.2-19.6c1.8-8,3.9-17.8,5.5-25.2c-5-12.1-15-22-23.9-30
		c-36.7-13.5-77.1-9.5-114.8-7.8c-44.8,3.4-86.3,23-129.1,33.4c-31.1,8.5-64.1-1.9-94-8.5c-30.1-7.4-61.1-12.8-91.6-11.4
		C134-70.2,96.1-43.5,66.2-14.3C44.3,4.4,20.9,22.8,1.2,42.9c-34.2,33.5-35.3,84.5-61,121.9c-11.5,16.1-21.6,33.7-30.8,50.6
		c-13.7,9.9-27,23.8-44.4,25c-10.5,4.5-26.5,2.7-36.9,3.9c-1.5,0.8-21.7-5.4-22.1-2.1c-9.3,2.3-16.4,6.5-21.3,16.1
		c-3.3,3.7-11.2,12.8-10.5,17.9c-5,8.2-3.9,19.5-5.2,28c2.3,20.1,17.3,37.4,32.8,48.3c16.8,11.5,33.9,23.8,48.2,37.4
		c4.2,7.6,4.5,19,5.7,27c-0.7,6.3-14.5,12.9-18.4,17.6c-8.2,7.7-19.3,16.2-28.9,20.9c-36.5,25.1-79.6,50.4-93.1,94.4
		c-7.2,31.8,4.3,64.4,17.6,92.4c15.7,45,63.8,84.6,112,71.2c25.6-8.7,46.9-26,68.2-41.1c8-6.1,17.4-12,24.8-18.1
		c6.4-0.7,10.2-4.3,11.7-9.5c43.6-2.4,38.3,7.9,51.5,43c5.8,31.3-20.6,54.6-44,69.6c-22.8,10.6-48.8,9-73,5.4
		c-18.4-0.6-40.9-1.3-55.3,11c-11.3,11.1-26.5,22.7-28.7,39c-3.1,10.6-6,20.1,0.3,30c15,42.8,70.9,49.6,109.2,41.6
		c43.4-13.7,67.5-25.9,113.3-16.6c85.8,18.1,169.1-5.4,172.3-102.6c7.4-4.5,9.1-6.9,5.3-14.1c11.7,2.3,25.7-1.2,36.7,2
		c16.6,20.8,37.6,37.5,55.8,56c20.9,15.4,46.4,24.7,70.6,31.5c16.5,5.3,36.2,6.9,50.4,15.7C451.9,870.7,459.7,917,512.4,918.4"/>
	<path vector-effect="non-scaling-stroke" class="st1" d="M363.4,799.9c-48.6-11.7-58.5-53.7-87.3-86.1
		c-45.3-28-103.7-19.3-152.2-6.6c-13.5,2.2-24.3,8.9-37.8,2.4c-3.1-1.6-5.3-6.4-6.8-8.8c-5-5.8-12.9-12-18.5-16.3
		c-19.1-21.9-31.6-49.8-37.3-77.7c-4.5-6.1-2.8-15.1-5.4-21.1c-2.1-13-7.3-26.5-12-38.2c-2.8-4-20.9-27.2-22.4-22
		c-10,9.7-25.8,19.1-35.5,28.6c1.3,6.2-2.7,10.7-7.3,12.7c-9.2,18.4-20.9,37-34.6,51.2c-28.5,36.5-92,60.4-123.4,16
		c-61.6-82,20.4-145.6,97.5-164.2c32.4-7.2,66.7-4.6,99-1.3c18.5,0.1,38.5-4.3,56.4-4.6c46.4-6.1,26.7,15.8,76.1,9.4
		c7-4.8,19.1-8.4,12.2-18.3c7.1-3.7,6.5-5.4,2.7-10.9c-5.3-2.8-12.1,1.6-15.4,4.7c-5.6-7.7-17.3-7.4-25.2-7.4
		c-5.3,1.1-19.3-2.9-24.1-3.4c-3.9,0.3-12.2-7.8-15.2-9.1c-1.7-3.6-5.4-10.7-9.7-11c-17.8-8.1-33.8-24-52.1-29.3
		c-15.7-8.7-35.4-12.5-49.4-24.1c-16-11.5-35.9-26.1-34-47.7c-2.2-6.4,4.3-11.6,7.6-15.8c6.7-9.5,10.9-21.9,17.5-30.8
		c6.2-16.6,14.8-32.6,21.1-48.4c5.5-17.4,13.7-33.7,24.2-48.2c14.3-18.8,27-38.2,38.8-58.3C19,97.1,27.7,77.9,37.8,61
		C79,9.1,133.5-45.9,204.5-41.3c28.6,0.7,57.1,6.1,84.6,11.5c24.1,4.4,50.7,11.4,74.3,4.9c32.9-1.3,64.7-16.1,97.3-19.1
		c49.7-3.2,88.4,9.4,82.2,66.9c-1.8,34.9,6.4,73.5,28.7,100.7c13.1,13.4,22.8,30.4,33.9,44.7c18.4,19.8,27.8,45.5,31.5,71.5
		c8.8,97.1,103.2,107.2,113.4,208.7c3.7,52.3,21.5,120.3-24.7,158c-47.6,36.5-116.1-12.2-162.9,27.1c-32.8,36-29,92.2-7.1,132.2
		c4.9,3.7,10.9,10.1,16.9,10.9c3.6,2.9,8.6,7.8,12.7,9c7.9,4.9,19.2,5.5,22.5,14.6c4.5,14.8-15.1,4.9-4.1,20.8
		c0.4,1.1-2.3,1.1-2.2,1.5c-11.7,2.5-25.1,1.9-36.2,1.5c-14.1-10.3-33.5-17.8-50.4-17.4C464.4,804,412.7,814.2,363.4,799.9"/>
	<path vector-effect="non-scaling-stroke" class="st0" d="M60.7,832.3c-16.4-2.9-30.2-14.7-42.3-25.4c-3.2-12.8-1.4-29.7,8.6-39
		c23.4-22.9,25.8-29.8,58.6-37.6c0.9,0.7,13.4,0.7,13.3,2.4c5.9,8.3,14.4,17.1,18.9,26.3c12.2,12,14.2,32,9.5,47.6
		C108.1,828.1,89.5,835.4,60.7,832.3"/>
	<path vector-effect="non-scaling-stroke" class="st1" d="M-144.6,523.9c7.9-3.3,22.3-1.2,29.7,2.6c7.9,15.7,6.5,33.9-0.9,49.4
		c-4.8,15-21.9,21.4-34.3,28.6c-15.7,8-29.5-8.2-36.4-20.8c-3.9-9.3-0.9-24.1,4.4-32.6C-172.3,538.9-162,523.9-144.6,523.9"/>
	<path vector-effect="non-scaling-stroke" class="st1" d="M403.9,769.8c24.6,3,53.1-4.1,72-20.4c14.3-17.2,16.7-40.5,19.3-61.8
		c3.6-28.8,18.3-55.5,35-78.8c6.8-7.3,15.2-15.5,22.5-22.2c6.3-5.6,11.5-15.2,20.8-15.4c16.4-4.6,34-4.4,49.3,3.8
		c22.8,6.2,52.1,16.4,73.4,1.7c20.6-9.5,25.6-29.5,27.5-50.3c0.5-22,0.9-44.7-0.2-66.7c-0.6-65.3-44.9-86.9-84.1-128.8
		c-18.9-22.2-28.7-50.4-32.3-78.9c-1.1-3-0.3-8.8,0.6-11.8c-2.8-4.8-4.8-12.6-5.5-18c-1.4-5.2-3.2-12.6-2.1-18
		c-6.5-8.4-10.4-22.1-16.4-30.9c-20.5-26.9-43.2-53.6-57.8-84.4c-8-23-12.2-48.2-21.6-70.7C480.1-37.7,402.1-3.2,356-5.5
		c-66.2,0.8-132.7-27.7-198-7C121.3,1.2,91.6,29.4,69.8,61.4c-12.7,23.5-21.3,49.7-36.9,71.5c-6.6,12.5-18.1,22.6-27.2,33.1
		c-11.8,15-24.1,31.7-31.5,49.1c-11.8,27.9-14.6,61.9-2.7,89.4c14.3,27,40.3,44.7,66.1,58.8c32.8,20.2,72.1,26.3,109.3,28.1
		c20,0.2,35.8,15.3,49.1,27.9c3.6,9.4,7.5,20.5,7.6,30.1c-2.1,3.3-2.8,9.6-2.6,13c-0.6,11-8.9,20.1-14.9,28.5
		c-14,21.6-38.3,35.7-60.8,46.2c-16.5,6.6-35.8,12.1-47.3,25.5c-21.3,22.2-18.5,58.1-0.4,80.6c33.3,33.9,87.1,21.6,129.5,23.5
		c26.6-0.3,54.7-6.4,80.3,0c38.6,6.8,48.4,46.7,63,76.7C363.9,757.8,383.4,771.3,403.9,769.8"/>
	<path vector-effect="non-scaling-stroke" class="st1" d="M363.4,655.9c-40.5-26.4-60.7-50.7-112.3-30.3
		c-33.4,11-72.2,15.3-105.4,1.8c-9.2-4.2-22.3-9.2-22.5-21c5.1-9.4,10.1-19.3,18.2-26.4c17.2-10.2,33.5-23.1,48.8-35.8
		c50.6-40.3,68.1-111.5,20.7-160.9c-32.8-26.7-78.7-15.9-116.7-24.1C27.1,344.3-35.2,284.3-3.6,212.7c11.4-27.3,36.8-46.6,54.9-68.5
		c16-19,22-43.7,33.3-64.8c15.5-34.5,45.5-62.7,80.7-75.2C216.2-14.6,270.4,0.3,321.6,7c40.2,5.8,82.7-3.9,121.9,3.3
		c40.5,4.8,50,51.6,64.9,82c11.3,24.7,27.4,46.7,44.4,67.1c39.8,52.2,28.3,76.4,36.8,134.1c4.5,24.5,18.6,46.7,34.1,65.3
		c36.2,40.1,72.1,47.5,63.1,110.4c-2.1,27.6-14.1,13-6.4,28.5c1.8,3.1-12,8.9-12.6,10.3c-1.2,7.6-21.5-6.8-27.1-5.3
		c-14.4-15.8-33.9-35.2-56.3-26.3c-20.2,4.9-21.7,8.5-33.5,23.7c-7.5,12-15.9,23.9-22.6,35.8c-5.5,11.3-10,24.3-16.1,34.7
		c-13.2,27-31.7,51-48.1,75.5c-9.1,13.7-25.6,21.6-36.6,32.9C404.2,685,382.9,665.9,363.4,655.9"/>
	<path vector-effect="non-scaling-stroke" class="st1" d="M402.8,444.8c1,21.1,3.2,32.2-14.2,47.2c-20.9,4.9-50.3,3.2-60.1-19.3
		c-13.2-29.3-1-64.1-16-92.7c-6.4-4.9-18.3-10.4-17.7-19.7c3-7.2-2.9-21.4,7.4-23.2c5.5,2,12.8,2.3,16.4-3
		c15.8,0.8,34.3-2.4,44.5,12.7c8.1,6.1,20.9,14.1,25.2,23.7C395.6,394.6,398.2,420.2,402.8,444.8"/>
	<path vector-effect="non-scaling-stroke" class="st0" d="M406.1,628.3c27.9,3.5,50.7-22.8,62.4-45.2c10.6-24.5,14.6-52.1,29.8-74.6
		c17.1-27.9,45-47.7,64.5-73.4c11.8-11.8,23.2-14.1,26.6-33c6.8-37.6-22.9-72-22.7-108.9c1.9-89.2,1.5-89.2-51.3-160
		c-15.2-20.5-25.6-45.4-37.6-67.4c-16.7-35.7-57.9-44.5-93.3-43.6c-28.2-1-57-2.3-84.2-5.8c-56.7-7.9-123.2-15-167.5,27.5
		c-30,25.1-35.8,65.1-55.7,96.4c-13.7,21.5-34.7,38-50.5,57.3c-6.5,6.6-9.6,19.5-15.5,25.2C-4.3,267.1,29,313.7,68.9,329.9
		c34.7,17.6,74.5,12.2,111,13c19.4,0,40.4,0.5,57.4,7.5c4.4,2,12,3.4,15.8,3.9c3.7,3.6,11.4,6.7,12.5,11.2
		c-0.7,6.9,5.1,16.3,10.9,17.9c-11.9,3.7-5.1,10-4.4,17.9c2.5,20.6,6.8,15.2,15.8,29.5c6.8,5.9,6,29.1,8.1,36.3
		c-1.4,7.9-5,18.3-6.1,24.9c-5.3,24.7,2.6,46.9,23.2,59.5C331.3,583.4,367.1,629.3,406.1,628.3"/>
	<path vector-effect="non-scaling-stroke" class="st1" d="M509.4,445.9c18.9-16.6,33.2-30.9,39.9-56.1c4-25.5-5.4-50.7-6.1-76.1
		c0-30.4,11.7-60.9,6.9-91.6c-6.2-36.9-35.3-63.1-54.2-93.8c-23.3-37.2-39.3-87.5-90.7-91.4C371,31,335,31,300.6,26.4
		c-46-5.5-96.6-10.9-138.7,12.7c-39,22.8-48.3,62.3-66.8,99.8c-21.9,40.3-77.9,66.7-68.4,119.2c41.2,115.6,198.2,46.7,286.7,46.3
		c22.3,0.4,45,3.9,64.3,15.9c23.5,9.9,44.9,30.7,51.1,55.8c8.6,26.3,8,62.3,32.2,79.4c0.1,4.2,6.5,4.1,9.5,4
		C485.4,463.4,500.5,459,509.4,445.9"/>
	<path vector-effect="non-scaling-stroke" class="st1" d="M504.4,372.7c-1.1,5.9-1.4,13.8-3.7,19.4c-10.6,8.9-12.6,11.2-20.6-2.3
		c-4.8-9.7-6.8-23-15.9-29.6c-3.1-3-4.7-9.8-9-12.7c-8.1-12-22.1-20.2-34.9-26.8c-33.9-21.2-74.8-30.2-114.4-32.1
		c-69.3,2.2-138.9,26.7-208.2,14.7c-32-10.8-58.3-33.1-52.8-69.7c8.9-35.1,45.4-54.7,61-86.5c12.2-21.9,19.2-47.4,34-67.9
		c31.8-47.7,96.1-49.4,147.7-43.6c45.7,6.3,96.4,1,138.6,22c24.9,14.9,38.1,42.2,52.1,66.5c13.5,25.2,33.8,46.6,47.3,71.9
		c19.7,38.4,3.9,81.9-13.2,118c-1,8.5-6.3,19.4-6.8,27.8C504.9,351.7,506.1,362.8,504.4,372.7"/>
	<path vector-effect="non-scaling-stroke" class="st1" d="M413.9,299c-40.4-14.6-84.5-25.2-127.7-21.9c-43.6,2.3-87.7,9.8-131.3,12
		c-24.7,1.1-56.1,2.2-74.3-17c-8.1-7.5-16.3-16.8-15.2-28.6c-1.7-22.5,16.8-40.6,29.9-57c10.9-13.5,20.2-29.1,28.1-44.5
		c10.4-21.1,18.4-45.1,34.1-63C195.8,35.2,260.7,43.2,313,46.4c80.1,6.5,115.9,5.5,155.8,83.2c15.8,30.2,43.3,55.7,49.7,90.1
		c4.9,27.6-8.6,55.6-26.2,76.2C467.6,314.7,441.2,307,413.9,299"/>
	<path vector-effect="non-scaling-stroke" class="st1" d="M111.2,264.2c-18.9-3.5-22.5-22-20.1-38.4c6.4-18.2,19.8-34,29.4-50.6
		c14.6-24.5,23.8-52.4,38.9-76.5c29.2-44.9,88.7-46.9,137-43.7c34.2,2.3,71.6,2.4,103.6,16c36.7,14.9,51.3,54.4,71.5,85.4
		c13,20.6,28.6,41.4,32.3,66.1c1.1,30-12.4,50.3-39.6,62.6c-28.2,6.9-57.8-3.8-85.5-9.1c-33.7-7.7-69.1-10.5-103.6-8.8
		c-30.9,1.9-63.6,4.6-94.2,4.7C157.5,272.3,132.6,274.1,111.2,264.2"/>
	<path vector-effect="non-scaling-stroke" class="st0" d="M212.1,258.1c-53.8-1.6-121.5-1.6-79.2-74.1c13.9-29.4,23.6-62.4,45.6-87
		c38.4-47.1,156.9-35.9,210.3-20.6c35.3,12.9,52.3,48,69.1,78.9c20,32.8,48.1,74.1,10.8,105.9c-33.1,20.2-74.7,5-110.4,0.5
		C310.6,253.4,260.1,259.1,212.1,258.1"/>
	<path vector-effect="non-scaling-stroke" class="st1" d="M157.8,231.2c-19.9-15.3-9.3-42.8-3-62.6c9.9-26.7,22.6-54.8,44.8-73.2
		c36.6-24.4,84.2-23,126-20.9c31.7,1.9,66.5,7.5,88.2,32c21.1,23,32.9,53,46.8,80.2c15.9,30.5,10.6,60.2-25.4,68.9
		c-28.3,6-59-2.7-86.6-5C285.3,240.9,216.9,258.8,157.8,231.2"/>
	<path vector-effect="non-scaling-stroke" class="st1" d="M207.6,231.2c-33.8-9-46.9-28.2-36.5-62.6c8.1-22.5,18-48.9,38.7-62.6
		c30.7-23,71.5-23.9,108.4-23.5c35.6,0.7,74.7,9.5,95.9,40.8c47.5,77.7,63.3,132.8-52.9,118.2C310.5,236.1,257.8,240.2,207.6,231.2"
		/>
	<path vector-effect="non-scaling-stroke" class="st1" d="M262.5,226.1c-24.5-1.1-53.2-6.5-70.3-25.6c-10.9-29.1,2-62.8,25.1-82.2
		c26.1-21.6,63.2-25.6,95.9-26.2c30.5,0.3,66.9,5.7,86.6,31.4c16.6,23.6,39.1,60.8,27,89.8c-16.7,25.1-52.7,16.4-78.5,17.8
		C320,228.6,290.8,228.8,262.5,226.1"/>
	<path vector-effect="non-scaling-stroke" class="st1" d="M212.1,187.7c-12-23.6,5.5-48.5,23.2-63.8c36.6-24.1,108.6-30.2,144.7-2.7
		c18.7,16.2,31.5,43.5,30.1,68.3c-2.3,35.3-50.7,28.8-76.1,29.7C300.4,215.7,229,222.1,212.1,187.7"/>
</g>
</svg>
