<?xml version="1.0" encoding="utf-8"?>
<!-- Generator: Adobe Illustrator 28.0.0, SVG Export Plug-In . SVG Version: 6.00 Build 0)  -->
<svg version="1.1" id="Layer_1" xmlns="http://www.w3.org/2000/svg" xmlns:xlink="http://www.w3.org/1999/xlink" x="0px" y="0px"
	 viewBox="0 0 892 680.2" style="enable-background:new 0 0 892 680.2;" xml:space="preserve">
<style type="text/css">
	.st0{fill:#FEB844;stroke:#000000;stroke-miterlimit:10;}
	.st1{display:none;fill:#FEB844;stroke:#000000;stroke-miterlimit:10;}
</style>
<g id="surface1172">
	<path vector-effect="non-scaling-stroke" class="st0" d="M153.8,219.9c-3.7-7.5,1.3-13.9,6.1-19.5c4.2-8.9,10.9-15.9,18.8-21.8
		c17-12.5,19.7-18.8,41.2-25.6c9.9-5.5,23.6,0.7,30.7,7.8c3.3,9.2,4.5,21.4,1.1,30.1c-12,22.5-21.8,31.4-43,44.6
		C190.9,244.2,157.6,245,153.8,219.9"/>
	<path vector-effect="non-scaling-stroke" class="st0" d="M603.8,660.9c26.2,12.7,56.7,20.3,85.9,16.7c26.4-1.6,47-17.2,56.5-41.6
		c0.7-16.9-5.9-34.6-23.5-39.9c-19.7-7.8-41.7-10.3-62.6-13.4c-19.4-2-39.9-5.3-59.2-1.1c-14.6,3.4-26.3,13.8-30.9,28.2
		c-0.4,8.2,3,17.3,4.3,25.4C582.4,645,593.3,653.8,603.8,660.9"/>
	<path vector-effect="non-scaling-stroke" class="st1" d="M179.5,689.1c22.5,10.3,46-3.8,67.3-11.5c28.9-13.2,53.1-35.7,74.7-58.6
		c28-27.5,53.4-58.2,76.5-89.9c20.8-27.4,43.6-54.1,60.9-83.9c5.8-7,10.1-16.2,15-23.3c4.8-5.1,10.6-11,11.9-18.4
		c-4.2-3.7-8.8-8.4-14.9-6.7c-8.3-3.3-18.4-5.6-27.2-6.7c-14.3-6.6-31-10.5-43-21.5c-10.5-6.9-14.9-20.7-16.9-32.4
		c2.3-7.5,2.2-18.6,6.6-25.3c10.8-11.3,21.7-23.5,34.3-32.7c9.7-6.6,17.5-19,26.4-26.7c7-8.6,11.9-19.4,18.3-28.3
		c8.1-13.5,14.7-28.8,19.2-43.9c5.9-9,11.8-18.8,16.6-28.4c6.3-6.9,2.8-11.7,14.8-17.1c12-10.6,20.5-10.7,35.6-6.7
		c20.7,4.4,44.8,0.8,63.1,12.8c18.1,9.9,15.7,30.5,12.8,47.9c-7.5,18.9-15,38.5-19.3,58.5c-6.5,29.5-4.6,60.8-2.4,90.7
		c0.6,34.2,10.8,63.9,39.8,84.1c34.1,21.8,68.2,45.1,102.5,66c23.7,20.7,26.3,29.1,38.5,57.2c18.6,39.2,84.5,29.6,120.7,28.1l0,0
		c57.6-4.4,108-62,85-119.5c-8.7-22.2-31.3-33.5-43.7-52.8c-16.2-24.6-9.4-57.3-1.3-83.7c9.7-32.6,37.1-56.6,48.1-88.5
		c11.2-27.8,2.6-66.7-26.5-79.8c-23.8-12.6-53.4-7-76.8,4.1c-9.1,4-18.9,8.3-27.7,12.8c-1.7,1.4-14.3,1-16.5,1.2
		c-2.1,0.1-8,0.3-9.8-1c-4.1-4.9-9.1-10.7-13-15.7c-16.8-18.2-3.3-43.6,8.9-60.4c5.4-7.2,1.4-18.5,5.6-26.3
		c-14.4-1.1-3.9-3.7-15.1-7.5c-12.3-5.6-27.8-2.9-41-3.1c-28.9-0.2-58.9,1.6-87.7,4.4c-17,1.2-35.2,2.5-51.9,5.6
		c-20.1,5.9-40.6,14.1-61.8,17.2c-38.5,3.8-66.6,12.3-52.1-39.2c17.8-24,35.3-51.6,42.8-80.8c12.8-59-6.5-138.8-43.4-186
		c-38.1-51.6-100.8-56.6-145-9.6c-17.9,18.2-32.4,40.9-46.3,61.6c-11.3,15-25.6,26.3-41.9,34.5c-16.3,7.7-34.5,12.1-50.4,20
		c-20.8,10.3-41.6,21.2-63.3,28.6C152.1-77.2,110-79.2,80.7-55C61-37.4,62.4-8.5,50.3,13c-7.4,10-18.1,17.6-26.4,26.4
		c-127.2,87.1-42.6,128.4-74.7,209.1c-7.3,23.6-20.6,45.2-23.4,69.6c-9.4,54.3,30.4,99.9,45.8,148.1c11.8,33.4,19.1,68.2,39.2,96.8
		C54.6,619.8,120.3,652.3,179.5,689.1"/>
	<path vector-effect="non-scaling-stroke" class="st1" d="M753.1,439.7c39.3,20.1,85.6,20.7,128.1,22c7.6-4.3,8.5-12.7,8.9-20.7
		c-0.3-6,5.6-12.9,6.2-19c17.6-52.9,16-111.3,39.9-162.3c5.5-12.6,12.5-25.3,12.9-39.5c5.2-21.8-22.9-21.4-37.4-17.4
		c-30.1,8.5-60.7,24.8-91.4,9.8c-22.4-19.2-37.4-46.5-61.8-63.3c-42.5-27.5-73.9,22.3-92.3,55c-10.9,21.3-22.8,43.8-24.3,68.1
		c-3,33.8,7,69.7,27.7,96.7C694,395.7,721.8,421.8,753.1,439.7"/>
	<path vector-effect="non-scaling-stroke" class="st1" d="M937,505c0.9-2.1,5.3-9.6,5.4-11.8c-1.7-3.4-0.2-13.4-4.6-14.8
		c-15-12.5-36.2-18.4-55.3-14.3c-7,14.9-1.7,31.8,5.8,45.7C902.7,518.5,926,519.3,937,505"/>
	<path vector-effect="non-scaling-stroke" class="st1" d="M148.5,627.4c54.1,31.7,95.3,22.6,139.8-19.7
		c37.9-31.7,71.8-69.1,94.5-113.3c20.6-39.6,16.1-63.7-13-96.7c-16.3-26.4-24.5-62.8-10-91.6c6.2-11.4,15.1-21.2,26.2-28.1
		c11.3-9,22.9-18.2,33.6-27.9c40.9-40.3,50.4-101.2,46.8-155.5c0.7-53.8,16.6-68.6,53-104.3c40.1-42,34.8-106.7,17.9-157.2
		c-19.1-57.3-74-97.1-126.7-52.1c-29.7,26.3-40.5,67.4-68.1,94.2c-21,19.8-49.9,23.1-74.7,33.4c-19.7,8.3-37.8,19-56.6,27.3
		c-18.3,8.6-39,15.2-54.7,26.3c-14.2,10.6-22.6,26.2-26.2,42c-4.5,12.6-12.3,25.9-19.4,35.5c-31.5,17.1-67.2,24-93.3,46.8
		c-46.9,37.6-27.4,82-32.5,130.8C-20,254.2-43.4,286-47.4,321.6c-5.7,37.4,15,70.7,30.7,101.4c13.9,24.6,26.2,49.4,41.3,71.6
		c18.9,26.9,36.5,55.2,56,79.9C98.9,598,122.6,614.6,148.5,627.4L148.5,627.4"/>
	<path vector-effect="non-scaling-stroke" class="st0" d="M786.1,411.2c78.8,22.5,108.4-44.8,102.6-112.3c-0.4-19-14.3-38.1-34.7-36
		c-13.3-2.5-30.1-0.2-41.4-7.9c-25-12.9-32.9-43.6-55.7-58.7c-8.8-8.5-23.3-8.9-34-6.6c-7.2,4.1-14.7,9.3-20.5,14.6
		c-5,3.1-6.8,9.7-10,13.9c-4.2,6.5-9.2,13.8-12.3,20.5c-12.9,26.3-14.5,61,2.2,85.4c11.1,18.4,28.6,30.9,44,44.8
		C744.6,384.8,761.8,405.5,786.1,411.2"/>
	<path vector-effect="non-scaling-stroke" class="st1" d="M156,592.8c-13.1-8.7-23.1-22.1-31.1-35.4c-7.9-16.7-12-38.6-26.2-51.2
		c-8.9-7-18.1-15-27.2-21.6c-13.9-5-25.2-16.6-36.3-26.2c-25-26.2-54.3-71.4-61.8-106.9c-11.3-45.3,21.5-84.9,27.5-128.3
		c10.2-58.8-5.3-109.6,63.1-138c19.5-9.9,42.4-13.6,61.1-24.9c8.2-6.3,15.5-14.6,23.3-21.4c8.2-12.6,15.4-26.4,23.3-39.1
		c13.5-20.9,37.7-31.5,59.2-42.2c19.3-9.6,39.1-19.9,60.4-24.2c30.4-4.4,53.9-12,72.7-38.1c24.1-33,31.3-79.4,67.7-102.3
		c21.6-15.4,52.4-5.7,66.9,14.8c25.3,33.3,28.2,79.7,19.4,119c-9.5,48.3-68,64.8-79,112c-6.3,31.8,1.6,64.4,3,95.7
		c2.5,41.6-10.8,83.5-42.9,110.5c-18.4,14.7-38.1,27.7-54.1,44.9c-18.4,33-14.1,75.1-4.2,110c3.6,13.1,11.6,24.2,16.4,36.3
		c10.2,24.6,2.9,51-8.6,73.2c-19.4,35-49.4,61.8-81.8,83.7C228.2,621.5,194.4,620.3,156,592.8"/>
	<path vector-effect="non-scaling-stroke" class="st1" d="M423.8-30.8c42.7-17.5,75-45.7,73.4-95.4c0-29.1-6.4-44.7-31-60.7
		c-23.5,0.1-28.5,4.4-42.3,22.9c-15.4,24.1-18.4,53.8-27.8,80.3c-3.4,17.6-7.6,35.6-6.3,53.8c0.6,0,7.9,7.3,8.3,7
		C406.1-25.8,417.2-24.8,423.8-30.8"/>
	<path vector-effect="non-scaling-stroke" class="st1" d="M820.7,372.2c-12.7-3.7-25.3-7.4-32.4-19.2c-5.3-8.4-15.8-15.1-19.2-24.6
		c-10.1-6.1-22.2-8-32.9-12.8c-13.8-3-24.3-18.5-28.7-30.9c-0.9-9-0.7-20.9,4.9-28c4.5-7.2,12.5-15.8,20.7-16.1
		c24.9,3.7,27.1,33.1,38.3,50.2c4.9,21,30.7,18.3,46.8,18.4c5.8,0.6,13.6,0.6,17.9,3.9c2.2-0.2,6.9-0.7,8.2,0.4
		c8.9,14.3,12.7,22.9,5.9,38.8C848.4,367.3,832.3,368.6,820.7,372.2"/>
	<path vector-effect="non-scaling-stroke" class="st1" d="M186.2,563.6c-13.5-12.6-20.7-30.7-30.8-45.8
		c-4.3-7.9-11.7-13.7-18.2-19.7c-7.1-8-16.9-15-26.6-19.4l0,0c-18.5-10.5-39.1-19.5-56.5-31.5c-27.4-21-47.6-51.1-60-82.6
		C-20.5,325-2.7,285.7,10.4,249c18.7-59.3-2.1-122.3,70.1-150.6c30.4-12.1,64-22.7,84.2-49.2c15.3-14.5,26.8-33.7,44-45.6
		C234.5-14,266.4-27,297.5-22.7c18.4,4.1,36,12.5,54.5,15.5c13.5,1.5,39.5-3.6,39.5,15.5c7,27.3,13.5,55,21.4,81.2
		c19.2,56.3,19.6,114.7-31.7,152.6c-23.8,17.6-53.3,33.8-60.6,64.2c-6.2,31.9-4.6,66.1-1.3,97.2c6.2,29.7,24.1,57.2,14.6,87.2
		c-8.5,29.5-30.1,52.3-54.6,68.7C251.8,578.1,211.9,591.4,186.2,563.6"/>
	<path vector-effect="non-scaling-stroke" class="st0" d="M210.2,533.3c-20.2-18.6-37-43.3-61.7-56c-39.3-24.3-88.2-35.2-116.3-73.9
		C-27,326.6,21,287.5,31.3,207.9c10.2-90.5,39-86.7,110-122.1c48-29,74-83.3,137.3-76.3c22.4,4.8,41.7,16.6,59.3,30.1
		c15.5,9.7,29.5,22.3,40.8,36.4c31.4,41.8,48.3,108.4,4.4,147.2c-23.9,23.5-60.7,37-72.4,70.4c-8,22.4-7.1,46.9-8.1,69.9
		c-2.1,27-2.8,54.2,5,79.9c8.2,23.6,7,50.5-7.4,71c-10.7,10.5-21.2,22.6-35.8,26.7C246,549.2,225.3,546.2,210.2,533.3"/>
	<path vector-effect="non-scaling-stroke" class="st1" d="M216.4,497.2c-26.9-21.9-58.5-37.2-90.6-50l0,0
		c-50.9-18.6-98.9-49.6-108.7-106.7c-3.3-26.1,6.1-52.1,13.2-76.4c16.2-46.8,6.7-109.8,54.8-138.6c26.1-16.2,57.7-24.1,80.9-44.2
		c15.3-10.6,28.7-24,43.6-34c39.7-26.3,74.8-21.1,110.6,8c46,34.5,102.2,95.6,58.6,152.7c-13.2,17.5-34,27.9-50.1,42
		c-26.8,19.7-39.2,53-38.9,85.3c-0.8,32.3-8.5,64.5-8,96.4c0.4,18.8,5.9,39.1,1,56.7C269.2,519.4,238.5,518,216.4,497.2"/>
	<path vector-effect="non-scaling-stroke" class="st1" d="M148.9,438.9c21.4,7.1,42.7,16.2,64.8,21c21.8,4.2,32.8-0.4,40.5-21.8
		c10.1-32.5,19.9-66,22.2-100.2c0.8-40.5,14.6-71.1,45.7-97.3c16.1-13.5,35.4-24.7,46.7-42.9c19.3-26,7-61.5-12.7-83.8
		c-24.3-26-53-59.9-89.4-66.4c-44.4-7.3-76.5,32-110.9,52.9c-28.3,18.2-64.4,26.8-84.9,54.8c-21.4,32.7-19.1,74.2-29.4,110.4
		c-10.7,35.5-21,76.8,3,108.9C66.7,412.2,110.2,425.2,148.9,438.9"/>
	<path vector-effect="non-scaling-stroke" class="st1" d="M95.6,401.4C69,390,50.6,365.3,44,337.5c-2.7-25.2,4.3-50.2,9.4-74.7
		c6.9-32.5,6.5-67.8,23.7-97.2c19.2-29.7,56.2-38.1,83.9-57.3c32.5-20.6,65.8-55.8,107.5-45.1c26.6,6.2,45.2,28.7,63.6,47.4
		c25.5,29.3,44.9,61.6,13,94.6c-8.2,11.5-22,19.1-31.3,29.6c-16.3,14.8-30.3,32.5-40.2,52.2c-12.2,25.5-11.8,55-18.1,82
		c-5.3,20.1-14.5,41-30.6,54.8c-12.9,6.8-28.3,6.5-42.2,3.8C153.4,420.3,122.5,415.8,95.6,401.4"/>
	<path vector-effect="non-scaling-stroke" class="st1" d="M91.3,380c31.6,19.7,74.3,15.5,110.2,14.2c20.1-8.1,32-27.1,36.4-47.7
		c5.3-15.9,9.8-32.8,17.1-47.9c9.4-24.6,27.5-45.3,44.6-65c21.9-22.2,57.3-49.9,40.4-84.5c-6-16.1-18.2-29.9-29-43
		c-15.9-18.2-37.1-34.2-62.4-33.5c-33.9,2.9-59.3,28.9-87.2,45.7c-28.6,18-65.7,29.3-80.5,62.4c-13.1,28.4-11.9,61.6-17.4,92
		C54.6,313.8,50.9,354.4,91.3,380"/>
	<path vector-effect="non-scaling-stroke" class="st0" d="M152.3,349.3c34.7-24.9,48.8-4.3,79.3-43.1c17-23.7,33.9-48,53.2-69.8
		c14.1-18.4,36-35.1,39.9-58.5c8.4-33.1-31.3-83.6-63.1-91c-36.7-9.6-67.8,22-97.1,39.1c-21.4,14.4-48.1,23.9-64.7,44
		c-25.2,30.6-20.2,72.9-23.7,109.5c-0.8,20.2-2.8,41.6,4.3,60.3c7.5,10.3,18.2,20.8,30.2,23.9C129.3,363,137.4,360.3,152.3,349.3"/>
	<path vector-effect="non-scaling-stroke" class="st1" d="M123.7,319.6c7.4,1.2,17-3.2,24.1-4.8c6.1,0,12.8-2.6,18.7-3.7
		c18.1-3.6,37.6-6.1,52.6-17.7c18.4-13.7,32.7-32.5,47.6-49.7c14.6-16.9,28.9-34.3,40.3-53.5c8-20.2,3.3-44-9.9-61.2
		c-9-12.4-19.8-25.3-35.3-29.1c-30.5-11.3-58.8,12.3-83,28c-29.7,21.6-72.7,34.8-83.1,73.9C86,224,83.7,331.5,123.7,319.6"/>
	<path vector-effect="non-scaling-stroke" class="st1" d="M216.4,277.2c-21.7,12.9-49.1,16.6-74,15c-13,1.4-23.8-8.2-31.6-17.5
		c-11.6-24.3-12.4-54.8-1.3-79.4c7.5-16.5,24.1-28.4,39-38.1c38.3-20.8,90.7-77.8,131-31.1c28,32.3,17.8,67.2-8.1,96.8
		C255,242.5,238.3,263.6,216.4,277.2"/>
	<path vector-effect="non-scaling-stroke" class="st1" d="M156,275.2c-16.1-2.2-30.4-9.6-35.8-25.8c-8.4-18.7-4.2-40.2,6-57.3
		c12.9-18.2,34.5-29.8,52.6-42.6c17.1-11.3,35.1-26.4,56.1-28.5c13.4-2.8,25.9,3.6,35.5,12.6c8.1,8.2,11.5,20.3,13.9,31.3
		c0.1,26.5-15.7,48.5-32.8,67.5C225.5,262.2,195.7,277.3,156,275.2"/>
	<path vector-effect="non-scaling-stroke" class="st1" d="M150.5,253.3c16.6,9.4,41.7,5.8,58.4-2.1c13.7-5.9,25-15.7,34.7-26.9
		c11.8-9.6,18-24.1,24.3-37.5c2.4-13,3.3-27.3-5.5-38.2c-5.2-12.2-19-15.5-31-14.8c-22.1,5.1-41,19.5-59.1,32.5
		c-10.2,9.9-25.5,16.7-31.7,30c-6.8,9.4-12.5,19.9-7.7,31.4C129.6,239.7,142,247.8,150.5,253.3"/>
</g>
</svg>
