<?xml version="1.0" encoding="utf-8"?>
<!-- Generator: Adobe Illustrator 28.0.0, SVG Export Plug-In . SVG Version: 6.00 Build 0)  -->
<svg version="1.1" id="Layer_1" xmlns="http://www.w3.org/2000/svg" xmlns:xlink="http://www.w3.org/1999/xlink" x="0px" y="0px"
	 viewBox="0 0 596.9 766.2" style="enable-background:new 0 0 596.9 766.2;" xml:space="preserve">
<style type="text/css">
	.st0{fill:#693128;stroke:#000000;stroke-miterlimit:10;}
	.st1{display:none;fill:#693128;stroke:#000000;stroke-miterlimit:10;}
</style>
<g id="surface1232">
	<path vector-effect="non-scaling-stroke" class="st0" d="M362.7,471.8c-33.7,5.8-62.2-25.9-70-56.2c-15.1-44.2,6-87.6,54.4-93.5
		c13,1,30.7,1.5,40.6,11c16.9,22.1,29.1,50.9,22.3,79c-1.2,12.7-6.8,26.4-14.1,36.8C390.1,463.3,378.3,471.4,362.7,471.8"/>
	<path vector-effect="non-scaling-stroke" class="st1" d="M403.4,1006c22.2,11.4,47.8,20.2,73,19.4c14.4-2.6,28.2-11.1,37.7-22.3
		c6.6-9.6,4.4-26.8,2.9-37.9c-13.8-30.4-45.1-59.4-33.6-95.7c-1.6-8,3.8-15.9,7.6-22.2c5-13.8,12.7-27.1,20.3-39.6
		c4-12.8,15.6-23,23.1-33.6c8.5-15.2,21.8-26.4,34.2-38.2c8.3-9.9,19.2-17.1,29.8-24.3c14.3-12.8,30.6-24.2,43.3-38.7
		c25-28.6,39.8-64.9,43.5-102.2c6.8-40.6,8.5-84.9,13.7-126c7-63.9,1.8-128.1,1.7-191.7c-1.1-55.6,7.9-113.8-10.3-166.8
		c-6.1-19.3-13.7-38.1-23.7-55C654.4,13.1,641.8-5.2,627-20.4c-12.7-9.9-24.2-21.5-36.8-30.8c-26.6-15.1-53.7-32.1-81.8-43.3
		c-20.6-7.5-40.4-18-60.9-23.6c-36-8.9-72.9-13.4-108.5-20.3c-35.8-8-73.1-8.5-107.6-19.8c-41-16.3-74.9-41.2-121.2-29.6
		c-20.5,4.5-42.4,13.7-62.7,14.8c-23.2,2.6-47.6-0.3-70.1,2.7c-64.8,11.5-86.1,80.5-69.1,137.2c9.2,22.4,19.8,45.8,36.3,63.6
		c-2.4,11.4-8.1,29.5-21.9,29.3c-27,15.6-64.2,7-93.8,14.1c-83,14.4-104.8,108.9-128.8,176.1c-9.2,30.7-24.8,58.6-42.3,84.8
		c-14.8,23.9-33.7,48.3-34.8,77.1c-4.1,38.9,25.9,71.2,52.5,95.3c27.1,21.4,68.2,37.2,71.9,76.2c6.8,95.1-0.1,154.2,104.4,190.7
		c49.4,20.2,91.6,54.8,137.5,80.5c36.4,25,77.6,49.6,122.8,45.5c24.6-1.8,49.3-8.3,73.6-10.1c49.1-0.4,94.8,22.2,140.3,36.8
		c11.9,12.3,26.9,23,36.6,36.7C372.4,980.7,385.8,996.5,403.4,1006"/>
	<path vector-effect="non-scaling-stroke" class="st1" d="M309.8,858.3c110.4,32.2,138.5-35.4,195.9-112.2
		c7.4-12.3,17.4-23.3,27.6-33.3c6.4-6.7,12.4-15.3,19.9-20.8c25.4-21.7,53.7-42.5,70.5-72c27.3-48.6,16.8-106.8,24.6-159.9
		c5.8-32.8,13.1-66,15.5-99.3c3.2-41.9,1.1-84.3-1.2-126.2c-2.8-48.5,2.4-99.2-14.3-145.7C631.7,22.3,576.8-24.2,516-50.8
		C472.2-70,426-84.4,378.1-88.4C329-95,279.4-96,230-93.3c-30.3,2.6-59-11.2-88.1-16C107.8-112.5,74-92.1,55.7-64
		c-6.3,25.1,2.5,51.3,3.5,76.4c2.5,15.9-2.3,32.2-5.3,47.7c-5.2,13.7-14.3,26.3-22.1,38.5c-21.1,24.4-53.7,32.2-84.9,30.8
		c-124.5-3.3-173.8,9.6-203.5,140.5c-6.5,27.2-10.9,55.4-15.6,82.9c-2.5,22.4-6.4,49.1,11.4,66.6c20.7,19.8,50.5,28.7,69.5,51
		c32.9,37.2,33.1,90.5,29.5,137.2c-4.4,53.3,15.1,62.5,61.9,77c12.9,6.6,29.7,7.2,43.8,5.5c3.9-2.9,6.7-5.1,6.4-9.9
		c5.5-6.7,6.6-16.9,9.1-24.8c4.3-24.2,12-49.6,25.4-70.5c8.9-13.5,17.7-29.7,32.1-38.1c13.7-10.9,32.8-20.6,49.7-11.1
		c34.7,10.8,53.6,79.2,59.5,111.5c5.3,31,10.5,65.9-6.2,93.6c-10.3,11.9-27.1,13.2-40.5,18.4c-3.9,1.6-11.6,4.4-15.1,6
		c-3.6,8.7-3.3,20.4-4.5,29.1c38.9,30.3,71.1,1.4,112.4,11.9C219.8,818.1,260.3,852.4,309.8,858.3"/>
	<path vector-effect="non-scaling-stroke" class="st1" d="M309.5,820.4c58.2,21.9,105,2.3,141.3-45.8c28.7-37.7,53-79.7,87.9-112.1
		c55.7-52.1,70.2-80,68.4-156.8c-0.6-49.7,20.6-94.8,28.8-142.3c8.6-53.6,1.5-107.7-1.2-160.9C637.9,46.4,583.8-14,433.9-49.3
		c-70.3-11.1-143.8-15.3-212.7,3.8c-24.8,7.1-53,12.4-73.4,28.6c-17.2,14.6-27.3,35.1-37.4,54.1c-12.8,21.5-22.9,45.9-38.2,65.2
		c-73.4,107.2-104.9,47.3-203.8,71c-73.9,14.2-102.1,107.6-77.1,171.5c11.8,32.5,42.8,52.5,66.1,75.6c18.1,16.2,30.8,38.5,43.9,58
		c5.7,9.5,12,20,21.8,25c12.3,3.3,27.1,6,37.7-1.8c25.6-10.7,51-23.7,79-22.9c17.2,0.5,35.5,8.4,48.6,18.7
		c12.2,15.6,26.6,30.9,34,48.9c25.1,59.7,45,121.5,81.5,174.7C231,762.9,261.3,802.8,309.5,820.4"/>
	<path vector-effect="non-scaling-stroke" class="st1" d="M308.3,783.3c79.7,47.4,126.5-23.9,165.4-84.3
		c23.3-36.4,56.5-65.9,79.7-102.2c25.1-41.3,17.6-91.4,26.5-137.1c6.9-29,20.4-56.9,27.9-85.7c11.9-40.5,11.3-83.7,5.7-125.2
		c-7.7-52,0.1-106.1-13.9-157.1c-24.8-80.5-116-110.4-192-117.5c-86.7-3.2-189-6.7-253.8,60.3c-31.8,31.6-53.6,72-82.1,105.8
		c-13.8,18.4-27.4,37.4-44.8,52c-11.8,14.8-32.4,21-50.4,20.5c-39.2-8.9-82.6-14-117.2,9.6c-13.2,8.4-20.6,23-27.5,36.4
		c-5.2,19-5.7,40.7,4.1,57.5c14.8,35.6,56.1,46.4,87.6,60.6c23.8,8.5,45,24.1,66.8,34.9c28.4,13.8,59.2,22,85.8,38.4
		c50.2,34.7,66.8,99.4,92.1,151.6c17.2,39.4,46.7,70.5,73.5,102.8C262.3,732.2,279.8,762.9,308.3,783.3"/>
	<path vector-effect="non-scaling-stroke" class="st0" d="M313.4,745.6c-20.8-21.6-34.7-49.4-56.8-70.1
		c-10.9-12.9-25-23.3-36.8-35.3c-17.3-18.7-32.3-39.9-43.9-62.5c-25.1-48.6-40.6-104.8-80.7-143.8c-22.9-24.6-53.5-42.2-71.8-71.3
		C12.9,342,4,320.1,0.5,296.9c4.6-11.8,15.2-25.1,16.2-38.3c5.1-4.6,9.6-13,12.3-19.1c3.4-8.1,9.3-15.6,14.9-22.2
		c7.2-11.5,14.5-24.7,22-36c49-68.8,99.7-151.7,189-168.8C301,4.9,348.8,4.6,395.3,0.8c53.8-1.2,111.9,10.1,153.8,45.7
		c35.2,33.6,39.1,85,37.7,130.9c3.4,118.9,27.8,124.2-20.9,247c-8.6,23.3-12.4,48.7-17.7,72.5c-2.9,32.7-8.9,66.3-26.6,94.6
		c-21.3,32.8-47.1,62.7-68.7,95.3c-11.2,15.7-22.4,32.6-34.4,47.7c-10.2,10.2-22.9,19.2-34.6,27.6
		C354.3,768.8,337,765.6,313.4,745.6"/>
	<path vector-effect="non-scaling-stroke" class="st1" d="M318.7,704c-13.6-16.1-27.9-33.8-44-47.5c-33.5-26.1-68.3-53.4-87.8-92.1
		l0,0c-22.5-39.9-36.3-85.5-60.9-124c-18.4-31.4-49.9-53.7-66.2-85.8C29.6,295.1,57.7,227,90.9,175.7
		c31.8-48.8,70.8-97.2,124.2-121.4c33.5-13.6,69.4-11.2,104-8.4c44.6-2.4,86.9-21.4,132-16.1C560.8,47.7,569.2,98.7,565,197.9
		c3.7,61.8,22.4,110.5-0.3,172.2c-10.4,29.3-21.1,59.1-27.6,89.1c-8.8,42.2-15.3,86.2-36.3,123.9c-19.9,33.8-45.3,64.1-68.4,95.4
		c-9.3,14.6-21.2,27.5-34.4,38.2c-8.6,8.9-15.3,13.5-28,13.1C344.5,733.2,336.2,718.2,318.7,704"/>
	<path vector-effect="non-scaling-stroke" class="st1" d="M318.7,661.7c-27.9-25.2-62.5-42.4-89.4-68.7
		c-50-45.8-60.8-117.3-96-172.8c-25-41.1-63.7-76.5-63-128.4c0.5-79,63.9-173.6,134.8-207.4c23.4-11.8,51.9-10.5,76.3-2.6
		c19.1,6.7,38.5,16.3,59.2,13c23-3.5,44.4-18.1,66-26.2l0,0c38-12.4,85.9-11.2,114.5,19c22.7,25.8,19.4,63.3,18.1,95
		c-2.6,40.9,13,81.2,14.1,121.4c0.6,46.5-18.4,90.1-29,134.1c-11.5,41-16,84.4-34.9,122.5c-17.6,34.7-42.9,64.4-67.7,93.4
		c-11,12.4-25.5,22-37.3,32.6C352.7,692.4,341.2,680.6,318.7,661.7"/>
	<path vector-effect="non-scaling-stroke" class="st1" d="M318.7,631.1c-31.4-19.5-65.9-36.3-91.3-63.8
		c-49.5-55.3-58.6-134.5-102.7-193.7c-35.9-48.2-45-100.6-21-156.6c25-58.2,89.2-137.9,160-107.2c20.6,8.5,38.7,26.3,61,29.9
		c45.9,8.3,83.2-27,126-35.7c9.3-0.8,19.9,1,28.9,3.1c5.9,0.3,9.1,7.7,12.9,11.4c21.1,24.6,9.6,60.9,17.5,90.1
		c15.6,75.3,32.1,102,9.9,182.1c-14.7,58.7-21.4,121.1-52.5,174.2c-20.3,34.1-48.2,63.4-82.2,83.9
		C355.7,653.5,342.9,645.9,318.7,631.1"/>
	<path vector-effect="non-scaling-stroke" class="st1" d="M230.8,546.9c-37.4-41.8-47.3-100.1-71.9-149.2
		c-11.9-24.6-28.5-47-39.8-71.9c-19.7-43-11.6-93.1,12.8-132.5c22.7-36.9,62.9-76.3,109.8-63.4c18.3,4.2,32.5,19,48.3,28.2
		c17.4,13,38.7,17,60,16.6c33.6-1.6,75.9-17.2,103.8,8.1c12.2,16,22.2,33.7,29.6,52.4c12.7,27.5,23.1,57.1,25.3,87.5
		c1.2,31-4,62.3-10,92.7c-6.8,36.5-15.7,73.3-29.6,107.8c-16.1,37.8-58.6,96.9-103.6,95.5c-26.2,1-50.4-13.9-72.7-25.9
		C270,581.3,247.3,566.7,230.8,546.9"/>
	<path vector-effect="non-scaling-stroke" class="st0" d="M318.7,584.8c-103-42.7-106.4-96.5-142.9-189.8
		c-15-39.3-46.8-73.2-49.5-116.6c-3.6-37,11.6-76.2,38.6-101.6c11.6-14.6,26.4-21.5,44.1-25.9c24.8-3.7,47.7,11.7,65.9,26.9
		c13.5,9.9,29.6,18.8,45.9,22.8c34.9,4.9,76.8-7.1,107.8,13.6c53.2,40.8,68.8,114.9,59.5,178.6c-8.6,54.6-18.2,113.5-53.5,157.9
		c-12.6,18.2-30.7,30.7-50.2,40.7C359.9,597.1,341.8,592.9,318.7,584.8"/>
	<path vector-effect="non-scaling-stroke" class="st1" d="M405.3,554.9c58.9-44.9,75.4-149.4,67.3-219.3c-6.6-38.4-26-80-60.8-99.6
		c-27.8-13.5-59.2-9.4-88.7-11.1c-17-1.8-34.2-9.4-48-18.7c-10.9-7.8-20.5-18-32.9-23.2c-6.1-2.8-16.2-7.2-22.2-9.3
		c-15.5,1.1-32.6,6.2-43.7,16.6c-21.9,22.9-35.9,54.6-30.8,86.3c6,42.1,36.2,76.4,48.3,116.2c15.5,45.5,25.7,94.3,59.4,130.1
		C292.6,556.5,358.7,594.5,405.3,554.9"/>
	<path vector-effect="non-scaling-stroke" class="st1" d="M362.7,549.1c-41.7,2.9-80.6-22.6-108.4-51.4
		c-16.4-22.3-25.8-49.4-33.9-75.4c-6-24.8-13.3-50.3-22.8-73.8c-10.2-23-25.1-45-29.1-70c-4-19.9-1.2-46.7,13.5-61.1
		c4.7-8,18.2-10.4,25.5-14.5c9.8-0.5,24.3,4.9,32.1,10.3c13.3,6.1,25.5,17.4,37.7,24.6c33.4,17.1,71.8,6.8,107,12.8
		c48.3,14.6,71.3,65.6,75.3,112.3C464.7,426.2,438.7,542.3,362.7,549.1"/>
	<path vector-effect="non-scaling-stroke" class="st1" d="M313.8,516.7c-72.6-34.5-73.4-105.9-90.6-174.3c-1.9-9.9-7.5-20.2-9-30.3
		c-5-8.5-8.1-21.2-8.2-31.1c-2.3-5.6-0.7-15.7-0.3-21.5c1.7-4.7,9.1-8,12.8-10.6c9.5,2.9,20.4,8.2,30.2,10.6
		c7.9,2.6,17.8,8.4,26,10.5c28.9,6,58.9-1.2,87.9,1.6c79.9,4.2,94.4,108.2,75.8,170.2c-7.6,26.9-18.6,55.1-42.7,71.2
		C374.1,533.5,338.4,530,313.8,516.7"/>
	<path vector-effect="non-scaling-stroke" class="st1" d="M401.6,478.6c28.8-31,32-81.4,24.1-121.7c-4.6-14.4-9.9-30.4-21.7-40.5
		c-7.9-6.3-16.5-17.7-27.1-19.1c-29.1-6.7-61-1.3-88.4,9.5c-25.2,10.1-30.4,25.3-32.5,50.7c-0.7,54.6,17.6,119,73.5,139.9
		c17.3,7.7,37.9,4.7,54.9-1.3C390.4,490.4,395.7,483.9,401.6,478.6"/>
</g>
</svg>
