<?xml version="1.0" encoding="utf-8"?>
<!-- Generator: Adobe Illustrator 28.0.0, SVG Export Plug-In . SVG Version: 6.00 Build 0)  -->
<svg version="1.1" id="Layer_1" xmlns="http://www.w3.org/2000/svg" xmlns:xlink="http://www.w3.org/1999/xlink" x="0px" y="0px"
	 viewBox="0 0 1009.9 713" style="enable-background:new 0 0 1009.9 713;" xml:space="preserve">
<style type="text/css">
	.st0{fill:#FEB599;stroke:#000000;stroke-miterlimit:10;}
	.st1{display:none;fill:#FEB599;stroke:#000000;stroke-miterlimit:10;}
</style>
<g id="surface1197">
	<path vector-effect="non-scaling-stroke" class="st0" d="M829.5,381.2c4.6,41.9,27.2,32.3,59.5,29.7c25.9-25.6,40.3-69.3,18-101.4
		c-4.1-7-13.1-24.4-22.6-20c-16,5-35.3,12.9-43,28.9C831.8,337,827.2,360.7,829.5,381.2"/>
	<path vector-effect="non-scaling-stroke" class="st0" d="M109.4,253.7C50.6,251.9-2.1,196.1,0.2,137.2
		C-0.1,89.7,21.5,17.6,76.9,13.3c12.2,3.2,29.3,7.2,37.9,17c18,21.6,30.5,48.6,35.4,76.3C158.9,157,157.3,223.3,109.4,253.7"/>
	<path vector-effect="non-scaling-stroke" class="st1" d="M331.9,881.4c23.8,13.6,54.9,18.1,81.8,21.7c40.8,8,91.2-0.7,115.1-38
		c10.4-13.7,19.6-29.2,26-45.2c6.9-15.5,12.4-33.4,26.1-44.4c19.5-18,47.1-26.2,70.7-37.2c30.3-14.5,64.6-19.4,97.9-15.9
		c54.3,6.3,121.8,8.7,159.8-37.8c16.8-23.6,25.8-52.1,41.2-76.5c5.3-6.2,9-15.6,14.4-21.7c7.5-9.7,21.7-17.5,30.2-26.3
		c6.3-9.6,18.9-17.4,28-23.8c13.2-10.9,25.8-27.2,37-39.9c36.9-52.9,12.9-121.9-8.1-176.6c-6.2-17.8-7.6-38.7-14.3-56.5
		c-7.2-25.8-14.1-53.6-30.3-74.8c3.3-12.2-10.9-22.6-14.7-33.4c-5.5-15.7-17.6-31.9-26.9-45.6c-17-28.1-29.1-59.7-49.6-85.7
		c-30.6-41.9-88.9-48.4-136.6-41.6c-33.6,6.2-41.8,20.7-64.2,43.3c-14.8,26.2-36.2,50.4-59.9,69c-11.5,5.2-29.9,5.5-42.3,8.9
		c-8.5-0.8-27.3,1.1-35.7,1.1C565,117.8,550,131.2,544,148.9c-0.9,11.8-14.7,22.1-19.2,32.2c-6.7,13.1-21.5,21-32.8,29.7
		c-22.4,10.7-47.9,20.6-65.2,39.1c-36.4,38.3-27.9,98.3-10.1,143.3c4.1,7.5,2.7,16.9-1.7,23.8c4.9,6.3,5.8,16.4,4.2,23.9
		c-4.7,7.4-15.2,12.9-21.8,18.7c-8.9,8-23.6,8.4-34.6,5.2c-35.4-7.9-70-26.2-107.6-23.1c-70.3,6-125.6,72.7-124.3,142.4
		c1.3,42.1,22.2,80.3,34.1,119.6c11.3,25.5,11.1,54.9,21.2,80.8c9.8,11.5,25.2,13.3,39,16.2c9.1,3,21.6,10.9,31.3,13.1
		C284,832.5,303.6,862.9,331.9,881.4"/>
	<path vector-effect="non-scaling-stroke" class="st1" d="M344.7,831.3c-19.9-16.7-36.8-39.3-58.9-53.7
		c-13.1-12.3-31.1-25.5-44.5-37.5c-9.6-13.7-20.9-27.7-29.1-42.3c-18.9-40.2-41.7-84.8-35.3-130.3c7.1-49.4,58.5-91.1,108.7-78.8
		c29.3,5.2,58.3,21.8,88.3,22.7c13.7-2.1,31.8-7.2,44.1-11.9c23.2-20.9,36.8-51.8,34.5-82.5c3.6-41.6-19.9-86.7,2.8-125
		c20.8-23.8,55.7-30,80.3-48.3c23.1-26.2,37.6-61.7,69.8-78c16.3-9.6,41.9-11.8,56.2-23.8c23-17.5,41.9-39.6,61.7-59.8
		c12.3-14.5,30.7-25.2,45.9-35.9c52.2-18.1,81.5,2.5,119.6,35.7c12.3,11.7,25.8,23.2,36.1,35.8c14.2,8.1,24.1,23.1,32.8,35.8
		c24.3,24.6,39.8,57.9,48.6,90.5c17,32.9,23.8,70.2,29.4,105.8c13,52.3,17.8,114.2-24.2,154.2c-7.3,5-11.8,14.4-18.4,19.6
		c-8.9,8.8-20.2,17.1-30.4,23.9c-13.5,17-34.1,28.4-44.4,47.8c-21.8,30.2-40.3,66.8-75.8,82.7c-41.5,19.6-88,9.1-131.1,13.1
		c-13,0-27.8,6.4-39.5,10c-10.7,3.8-23.5,7.4-33,12.8c-24.5,7.2-48.8,17.3-71,28c-43.2,16.1-42.4,61.7-64.9,93.6
		c-17.7,19.7-44.1,31.1-69.8,26.3C401.9,859.7,370.4,848.4,344.7,831.3"/>
	<path vector-effect="non-scaling-stroke" class="st1" d="M344.7,780.2c-35.8-26.7-80.5-45.3-102.8-86.4
		c-23.5-48.2-48.1-128.6,12.1-159.5c29.4-11.4,62.1,2.7,91.1,9.2c30.8,2.8,63.6-4.7,88.2-24.1c57.1-42.6,34.1-123.5,58.9-181.8
		c16-29.1,55.3-32.7,73.8-60.1c22.8-25.3,35.9-65,73.6-71c7.1-1.8,16.8-4.6,21.4-10.8c8.6-10.1,20.6-18.4,28.4-29.3
		c17.1-20.7,31.8-46.8,56.2-59.9c9.3-4.1,19.2-12.8,29.2-14.6c15.9,2.4,34.1,5.5,47.7,14.5c18.2,15.6,42.8,20.3,65.6,24.8
		c21.2,10.4,43.5,22.9,59.9,40.1c31.3,34.5,52.4,77.4,58.8,123.8c13.8,45.2,22.6,96.2,15.8,144.4c-11.3,40.8-41.6,73.1-75.1,97.4
		c-25.9,19.9-49.2,44.8-68.8,71c-52.1,66.7-95.1,57.3-169.9,62.6c-42.5,4.5-81.4,28-122.2,39.1c-35.3,8.9-77.2,17-95.3,52.6
		c-8.7,18.8-15.5,48.9-38.7,53C412.8,822,378,798.2,344.7,780.2"/>
	<path vector-effect="non-scaling-stroke" class="st1" d="M334.4,736.1c20.8,8.4,46.8,10.5,69.2,8.7c16.9-0.1,30.4-10.5,44.1-18.9
		c29.1-16.9,64-21.8,96.8-27.2c52.7-5.3,100.4-30.9,150.9-44.7c46.6-7.6,100.3,2.3,139.3-30.1c29.3-22.9,50.8-54.9,79.2-78.8
		c28.6-25.6,66.8-46.3,81.9-83.2c7.8-13.1,7.7-31.2,14.2-44.6c-4.2-19.5-2.3-41.2-4.7-61c-1-7.5-1.4-18.6-2.6-26
		c1.4-4.6,2.3-12.1-2.1-15.9c-4.5-38.9-19.8-76.6-42.9-108.2c-34.8-41.9-58.8-47.1-111.2-50.4c-21.9-4.2-43-15.6-64.5-21.5
		c-18.5-0.8-37.2,8.3-50.7,20.4c-8.8,9.5-14.3,22.9-21,33.9c-8.3,23.1-12.2,53-34.4,67.6c-12.3,8.2-29.1,11.4-42.1,17.9
		c-10.8,4.2-19.7,13-27.1,21.6c-7.4,8-19.6,17.8-27.1,25.8c-29.4,22.4-53.4,24.4-71.7,60.9c-18,41.8-19,89.9-40.5,130.5
		c-20,28.4-52.2,48.7-84.9,59.4c-25.5,8.2-53,1.2-78.7-2.3c-18.5,0.3-41.2,7.6-48.4,26.4c-10.2,21.6-8.4,49.9,0.5,71.6
		C268.6,702,300.1,726.5,334.4,736.1"/>
	<path vector-effect="non-scaling-stroke" class="st0" d="M343.1,702.5c25.8-3.2,49.8-17.7,75.2-22.1c31.9-3,70-0.9,102.1-1.1
		c28.3,0.5,58.7-3.3,85.8-11.4c22.2-6.1,45.1-17.9,67.3-24c30.8-10,65.5-8.4,97.5-10.9c37.5-7.9,66.5-30.3,91.6-58.2
		c12.5-12.3,24.6-28.5,39.1-38.7c28.7-23.6,63.1-45.3,81.4-78.6c17.4-34.4,15-75.2,12.1-112.7c-3.4-47-17.2-94.6-47.8-131.4
		c-13.7-18.6-37.6-27.6-58-36.7c-23-1.4-51.6-0.7-74.6-3.1c-13.8-1.4-30.6-4-44.2-6.5c-33.9,19-39.9,45.7-44.1,81.9
		c-1.9,18.3-16.5,34.1-29.4,45.9c-18.7,7.9-42.2,5.6-59,17.3c-28.2,17.6-53.6,39.9-82.1,56.3c-36.4,17.6-45.5,60.3-54.9,95.6
		c-8.6,33-21,67.1-45.5,90.9c-12.2,11.8-27.5,20.6-38.2,33c-13.2,11.5-28.9,20.3-44,27.6c-7.2-4.2-21.9-3.3-29.3-2.9
		c-13.6-3.8-30.4-5.7-44-4.9c-15.9,9.5-20.1,30.9-19.7,47.5c2.7,5.7,7.4,14.6,9.8,20c5.2,1.9,8.4,11.4,9.9,15.8
		C311.6,695.8,331.1,699,343.1,702.5"/>
	<path vector-effect="non-scaling-stroke" class="st1" d="M462.4,640.5c-29.1-21.1-13.4-29.5-1.8-54.8c15.7-19.9,30.3-42,40.9-65.2
		c12.5-30.5,17.1-64.4,30.3-94.6c11.6-23,36.1-36,56.7-49.7c17-10.7,33-24.5,50.4-34.5c26.5-16.4,61.7-14,88.3-31
		c16.6-15.9,20.9-41,27.8-62c6-25,18-44.9,45.6-48.1c17-3.4,36.5-6.1,53.9-6.4c9.3-0.5,21.5-3.8,30.7-1.1
		c97.4,12.9,119.1,171.2,92.6,247.8c-14.8,34.4-45.5,56.5-74.4,78.2c-23.6,17.5-43,40.5-64.2,60.6c-50,53.7-105.6,32.4-167.1,49.4
		c-30.3,7.8-59.2,22.4-90.1,28.4C543,661.4,496.5,662.1,462.4,640.5"/>
	<path vector-effect="non-scaling-stroke" class="st1" d="M580.1,638.4c-30,0.7-72.9,0.1-87.3-30.9c-1.4-26.1,12.3-41.1,20-64
		c15.6-33.6,16.9-72.7,36.1-104.1c16.5-21,38.6-37.3,60.8-51.7c18.6-12.4,36.2-31.4,58.8-35.9c46.4-12.6,63.3-3,88.2-50.8
		c8.8-17.6,17.2-37,24-55.4c6.8-10.6,17.6-18.6,28.3-24.8c65.4-29.1,125.6-19.4,153.2,52.8c21,50.9,26.4,123.6,0.5,173.4
		c-20.1,39-63.3,56-93.1,86.1c-64.8,66.1-77.6,75.5-171.8,75.1l0,0C658.1,613.8,619.5,631.3,580.1,638.4"/>
	<path vector-effect="non-scaling-stroke" class="st1" d="M633.2,603.6c117.7-29.4,128.4,28.3,227.4-79.2
		c32-32.1,82.1-50.2,98.7-95.4c23.5-59.7,14.7-178.6-53.4-205.1c-14.7-9.2-24.4-7.8-40.8-5.4c-23.5,3.6-49,12.3-64.6,31
		c-14.9,15.6-21.4,39.2-29.1,58.8c-4.8,7.7-11.4,17.5-16.3,25.1c-20.3,30.7-51.9,28-83.2,38.6c-24.5,7.2-44.2,26.9-62.3,44
		c-8.8,7.8-24.1,17.5-31.4,26.8c-15.5,21.9-25.3,48.8-32.2,74.1c-2.6,14.5-12.8,29.4-8.7,43.7c-19.1,29.2,8.4,50.3,35.4,54.2
		C592.5,615,615.1,611.5,633.2,603.6"/>
	<path vector-effect="non-scaling-stroke" class="st1" d="M870.6,500.7c31.6-23.4,71.6-43,83.5-83.6
		c17.6-52.6,12.6-150.3-42.1-179.2c-14.1-8.3-26.5-12.9-42.8-8c-23.7,1.2-45.9,13.6-60.8,31.8c-18.8,20.7-26.2,50-37.3,75.1
		c-8.9,10.8-19.1,22.5-29.5,31.8c-23.3,15.6-55,13.5-78.8,28.9c-30.7,17.2-49.1,51.2-68.2,79.5c-8,29.2-26,69.4-0.1,93.9
		c12.2,8.9,29.9,7.4,44.1,6.4c18.9,1.6,39.7-0.4,58.8,0.6c23.6,4.4,49.8,2.8,73.6,1.1c13.4-6.2,27.5-13.8,39.7-22.2
		C831.8,539.8,848.3,516.5,870.6,500.7"/>
	<path vector-effect="non-scaling-stroke" class="st0" d="M802.3,548.5c23.3-17.4,40.4-43.5,64.7-59.8
		c33.2-21.7,73.1-43.6,82.9-85.4c12-48.4,10.4-123.5-35.7-153.5c-7-4.2-18.2-10.6-26-12.7c-19.7,3.2-42.7,5.2-57.8,19.7
		c-21.5,17.9-34,44.5-44.4,69.8c-8.9,27.1-19.6,44.8-44.1,60.5c-12.3,8-30.4,11.4-44.2,15.5c-22.4,10.1-47,25.9-55.7,50
		c-21.9,44.5-16,96.3,40.9,104.4c28.2,7.8,59,11.8,88.2,8.5C781.1,560.8,792.6,553.3,802.3,548.5"/>
	<path vector-effect="non-scaling-stroke" class="st1" d="M697.8,540.2c-42.3-20-43.5-63.3-19.7-99.1c16.9-18.8,43.3-23.1,64.4-35.3
		c41.4-21.3,42.4-56.4,60.7-94.2c13-29.3,35.3-58,69.3-61.5c9.5-2.9,19.6-4.2,27.9,2.6c54.5,27.5,56,101.1,40.6,152.8
		c-12.9,35.3-47.1,54.3-78.2,71.5c-15.9,9.8-30.7,25.2-42.7,39.3c-13.3,13.3-29.2,25.2-45.3,34.8c-4.3,3.4-12.8,1.1-17.8,0.9
		C736.9,555.9,715.3,550.4,697.8,540.2"/>
	<path vector-effect="non-scaling-stroke" class="st1" d="M756.6,536.5L756.6,536.5c-2-1.1-28.8-2.3-29.4-4
		c-9.1-6.3-24.8-14.1-29.5-23.6c-15.4-30.3,0.2-61.7,29.4-74.3c60.3-26.9,58.1-49.4,78.6-105.2c10.8-24.4,23.9-53.8,49.6-64.1
		c3.8-3.1,15.2-4.3,19.2-5.5c5.7-1.1,14.2-5.7,18.8-1.5c33.1,18.8,47,42.4,49,79.6c3.1,49.3-12.3,84.4-53.4,111.8
		c-15.2,5.7-31.3,12.8-44,22.2c-22.5,14-34.5,39.2-57,52.4C777.1,532.8,771.1,539,756.6,536.5"/>
	<path vector-effect="non-scaling-stroke" class="st1" d="M745.7,452.9c12.4-11.5,29.8-18.1,40.3-31.1
		c18.4-31.7,17.8-73.3,36.1-105.8c11.3-28.3,28.1-41.9,58.1-47.2c13-6.7,23.5,10.4,33.4,16.9c25.5,25.9,26.7,71,14.4,103.5
		c-6.7,20.1-23.3,34.9-39,48.3c-17.8,4.6-37.1,13.8-54.8,18.6c-15.6,10.5-27.5,25.5-41.6,37.9c-5.4,8.6-12.8,18-21.2,23.6
		c-10.4-1.9-23.7-1.4-33.7-5.1c-13.1-7.8-13.4-22.5-16-35.9C725.9,467,737.1,458.4,745.7,452.9"/>
	<path vector-effect="non-scaling-stroke" class="st1" d="M814.1,405.1c-0.6-38.3,7.4-79.1,30.7-110.4c12.1-9,30-13.6,44.2-17.6
		c16.2,10.3,29.3,25.7,34.4,44.4c11.7,37.4-3.9,79-34.4,103c-19,2.2-39.1,14.4-57.9,5.4c-4,0-9.8-10.6-13.5-12.7
		C815.4,414.8,815.3,408.2,814.1,405.1"/>
</g>
</svg>
