<?xml version="1.0" encoding="utf-8"?>
<!-- Generator: Adobe Illustrator 28.0.0, SVG Export Plug-In . SVG Version: 6.00 Build 0)  -->
<svg version="1.1" id="Layer_1" xmlns="http://www.w3.org/2000/svg" xmlns:xlink="http://www.w3.org/1999/xlink" x="0px" y="0px"
	 viewBox="0 0 805.3 727.4" style="enable-background:new 0 0 805.3 727.4;" xml:space="preserve">
<style type="text/css">
	.st0{fill:#FF2615;stroke:#000000;stroke-miterlimit:10;}
	.st1{display:none;fill:#FF2615;stroke:#000000;stroke-miterlimit:10;}
</style>
<g id="surface1307">
	<path vector-effect="non-scaling-stroke" class="st0" d="M121.2,526.4c-9.4-4-21.1-8.6-27.4-16.8c-1.6-1.6-1.3-4.5-0.6-6.4
		c-2.6-1.1-3.6-7.1-4.1-9.4c0.7-2-1.6-10.2,1.7-11.9c-1.8-3.2,0.7-9.1,3.8-10.7c-0.5-10.3,18.6-14.5,26.3-18.8
		c17.3,9.9,23.2,32.2,21.2,50.5C139.8,513.1,130.4,522,121.2,526.4"/>
	<path vector-effect="non-scaling-stroke" class="st1" d="M864.5,77.9c18.4,11.1,43.4,14.9,62.7,4.2c31.9-15.1,25.9-59.7-4.5-73
		C900.3-3.2,869,1.5,849.9,18c-9,4.7-6.1,9.9-13.3,15.8c0.5,2.9,0.8,7.8,0,10.6c2.3,2.8,3.7,7,2.5,10.6
		C847.9,61.7,853.6,73.6,864.5,77.9"/>
	<path vector-effect="non-scaling-stroke" class="st0" d="M660,234.1c14.6-17.5,26.6-37.6,42.4-54c14.9-15.6,38.5-18.3,56.6-28.9
		c28.2-12.9,40.1-45.6,38.7-74.8c-0.5-14.4,3.4-31.7-2.6-45.3c-5-11.7-18.2-18.3-29.6-22.3c-3.5,1.7-10.9,3.9-14.3,5.2
		c-14,5.5-20.7,19.8-31.2,30.4c-18.1,18.6-33,40.4-43.8,63.9c-6.5,20.3-26.4,28.7-46.5,27.5c-37.1-0.2-82.6-10.8-110.4,20.8
		c-27.3,39.4,29.5,63.9,23.1,100c-1.2,9.2-6.5,17.7-9,26.5c-0.4,1.8-0.2,5.4,0.9,7c-0.8,1.6-1.5,5.2-0.8,7
		c8.2,9.3,10.3,9.4,22.4,7.2c13.6-0.6,22.9-12.3,34.9-17.1C617.4,274.9,644.4,260,660,234.1"/>
	<path vector-effect="non-scaling-stroke" class="st1" d="M358.5,764.2c-23.4-7.1-45.9-18.2-67.8-28.9c-16-6.8-33.3-12.3-49-20
		c-28.6-11.1-48.3-36.7-73.8-52.3c-23.1-7.7-47.5-12.6-70.2-21.1c-25.5-9.6-50.7-21.2-74.8-33.8C9,600.6-3.8,589.4-14.4,578.2
		c-12.3-14.1-24.2-29.7-41.5-37.3c-14.5-5.3-31.3-7.3-46.2-7.5c-17.9-0.9-32.2,0.3-27.8-21.5c1-6,5.2-10.7,7.7-15.4
		c4.2-7,7.5-15.4,9.8-23c4.1-22.9,10.5-45.4,19.8-66.3c5.5-12.2,12.6-23.9,19-35.2c4-11.8,10.6-23.7,17.8-33.8
		c7.2-10,16.1-18.6,24.7-27.1c6.6-6,14.6-13.3,15.3-22.5c0.9-5.4,0.2-13.2-2.6-17.5c-1-4.8-3-9.8-5.7-13.4
		c-3.7-9.8-8.3-19.6-11-29.4c-11.5-47.5,32.2-76.2,72-88l0,0c24.8-10.5,56.5-4.7,70.6,19.6c8,12.7,12,28.4,22.9,38.7
		c11.9,15,30.4,19.5,46.5,27.2c34.7,16.6,32.6,36.1,46.1,66.3c12.4,19.9,35.8,28.6,54.3,40.7c27.9,12.9,53.7,29.6,77.6,48.1
		c57,42.6,126.2-9.4,191,47.4c15.2,12.5,34.8,19,53.5,19.6c29.8,0.6,61.9,16,67,46.6c4.3,22.8-6.3,44.2-8.3,65.8
		c5.8,69.6-42.5,42.8-52.8,103.6c-8.3,80-53,107.6-128.7,106.4C436.2,768.4,395.9,778.5,358.5,764.2"/>
	<path vector-effect="non-scaling-stroke" class="st1" d="M357.3,743.2c-4.2-1.2-11.4-3.8-15.6-5.4c-32.7-13.9-66-29-97.3-45.5
		c-18.1-10.8-32.7-26.4-48-40c-13.7-10.7-30.5-15.5-46.9-17.8c-19.5-3.7-38.9-7.5-57.1-14.1C60.5,607.1,28,591.7,6.7,564
		c-13.3-20.9-28.4-41.1-49.2-54.4c-44-29.9-36.5-69.6-14.7-111.2c11.4-18.7,17.8-42.1,35.6-55.4c30.7-23.6,58.9-4.3,92.1-3.8
		c19-2.2,38.9-3.9,54.2-15.5c9.3-5,19.7-7.8,18.7-20.1c3.9-10.8-12-16.3-19.5-19.2c-28.5-9.3-61,8.7-87.4-7.1
		c-23.9-12-47.1-49.5-31.7-74c9.5-18.2,37.9-31.1,56.6-24.9c32.9,7.5,41.3,70.8,84.2,79.4c11.1,2.5,14.4,13.2,18.9,21.5
		c0.4,2.3,1.2,5.6,1.3,6.6c-2.6,3-2.5,8.1-3.1,10.3c10.4,2,15.3,11.5,23.9,15.3c14,6.3,29.4,11,42.4,17.8
		c28.5,14.1,56.4,29.3,79.2,50.9c10.8,10.3,16.5,25.1,21.1,38.1c1.6,5.4,2.1,11.9,5.1,15.6c6.3,5.1,12.2,1.8,17.1-0.2
		c35.7-12.5,125.2-13.7,153,10.5c29.5,22.8,19.8,64.7,42,90.8c5.4,7.1,12.9,14.7,16.3,22c10.8,12,17.7,25,21.5,39.4
		c1.5,2.1,1,4.9,0.5,6.3c1.3,4,0.8,8.1,0.9,11.2c1.5,7.3-1,14.1-1.2,20.6c-0.8,17.2-2.7,33.3-5,50c-9.9,61.3-71.6,70.6-122.9,66.9
		C422.6,750.7,389.6,752.5,357.3,743.2"/>
	<path vector-effect="non-scaling-stroke" class="st1" d="M459.1,738.6c49.2,3,100.9-7.9,105.5-66c4.2-35.8,6.5-76.9-19.7-105.4
		c-11.5-14.2-24.1-28.1-34.8-42.8c-8.5-16.2-14.4-34.6-24.6-49.5c-19.8-28.1-75.9-37.9-104.8-21.8c-18.7,8.9-24.9,29.3-36,44.5
		c-8.2,10.3-25.9,13.6-37.1,7.1c-27.2-8.4-38.1-41.6-26.5-66c9.1-18.3,13.3-41-1.5-57.1c-11.9-11.7-25.1-22.9-39.8-30.2
		c-30.8-18.8-68.1-20.5-101.6-9.6c-27.9,8.4-56.3,16.3-84.7,21.3c-20.2,3.8-48.9-6.2-63,12.2c-9.3,9.9-15.7,22-22,33.4
		c-6.8,13.5-14.9,27.4-15.7,42.3c-0.3,19.3,12.7,33.9,25.1,46.5c12.1,13.5,23.5,27,31.9,42.9c24.4,44.4,64.3,63.9,111.2,76.4
		c20.2,3.6,41.8,2.8,61,8.8c26.8,8.3,42.7,33.9,64.7,49.2c32,21.6,67.1,39.7,103.1,53C384.9,739.2,422.7,740,459.1,738.6"/>
	<path vector-effect="non-scaling-stroke" class="st1" d="M358.5,718c-37-11.1-70.7-32-101.7-54.7c-19.7-14.8-35.5-35-56.3-48.2
		c-30.6-14.6-67.1-2.4-98.4-14.8C39.6,580,27.7,547.6-0.7,494.5c-20.5-33.9-18.4-47,7.1-76.9c7.9-8.9,18.2-15.7,26.1-23.9
		c16.8-9.3,34-18.3,52.1-24c30.8-10.3,63-19.4,95.2-20.7c30.9-1.5,69.7,15.1,82.6,43.9c8,15.1-0.9,31.4-5.4,46
		c-10.3,30.6,2.7,70.2,34.1,82.2c20.5,7.1,48,16.8,67.8,5.3c9.5-6,11.1-19.3,15.8-28.5c3.5-10,10.7-18.6,18-25.8
		c25.5-10.1,55.8-0.7,72.2,20.4c11.4,10.9,16.7,26.6,27.6,37.3c14.2,18.6,33.9,32.7,46.5,52c20.3,28.9,17.5,67.3,10.9,99.9
		c-9.7,41.5-54.8,47.8-90.3,46.1C425.6,726.5,390.7,728.8,358.5,718"/>
	<path vector-effect="non-scaling-stroke" class="st0" d="M426.3,717.5c-80.4,0.3-129.1-35-186.3-87.2
		c-41.7-47.4-49-32.7-104.4-32.9c-41.6-1.8-83.4-24.6-102.8-62.3C24.4,516.4,13,498.2,8.9,478c-5.8-20.6,8.5-38.7,20.4-54.1
		c21.2-26.5,51.3-45.3,84.3-53.5c32.3-8,68.9-16.9,100.5-2.7c18.5,8,34.7,26.8,29.6,47.6c-2.6,15-9.8,29.9-9,45.1
		c1.2,21.1,4.7,44.8,17.3,61.4c17.6,15.9,48.1,17.7,70.1,25.3c24.6,7.4,57.8,14.9,75.9-7.8c4.7-10.4,5.9-22.4,10.5-32.1
		c1.1-4.3,14.6-3.2,17.1-4.1c5.9,3.5,16,5,19.3,10.7c6.1,8.3,14.4,14.4,23,18.9c6.3,7.8,14.9,13.2,22.8,18.5
		c14,11.5,29,23.5,38.5,38.6c16.5,26.4,14.7,59.9,7.8,88.7C522.5,725.1,465.2,719.1,426.3,717.5"/>
	<path vector-effect="non-scaling-stroke" class="st1" d="M358.5,698.8c-28-8.6-51.4-27.1-73-46.2c-17.1-14.8-35.8-29.8-49.1-47.9
		c-4.9-6.3-10.1-12.8-13.5-19.6c-8.8-7.8-23.6-6.4-33.9-4.5c-48.6,15-102,12.2-135.6-29.4c-19.1-26.3-38-61.5-28.7-93.6
		C33.2,432.8,53,413,73,398c26.8-18.9,60.5-26,92-27.1c25.5-1.9,59.7,7.6,62.1,36.5c0.6,14.6-5.4,28.7-6.3,42.7
		c-2,17.4,1.5,35.5,4.1,52.3c2.2,12.6,3.2,26.4,8,37.6c9.1,14.2,26.6,9.8,40.7,11.6c17.1,1.6,35.1,6,50.9,11.4
		c33.7,12.9,61.8,13,93.2-3.7c20.9-8.6,25.1-11.2,47.2-5.2c26.9,10.1,53.4,29.6,63.1,56.8c6.6,26,5.7,55.4-8.4,77.7
		c-18.2,22.8-50.8,21-76.3,21.4C414.4,708.8,385.1,709.6,358.5,698.8"/>
	<path vector-effect="non-scaling-stroke" class="st1" d="M87.3,570.3c-29.9-15.8-48.3-48.5-55-80.7c-3.1-17.7,0.8-36.2,12.7-50.1
		c10.8-17.2,26.2-31.6,43.4-42.2C123.8,377,218,360.8,211.7,425c-2,15.8-3.8,32.3-2.3,48.3c2.5,23.9,7.5,49.5-1.7,72.5
		C185.3,583.5,123.8,591,87.3,570.3"/>
	<path vector-effect="non-scaling-stroke" class="st1" d="M392.4,698c-43.1-5.4-73.6-27.9-101.5-59.8c-10.5-11-24.4-20.2-31.5-33.9
		c-15.9-24,4-37.9,28-35c26.1,0.7,50,15.6,76.3,15.9c15.7,0.4,32.3-2.9,47.1-8.3c19.7-8,41.3-14.3,62.2-7.2
		c46.8,16.5,63,66.8,38.3,108.8C483.2,711.1,430.2,697,392.4,698"/>
	<path vector-effect="non-scaling-stroke" class="st1" d="M150.3,572.5c63.3-18,51-65.9,47.5-117.3c0.7-17.9,5.9-41.6-8.5-55.4
		c-28-20.8-74.7-10.4-101.8,7.7C35.4,445.4,25.1,487.1,62.3,541C82.1,567.4,118.5,581.3,150.3,572.5"/>
	<path vector-effect="non-scaling-stroke" class="st0" d="M357.8,679.3c-28.2-11.8-44.7-38.1-60-63c-1.3-2.1-5.9-5.3-3.9-8.1
		c-1-4.6,0.8-12.7,5.6-14.1c18.7,1.5,38.7,6.1,57.7,4.9c40.5,2.7,80.6-31.2,119.9-13c32.1,11.7,41.4,54.5,24.9,82.2
		c-6.6,13-20.5,18.1-33.9,21.4C431.5,694.5,392.2,693.7,357.8,679.3"/>
	<path vector-effect="non-scaling-stroke" class="st1" d="M121.2,568.5c-19.4-3.5-37.6-12.2-50.9-27c-13-16.7-23.7-38-23.3-59.5
		c-0.2-32.7,29-62.8,57.2-76.3c20.2-9.8,61.8-16.1,76.5,5c13.1,20.5,5.3,48.1,9.9,71.2C198.5,533.6,176.6,569.6,121.2,568.5"/>
	<path vector-effect="non-scaling-stroke" class="st1" d="M385.4,678.3c27,6.2,56.4,7.3,83.4,0.3c19.4-9,30.7-22.8,29.6-45
		c0.2-8-3.2-17-7.4-23.7c-6.8-6-15-13.3-23.4-16.6c-20.7-4.5-41,1.1-60.7,7.7c-18,6.2-37.7,8.9-55.9,14.4c-8,3.5-21,9.8-16.2,20.4
		c-0.2,9.7,7,17.3,13.3,23.8C357.3,670,372.4,674.4,385.4,678.3"/>
	<path vector-effect="non-scaling-stroke" class="st1" d="M87.3,548.4c-40.5-31.2-46.2-86.2-5-119.7c10.2-10.8,24.2-16.5,37.8-21.9
		c7.7-1.4,18.6-1.6,26.4-2.3c16.8,5.1,29.1,12.4,31.4,31.1c1.9,13.8,1.9,28.3,3.7,42.1c1.7,16.9,3.5,35.3-3.2,51.3
		c-9.9,23.5-33.3,33.6-57.6,33.6C109.6,559,95.5,557.8,87.3,548.4"/>
	<path vector-effect="non-scaling-stroke" class="st1" d="M389.6,618.8c19.6-6.7,40.7-17.2,61.8-14.5c11.6,0.8,22.4,3.5,27.4,15.2
		c9.6,13,3.3,29.7-5.9,41c-25,19.5-68.5,13.2-96.7,2.8C348.6,642.1,361.2,627.1,389.6,618.8"/>
	<path vector-effect="non-scaling-stroke" class="st0" d="M147,551.2c30.9-15.7,31.2-51,26-80.6c-2.8-39-11.1-66-55.9-55.3
		c-30.5,10.9-59.1,39.1-57.3,73C64.2,532.2,103.1,566,147,551.2"/>
	<path vector-effect="non-scaling-stroke" class="st1" d="M420.9,659.9c10.7-0.7,22.9,0.3,31.5-7.3c3.8-2.5,10.4-5.1,9.4-10.6
		c5.8-14.4-4.8-18.2-16.3-22.7c-5.8-1.2-13.3,1.9-19.2,3c-13.4,1.2-26.3,9.4-34.3,20c1.7,7.3,6.4,10.8,13.4,13.2
		C410.2,657.3,415.6,660.4,420.9,659.9"/>
	<path vector-effect="non-scaling-stroke" class="st1" d="M121.2,549.3c-8.3-2.4-17.7-4.9-25.6-8.6c-10.4-9.3-19.5-20.1-25.3-32.8
		c-10.8-30.2,2.8-54.2,25.7-73.7c13.4-6.7,27-15.3,42.4-10.7c20.1,0.7,23.5,26.7,26.3,42.2C172,504.5,170.5,547.6,121.2,549.3"/>
	<path vector-effect="non-scaling-stroke" class="st1" d="M153.1,525.8c-6.2,11.1-20.3,14.3-31.8,16.9c-5.7-1.8-12.9-4.3-18.3-6.8
		c-24-11.5-37.4-47-23.9-70.8c8.7-18.2,23.9-27.6,42.3-34.2c9.2,2.2,23.5,2.3,27.8,12.1C158.7,468.5,166,500.4,153.1,525.8"/>
	<path vector-effect="non-scaling-stroke" class="st1" d="M119.6,534.2c7.8,0.5,17.3-6.1,24.3-9.7c6.6-8.4,9.6-21.6,7.5-32
		c1.3-10.2-2.5-21.6-5-31.6c-3.4-7.7-11.4-13.9-18.7-17.5c-7.5-5.9-15.9,2.7-23.5,4.9c-4.2,2.4-10.1,4.2-12,9.1
		c-2.8,5.2-7.4,10.4-8.8,16.2c-6.3,18,1.6,36.2,12.3,50.8C102.8,528.3,112.1,531.1,119.6,534.2"/>
</g>
</svg>
