<?xml version="1.0" encoding="utf-8"?>
<!-- Generator: Adobe Illustrator 28.0.0, SVG Export Plug-In . SVG Version: 6.00 Build 0)  -->
<svg version="1.1" id="Layer_1" xmlns="http://www.w3.org/2000/svg" xmlns:xlink="http://www.w3.org/1999/xlink" x="0px" y="0px"
	 viewBox="0 0 712.4 836.8" style="enable-background:new 0 0 712.4 836.8;" xml:space="preserve">
<style type="text/css">
	.st0{fill:#7D4318;stroke:#000000;stroke-miterlimit:10;}
	.st1{display:none;fill:#7D4318;stroke:#000000;stroke-miterlimit:10;}
</style>
<g id="surface1187">
	<path vector-effect="non-scaling-stroke" class="st0" d="M164.2,460c-37.6-20.2-43.3-68.5-48.4-106.8c0.6-4-2.3-9-2.4-12.9
		c1.1-3.6-0.4-9.9-2.1-13.1c0-4,1.1-10.1-1.5-13.7c1-8.3-2.4-17,0-25.1c-2-7.9,0.1-17.2-0.1-25.3c3.2-16.6,3.5-32.6,12.2-48.8
		c6.2-10.8,13.4-23,27.5-22.7c13.6-2.6,22.9,10.5,31.1,19.2c5.6,11.2,8.9,25.8,7.5,38.3c-2.3,12.7-4,27-8.4,39.4
		c-3.7,14.2-7.9,30.7-1.3,44.6c7.9,24.4,23.7,45.6,31.4,70.2c0.2,9.3,3.3,21.7,0.2,30.7C202,455.6,187.9,468.6,164.2,460"/>
	<path vector-effect="non-scaling-stroke" class="st1" d="M432.7,488.1c-3.4,15.1-2.1,25.5,8.2,37.5c7.8-1.1,16.3-6.1,22.8-10.8
		c3.2-7.7,1.8-17.7-3.6-24.1c-2.6-6-6.2-13.1-11.3-17.3C436.5,471.4,433.9,476.3,432.7,488.1"/>
	<path vector-effect="non-scaling-stroke" class="st1" d="M643.2,582.8c-9.2-6.3-18.1-14.2-21.1-25.4c-4-15.6-8.5-36.9,6.1-48.3
		c6.5,9.1,20.3,9.7,25.7,19.5c5.3,10.8,7.7,25.6,7.1,37.7C659,579.5,654.5,578.9,643.2,582.8"/>
	<path vector-effect="non-scaling-stroke" class="st1" d="M224.1,916.4c-37.7-18.2-78.7-30.4-114.5-52.3c-91-71.8-127-143-102.5-259
		c16.6-58.5-0.9-93.3-20.7-146.9c-17.8-56.3-32.6-116.5-22.6-175.9c6.8-38.7,20.1-76.8,18.6-116.5c-3.3-81.1-1.5-132.3,41-205.2
		C32-55.8,42.6-72.6,48.9-90c8.8-21.6,14.1-45.1,25.6-65.6c19.2-36,56.2-36.8,77.3-2.3c36.2,69.3,20.1,63.8,98.9,82.7
		c18.5,5.3,35,17.3,50.7,27c24.4,11.9,53.9,10,74.4-7.6c18-15.5,25.8-24.1,35.8-45.6c9.6-18.9,18.6-44,40-51.1
		c11-6.4,17.1-3.4,26.9,2c35.4,22.7,24.3,70.2,45.2,101.7c16.8,14.9,39.6,21.5,59.7,30.7c34.2,16.6,55,52.3,89.7,67.4
		c7.5-1.8,17-2.7,23.3-6c9.1-9.5,19-19.4,24.9-30.6C735-11.5,747.1-36.5,762.7-59c13.7-20.5,31.8-38.4,45.2-58.6
		c22.5-27.4,26.7-71.2,59.5-88.2c4.3-1.8,11.1-4.2,15-5.3c11.2,2.7,22.9,9.3,29.9,17.8c19.6,27.9,15.4,64.7,12.6,96.3
		c-3.2,36.5-3.1,73.7-2.5,109.6c0.5,21.3,1.6,44,14.1,61.1c10,14,24.9,23.9,35.8,35.8c18,19.4,23.8,46.7,19,71.5
		c-3.4,21.6-15.1,40.9-20.6,61.2c-5.5,35.8,1.9,73.3,10.1,107.1c3.4,21.3,10.7,41.9,19.1,61.2c11.3,22.1,21.1,45.6,25.3,69.4
		c12.3,49.2-11.2,96.1-8.2,145.1c0.7,20.5,12,39.5,17.7,58.5c8,24.2,7.2,53.5-7.3,74.6c-18.3,24.3-46.7,22.1-72.1,12.4
		c-17.5-5-36.3-8.3-53.7-12c-39.9-7.2-73.4-46.5-115.4-33.1c-31.7,11.2-50.2,42.3-80,55.8c-15.4,7.4-33.7,9.3-49.6,13.5
		c-20.6,5.5-39.8,14.6-58.5,23.6c-37.5,19-81.7,64.2-119.4,21c-17.2-18.4-25.4-46.5-45.4-61.2c-11.2-9.9-25.1-10.7-38.2-8.6
		c-8.8,4.8-14.7,13.6-21.5,19.9c-14.9,23.4-24.3,50.5-35.9,74.8C316,909.5,272.9,939.5,224.1,916.4"/>
	<path vector-effect="non-scaling-stroke" class="st0" d="M666.6,677.5c0,0,6.6,6.6,6.6,6.6c3.9-2.4,11.7-0.3,13.4-5.8
		c2.7-3,4.3-6.4,4.2-10.4c1.7-3.3,4-8.7,2.5-12.5c4.1-9.1,4.3-20.8,2.9-30.6c3.7-21.6,1.6-44.5,1.8-66.6
		c-0.5-24.1-9.9-47.4-24.8-66.1c-17.4-19.2-34.8-41.1-59.1-51.5c-20.3-12-43.3,5.3-57.6,19.3c-8,6-18.8,12.3-28.8,7.8
		c-13-7.1-23.2-18-28.8-31.8c-12.7-22.6-11.9-54.6-34-71c-6.4-0.6-16.5,2.9-23.5,3c-3.4,2.2-7.6,6.6-11.3,8.4
		c-26.2,19.8-23.8,56.7-31.3,85.8c-3.4,29-27.3,114.4,11.7,124.7c27.6,4.9,58.7,1.9,76.1,29.2c8.3,9.6,15.6,22.1,17.4,34.5
		c2,4.1,3.8,27,6.4,21.9c6.4-0.6,9-6.8,13.6-9.8c12.2-7.2,17.1-21.9,25.2-32.6c5.3-10.4,17.9-15,28.5-14c3.6-0.2,8.7,2.1,10.6,4.4
		c8.7,4.3,18.7,9.3,25.4,15.8C631.2,650.3,648.6,664.5,666.6,677.5"/>
	<path vector-effect="non-scaling-stroke" class="st1" d="M254.1,887.6c-20.9-2.9-40.2-12.6-59.8-19.8c-24.1-9.8-50-17.3-71.5-32.3
		c-20.2-15-37-34.2-52.3-54c-21.7-27.1-39.3-59.2-42.3-94.4c-3.1-28,1.2-56.7,7.1-84c6.3-23.1,7.3-47.1,2-70.4
		c-8.9-23.7-17-48-27.9-71C-3.5,425.3-14.8,388-19.2,349.5c-0.5-23.3-1.1-47.2,3.6-70.2c3.5-22.7,11.8-44.9,16.3-67.4
		C13.6,133.4-7.6,75,36.7-0.7C48.5-21.3,64-40.3,80.6-57.1C88.2-69,105-79.7,119.2-74.5c17.9,11.7,31,34.9,54.3,35.6
		c19.7,2.9,39.9-5.9,59.8-3.5c57.5,9.2,74.4,55.2,140.6,24.8c27.9-12.2,58.8-37.7,89.5-19.5c12.1,12.8,26.5,24,42.4,32
		C520.4,1.2,537.7,3,553.4,5c38.6,9.6,60,38.7,82.3,68.9c5.1,7.1,11.6,14.9,14.9,22.9c7.4,5.8,16.2,12.1,22.5,19.2
		c6.2-4.6,17.9-3.9,21-11.7c7.2-2.3,11.1-9.8,15.3-15.4c3.4-5.1,8.4-9.9,11.1-15.4c21-35.2,36.4-73.9,60.4-107.3
		c19.6-25.1,45.3-48.2,76.4-56.5c46.5,13.4,28.9,125.6,39.1,165.5c3.3,29.1,16.1,55.9,24.6,83.5c5.3,28.7,2.9,59.2,10.9,87.5
		c15.4,48,21.4,98.4,33.2,147.3c6.2,24.8,21.7,46.1,29.9,70.2c24.6,58.3-5.8,118.5-15.9,175.9c-5,33.8-0.9,61.6-38.8,74.2
		c-44.4,13.4-69.9-6-107.2-22.9c-37.9-12.5-77.1,3.4-114.7,5.9c-18.3-0.4-33,0.6-40.4,19.7c-11.4,10.1-24.6,20.5-35.4,30.6
		c-31,19.2-83.2,48.6-118.2,29.8c-16.3-12.1-13.9-36.3-24.5-51.6c-7.7-8-17.7-3.9-26.9-3.1c-7.5,2.6-16.7,0.1-24-0.3
		c-20.4-0.1-43.7-16.8-62.2-5.5c-13,7.1-21.2,19.4-27.3,32c-11,18-19.3,37.6-27,56.7C317.5,842.9,300.3,884.8,254.1,887.6"/>
	<path vector-effect="non-scaling-stroke" class="st1" d="M254.1,856.5c-21.2-2.3-42.1-10.7-62.1-17.3c-26-7.9-53-17.3-72.6-37
		c-24.6-24.8-44.9-54.7-59.3-86.5c-16.8-40.7-9.8-85.3-0.8-127c7.1-35.5-6.7-70.5-22.9-101.5c-10.9-24.8-21.6-50.9-29.2-76.6
		C-7.2,360.5-9.7,307.9,3.6,257.8c6.9-28.2,16-55.7,18.2-84.5c2.5-63,2.7-143.4,62.6-180.7c5.2-5.2,13.7-4.2,19.9-4.3
		c10.6-1.2,20.1,5.4,29.2,9.3c15.3,7,33.1,9.3,48.7,3.3c72.9-34.4,79.2,4.3,143.3,15.1c40.2,4.5,73.3-31.4,113-24
		c24.8,8.7,44.3,27.7,69.7,33.8c22.9,2.9,48,1.9,67.5,15.3c38.3,27.1,55.7,81.2,37.6,124.6c-13.3,30.7-31.9,81.2,7.1,100
		c16.8,4.2,37.9-12.4,53-18.9c14.1-6.1,26.7-17.6,37.4-27.6c7.1-11.5,7.7-27,8.8-39.4c1.9-29.4,7.5-58.3,19.8-84.6
		c17.1-37.1,32.2-77.2,59.5-107.6c11-14,22.5-19,39.5-22.7c20.2,8.1,26.9,29.9,28.5,49.4c3.6,53.5,13.6,106.5,15.1,159.1
		c-1.3,37.3,21.6,67.8,35.4,99.5c10.6,24.7,15.8,51.2,20.6,76.4c2.9,20.6,3.9,42.7,9.8,61.3c10.8,36.7,39.5,66.1,37.6,105.3
		c1.1,39.1-18.2,76-30,111.1c-23.8,67.7-55.4,69.2-113.8,39.5c-40.6-17.3-101.2,12.8-116.1-43.6c-19-76.8,13.6-101.1-53.1-166.8
		c-12.6-14-25.4-27.7-36.7-40.8c-5.8-8.1-12.9-14.1-19.3-20.3c-4.9-5.6-11.2-11.6-17.7-14.7c-19.1-7.9-30.4-0.2-46.8-2
		c-7.5-2.9-16.6-6.6-16.9-13.9c-5.3-5.4-5.4-13.7-8.4-18.2c-8.3-23-17.7-56.3-47.1-41.8c-16.9,7.6-30.2,21.6-45.9,30.5
		c-26,14.8-48.1,32.4-48.1,63.6c-2.6,36.6-6.6,72.6-14.8,106.9c-7,35.1-9.1,69.5-8.6,104c3.9,58.1-14.5,102.6-38.4,153.1
		C305.8,797.6,298.9,848.9,254.1,856.5"/>
	<path vector-effect="non-scaling-stroke" class="st1" d="M757.2,156.3c6.5,33.5,48.9,54.6,80.4,55.2c9.6-29,18.9-60.6,16-91.8
		c-2.1-30.3-6.8-61.3-14.8-90.6c-2.7-7.4-13.8-9.3-20.6-11.6c-6.2,0.5-11.1,6.6-15.3,10.6c-12.8,11.6-20.8,27.2-28.1,42.7
		C761.2,96.7,751.8,127,757.2,156.3"/>
	<path vector-effect="non-scaling-stroke" class="st1" d="M848.2,644.9c41.2,16.4,63.3,17.7,86.8-24.7c15.7-31.8,34-65.7,32.4-102.2
		c1.2-34.4-25.4-58.2-36.7-88.3c-10.5-36.6-3.5-76.5-15.5-113.1c-8.3-24.8-20.6-50.7-41.3-67.3c-4.9-3.4-11.1-9.2-13.4-14.9
		c-9.6-4.6-23.3-9.5-22.7-22.4c-1.2,3-3.1,7.9-6.3,8.5c-4.5,5.9-5.7,14.7-7.3,21.6c-7.2,6-12.6,15.1-16.4,23.5
		c-7.5,9.8-14.3,21.6-23.6,29.9c-32.8,26.4-49.5-3.1-81.1-10.1c-25.2-2.6-49.1,14.8-61.9,35.2c-21.6,48.2,22.4,95.9,52.7,129.6
		c23.9,22.5,44.4,42.9,43.3,78.1c-0.7,38.6-7.1,101.4,44.6,107.5C803.7,638.6,827.3,636.4,848.2,644.9"/>
	<path vector-effect="non-scaling-stroke" class="st0" d="M158.4,802.5c29.1,10.9,61,18.6,92.1,17.9c9.8-1.8,18.3-13.4,26-19.4
		c7.5-14.8,14.1-30.8,22.5-45.2c34.2-62.8,40.5-106.4,44.3-176.6c2-41.6,12.9-82.2,20-123.1c3-24.4,3.3-49.8-1.8-73.9
		c-0.4-26.9-16.1-33.6,13.8-46.5c28.4-9.4,56.7-23.4,75.5-47.5c9.7-14.1,19.3-28.9,27.7-43.9c4.9-14.4,17.5-23.1,29.8-31
		c11.9-3.1,25.8-3.5,36.5-10.2c23.1-15.1,38.6-41.9,46.9-67.9c2.3-16.5,1.4-33.3-5.4-48.7c-4.1-11.8-16-19.6-25.3-27.4
		c-17.9-9.5-39.4-4.8-58.5-9.1c-24-4.4-41.6-24.2-64.1-32.2c-33.5-10.7-62.5,14.6-94.6,18.6c-17.8,1.3-36.1-1.9-52.6-8.4
		c-16.5-6.4-33.8-15.7-51.9-15.2c-20.3-0.6-38.4,12-56.2,19.1c-44.6,16.5-79.1-24-116.2,15c-23.2,31.9-28.1,71.9-31.4,109.8
		c-3.1,28.9-8,58.1-15.9,85.7C-18.5,352.9,25.5,436.1,72,533.2c15.2,44.1-6.3,89.4-1.3,133.9C75.7,713.4,116,782.4,158.4,802.5"/>
	<path vector-effect="non-scaling-stroke" class="st1" d="M818.4,124.4c0.9,4.1-2.2,8.5-5.5,10.7c0.2,5.1-4.3,5-7.9,3.1
		c-11-1.5-7.4-12.9-9.4-21c1.4-9.7,8.8-20.4,19.2-21.1C820.1,103.4,819.4,115.6,818.4,124.4"/>
	<path vector-effect="non-scaling-stroke" class="st1" d="M792.9,613.1c-58.9-14.8-25-84.5-29.7-126.1
		c-7.3-35.8-58.1-46.2-74.6-78.9c-14.4-17.6-20.9-36.4-19.1-58.6c3-12.7,16.6-19.3,27.2-23.4c18.5,2.9,34.4,14.1,51.9,18
		c33.4,6.7,51-27.9,70.5-47.9c14.2-17.8,19.6-20.5,41.7-23.4c7.3,4.9,15.4,10.5,22.5,15.6c21.8,28.7,27.3,66.3,24.1,101.1
		c-1.8,20.2-4.9,40.9,3.1,59.7c3.6,9.2,11.5,17.5,17.7,24.5c7.7,9.8,14,21.1,18.1,32.2c10.5,40.7-12.3,84.2-39.4,113
		c-7.4,4.1-15.8,7.1-23.7,8.9c-11.2-2-23.4-3.5-34-6.3C830.7,616.1,811.3,617.1,792.9,613.1"/>
	<path vector-effect="non-scaling-stroke" class="st1" d="M247,770.3c8.6-5.7,15.5-14.7,21.5-22.9c8.8-8.9,16.6-19.6,23.2-30.1
		c35.2-49.6,35.4-113.8,40.6-172.2c5.5-72.4,45.5-136.1-25.6-191.2c-9.1-6.4-12.1-19.1-16-29c-3.6-14.8-0.4-31.9,7.8-44.8
		c4.5-5.8,16.6-7.3,23.4-9c4.2,1.5,9.7,4.5,13.3,7.2c12.9,7.6,24.8,18.4,39.1,23.2c24.9,5.1,48.6-9.2,62.4-29.3
		c18.5-24.2,20.2-56.8,37.6-81.5c11.6-21.6,36.3-27.1,58.5-32.2c9.2-5,19.2-11.3,25.6-19.7c5.1-10.2,8.8-24.3,4.8-35.3
		c-3.4-10.5-12.4-22.2-24.5-21.7c-4.4-3-10.1-4.4-15-1.8c-4.5-1.7-10.4-2.1-15-0.4c-8.1-5-19.6-3.4-27.1-9.8
		c-23.5-17.1-49.7-41.8-81-30.8c-17.8,4.3-35.2,14-53.8,15.5c-29.5,3-57.4-9.9-85.5-16.5c-28.9-9.5-54.5,12.2-81.5,18.5
		c-24.6,5.7-51.1-3.6-75.6,1.1l0,0c-61.1,12.5-52.7,106.6-66.9,154c-23.7,81.5-33.2,128.1-4,210.6c8.5,22.3,18.4,44.4,29.7,64.8
		c13.6,24.3,27.9,49,30.5,76.7c1,38.3-12.1,77.3-1.1,114.7c10.6,36.9,32.6,75.9,64.4,97.3C185.2,790.2,221.9,790.1,247,770.3"/>
	<path vector-effect="non-scaling-stroke" class="st1" d="M817.5,588.8c15.6,0.6,33.1,7,49.2,6.5c8.9,0.6,19.3,0,26.8-5.6
		C907,580,918,565.3,921,548.3c4.1-12.2,4.2-18.6-1.1-30.5c-7.7-25.5-38.1-33.4-52.1-54.6c-9.6-9.5-1.6-27,1.2-38.3
		c19.1-29.4,28.2-70.8,10.8-102.8c-3-4.5-8.2-8.1-12.1-11.7c-3.9-3.3-7.7-8.2-13.1-4.7c-18.3,3.6-24.5,11-34.2,26.2
		c-15.6,18.7-26.4,41.4-34.6,63.9c-3.1,7.7,2.5,14.3,7.3,19.8c7.8,14.2,20.9,26.1,26.9,41.3c-3.6,6.4-2.7,14.8-6.1,21.1
		c-7.2,14-14.3,28.6-20.7,43.1C781.2,549.2,780.8,582.7,817.5,588.8"/>
	<path vector-effect="non-scaling-stroke" class="st0" d="M103.5,647.8c-3.1-26.7,4.7-54.3,3.7-81.1c-1-26.4-15.4-49.9-28.5-72
		c-15.7-26.6-29.9-54.8-39.6-84.2c-22.9-62-17.8-119,2.8-180.7c17.9-56.1,10.4-156.7,92.6-153.7c22.8,1.7,46.6,3.9,68.9-2.2
		c35.1-11.5,49.3-16.9,86.6-6c15.1,3.1,31,7.4,46.5,8c28.3,4.5,54.4-12.9,82.3-13.9c18.4,5.8,34.7,16.6,42.5,34.8
		c10.8,12.4,8.1,23.1,6.7,38.2c-19.5,31.7-24.1,70.3-36.4,105c-10,27.2-33.3,47-62.4,32.6c-15.6-9.6-29.6-23.2-47.5-28.8
		c-12.4,1.2-23.9,1.7-30.6,13.7c-22.3,25.9-26.5,68.9-6.9,97.7c24.4,38.7,50.1,49.3,44.8,101.2c-3.7,23.9-10.1,48.4-10.9,72.4
		c-1.9,47.5-1,96.6-20.3,140.7c-14.8,32.2-40.9,60.3-71.5,77.6c-45.6,31.2-87.5-3.2-107-46.1C111.2,684.8,105.1,666,103.5,647.8"/>
	<path vector-effect="non-scaling-stroke" class="st1" d="M189.9,736.4c34.3-1.8,66.1-30.7,86-57c32.3-45.9,30.4-105,26.9-158.5
		c0-72.9,22.1-80-25.8-148.8c-19.7-33.7-22.3-69.9-7.8-107.3c5.1-17.4,16.4-32,29.9-43.8c17.3-6.2,30.2-4.2,45.6,5.4
		c9.9,4.6,16.8,14.4,26.7,18.6c12.5,4.2,21.7,6.2,31.9-3.4c6.8-10.6,14.1-23,15.7-35.7c1.8-27.2,13.8-77.1-2.5-98.8
		c-18.2-8.9-39.7-2.2-59-4c-24.7-1.4-48.9-9.6-73.2-13.6c-30.1-6.8-60.1,6.3-89.9,5.3c-38-0.3-88.7-14.8-111.6,25
		c-19,32.5-21.8,71.9-31.8,107.3C40.1,267.3,27.5,308,33.1,349.7c5.7,42.1,20.9,82.4,41.6,119c15.6,29,39.3,55.5,45.5,87.8
		c4,33.4-8.3,66.9-0.6,99.5C126.4,691.1,149.9,735.7,189.9,736.4"/>
	<path vector-effect="non-scaling-stroke" class="st1" d="M164.2,708.2c-22.1-16.8-33.6-46.1-35.1-73.2
		c-1.4-37.6,15.6-80.5-9.9-113.4c-40.8-58.7-79.4-124.2-79.5-197.9c1.1-43.7,17.6-85.3,26.7-127.6c14.7-66.9,33.6-102.8,109.5-87.6
		c30,6.1,60.7,8.1,91.2,9c21.5,0.6,42.6,9.6,62.4,17.1c7.4,6.3,15,17.2,24.3,21.9c6.9,10.2,17.5,12.8,0.8,20.1
		c-40.7-6.4-75.3,19.4-86.4,58.6c-13.4,33.7-24.7,70.9-14.7,107c11.5,38.2,38.1,73.4,34.8,115c-2.2,20.5-5.2,42.5-1.5,63
		c7.7,44.3,13.7,92.9-8.8,134C257.7,692.5,208,735.4,164.2,708.2"/>
	<path vector-effect="non-scaling-stroke" class="st1" d="M278.4,615.3c-6,25.1-18.8,49.3-39.5,65.4c-15.5,13.7-36.4,22.6-57.2,18
		c-28.8-11-41.6-45.1-40.4-73.7c-0.4-20.9,5.9-42.2,6.8-62.4c-0.8-10.1-3.9-20.7-6.8-29.6c-8-9.6-14.7-21.5-22.1-30.8
		c-16.4-20-30.4-41.8-41.5-64.5c-41.2-85-34.4-133.7-8.8-220.3c18.7-89,44.5-121.4,137.3-87.1C239.8,142,272,154,262,196
		c-7.3,41.1-23,80.8-22.9,122.8c6.6,60.5,42,87.4,29.6,153.3c-4.5,25.6-1.6,52.4,7.1,76.6C281.2,570.5,282,593.2,278.4,615.3"/>
	<path vector-effect="non-scaling-stroke" class="st1" d="M190.7,682.5c19.7,3.1,39.9-8.2,52-23.3c14-13.5,21.4-32.4,24.7-51.3
		c6-35.1-12.9-62.5-18.1-95.2c1.6-57.3,21.1-69.1-2.8-133c-8.6-25.1-18.9-50.5-16.1-76.5c2.4-40.7,22.9-81.4,9.8-121.2
		c-17.9-41.7-104.7-75.4-136.1-34c-25.4,32.8-28.2,77.4-40.2,115.3c-24.4,82.6,8.8,171.2,62.3,233.7c19.1,22.9,37.5,35,36.9,66.8
		c-4.5,27.4-15.2,57.7-6.8,84.5C161.7,664.5,172.8,681.5,190.7,682.5"/>
	<path vector-effect="non-scaling-stroke" class="st0" d="M253,617.2c2.6-11.3,4.1-27.1,0.1-38.2c-5.9-13.4-14.2-26-20.9-38.9
		c-0.8-2.5-8.8-6.1-6.2-9c2.8-9,2.6-19.5,4.8-28.6c12.1-26.8,20.2-58.5,15.4-88c-3.9-32-22.4-60.4-25.8-92.5
		c-3.2-39.2,16-77.7,9.3-116.8c-6-40.9-51.4-67.4-90.6-64.8c-28.3,3.4-42.3,31.5-50.2,55.9l0,0C78,239.7,62.8,284.2,64,329.2
		c4.9,59.2,30.2,118.3,69.9,161.9c10.2,9.2,21.2,19.2,31,28c20,14,20.4,14.3,19.9,38.5c-8.5,27.8-24.8,58.2-13.8,86.9
		c4.9,8.7,10.9,21.6,22.3,20.1c14,6.8,26.4-5.1,37.4-11.8C241.6,643,245.7,629.1,253,617.2"/>
	<path vector-effect="non-scaling-stroke" class="st1" d="M104.3,433.6c-28.5-55.3-39.2-115.8-22.4-176.4
		c11.5-57.3,29.8-137.1,104.8-93.1c66.5,46.1,11.6,115,28.7,176.4c7.8,30.7,25.6,60.5,23.1,93.1c-2.7,27.1-14.5,67.6-44.3,74.6
		C152.3,506.6,123,467.6,104.3,433.6"/>
	<path vector-effect="non-scaling-stroke" class="st1" d="M194.2,640.7c-2.1-0.6-4.4-8-5.8-9.7c1.4-3.7-0.5-9.6-2.5-12.7
		c-1.1-8.2,4.7-15.4,8.4-22.2c8.6-16.2,12-22.4,31.1-15.9c5.5,2.9,11,7.4,6.9,14.1c4.4,4.2,4.3,13.1,3.4,18.7
		c-0.4,3.9-4,9.5-7.1,11.9c0.1,2.4-1.9,6-3.5,7.7C216.2,643.6,207.4,648.1,194.2,640.7"/>
	<path vector-effect="non-scaling-stroke" class="st1" d="M194.2,489.3c-16.7,6.3-35.2-3.8-47.6-14.8
		c-26.7-21.2-40.3-55.1-50.2-86.6C72.8,325.7,85.3,256.5,107.1,196c3.8-14,16.8-23.7,27.8-30.9c35.6-8.9,68.8,20.4,74.6,54
		c5,29.5-6.8,58.2-7.7,86.9c-3.1,28.7,13.1,55,20.9,81.3C235.5,420.9,231.7,474.3,194.2,489.3"/>
	<path vector-effect="non-scaling-stroke" class="st1" d="M219.6,430.5c-2.5,17.7-9.3,36.3-27.4,43c-17.9,8.9-37.4-4.1-50.4-16.2
		c-23.5-26.1-33-61.3-40.1-94.9c-12.7-51-5.8-105,10.3-154.4c5.7-10.4,12.5-21.2,22.5-28c18.8-6.8,40.9,0.3,52.2,16.8
		c18,24.4,13.6,56.3,7.4,84.1C175.7,349.9,224.4,370,219.6,430.5"/>
</g>
</svg>
