<?xml version="1.0" encoding="utf-8"?>
<!-- Generator: Adobe Illustrator 28.0.0, SVG Export Plug-In . SVG Version: 6.00 Build 0)  -->
<svg version="1.1" id="Layer_1" xmlns="http://www.w3.org/2000/svg" xmlns:xlink="http://www.w3.org/1999/xlink" x="0px" y="0px"
	 viewBox="0 0 521.2 424" style="enable-background:new 0 0 521.2 424;" xml:space="preserve">
<style type="text/css">
	.st0{fill:#411B15;stroke:#000000;stroke-miterlimit:10;}
	.st1{display:none;fill:#411B15;stroke:#000000;stroke-miterlimit:10;}
</style>
<g id="surface1237">
	<path vector-effect="non-scaling-stroke" class="st0" d="M238.2,165.1c-3.3-13.6,8.8-16,17.9-22.6c12.1-4.3,37.6,3.4,37.1,18.5
		c0.6,8.2-8.5,16.5-15.6,19.3c-4.9-4-9.7,2.8-13.8,3.9C253.5,182.2,244.6,173,238.2,165.1"/>
	<path vector-effect="non-scaling-stroke" class="st1" d="M1079.2,235.8c2.3,8.3,0.6,8.6-7.4,8.4c-3.5-3-6.4-10.2-11.7-9.5
		c-4.9-4.6-4.1-15.8-6.9-21.9c6.8,1.7,16,5.1,20.8,10.5C1078.9,222,1079.8,232.4,1079.2,235.8"/>
	<path vector-effect="non-scaling-stroke" class="st1" d="M564.1,304.6c16.3,17.9,21.6,14.9,16.8-8.9c-3.7-3.1-12-7.2-14.9-11.8
		c-1.7,2.1-7-9.1-7.8-9.5c-4-1.5-4.5,3.5-5.4,6.1c0,0,8.6,5.1,8.6,5.1C546.6,292.7,556.5,297.4,564.1,304.6"/>
	<path vector-effect="non-scaling-stroke" class="st1" d="M626.1,418.9c1.2,16.1,14.5,24.5,29.7,25.6c13.2,3.1,30.1-1.8,38.3-11.8
		c-3-15.3-11.5-31.3-28.8-32.6c-11-0.3-18.8-3.2-30,2.7C632.4,408.4,622.2,411.6,626.1,418.9"/>
	<path vector-effect="non-scaling-stroke" class="st0" d="M364.1,421.3c18.7,4.5,45.3,1.9,54.4-17.5c4.5-4.8,7.9-13.2,10.4-19.2
		c0.4-5.1,1.4-11.8,4.6-15.9c10.5-8,21.9-16.2,28.8-27.8c-1.6-9.1-3-19.6-2.2-28.9c0.9-28.4,20.9-21.6,27.3-49.5
		c8.8-22.6-10.3-24-5.2-51.1c4.4-4.9,10.9-10.3,17.7-11c2.1-2.1,6.6-5.9,9.1-7.5c5.4-2.5,6.2-10.8,10.7-14.3c1.6-10.7,2.4-23-4.6-32
		c-5.7-11.6-14.9-22.2-26.7-27.7c-3.7-4-5.5-9.8-11.9-10.7c-4.9-6.3,3.6-16.4,6.9-21.3c0.7-5.2,7.4-7.6,10.6-11.2
		c7.7-14.6,9-34.8-10.8-39.7c-13.3-5.6-28.2-3.8-41.5,0.7c-12.8,6.4-24.8,16.1-39.8,16.1c-89.4,1.2-48.5-19.9-97.5-35.6
		c-17.6,0.2-35.3,4.8-52.8,4.6c-18.5,0.1-35.3-10.6-52.7-15.5c-7.6-3-17.1-1.6-24.3-5.8c-4.4,2.4-11.4,1.9-16.2,2.5
		c-24.3,1.9-47.7,11.9-71.6,15.6c-28.2,5-68.3,9.7-72.6,44.6C12.8,82.1,0,99.9,1,118.8c8.7,13,15,27.7,19.5,42.6
		C24.7,172,34,182,37.8,192.7c6.3,15.4,5.1,33.5,13.3,48.3c15.5,34.2,58.8,33.2,86,53.5c12,10.8,25.4,20.9,40.1,27.6
		c7.7,7.5,24.4,11.5,26.5,22.6c-1.1,11.1-2.2,24.1,6,33c25.1,36.1,72.7,32.1,111.4,31.9C335.9,407.4,349.8,418.4,364.1,421.3"/>
	<path vector-effect="non-scaling-stroke" class="st1" d="M239.9,379.2c-15.7-12.2-9.8-22.1-5.5-38.3c-3.5-11.5-10.3-20.8-22.3-23.7
		c-37.3-13.5-34.1-14.8-60.8-41c-20.9-8.1-46.3-9.3-65.7-22c-24.8-16.6-19.4-34.1-26.7-58.4c-3-15.8-17.5-27.7-17.5-44.2
		C39,136,46.9,119.8,45,104.5c-3.6-22.4-11.8-43,9.6-59.7c21.9-10.3,47.6-10.6,70.6-17.5c21-6.7,44.2-12.8,65.8-5.1
		c8.9,2.2,17.1,8.7,25.9,11.7c22.7,7.8,47.5,3.9,70.5,9.7c16.9,3.6,33.3,11.3,49.7,17.1c13.8,4.4,29.7,5.9,44,7.9
		c16.9,3.2,35.6,6.6,45.3,22.5c4.4,9.4,8.7,21.6,17.5,27.6c12.1,7,27.7,10.3,38,20.3c24,23.1,10.7,42-17,51.3
		c-11.2,6.1-35,9.3-17.5,24.6c4.5,4.6,8.5,10.6,11.4,16.2c3.7,5.1,9,12.7,9.7,18.8c-2.8,25.3-21.6,34.9-33.9,53.5
		c-7.2,20.1-25.6,31.9-46.1,34.6c-13.5,3-26.9,10.4-37.5,18.4c-8.7,8.8-16.4,18.9-26.5,25.2C298.5,396.2,263.5,398.7,239.9,379.2"/>
	<path vector-effect="non-scaling-stroke" class="st1" d="M236.8,307.3c5.8,3.4,14.3,2.6,19.2,8.2c4.8-0.3,8.3,4.1,11.5,6.9
		c-0.5,0.4-3.6,8.1-3.9,8.6c-1.2,9.4-6.6,19.6-9.6,28.5c1.1,3.4,6.4,8.6,7.5,12.5c22.8,6.5,28.1,6.3,49.7-5.3
		c7.4-8.1,15.9-18.2,23.9-25.7c2.7-4.2,8.2-11.6,13.4-12.7c16.4-9.4,37.3-9.8,53.9-19.1c20.8-17,48.9-31.7,53-61
		c-9.2-14.3-22.9-26.3-36-37c-0.6-4.4,2.2-16.7,6.9-18.5c7.7-5.8,15.9-13.1,24.8-17.1c7.8-4.4,20.9-10.4,17.1-21
		C456.6,143,441.6,135,428,126.3c-30.4-18.9-11.5-41-61.1-48c-70.7-9.1-69.6-35.1-152.1-24.1c-10.8,0.2-17.9-1-24.5-10
		c-16.1-6.3-34.3-8.1-51.2-3.9c-18.4,2.8-74.5,10-72.3,34.4c5.5,13.6,4.5,29.8-0.8,43.4c-6.7,10.9-9,24.4-9.3,37.1
		c2,13.4,13.8,23.5,16,36.8c5.8,18.9,1.7,39.4,20.9,51.2c15.4,11.8,37.1,13.3,55.9,14.4c6.5,1.6,15.2-0.1,21.2,3.7
		c6.8-0.1,11,5.8,15.6,9.9c11.7,20.4,13,25.3,37.1,31.7L236.8,307.3"/>
	<path vector-effect="non-scaling-stroke" class="st1" d="M239.9,274c-4.2-22.2-10.2-26.9-32.4-30.5c-34.7-7.6-72.8,13.6-105.5-6.7
		c-7.6-4.6-10.5-14-10.8-22.4c-2-13.6-4.3-29.4-13.7-40c-14.3-15.8-9.1-40.8,3.9-55.4c3.7-6.4,8.3-13.5,11.2-19.7
		c5.7-4.4,13.4-11.5,17.8-16.9c12.7-5.7,19.1-2.8,31.5,0.3c13.6,2.5,28.6,3.8,41.1,1.6c15.6-2.5,30.8-10,44.5-16.3
		c43.4-16.7,81.3,11.6,122.8,17.9c38.3,4.6,34.4,20.8,59.6,42.8c7.5,7.5,16.9,15.6,24.5,22.7c10.4,7.1-0.9,17.8-8.2,22
		c-7.5,5.7-14.3,13.1-20.7,19.6c-2.1,2.6-8,7.1-10,9.3c1.2,4.8,1.5,11,6.3,13c13.3,11.3,29.8,19.4,40,33.2
		c-3.6,29.7-35.6,46.9-63,44.5c-14.1,0.4-23.8-11.2-34-19.2c-10-10.4-23.5-16.4-36.5-20.5c-6.8-0.3-15.8-0.9-20.3,4.3
		c-2.3-0.4-8.7-0.6-10.1,0.3c-6.4,5.3-9.1,17.8-16.1,20.4C254.7,279.2,245.1,278.6,239.9,274"/>
	<path vector-effect="non-scaling-stroke" class="st1" d="M369.8,274.4c-44.2-39-34.5-42.3-97.4-36.3c-28.6,3.9-55.2-13.3-83.8-11.2
		c-24.8,3.7-52.3,16.1-76.1,3c-6.2-8.2-6.3-19.5-9.7-28.9c-1.8-5.3-3.4-12-4.9-17.4c-7.7-8-16-16.8-18.5-27.9
		c-0.2-14,4.9-27.5,15.4-37c11.4-16.5,31.3-23.9,50.9-22.4c18.7-1.2,36.3-0.2,54.6-4.1c18.3-6.5,36-19.3,55.9-19.8
		c25.4-1.9,48.9,10.7,72.3,18c33.5,6.4,51.3,23.5,74.1,47c13.3,15,21.8,20,4.5,36.9c-6.6,6.7-13.6,13.6-19.8,19.9
		c-6.5,5-10.8,9.1-11,17.1c10,20.2,35.9,20.6,50.5,34.6c7.1,6.9-3.9,18.9-8.2,23.9C404.6,281.1,384.7,284.2,369.8,274.4"/>
	<path vector-effect="non-scaling-stroke" class="st0" d="M369.8,195.1c-28.5,21.9-13,27.4-56.8,29.4c-31.7,3.1-64.9,6-95.8-3.8
		c-14.8-2.8-30.6-7.4-45.8-5.2c-5.6-0.7-13.6,1-18.8,2.9c-8.1-1.2-16.9-1.4-23.4-7c-7.7-4.3-10.8-26.3-19.2-30.4
		c-8.7-6-17.5-14.4-20.1-25c0.7-13,1.4-22.3,12-31.4c24.2-26.1,60.3-19.2,92.1-24.1c33.1-4.9,50.8-25.4,86.2-17.6
		c46,12.9,93.5,32.3,121.7,72.9C397.5,172.5,382,183.8,369.8,195.1"/>
	<path vector-effect="non-scaling-stroke" class="st1" d="M367.1,245.3c11.3-6.3,26.3-5.2,38-0.1c8.1,2.8,6.7,4.2,4.5,11.5
		c-2.4,1.3-8.6,4.7-9.8,7.3c-2.6-0.3-12.6,1.2-13.8-2.3C377.7,264.3,365,253.1,367.1,245.3"/>
	<path vector-effect="non-scaling-stroke" class="st1" d="M174.9,201.3c-13.7-2.6-28.9-4.6-38.8-15.7c-8.4-5-18.8-9-26.2-16
		c-11.9-6.8-10.4-21.4-8.1-32.8c17.7-21.7,46.4-27.5,73.1-27.5c15.1-1.7,30.7-3.7,45.1-8.8c18.7-6.7,38.9-14,58.9-9.3
		c36.7,8,72.9,27.5,99,54.5c10.5,11.1,11.8,15.6,0,27c-13.9,15.6-31.1,29.9-50.1,38.6c-22.5,8-48,11.3-72,9.9
		C227.9,219.7,202.1,206.5,174.9,201.3"/>
	<path vector-effect="non-scaling-stroke" class="st1" d="M207.4,201.9c-26.6-11.3-54.2-20.5-81.2-30.9
		c-5.5-3.3-14.4-10.2-14.5-17.1c0.8-8.5,0.1-18.6,9-22.9c20-14.3,47.3-13.9,70.5-17c39.7-7.8,69.5-29.1,110.3-10
		c26.6,11.9,51.1,29.4,69.8,51.4c0.3,7.7-5,13.6-9.7,18.6c-11.3,15.5-28.3,24.7-44.6,32.6C278,220.2,244.3,217.8,207.4,201.9"/>
	<path vector-effect="non-scaling-stroke" class="st1" d="M207.4,194.5c-13.1-6.7-26.3-14.4-40.6-18.6c-13.5-5-38-6.8-42.5-22.4
		c0.6-0.8,0.4-17.1,2-16.8c13.5-7,29-11.5,44.2-12.7c20.9-1.8,42.1-6.6,61.6-14.4c45.1-19.8,94.4,8.5,121.8,44.7
		c5.3,7.4-3.9,17-8.1,23.3c-7.3,11.4-20.7,17.8-32.6,23.4C278.5,217.2,240.5,211.5,207.4,194.5"/>
	<path vector-effect="non-scaling-stroke" class="st0" d="M239.9,202.1c-13.3-4.5-26.4-11.1-38.3-18.4c-5.2-4.8-11.9-8.9-18.6-11.1
		c-13.2-5.4-28.7-7.1-39.9-16.7c0.8-3.3,2.1-15.4,2.9-18.6c15.9-5.4,33.8-5.5,50.1-9.2c14.7-3.2,29.6-9.4,43.6-14.6
		c21.3-7,44.6-5.1,63.8,6.8c11.9,6.6,22.6,15.4,30.5,26.4c9.3,8.5,10.2,16.8,2,26.7C317.5,203.7,271.6,210.7,239.9,202.1"/>
	<path vector-effect="non-scaling-stroke" class="st1" d="M239.9,197.2c-16.9-5.3-30.2-17.6-43.6-28.6c-6.5-3.8-14.9-9.1-21.1-12.8
		c3.2-6,10.3-15.1,16.2-18.5c30-6.2,57.9-27.8,89.6-20.2c21.1,6.3,50,23.8,48.8,48.4c-5.5,13.4-12.1,22.6-26.2,27.6
		C283.8,202.6,260.8,203.5,239.9,197.2"/>
	<path vector-effect="non-scaling-stroke" class="st1" d="M272.4,196.5c-18,0.7-40.5-2.7-52.5-17.4c-6.2-7.8-14.9-13.6-18.7-23
		c9.8-21.3,34-28.5,55.1-33.7c26.7-4.2,52,10.7,64.7,33.9C320.9,182.8,296.5,196.1,272.4,196.5"/>
	<path vector-effect="non-scaling-stroke" class="st1" d="M265.2,127c12.6,1.5,27.6,4.3,35.5,15c5,6.5,12.5,13,10.6,21.4
		c-5.8,19.8-21.1,28-39.8,28.6c-18.4,0.9-39.5-3.1-48.1-20.3c-11.2-12.2-5.9-20.2,3.1-30.7C236.5,131.5,252,128.5,265.2,127"/>
	<path vector-effect="non-scaling-stroke" class="st1" d="M302.3,158.7c-1.4,14.1-13.7,33.1-29.9,26.4c-7.8,6.9-20.1,0.7-28.9-1.5
		c-6.5-5.9-14.3-14.3-15.7-23.2c-2.1-7.7,7.7-13.9,12.1-19.2c11.3-8.8,27.2-8.7,40.6-5.6C287.1,136.7,302.6,152.3,302.3,158.7"/>
</g>
</svg>
