<?xml version="1.0" encoding="utf-8"?>
<!-- Generator: Adobe Illustrator 28.0.0, SVG Export Plug-In . SVG Version: 6.00 Build 0)  -->
<svg version="1.1" id="Layer_1" xmlns="http://www.w3.org/2000/svg" xmlns:xlink="http://www.w3.org/1999/xlink" x="0px" y="0px"
	 viewBox="0 0 658.8 360.3" style="enable-background:new 0 0 658.8 360.3;" xml:space="preserve">
<style type="text/css">
	.st0{fill:#F078A0;stroke:#000000;stroke-miterlimit:10;}
	.st1{display:none;fill:#F078A0;stroke:#000000;stroke-miterlimit:10;}
</style>
<g id="surface1282">
	<path vector-effect="non-scaling-stroke" class="st0" d="M583.6,165.1c-23.9,7-32.3-7.1-40.4-26.9c0.5-10.7-1.4-22.7,4-31.9
		c4.4-9.2,7.9-20.8,17.2-25.3c5.2-4.3,13.3-0.9,19-1.4c8.5,7.6,10.6,19.1,12.9,29.4c1.7,12.2,2.6,27.3-1.7,38.7
		c-2.2,2.1-3.6,7.6-4,9.9C589.5,158.9,583.5,163.9,583.6,165.1"/>
	<path vector-effect="non-scaling-stroke" class="st1" d="M736.3,540.9c-19.3-6.7-25.3-20-28.7-39c0.3-21,8.7-35.3,29.3-41.7
		c24.6,0.1,39.9,27.8,33.7,50.2C769.3,528.9,754.3,541,736.3,540.9"/>
	<path vector-effect="non-scaling-stroke" class="st1" d="M610.2,677.8c30.9-6.8,34-45.6,25.2-70.7c-2.9-13.7-11.8-26.4-13-40.4
		c2.8-6,5.3-13.6,7-19.9c7.5-11.9,16.4-25.1,20.5-38.3c6.9-10.9,11.7-25.2,13.3-38.4c4.4-32.4-2-66.8,11.2-97.7
		c2.2-7.4,10.5-13.5,15.2-19.3c6-7.8,15.6-15.5,23.6-21.2c16.6-14.8,35-29,54-40.5c24.2-10.5,51.5,0,76.3-6.1
		c20.6-4.7,38.3-18.8,58.7-24.5c22.7-5.6,47-11.5,63.3-29.5c36.3-40.3,31.7-117-21.1-141.2c-15.8-7.3-33.3-11.9-49-19.4
		c-28.9-18.7-59.6-35.2-89.3-52.4c-24.8-17.4-59-17.9-79.6-41.5c-7.4-14-9.7-31.7-5.1-46.9c7.9-13,18.8-24.7,27.1-37.2
		c11-22.4,14.5-47.9,19.5-72.1c5.1-27.8,14.3-57.6,4.8-85.4c-3-14.9-20.1-27.2-35-26.4c-17.4,5.4-25.9,19.7-30.9,36.3
		c-7.2,27-13,54.8-19.7,82c-5.1,17.2-5.6,37.6-16.9,52.2c-18.3,15.3-44.6,5.6-66.4,8.7c-26.9,0.2-53,11.9-80,10.2
		c-15.6-2.7-29-12.5-39.7-23.8c-7.7-5.3-14.4-12.9-20.1-20.2c-7.4-6.7-15.4-13.4-21.9-21c-43.2-35.2-51.6-26.1-100.9-18.5
		c-5.9-1.1-13.7-7-18.6-10.4c-5.4-4.7-9.8-12.4-14.3-17.8c-15.3-18.6-29.2-39.7-49.6-53.3c-17.2-12.7-40.7-9.6-57.3,2.6
		c-12.3,9-12.6,13.8-29.2,15.3c-1.2,1.1-4.5,1.2-4.2-1.2c-6.6-0.4-14.9-5.5-20.1-9.4c-19.4-13.1-38.8-10.6-53,8.9
		c-11.7,26.6-3.2,64.5,30,67.9c15.4-1.1,28.3-13.3,43.5-11.9c21.7,16.6,23,45.3,23.8,70.5c0.8,31.5-2.2,64.3-17,92.6
		c-5.1,10.7-10.1,23.3-20,30.5c-13.6,14.6-35.5,14.8-50.7,27.2c-21.1,15.3-30.7,42-50.8,58.5C37.9,99.1,18.5,111.1,0,122
		c-17.2,13.1-37.8,21.4-57.7,29.6l0,0c-32,16.9-40.7,58.6-25.9,89.7c10.9,23.8,27.8,44.2,41.3,66.1c36,49.4,55.9,54.5,114.8,50.8
		c23,4.4,28.6,29.3,38.3,46.7c17.4,36.3,56.1,62,89.5,28.5c8.9-7.4,17.1-17.4,23.1-26.8c5.3-8.3,9.3-17.9,17.3-23.2
		c7.2-6.3,14.1-15.1,22.8-6.7c10.4,4.3,17.2,13,22.2,22.5c5.7,7.4,11,16,16,23.5c18.1,30,37.3,59.5,58,87.3
		c21.2,26.9,56.5,52,91,37.3c17.9-4,33.5-19.4,52.4-15.9c18.1,6,34.7,15.8,50.6,25.1c15.9,9.2,26.6,13.8,26.6,34.4
		C578,621.8,568.3,671,610.2,677.8"/>
	<path vector-effect="non-scaling-stroke" class="st1" d="M400.3,515.3c-23.3-13.8-39.1-37.6-53.4-60.1
		c-15.1-23.1-30.2-46.8-43.7-70.9c-7.4-14.2-17-28.5-25-42.2c-6.3-7.3-15.3-11.8-23-16.5c-22.1,8.7-30.7,31.5-42,50
		c-10.3,13.2-18.8,31.3-35.7,35.5c-12.1,6.2-22.2,1.4-32.4-5.4c-17.3-12.5-22.1-35.9-31.4-53.7c-7.4-16.6-14.8-29.4-34.6-27.5
		c-22.2,3.3-45,10.8-66.2,0.5c-27.5-13.4-41.2-43.3-51.1-70.1c-13.8-36.1-6.1-60,23.7-83.4c19.1-19.2,40.4-37,63.5-50.4
		c20.6-10,38.3-28.8,61.2-30c22.2-8.5,37.7,43.8,48.9,57.8c3.2,10.6,13.2,16.2,22.2,20.7c5.6,4.9,11.8-0.1,17.4-1.9
		c25-10.5,34.2-41.8,37.6-66.4c2.8-14.2,5.4-29.3,5.7-43.3c1.1-9.7-0.5-18.1-9.4-23.1c-19.7-15.2-20.9-32-18.5-54.7
		c3-18.9,4.4-39.9,4.9-58.1c1.4-27,1.5-53.2,2.7-79.1c1.1-18.3,0.3-37.8,9-53.7c3.5-7.7,17.7-7.8,24.7-7.1
		c14.2,9.5,27.6,21.7,35.5,36.5c6.9,11.2,13.3,23,18.4,34.4c3.9,6.4,5.9,15.2,13.2,18.1c5.1,0.8,11.8-1.7,16.9-2
		c5.6-2.3,12.5-8.6,17-12c18.9-14.7,45.9-19.5,66-6.4c35.9,17.7,65,75.5,104.8,75.8C548.6-74.7,567.9-85,588-87
		c35.9-4.7,76.9,3.4,94.3,37.3c8.1,12.4,9.6,29,16.7,40.5c-0.9,9.8,6.6,17.2,10.8,24.1c5.8,9.5,14.9,13.9,25,13.8
		c19.6,2.5,39.9,6.1,56.1,16.2C817.4,62,842,80,867.4,97.2c10.3,7.7,22.5,14.1,33.7,18.3c18.3,4.7,38.6,7.9,50,23.1
		c8.2,14,11.1,30.5,7.1,46c-4.3,9-8.7,20.9-16.7,25.8c-11.3,6.3-24.8,10.7-36.3,12.1c-11.5,2.3-21.4,9.3-30.6,13.7
		c-47.6,38-64.3,7.8-107.9,25.6c-15.6,8.4-28.1,18.8-40.8,28.4c-16.9,12.6-33.4,24.7-48.6,37.6c-31.2,23.6-37.4,63.5-39.8,99.1
		c-2.6,51.2-26.8,110.6-86.9,86.4c-22-6.5-34.5-33.8-58.8-26.7c-4.1,2.8-11.4,7.7-15.3,9.5c-6.8,6.7-13.5,12.7-20.6,17.3
		C437.7,524.3,418.7,525.4,400.3,515.3"/>
	<path vector-effect="non-scaling-stroke" class="st1" d="M400.3,492.6c-17.8-11.2-29.3-29.5-41.4-46.2
		c-14.3-21.7-28.3-44-40.2-67.2c-16.3-25.4-36.3-95.3-70.8-92.9c-14.4,9.9-21.4,24.1-28.4,39.5c-8.4,16.1-17.2,32.6-28.3,47
		c-5.4,8.9-17.5,10.9-26.8,14c-5.5-1.8-11.5-7.9-16.1-11.5c-24.3-20.8-13.9-74.9-53.4-77.9c-24.9,4.1-51.8,20.2-76.3,6.8
		c-28.8-13.3-41.3-59.5-30.4-87.8c12-39.6,48.6-67.9,84.7-85.1c29.1-11.9,45.8-4.7,62.5,20.9c5.7,9.6,12,19.7,17.7,29.4
		c4.8,7.7,8.5,18.5,18.2,20.9c5.2,1.5,11.3,4.4,16.7,4.5c17.5-3.9,37.4-9.6,47-25.9c17.4-32,18.3-69.8,34.7-101.9
		c10.2-20.4,21.6-41.5,26.8-63.5c1-5.8,3.3-12.8,4-18.1c-1.3-4.5,1.1-10.3,2.3-14c1.6-14.5,4.6-28.3,12.4-40.3
		c1-5.4,6.4-9.4,9.2-13.2c3.4-6.8,9.9-13.2,15.3-17.8c6.6-7.8,13.8-16.2,21.1-23c39.4-38.9,71.3-12.1,103,19.8
		c36.7,37.3,45.3,52.3,97,28.8c32.1-13,73.5-13,98.4,13.9c15.7,18.6,21.4,43.5,27.4,66.3c7.2,23.9,5.9,33.2,32.4,38.2
		c51.6-0.4,66.7,11.4,102,47.3c18.3,19.5,45.3,35.4,53.4,61.7c2.9,11.8-1.9,23.6-7.8,33.8c-5.6,12.9-20.2,21.7-31.8,28
		c-20.6,5.2-44.2-2.6-62.9,9.4c-15.8,7.1-29.7,19.4-43.3,29.2c-22.3,16.2-44.3,32.5-65.2,49.6c-23.8,19.1-37.6,48.3-43.5,77.4
		c-7.1,30.7-4.6,72.5-36.1,88.8c-27.4,9.5-44.2-17.4-59.5-35c-5.3-5.2-15.3-4.7-22-4.5c-3.7-1.2-7.7,4.8-10.2,6
		c-15.7,12.6-25.5,30.7-41,42.6c-6.4,4-13.5,7.4-20.1,10.4C420.7,499.5,408.9,498.7,400.3,492.6"/>
	<path vector-effect="non-scaling-stroke" class="st0" d="M149.2,331.8c13.1,26.5,10.3,26.7,37.4,15.5c11.5-20.3,22.9-42,26.8-65
		c2.9-7.6,2.8-18.3,1-25.9c-0.3-8.3-7.5-12.7-15.2-13.3c-11.6-4.2-24.6-1.8-36.6-3.2c-12.2-7.3-17.3-22.1-21.1-35.1
		c-5.7-15.9-11.3-32.6-22.8-45.4c-22.8-23.7-56.9-7.7-77.3,11.4c-26,21.8-46.6,59.4-33.2,93.2c3,11.1,13.1,19.4,23.2,24
		c6.3,1.6,15,1.1,21.4,1.2c17.2-4.6,34.1-12.7,51.5-16.4c15.2-2.9,26.2-3.1,32.2,13.4C141.9,300.4,141,318.8,149.2,331.8"/>
	<path vector-effect="non-scaling-stroke" class="st1" d="M393.4,466.6c-43.6-44.7-69.1-104.3-91.1-161.9
		c-7.6-17.8-16.8-35.3-24.1-53.2c-12.4-17-17.7-39-15.8-59.9c1.2-31.1,4.7-63.3,16.8-92.2c10.9-26.2,27-50.4,32.4-78.7
		c7.9-32.8,15-67.1,38.1-93.1c9.4-13,21.8-24.2,34.8-33.4c19.5-6.3,26.5-4.2,44.6,4c19.5,13.2,34.9,32,51.4,48.6
		c8.3,7.2,14.8,18.5,26.2,20.6c10.3,5.3,20.4,0.2,30.1-3.6c19.6-8.6,39.3-21.3,61.5-20.8c33.4-3,61.2,23.6,68.5,54.9
		c6.4,22.2,3.8,47.7,18.4,66.8c29,38.9,81.5-27.3,125.9,87.7c5.4,8.1,5.2,19.3,3.4,28.5c-2.1,0.3-5.6,5.9-6.5,7.7
		c-5,4.3-12.2,8-18,11.1c-3,0.7-5.9,3.2-7.4,5.8c-4.9,3.1-11.4,8.2-16.6,11.1c-34.4,29.3-72.9,53.6-107.7,82.5
		c-23.9,18.3-37.3,40.9-51,66.9c-2.8,9.3-9,17.8-12.4,26.8c-5.5,13.1-14.8,32.4-31.2,30.9c-43.3-22.4-67-16.9-95.5,22.7
		c-9.5,14.3-22,26.6-37.2,34.8C413.3,479.6,406.9,479.4,393.4,466.6"/>
	<path vector-effect="non-scaling-stroke" class="st1" d="M27.2,251.3c7.8,14.4,26.9,17.5,41,11c18.6-5.2,38.8-13.6,49.6-30.5
		c9.7-20.6,2.5-48.3-16.1-61c-16-9.6-34,1-47.6,9.6c-7.6,7.1-13.2,16.8-20.2,24.5c-1.9,5.7-5.4,14.6-7.6,20.2
		C25.7,233.4,25.4,243.1,27.2,251.3"/>
	<path vector-effect="non-scaling-stroke" class="st1" d="M430.9,461.3c-36.1,3.2-53.6-34-71.1-59.8
		c-32.2-49.2-40.1-108.3-58.3-163.1c-17-40.5-26.4-86.6-10.3-128.9c7.3-18.4,18.4-35.4,25-54.1c13.7-40.2,15.9-86.1,45.7-119.2
		c14.4-16.6,23.5-24.6,45.7-28.1c20.3,5,33.2,14.6,47.4,29.4c10.4,10.4,18.7,23.3,29.1,33.7c5.6,5.7,10.9,14.7,19.1,16.6
		c10.2,3.2,21,0,29.4-5.8c14.7-7.8,28.4-18.3,44.8-22.6c19.7-7.2,44.4-3.6,59.9,11c32.6,29.9,17,86.2,41.2,114.8
		c15.9,16.6,40.7,11.7,61,16.7c36.9,8.3,50.6,60.5,26.5,88.1c-17.7,26-44.8,43.3-70.2,61.1c-28.8,23.1-60.8,44.5-82.3,75.1
		c-11.8,15.8-21.5,34.5-35.6,48.2c-33.8,25.6-61.6-0.5-101.4,39.2C462.6,431.1,449.8,449.2,430.9,461.3"/>
	<path vector-effect="non-scaling-stroke" class="st1" d="M366.9,175.9c19.9-7.3-0.7,7.9-6.7,10.9C361.3,184.2,364,177,366.9,175.9"
		/>
	<path vector-effect="non-scaling-stroke" class="st0" d="M57.1,225.3c0.8-2.2,3.3-7.4,4.1-9.5c0.5-3.1,0.1-9.1,2.6-11.2
		c3.9-3.7,10.4-8.3,15.9-8.9c5.3,2.4,16,2.6,17.5,9.4c0,7.8-7.2,13.4-10.3,20.1C79.5,233.4,64.6,233.1,57.1,225.3"/>
	<path vector-effect="non-scaling-stroke" class="st1" d="M400.3,433.1L400.3,433.1c-52.3-50-75.3-129-59.3-199.2
		c3-5.9,1.1-14.1,3.5-19.9c-1.8-3.9-3.2-7.3,1.4-8.8c-7.3-2-16.6-3.8-23-6.7c-6.8-7.7-13.6-17-16.9-26.8c-2.6-6.2-5.4-13.9-3.4-20.2
		c-3-9.1-1-18.7,2.7-26.8c4.2-20.6,18.1-38.1,23.5-57.9c10.5-37,10.6-77.4,33.3-109.9c11.3-15.8,26.3-29.5,45.7-33
		c10.1,3.4,21.6,5.1,28.8,12.9c23.3,18.2,36.3,44.9,55,67c4.3,4.6,9.3,7.8,15.2,5.2c9.2-0.7,17.6-4.9,23.8-11.2
		c14.6-9.9,28.9-21.7,45.6-27c29.4-12,61.3,4.6,69.6,34.3C656,37.8,653,75,674.6,102.8c8.5,4.2,17.9,10.5,26.7,11.7
		c12.4,1.6,24.7,3.8,35.4,9.3c19.9,9.8,22,35.6,14.8,54.1c-3.4,10.5-12.8,18.9-19,27.1c-17,15.1-36.4,26.1-53.3,40
		c-21,19-43.9,36-62.8,56.2c-21.7,24.1-36.1,57.4-69,66.6c-15.6,4.9-32.8,6.5-47.6,12.1c-11.7,6.3-22.1,14.6-30.6,23.7
		c-7.9,8.7-14.4,18.6-23,25.3c-5.3,4.5-10.5,9.6-15.2,13.2C419.5,441.4,407.5,443,400.3,433.1"/>
	<path vector-effect="non-scaling-stroke" class="st1" d="M400.2,413c-37.7-36.8-60.2-99.4-36-149.1c8.2-17.1,21.6-31.5,28.7-49.1
		c13.7-35.7,24.2-82.6-7.7-111.8c-14.1-4.7-30.7-12.5-34.9-27.9c-1.4-19-2.2-38.6,1.5-57.5c5.1-43,45.2-103.5,89.1-60.1
		c12,11.8,21.9,25.7,29.2,40.8c15,34.8,31.5,45.2,60.5,15.7c14.9-12.4,29.6-26.4,48.1-32c23.7-9.6,52.1,5.1,58.8,29
		c11.8,30.5,6.7,66.2,25.4,93.6c4.5,6.2,8.4,14.4,14.2,18.7c8.1,3.6,16.3,8.1,24.4,10.7c6,1.7,12.9,2.6,17.8,5.9
		c23.1,17.5,12.6,43.8-6,59c-7.2,8-17.6,13.4-24.7,19.8c-13.1,10.5-24.5,22.2-36.3,33.2c-17.8,16.5-38.9,31.8-53.4,51
		c-42.3,58.1-46.3,43.9-105.5,64.5c-24.8,12.3-39.5,37.5-61.2,53.4c-3.8,2.7-14.2-0.1-18,0.3C407.6,421.4,404.3,416.6,400.2,413"/>
	<path vector-effect="non-scaling-stroke" class="st1" d="M395.6,386.2c-20.6-24.6-30.5-61-20.2-92c5-17.7,19.5-30,28-45.8
		c14.6-32.3,21.9-88.3,15.5-123.2c-3.6-35.8-41.9-46.7-52.6-77.3c-4.7-22.1-0.8-44.9,10.6-64.1c4.9-13.2,17.8-19.4,29.5-24.8
		c7.8-1,15.8,4.9,23,6.7c6.8,4.5,12.1,12.3,16.8,18.8c13.3,16.6,17.8,38.3,26.6,57c3.9,11.6,19.1,18.6,29.4,12.2
		C519.2,41.8,532,26,547.4,12.8c25.2-24.9,66-33.3,82.4,5.3c11.3,30,11.4,64.3,23.8,93.7c6,12.1,15.6,21.7,21.9,33.2
		c8.2,7.1,22.7,12.1,20.7,24.9c1.5,8.7-1.7,16.7-8,22c-5.4,6.8-11.2,14.2-16.8,20.2c-20.7,27.1-48.6,46.8-72.2,70.6
		c-19,21.2-33.9,49.3-62.5,57.8c-17.3,5.8-36.3,5.5-52.3,13.4c-12.4,6-22,17.1-30.6,27.1c-7.3,7.2-15.8,13.4-22.9,20.1
		C411.3,400.4,408.6,402.1,395.6,386.2"/>
	<path vector-effect="non-scaling-stroke" class="st1" d="M399.9,359.3c-6.9-12.4-9.3-26.5-7.7-40.6c3.4-5.4,6.8-12.2,10.6-17.3
		c3.1-1,6.4-3.6,7.6-6.7c11.2-3.3,24.5-4.4,35.4-8.6c15.3-10.9,3.7-19.6,2-33.9c-17.2-30.6-12.8-66.9-11-100.5
		c2.2-26.7-0.2-49.6-15.9-72c-13.8-14.9-34.8-27.3-38.9-48.6c-4.7-25.7,5.5-38.8,25.6-53.1c17.2,6.2,27.9,11.7,34,30
		c10.5,19.9,10.9,43.4,20.5,63.3c3.4,5.2,9.4,12.2,16.1,11.7c8.3-3.2,19.9-3.2,24.7-11.8c19-19.5,35.9-41.7,57.5-58.7
		C582-2,608.2-2.8,620.5,23.5c13.1,29.9,14.2,63.9,25.5,94.5c5.8,23,27,44.2,18.4,69.1c-6.9,16.6-17.4,31.7-29.8,44.7
		c-13.5,13.8-30.3,24.2-43.8,37.9c-29.4,32.2-37,60.8-88,59.5c-8.6,0-18.1-0.2-26.6,0.2c-14,6.8-23.9,21.7-33.5,33.8
		c-2.6,4.4-9.1,8.3-12.3,12.3c-2.4-0.3-7.4-0.7-9.9-1C409.5,374.4,402.9,370.2,399.9,359.3"/>
	<path vector-effect="non-scaling-stroke" class="st0" d="M516.6,307.2c7.6,1.6,17.3-2.5,24.1-5.7c7.6-5.7,13.6-13.8,19.9-20.9
		c9.9-13.5,21.1-26.5,35.4-35.5c46.6-29.8,64.4-63.4,44.5-117.2c-7.3-25.3-12-51.7-18.6-77.1c-5-19.7-15.7-37.7-38.3-37.7
		c-17.5,4.7-27.7,13-39.8,26c-19.3,19.4-32.9,44.6-51.8,64c-12.3,9-24.6,20.3-31.1,34.3c-7.6,24.9-7.9,53.2,5.7,76.5
		C496.6,255.5,478.9,299.6,516.6,307.2"/>
	<path vector-effect="non-scaling-stroke" class="st1" d="M516.9,250.3c6.6,15.1,3.7,12.1,20.8,12.5c7.9-5,13.8-13.4,22.9-16.6
		c17.3-11.2,38.1-17.9,53.2-32.4c26.3-23.5,25-58.7,16.9-90.1c-5.1-24.2-9-49.2-17.2-72.6c-25.8-60.1-75.4,0.7-94,33.6
		c-8.9,13.5-17.8,29.4-23.4,43.9c-10.7,16.8-13.8,38.1-7.8,56.7C498.1,207.2,509.9,227.6,516.9,250.3"/>
	<path vector-effect="non-scaling-stroke" class="st1" d="M522.5,195.5c-19.9-25.1-18.7-60.6-4.9-88.3c8.9-19.6,18.9-39.8,35.4-54.3
		c6.1-7.4,14.7-12.9,24.3-14.1c4-1.7,8.4-1.8,12.4,0.1c21.9,12.8,24.9,41.2,29.9,63.8c4.7,24.6,10,51,2.3,75.5
		c-8.8,26.6-39.7,44.2-67,40.1C540.8,216.8,530.9,205.9,522.5,195.5"/>
	<path vector-effect="non-scaling-stroke" class="st1" d="M553.1,196.2c-36.3-17.4-36.8-66.2-21.8-98.2c11-28,49.5-73.8,70.9-29.7
		c12.6,28.9,18.2,65.6,12.3,96.5C608.3,191.2,578.2,208.8,553.1,196.2"/>
	<path vector-effect="non-scaling-stroke" class="st1" d="M546.7,171.7c-16-15.3-16.6-40-11.7-60.2c4.5-16.4,14.4-30,25.6-42.5
		c4.6-3,10.1-5,15.7-4.7c4-0.8,9.1-0.5,11.9,3c19.3,23.6,24.8,66.3,14.6,94.5C592.3,187.2,565,192.8,546.7,171.7"/>
</g>
</svg>
