<?xml version="1.0" encoding="utf-8"?>
<!-- Generator: Adobe Illustrator 28.0.0, SVG Export Plug-In . SVG Version: 6.00 Build 0)  -->
<svg version="1.1" id="Layer_1" xmlns="http://www.w3.org/2000/svg" xmlns:xlink="http://www.w3.org/1999/xlink" x="0px" y="0px"
	 viewBox="0 0 916.7 828.2" style="enable-background:new 0 0 916.7 828.2;" xml:space="preserve">
<style type="text/css">
	.st0{fill:#F4560F;stroke:#000000;stroke-miterlimit:10;}
	.st1{display:none;fill:#F4560F;stroke:#000000;stroke-miterlimit:10;}
</style>
<g id="surface1287">
	<path vector-effect="non-scaling-stroke" class="st0" d="M556,434.6c-0.6,12.4-8,24.3-14.6,34.3c-8.4,8.5-21.1,10.8-31.9,14.9
		c-9-4-20.2-6.3-27.6-12.9c-7.3-10.7-15.4-24.1-13.4-37.6c-1.2-24.3,23.1-47.2,46.7-46.3c11.5,1.3,24.4,4.3,30.6,15
		C552.9,411.3,558,422.7,556,434.6"/>
	<path vector-effect="non-scaling-stroke" class="st1" d="M424.7,904.7c42,5.7,71.5-34.5,100.4-59c15.8-15.7,33-30.8,48.1-47.2
		c16.8-18.1,31.4-38.7,47.9-57c35.3-37.1,81.2-64.5,130.9-76.8c19.1-3.5,38-15.4,48.6-31.7c11.1-20.8,20.1-43.1,34.9-61.8
		c19.2-22.7,39.9-45.1,62.3-64.8c20.4-18.8,44.3-35.1,59.3-58.9l0,0c22.7-35.1,10.8-77.9,7.7-116.5c-2.6-56.2-10.2-79.6-58.8-110.3
		c-8.7-8-18.6-14.8-27.2-22.3c-6.4-6.3-12.3-14.1-19.4-19.2c-10.6-8-17.1-20.5-28.2-27.5c-8.7-9.3-17.6-18.7-27.6-26.2
		c-8.4-7.3-16.7-16.6-26.1-22c-18.6-16.5-40-28.9-61.6-40.3C686.7,51,657.2,37.4,628,26.8c-32.4-15.5-69.3-8-96.5,13.2
		c-22.3,17.3-39.4,40.3-59,59.2c-7.2,6.2-11.2,16.6-21.2,17.9c-1.9,4.3-7.7,2.9-11,4.3c-4.8-0.3-12,1.1-13.5-4.4
		c-17.8-34.6-52.4-54.3-78.4-81.4c-19.7-25.5-27.2-58.1-47-83.3c-22.9-28.1-63.3-36.7-96-22.6c-21.3,8.2-41,20.2-64,20.6
		c-27.1-4-54.9-13.9-82.1-9.9c-52.8,8.5-104,55-93.5,111.3c13.5,65.7,66.1,89.9,38.3,167.5c-10.9,25.5-24.1,49.7-38.3,73
		c-13.5,28.1-32.6,53.6-57.3,72.4c-38.6,36.2-3.3,72.9,11.5,110.2c9.7,21.2,16.6,43.7,25.3,64.9c12.7,29.4,24.5,59.4,31.9,90.1
		c12.5,45.3,20.1,94.6,52.5,130.2c31.6,34.8,79.8,35,115.4,6.6c21.7-17.8,35.5-42.2,51.2-64.5c20.2-21.6,20-27.3,49.8-15.3
		c19,31.3,20.7,73.4,42.7,104c18.3,25.1,44.7,42.5,67,62.8C376.8,873.5,395.4,898,424.7,904.7"/>
	<path vector-effect="non-scaling-stroke" class="st0" d="M421.7,824.8c32.9,11.9,65-12.1,87.7-34c11.7-12.4,21.7-27.6,31.9-41.2
		l0,0c27.6-38.5,75.9-53.3,111.9-82.3c31.4-23.2,55-56,63.8-94.1c7.7-20,18.8-40.6,35.3-54.2c16.7-10.9,37.3-14,55.2-21
		c40.4-13.8,80-39.3,100.8-77.1c12.1-25.9,8.3-55.5,1.5-82.2c-4.4-19-9.3-39.1-17.6-56.4c-45.1-82.3-125-175-219.2-195.8
		c-52.4-11.2-102.4-15.7-137.8,30.9c-9.3,11.4-18.3,22.3-25.8,34.3c-7.2,6-14.7,13.6-20.1,20.6c-41.3,33.1-75,28.8-123.8,27.6
		c-22.9-1.2-47.4,5.7-69.7,4.9c-21.5-7-5.2-56.1-5.7-73.6c0.5-17.1-5.1-34.1-11.3-49.3c-5.7-13.8-10.4-28.3-15.6-41.7
		c-2-7.1-4.6-14.7-7.5-20.9c-2.6-8.4-4.5-11.6-13.3-11.9c0.1-0.3,3.4-6.6,3.4-6.6c-0.7-1-8.5,6.2-9.2,5.8c-5.6,6-9.9,14.4-15.1,20.6
		c-5.6,25-21.5,43.8-47.1,49.1c-37,5.6-67.7-20.9-88.5-48.3c-24.6-10.8-23.2-13.2-48,0.2c-0.3,7.1-6.2,14.9-6.2,22
		c2.1,24,16.3,44.1,20.5,67.1c7,42.1-4.1,85-19.3,123.7c-21.2,47.7-55.8,113.6-9.4,156.7c36.1,26.5,96-27.6,133,50.4
		c2.9,8.5,10,17.4,8,26.3c2.9,8.7,3.7,19.3,0.2,27.4c0.6,9.8-3.8,19.8-7.6,28c-6.5,16.7-18.4,30.7-34,38.4
		c-20,9.4-42.7,8.7-63.3,14.1c-26,13.7-28.3,46.9-27.3,72.7c2.4,39.9,27.7,95.6,75.4,78.4c26.9-11.8,40.6-41.6,49.9-67.4
		c8.5-20.6,17.9-51.3,44.2-51.3c8.9-1.6,19.9-1,27.3,3.9c17.4,5.6,32.2,17.8,45,30.2c18,16.1,32.6,36.2,40.2,58.7
		c5.9,22.5,12.7,46.5,28.5,63.2C364.4,795.3,392.9,811.9,421.7,824.8"/>
	<path vector-effect="non-scaling-stroke" class="st1" d="M488.7,684.8c50.5,9.3,108.4-5.2,149-38.3c29.8-23.1,43.1-60.2,53.7-94.5
		c11-29.3,28.4-59.2,58-71.9c25.4-9.6,52.8-14.2,76.9-26c38.3-19,62.3-56.5,55.2-99.4c-13.9-99.3-85.8-199.4-180.4-235
		c-48-16.7-105.8-10.7-143.7,24.7c-38.4,37.7-76,72.9-131.9,79c-28.7,3.5-59.5,1.2-86.1,12.5c-19.5,7.8-35.9,21.1-53.2,32.3
		c-8.4,7.5-19.1,12.9-30.2,13.8c-57.4,5.5-4.9-112.3-64.7-137.4c-30-12.3-73.5-16.9-93.4,13.8c-12.6,16-18.1,36.6-24.7,55
		c-7.2,23.1-16,45.7-22.1,68.7c-8,22.4-9.2,53.5,13.3,67c22.9,9.1,48.8,5.5,71,15.2c32.1,14,54.7,69.5,65.2,101.1
		c7.4,27.4,3.2,57.7,14.5,83.5c7,15.2,17.1,29.1,30.6,38.5c6.9,9.1,16.5,16.8,24.9,23.9c17.2,16,36,31.8,54.9,45.3
		c10.6,3.1,19.3,11.8,29.2,14.8c22.5,8.1,45.8,1.6,68.3,0.8C445.4,672.3,467,680.7,488.7,684.8"/>
	<path vector-effect="non-scaling-stroke" class="st1" d="M107.6,297.9c23.1,10.3,55.3,2.1,66-21.5c12.5-26.5,16.6-63.2-5.8-85.5
		c-12.3-5.4-26.6-10-38.6-1.8c-15.2,6.6-22.8,21.6-27.8,36.6C94.5,248.8,86.9,279.8,107.6,297.9"/>
	<path vector-effect="non-scaling-stroke" class="st1" d="M493.3,655c-22.2-4.3-43.5-14.7-66.1-16.9c-30.1-2.1-63.2,7-91.9-5.2
		c-35.7-12.5-78.9-56.6-90.4-92.6c-13.1-33.8-9.1-72.4-22.5-106.2c-4.5-10.8-6.2-23.1-10.1-33.8c-5.1-17.2-5.9-37.5,8.5-50
		c13-10.3,29.8-16.3,42.5-26.7c22.6-15.8,39-39.3,62-54.5c25.4-19.9,58.7-23,89.2-26.8c25.2-2.7,50.3-9.5,72.8-19.9
		c54.2-24.6,92.2-81,153.8-87.5c85.6-9.6,155.1,61.4,190.5,132c18.9,39.7,38.6,89.1,19.5,131.4c-15,30-46.8,43.1-77.3,50.6
		c-19.5,4.2-40.7,7.9-56.8,19.8c-22.9,20.7-34.3,49-46.3,76.3c-7.6,20.5-13.6,42.8-25.4,60.5C614.1,656.9,547.5,669.9,493.3,655"/>
	<path vector-effect="non-scaling-stroke" class="st1" d="M461.4,626.5c-17.6-5-36-9.1-54.4-8.8c-23,0.2-47.9,4.5-69.5-5.5
		c-31.1-11-54.5-38.9-66.8-68.8c-9.1-24.2-9.1-50.6-9.9-76.1c0.2-27.3-9.6-56.3-0.5-82.8c2.1-6.8,5.5-14.4,10-20
		c7-11.9,14-24.6,23.4-34.9c16.9-23.4,37-46.7,64-58.4c25-11.1,53.4-11.6,79.9-16.8c25.2-4.6,49.2-15.4,72.3-26.2
		c43.5-22.1,78.7-60.9,127.5-71.6c74.8-15.9,139.4,44.6,172.4,106c19.4,38.4,42.8,86.5,21,128.3c-7.4,12.8-20.6,22.9-33.7,29.4
		c-15.8,6.3-33.2,9.7-50,11.7c-13,2.5-27.7,3.7-37.9,13.2c-13.3,8.5-20.7,23.1-27.7,36.7c-15.2,25.8-25.7,54.3-37.3,81.8
		c-20.5,61.7-72.4,87.6-135.2,76.4l0,0C493.3,636.1,477,630.9,461.4,626.5"/>
	<path vector-effect="non-scaling-stroke" class="st0" d="M525.3,626c-34.4-1.6-66.4-20-100.1-23.9c-34.9-4-73.5,5-102.9-17.7
		c-40.9-31.7-39.9-77.1-35.1-123.7c1.7-42.2,0-83.2,22.1-120.8c21.4-39.8,55-61.7,99.2-67.1c30.2-4.7,60.1-12.6,87.7-24.9
		c42.3-17.8,78.8-46.4,119.4-66.2c48.8-23.2,101.1-5.7,136.3,32.1C785.8,250,812,295,820.1,343.9c0.9,59.3-46.7,68.2-95.3,66.2
		c-24.5,2.6-34.4,12.3-43.8,33.5c-17.2,33.5-31.8,69-47.3,102.5C615.6,597.8,581.6,629.7,525.3,626"/>
	<path vector-effect="non-scaling-stroke" class="st1" d="M486.4,604.3c64.7,19.1,107.5,0.4,133.6-62.4c19.6-40.2,40.7-81,49.5-125
		c4.5-11.8,17.1-46,32-41.4c18.6,1.2,38,11.8,56.2,9.7c33.9,0.4,48.5-29.8,39.7-59.7c-14.1-37.1-35.6-71.3-61.8-100.7
		c-25.9-28-61.3-41-98.3-31.1c-45.5,15.3-85.1,44.8-129.4,62c-21.7,9.2-43.7,18.2-66.1,23.5c-22.8,6.3-47.4,8.5-68.6,18.4
		c-35.3,17.1-54.8,54.8-58.6,92.3c-2.5,25.2-0.1,51-3.2,75.9c-7.6,46.3-9.9,97.5,43.8,113.8c23.4,5.4,48.3,3.4,71.5,7.6
		C447.2,590.9,466.4,599.9,486.4,604.3"/>
	<path vector-effect="non-scaling-stroke" class="st1" d="M749.1,335.9c-3.1-5.1-9.7-15-10.2-21.1
		C753.6,315.2,752.9,324.8,749.1,335.9"/>
	<path vector-effect="non-scaling-stroke" class="st1" d="M429.4,571.9c-10.5-1.6-21.6-3.9-32-5.7c-13.8,0.3-27.6-3.4-40-8.9
		c-28.8-12.9-28.6-49.1-24.4-75.6c2.6-19.9,2.6-41,1.7-60.7c-3.5-41.6,5.9-91.1,47.5-109.9c27.7-12.9,58.7-16.7,86.9-26.9
		c46.4-16.7,90.9-37.6,136.1-56.3c31.5-15.2,77.3-22.3,100.3,9.6c16.1,14.9,18.4,38.7,22.1,58.4c-4.2,12.1-19.3,8.1-28.4,11.7
		c-0.1,2-8.8,4.7-9.8,5.3c-5.9,6-12.5,11.9-18.4,17.3c-8.7,12.7-11.5,30-13.7,44.8c-4.1,57.2-13.5,95.8-41.9,145.9
		c-15.6,30.3-33.1,67.1-69.7,73.9C505.4,604.5,467.3,581.7,429.4,571.9"/>
	<path vector-effect="non-scaling-stroke" class="st1" d="M486.2,577.1c46.4,14.6,81,1.9,105.6-40.3c14.9-25.8,32-51.5,39.9-80.5
		c10.6-33.7,3.8-70.1,6.2-104.7c1-28.3,14.5-54.5,15.4-82.6c-4.7-12.2-8.8-17-21.3-18.3c-14.6-2.7-28.4,2.7-42.6,4.5l0,0
		c-40.2,11.1-79.1,27.3-118.2,41.4c-26.5,11.4-56.9,14.8-81.4,29.8c-38.4,21.3-37.8,69.6-34.3,107.5c2,22,0.4,44.2,2.1,65.7
		c-0.4,20.1,13.6,38.5,32.4,44.2C423.1,552.6,453.8,567.2,486.2,577.1"/>
	<path vector-effect="non-scaling-stroke" class="st0" d="M454.2,550.3c-25.7-11.9-57-23.7-68.9-51.3c-9.5-30.3-19.5-107-5-134.9
		c15.8-31.8,53.7-39.7,84.2-51.3c27.2-9.7,54-22.2,82.4-28c22-4.9,51.4-11.1,66.2,10.7c4.5,12.5,5.2,27,5.6,40.2
		c1.4,28,6.1,56.4,6.5,84.4c-2.1,48.5-29.2,91.9-59.6,128.2C534.1,580.6,489.8,568.8,454.2,550.3"/>
	<path vector-effect="non-scaling-stroke" class="st1" d="M487.2,548.7c42.1,14.4,71.4-8.3,94-42.4c24.8-32.2,36.7-73.6,28.8-113.8
		c-3.8-20.2-7.8-41.4-13.7-61.1c-4.1-16.6-16.2-26.3-32.6-29.3c-34.4-1.7-67.2,12.9-98.6,25.2c-25.7,11.3-57.4,22.4-67.6,51.3
		c-11,35.3-4.5,76.8,9.1,110.3C422.2,519.9,455.6,538.2,487.2,548.7"/>
	<path vector-effect="non-scaling-stroke" class="st1" d="M461.4,520.5c-43.2-24.9-58.4-81.6-46.8-128
		c13.8-40.2,72.2-61.2,110.7-68.9c48.6-11.3,65.1,37,72.2,75.4c5,24.4,2.1,50.6-8.6,72.7c-11.3,18.8-23.5,38.5-40.8,51.2
		C522.9,545.8,486.9,537.6,461.4,520.5"/>
	<path vector-effect="non-scaling-stroke" class="st1" d="M493.3,518c-64.1-15.6-90.4-115.8-30.8-152.8
		c60.2-36.6,107-32.2,123.4,43.5C597.9,457.9,547.8,533.3,493.3,518"/>
	<path vector-effect="non-scaling-stroke" class="st1" d="M488.7,498.2c22.6,7.4,23,5.8,45.3-1.9c20.5-14.8,38-36.9,38.5-63.1
		c2.4-58.2-46.9-87.9-96-54.6C430.7,406.2,441.8,478.6,488.7,498.2"/>
</g>
</svg>
