<?xml version="1.0" encoding="utf-8"?>
<!-- Generator: Adobe Illustrator 28.0.0, SVG Export Plug-In . SVG Version: 6.00 Build 0)  -->
<svg version="1.1" id="Layer_1" xmlns="http://www.w3.org/2000/svg" xmlns:xlink="http://www.w3.org/1999/xlink" x="0px" y="0px"
	 viewBox="0 0 1009.9 762.7" style="enable-background:new 0 0 1009.9 762.7;" xml:space="preserve">
<style type="text/css">
	.st0{fill:#FDD6A4;stroke:#000000;stroke-miterlimit:10;}
	.st1{display:none;fill:#FDD6A4;stroke:#000000;stroke-miterlimit:10;}
</style>
<g id="surface1177">
	<path vector-effect="non-scaling-stroke" class="st0" d="M792.3,275.2c14.8,6.1,31.2,8.2,46.7,5.2c4.7-0.3,10.7-4.1,13-8.2
		c4.2,0.7,6.6-2.4,7.5-6.2c12-15.9,1.1-22.8-11.9-31.7c-9.8-9.2-24.5-9.7-36.7-13.9c-12.9,1.6-30.5,0.2-36.6,14.3
		c0.1,0.5-5.2,13.4-4.4,13.5C774.9,258.2,782.5,269.4,792.3,275.2"/>
	<path vector-effect="non-scaling-stroke" class="st1" d="M62.8,412.3L62.8,412.3c25.6,12.4,66.8,25,87.9,0c4.6-29.6-3.6-61-22.1-84
		c-27.2-27.9-65.3-26-92.5-0.5C11.9,364.5,30.9,390.6,62.8,412.3"/>
	<path vector-effect="non-scaling-stroke" class="st1" d="M716.4,481.2c15.9,6.6,37,4.4,53.9,5.1c33,0.4,67.4-1.9,100.4-3.4
		c42.9-2.8,87.4,2,129.2-10.1c56.3-18,78.4-54.9,79.6-112.6c1.7-45-4.9-92.6-30.6-130.7c-5.9-15.2-14.4-30.1-24.7-42.5
		c-5.6-10.3-13.6-22.1-21.3-30.6c-16.8-20.1-36-40.1-42.9-65.6c-6.8-25.7-12.3-55.1-34.8-71.2C906.6,6.8,883.4,2.9,862.3-2
		c-8.7-2.2-20.7-4.2-28.8-6.6c-6.3-1-14.2-6.6-19.7-5.7c-15.4-4.8-25.2-19.8-35.2-31.1c-8.8-28.7-3.5-66.7-32.9-83.4
		c-31.7-15.1-62.1,9.8-91.3,19c-37.1,12.6-77.8,9.8-115.7,10.4c-28-0.4-61.9,4.5-82.2-18.3c-9.1-7.7-8.8-19.4-9.4-30
		c-1.6-16.6-6.8-36.2-22.9-43.7c-32.2-22.3-96.6-7-115.1-32.1c-9.2-14.6-14.2-35.5-29.3-44.9c-8.3-4.7-19.1-3.6-27.8-5.7
		c-8.1,1.6-18.2,6.3-25.5,9.4c-6.9,6.4-7.6,17.3-10.4,25c-0.5,7.5,6.6,14.6,10.8,18.8c8.1,5.1,16.9,11.9,24.8,15.3
		c14.2,2.2,26.4,14,30.2,26.6c-2.1,27.5-1.4,56.2-5.3,82.6c-4.3,19.3-13.5,35.6-23.5,51.3c-15.9,22.4-35,41.8-55,59.1
		c-13,9.9-27.2,21-37.2,32.6c-11.8,9.9-17,25.5-13.5,39c14.2,29.2,48.2,43.2,73,60.3c38.3,26.1,66.6,24.5,108.1,31.3
		c14.3,6,30.5,12.5,39,24.5c8.2,9.8,19,17.9,23,29.3c5.6,11.3,13,23,10,35.3c1,15.6-14.5,23.4-25.2,29.8c-8.5,4.3-19,9.4-23.8,16.8
		c-7,6.3-8.9,17.6-8.4,25.8c9.1,11.2,18.5,14.5,32.2,13.6c16.6,0,32.7-9,46.8-15.6c1.4-3.3,6.4-3.8,8.7-4.2c4.9-1.5,10.2-5.7,14.1-7
		c12-4.5,24.1-1.9,33.6,4.8c12.4,3.2,14.2,7.9,22,16.1c25.7,24.6,55.4,45,88.4,55.7c13.5,4.5,27.8,7.1,40.3,10.7
		c11.5,6.3,23.7,12.6,33.7,18.9c7.1,3.9,7.5,9.6,15.5,9.7c5.2,10.5,12.5,20.4,21.7,26.4C702.1,475.5,708.9,481.2,716.4,481.2"/>
	<path vector-effect="non-scaling-stroke" class="st1" d="M225.5,469.2c10.7,4.5,22.5,11.8,34.5,9.8c8.5-0.7,18.1-0.5,24.6-6.9
		c9.2-4.7,4.6-7.7,1-14.9c-5.2-7.4-16.5-13.6-25.5-10.3c-4.7-4.7-13.4,0.4-18,0.4C236.4,449.6,216,463.7,225.5,469.2"/>
	<path vector-effect="non-scaling-stroke" class="st0" d="M28.4,630.3c51.2-65,120.9-16.6,109,56.7c-9.7,44.2-56.2,79.3-101.5,66.6
		C-18.8,731.5-0.4,666.8,28.4,630.3"/>
	<path vector-effect="non-scaling-stroke" class="st1" d="M748.5,436c37,16.4,79.6,17.3,119.7,19.6c41,1.3,84,6.1,123.5-7.6
		c31.3-11,54.8-39.1,58.1-72.4c9.7-49.5-0.7-102.8-26.6-145.9c-10-23.5-25.4-45.1-42.2-64.1c-10.7-12.4-23.6-23.3-33.2-36.6
		c-18.2-20.3-23.7-49.2-39.7-71C873.5,17.1,812,25,770.5-4.7c-20.2-9.4-31.7-28.2-49.6-40.5C692.2-78.3,627.3-65,587-65.7
		c-52.2,1.1-106.3,9.4-157-6.4c-18.7-8.3-36.5-21.2-56.6-25.6c-21.9-6-6.8-9.2-31.1,1.7c-11.1,4-18.3,14.7-24.4,24.2
		c-5.6,4.3-12.1,11.7-16.7,17.1c-23.8,29.6-46.8,60.4-63.5,94.6c-19.6,40.4,14.7,58.9,48.9,69.4c33.8,9.4,71,13.8,97.2,39.5
		c18.3,22.6,35.7,47.6,59.4,64.9c23.1,19.1,56.3,26.2,72.6,52.9c17.4,38.8,14.5,70.6,57,96.4c27.8,16.6,61.1,18.6,90.4,31.3
		c14,5.2,27.9,12.2,41.7,18C718.2,421.5,733.1,430.5,748.5,436"/>
	<path vector-effect="non-scaling-stroke" class="st1" d="M851.8,433.2c-35-4.4-70-12.3-102.7-25.6c-21.4-6.9-40.3-20.7-61.6-27.7
		c-28.5-14.1-61.5-17.9-90-32.2c-45.4-22.9-33.4-65.2-49.7-104.1c-19-37.6-65.7-42.8-95.1-69c-43-42.9-32.4-65.6-102-82.3
		c-26.1-7.4-63-15-69.3-45.7C275,4.7,313.3-38.1,349.5-54c38.7-14,78.3,11.3,116.2,18.4l0,0c29.4,6,60.4,9.2,90.2,4.7
		c44.1-5.7,92-18.1,134.4,1.3c21.8,11.4,42.1,26.5,62.5,40.2c21.3,9.4,43.5,19,66.1,24.6c33.9,11.6,64.8,23.5,81.6,57.8
		c5.6,8.5,9.6,19,15,27.4c5.8,6.9,12.3,15.6,18.2,21.9c33.8,30.3,62.9,64.1,80.4,106c23.2,51.2,34.4,122.1-6.6,166.3
		C967.5,450.8,900.5,439.5,851.8,433.2"/>
	<path vector-effect="non-scaling-stroke" class="st1" d="M782.2,398.5c63.8,13.5,152.9,50.4,210.1,5.1
		c22.5-19.3,27.8-51.6,26.9-79.8c-1-36.9-16.3-71.6-33.3-103.8c-16.4-29.6-43.2-52.7-68.3-74.3c-16.7-16.5-28.1-37.9-41-56.6
		c-29.5-39.8-83-41.1-123.4-62.8c-20-8.9-38.6-21.8-57.5-31.4c-29.1-14.7-62.9-16.1-93.1-6.4c-27.4,8.4-51.4,26-79.5,30.1
		c-14.6,3-29.4-5.2-41-12.3c-14-6.9-27.7-15.2-41-22.6c-35.9-17-87.3-28.8-115.2,7.7c-23.2,26.1-16.5,57.8,16.5,70.3
		c25.2,11.3,54.6,9,79.9,18.8c27.5,6.8,35.4,37.5,51.4,57.2c20.1,23.7,51.5,34.9,73.9,55.6c16.7,17.1,29.6,37.8,34.8,60.8
		c5.2,17.9,5.5,38.7,14.5,54.7c17.1,25.1,48.2,30.8,74,42.3C707.7,368.1,743.5,386.7,782.2,398.5"/>
	<path vector-effect="non-scaling-stroke" class="st1" d="M358.7,34.8c-5.9-6.5-7-16.8-8.3-25c2.8-6.1,9-9.3,15.5-10
		c6.4-1.3,14.4-3.7,21-2.8c9.8,5.9,33.2,3.8,29.3,20.2c-0.2,7.3-1.9,15.6-8.3,19.8c-4.7,2.5-12,1.9-16.4,0.2
		C384.2,44.5,366.8,38.6,358.7,34.8"/>
	<path vector-effect="non-scaling-stroke" class="st0" d="M847.6,398.8c48.2,14.5,121.6,28.5,148.8-26.7
		c24.6-55.5-3.9-125-36.8-171.3c-20.1-25.9-50.5-42.3-70.9-67.3c-36-52.3-46.4-61.8-107.2-81.8c-21.3-7.1-41.9-16-61.1-26.5
		C695.2,12,667-2.2,638.3,2.4c-32.5,3-59.2,24.4-83.1,43.9c-22.4,19.4-42.2,41.3-31.3,72.4c14.6,28.1,41.5,48,56.9,75.2
		c23.8,33.3,28.1,76.3,52.3,108.6c16.5,14.6,35.9,25.6,54.7,36.5c23.7,13.2,48.4,27,74,35.5C790.3,383.3,819.7,388.2,847.6,398.8"/>
	<path vector-effect="non-scaling-stroke" class="st1" d="M884.7,395c-17.5-4.4-35.1-11.1-52.4-15.9c-21.9-5.7-44.9-10.3-66.4-17.4
		c-36.9-11.7-69.3-33.8-98.1-59.2c-26-23.6-39.7-56.8-54.5-87.8c-9.2-20.2-19.1-40.3-31.6-58.6c-9.3-17.2-23.4-34.5-22.5-55
		c0.1-36.7,44.8-73.8,79-79.9c34.9-8.2,67.1,12.8,97.9,25.9c37.5,18.5,84.4,24.1,112.5,57.6c12.5,13.9,22.3,30.9,36.3,43.3
		c22.7,19.9,49.6,35.8,68.1,60C1009.2,286.9,1021,424.1,884.7,395"/>
	<path vector-effect="non-scaling-stroke" class="st1" d="M819,362.3c-23-6.2-47.5-9.3-69.3-19.3c-40.8-19.9-75.3-52.5-98.4-91.5
		c-13-21.4-22.7-45.3-33.2-68c-10-21.6-21.6-43.3-30.2-65.4c-12.3-43.9,32.8-85.5,75.2-81.4c27,1.5,51.5,15.8,75.9,25.2
		c24.3,11.2,50.9,18.2,73.4,31.6c16.5,11.5,29.8,26,41.6,41.5c9.7,11.6,22.7,20.9,33.9,30.1c30.1,19.3,59.7,42.5,73.1,75.8
		c16.3,38.3,32.1,90.2,4.4,125.3C924.4,409.5,866.2,370.1,819,362.3"/>
	<path vector-effect="non-scaling-stroke" class="st1" d="M851.8,358.1c-22.6-6.6-46.6-8.6-69.3-14.8
		c-45.1-12.2-81.5-43.9-107.1-82.1c-17.4-25.1-30.8-53.3-41.6-81.8c-15.7-39.1-48.2-93.7,4.3-119.6c38.9-18.3,79,10.9,115.5,22.9
		c22.6,9.1,46.2,19.2,64.3,35.8c12.8,12.4,25,27.2,39.6,37.5c26.8,21.4,60.1,35.2,80.6,64c23.8,38.9,44.5,101.6,12,140.2
		C921.2,383.4,883,367.4,851.8,358.1"/>
	<path vector-effect="non-scaling-stroke" class="st1" d="M917.6,358.3c-22.4-0.5-44.1-7.2-65.8-11.8c-24-5.3-49.7-7.4-73.1-15.2
		c-73.5-22.3-110.8-99.1-133.4-166.9c-7.9-26.4-25.4-68,5.8-85.3c26.4-11.3,54.5,1.4,79.4,10.9c30.6,13.1,62,26.8,86.1,50.4
		c33.6,31.2,80.7,44.6,110.7,80.1c20.3,29.4,30.5,67.2,24.6,102.6C950.7,341.7,933.8,352.9,917.6,358.3"/>
	<path vector-effect="non-scaling-stroke" class="st0" d="M786.1,324c-47.8-12.2-79.9-53.8-100.2-96.4
		c-7.7-16.8-14.1-35.2-18.5-53.1c-7.6-37.8-19.9-81,36.6-73.1c13.1,5.9,28.9,8.4,41.2,15.8c23.6,10.5,44.8,26.6,67.4,39
		c27.6,20.1,62.3,29.1,88.8,51.1c34.5,23.6,53.2,89.6,25.5,123.7c-19.1,16.5-48.8,6.2-71.6,4C832.3,332.3,808.8,328.8,786.1,324"/>
	<path vector-effect="non-scaling-stroke" class="st1" d="M819,321.2c-45.4-2.4-86-30-106.9-70.1c-15.5-30.4-36.1-84.6-10-113.4
		c18.1-2.9,39.6,5.1,56.8,11.9c19.2,7.8,38.2,16.8,57.3,24.8c30.4,11.6,62.1,23.9,86.6,45.9c22.6,23.4,32.1,62.4,15,91.4
		C895.2,333.4,848.2,323.2,819,321.2"/>
	<path vector-effect="non-scaling-stroke" class="st1" d="M753.2,286.9c-10-7.8-17.4-19.7-24.6-30c-11.1-20.6-22.1-52.5-8.1-73.4
		c13.7-26.3,91.7,2.8,114.9,9.1c19.7,8.2,41.8,16.3,57.4,30.8c19.7,21.2,29.1,55.1,7.1,77.6c-20,15.1-48.4,11.9-71.9,11.3
		C800.9,311.7,774.7,303.3,753.2,286.9"/>
	<path vector-effect="non-scaling-stroke" class="st1" d="M781.8,293.5c-15.3-7.1-28.8-17.6-36.7-32.6c-9.5-13.7-14.8-33.1-8.7-49.1
		c19.6-39,102.2-9.3,132.2,5.7c15.8,10.4,32.9,27.8,29.4,48.3c2.5,21.1-20.2,32-37.6,35.7C834.4,305.7,806,304.3,781.8,293.5"/>
	<path vector-effect="non-scaling-stroke" class="st1" d="M786.1,285.1c-15.5-7.3-26.6-22.3-34.1-37.3c-1-13.4,0.8-32.4,16.9-35.4
		c16-7.1,35.8-4.1,52.5-1c21.2,3.5,42.9,12.2,55.5,30.5c9.6,8.3,5.2,24.7,1.3,35.1c-8.4,8.7-20.8,13.2-32.6,14.7
		C825.9,295.8,804.8,291.9,786.1,285.1"/>
</g>
</svg>
