<?xml version="1.0" encoding="utf-8"?>
<!-- Generator: Adobe Illustrator 28.0.0, SVG Export Plug-In . SVG Version: 6.00 Build 0)  -->
<svg version="1.1" id="Layer_1" xmlns="http://www.w3.org/2000/svg" xmlns:xlink="http://www.w3.org/1999/xlink" x="0px" y="0px"
	 viewBox="0 0 459.9 698.1" style="enable-background:new 0 0 459.9 698.1;" xml:space="preserve">
<style type="text/css">
	.st0{fill:#01608F;stroke:#000000;stroke-miterlimit:10;}
	.st1{display:none;fill:#01608F;stroke:#000000;stroke-miterlimit:10;}
</style>
<g id="surface1242">
	<path vector-effect="non-scaling-stroke" class="st0" d="M210.1,341c18.1,2.1,37.4-0.5,54.6-6.5c12.6-6.8,25.8-14.9,35.5-25
		c7.9-6.1,15.7-12.6,19.5-21.6c3-6.7,9.7-12.3,11.1-18.9c0.7-14.4,4.6-19.1-11.1-25.5c-6.8-4.4-16.5-2.7-23.6-2.7
		c-11.1-0.1-23.5,1.1-33.9-0.9c-22.5-4.1-43.9-13.4-66.2-14.3c-44.8,0.4-55.6,52-34.8,83.6c0.8,8.9,10.6,14.4,16.7,19.1
		C186.5,336,199.2,339.5,210.1,341"/>
	<path vector-effect="non-scaling-stroke" class="st1" d="M-474.7,335.5c1.9,20.8-5.5,31.7-22,43.4c-6.5-1.3-16.3-4.5-23-5.8
		c-20.3-20.9-34.9-48.1-41.9-76.6c-0.9-13,0.8-27.7,12.2-35.7c19.6-6.4,32.8-2.3,44.7,14.6C-490.4,292.6-479.6,313.6-474.7,335.5"/>
	<path vector-effect="non-scaling-stroke" class="st1" d="M-349.8,361.3c31.6,20.2,83.8,16.3,91.2-26.9c-0.7-6.3-0.7-13.5-2-19.7
		c-4.2-7.5-8.5-16.4-14.5-22.6c-11.4-14-25.8-26.2-42.5-33.3c-40.4-19.2-71.8,6.6-67.6,50C-383.4,330.6-366.6,348.7-349.8,361.3"/>
	<path vector-effect="non-scaling-stroke" class="st1" d="M-70.1,666.3c12.3,3.3,24.6,0,36.4-4c30.6-16.4,58.2-27.4,91.2-10.1
		c21,9.1,44.1,19.8,65.8,9c5.2-2.8,12.6-8.2,16.8-11.4c5.3-4.5,13.8-5.8,18.5-9.5c15.4-3.7,32.9-1.7,44.8,8.1
		c13.5,10.4,21.1,26.1,27.5,41c16.4,23.2,40.8,21.5,63.6,9.7c12.6-6.2,21-17,25.4-30c-1.4-7.1-4.2-15.1-4.6-22
		c2.1-7.2,4.6-15.4,6-22.3c4.2-5.8,10.6-11.2,12.4-17.8c11.1-11,29.3-13.1,43.3-17.9c29-11.4,50.1-36.9,58.8-66.3
		c7.6-24.4,9-50.1,14.5-74.6c6.7-25,24.6-43.7,40.5-62.9c14.8-18.2,23.9-40,26.6-63c1.6-23.3-1-49.5-10-70c1.7-5.8-3.4-10.8-4.1-16
		c-3.4-14.3-10.1-29.4-16-42.8c-7.2-13.7-10.6-29.4-18.5-42.3c-15.4-26.9-32.8-54.4-58.7-72.1C364.8,43.7,311,68.3,281,31.8
		c-15.4-21.9-22.2-49-39.6-69.4C210.5-77.9,154.2-80.1,108-75.3C67.1-74.3,32.7-51.5,0.1-30C-27.1-13.6-60-10.4-88.1,2.9
		C-153,36.3-215.7,51.4-284.3,18.7c-19.1-11.3-43.1-4.1-63.1,0.2c-29.1,7.2-60.6,14.4-80.3,38c-26.2,35.2-45,109.7,1.7,135
		c47.2,15.8,65.9-36.1,119.7-29.2c31.4,4.2,62.4,19.9,84.5,42.1c25.6,35.4,0.9,80.3,2.8,119.2c-0.2,19.6,2.3,39.1,0.6,58.2
		c-4.4,34.7-8.2,72.4,10.5,103.5c7.6,14.8,19.9,27.6,28.9,41.1c4,5.5,10.3,9.7,11.2,16.3c11.7,19.5-4.6,40.5-1.8,60.3
		c5.3,25.9,22.1,27.8,42,38.8C-108.4,649.7-90.3,662.4-70.1,666.3"/>
	<path vector-effect="non-scaling-stroke" class="st0" d="M371.3,690.2c7.7-0.5,6-0.5,9.3-7.3c-6.6-1.7-14.6-5.1-21.6-4
		C348.2,691.6,361.3,690.7,371.3,690.2"/>
	<path vector-effect="non-scaling-stroke" class="st1" d="M-350.9,740.5c24,11.8,52.8,5.5,74.7-8.2c19.5-16.2,34-42.8,17.9-66.1
		c-25-25.4-87.5-24.8-105,8.7C-378.2,695.8-372.5,726.6-350.9,740.5"/>
	<path vector-effect="non-scaling-stroke" class="st1" d="M60.6,589.7c-36.2-10.8-86.3,2.3-106.7-38.1
		C-57.7,534.5-69.2,513-90,506.1c-45.6-15.2-93.6-21.6-88.5-83c5.3-26.5,16-53.1,9.7-80.3c-30.1-126.6,52.2-143.1-38.9-197.4
		c-7.6-4.5-15.3-13.3-21.5-19.5c-6-3.7-7.1-8.9-5.6-15.8c6.1-18.4,28.6-17.9,44.1-23.3c23.6-6.8,47.3-16.1,68-29.4
		c20.7-13.6,42.3-27.2,65.5-36.1C-33.4,14-7.5,11,13.7-3c21.7-15.1,42-33.7,68.1-40.9C121-54.1,168.3-55,203.2-32
		c29,18.8,36.8,54.9,53.8,82.9C288.7,99,348,67,390.9,95.2c47,25.3,68.7,78.9,86.3,126.2c9.3,34.2,22.6,70,13.2,105
		c-4.6,15.3-11.4,30.1-20.9,42.4c-11.2,13.7-24,26.9-33.3,41.5c-19.5,31.7-20.6,71.7-43.3,101.2c-16.6,22.2-49,18.5-69.1,34.3
		c-11.2,5.1-18.4,13.8-26.2,22.3c-10.9,10.4-22.1,22.8-35.6,28.7c-32.9,11.6-66.2-5.5-98.8-6.7C127.2,590.6,95.9,602,60.6,589.7"/>
	<path vector-effect="non-scaling-stroke" class="st1" d="M182.8,564.1c90.9,21,78.1-25.8,144.3-54.8c50.7-17.8,60.2-39.9,80.3-86.6
		c12.4-28.6,35.6-50.1,52.2-75.9c26.4-38.9,14.6-90.6-0.5-131.2c-14.5-45.6-41-95.4-88.5-111.5c-28.8-10.5-60-1.4-89-8.3
		c-44.2-11-52.5-60.6-75.1-92.9C174.1-40.9,98.1-38.4,57.4-8.9C43.8,1,32.1,13.6,18.7,22.9C-4.5,36.5-32.8,35.4-56.8,45.8
		c-18.6,9.5-36.7,22.8-45.8,41.6c-5.8,5.4-7.5,14.1-6.8,21.5c-0.1,6.6,0.1,13.3,5.6,17.2c3.1,7.1,9.6,13.9,14.9,19
		c16.6,14.3,35,27.4,50.3,42.3c9.2,7.6,16.8,17.4,22.8,27c10,11.1,16.5,25,20.7,38.8c5.1,14.6,8.2,24.9,6,40.3
		c-2,4.1-10.6,17.6-14.3,15.2c-14.6-2.4-20.6-18-29.6-27.5c-7.6-15.4-18.7-29.1-31.3-40.1c-9.8-9.7-23.1-14.1-35.6-17.5
		c-9.8-0.8-18.8,4.9-27.4,8c-12.5,13.9-20.7,33.4-19.3,51.9c-1.9,30.4,19.9,56.7,22.7,85.5c2.1,9.6-0.7,19.8-3.8,28.4
		c-3.4,14.8-7.1,29.9,0.5,43.7c24.1,26.7,70.9,5.3,101.4,38.5c9.4,8.7,16.7,19.5,24.4,29.1c16,13.1,37.4,16.7,55,26
		c16.3,6.5,32.8,14.4,49.7,17.8C129.7,558,156.9,557.2,182.8,564.1"/>
	<path vector-effect="non-scaling-stroke" class="st1" d="M181,540.4c37.8,9.3,64.2,3,93.4-22.9c19.5-15.1,42.5-25,64.8-35.1
		c34.7-16.2,48.9-53.4,66.3-84.9c14.7-25.9,38.5-46.5,49.4-74.5c14.7-40.4,1-85.2-13.7-123.9c-14.7-36.5-39.7-73-79.9-83
		c-23.6-5.5-48.4-1.1-72.4-1.5c-28.4-3.2-53.7-19.5-67.7-44.5c-15.8-24.8-24.9-57.5-52.9-71.4c-25.2-12.1-56.7-13.1-82.1-2.4
		c-35,12.8-47,59.6-86,62.8c-20.5,2.9-49.4,3.7-60.1,23.3c-10.6,10.9-7.9,23.6-3.3,36.4c13.2,20.4,35.2,33.7,50.5,51.9
		c27.6,34.2,43.7,77.6,50.6,120.2c1,18.1-2.3,35.6-8.8,52.1c-7.8,20.3-17.1,41.7-11.6,63.4c3.5,5.8,4.9,13.4,8.4,18.5
		c4.7,8.4,11.7,15.2,17.3,22.5c11.8,17.1,24.2,35,37.6,50.5C106.5,526.9,146,530.7,181,540.4"/>
	<path vector-effect="non-scaling-stroke" class="st0" d="M154.8,511.1c-39.5-11.7-65.5-45.6-85.9-79.2
		c-27-32.9-20.4-65.2-15.7-103.6c3.6-27.8-1.8-55.2-9-81.6c-9.6-29.3-18.3-59.4-26.1-88.9c-1.8-8.1-4.3-17.4-6.3-25.2
		C10.1,129.5,12.2,122,9,120c0.9-1.7,3.1-3.1,4.6-3.2c4.3-3.5,7.9-9.8,12.6-11.9C36.8,96.5,46,86.2,49.7,73.4
		C56,57.9,63.2,42.2,73.9,29.8c32.4-36.1,89.9-24.1,112.7,15.9c24,41.9,47.3,80.2,100.5,82.3c23.9,0.1,48.9-4.7,72.1-0.5
		c62.7,18.1,87.7,95.4,90,153.5c2.2,39.2-25.8,68.4-46.2,97.8c-35.9,60.1-38.7,78.8-107.3,106.7
		C236.2,515.5,226.4,537.3,154.8,511.1"/>
	<path vector-effect="non-scaling-stroke" class="st1" d="M154.8,488.4c-34.1-17.1-68.3-58.2-81.8-93.3
		c-11.6-31.8-2.5-65.7-6.5-98.1c-4.6-44.9-25-88.9-16.2-134c8.7-27,22.8-51.4,26.8-79.5c4.2-15.5,7.6-34.8,22.7-43
		c21.9-16.5,45.6-6,63.5,10.2c37.8,48.6,57,88.8,126.3,90.2c28.4-1.5,58.7-9.7,84.7,4.9l0,0c49,25.2,68.9,100.4,61.7,151.4
		c-9.2,38.6-40.3,66.4-57.4,100.8c-25,49-50.1,60.1-98,79.5C233.2,500.2,205.6,516.5,154.8,488.4"/>
	<path vector-effect="non-scaling-stroke" class="st1" d="M154.8,465.9c-26-17.7-48.5-42.3-62.9-70.3
		c-10.5-19.2-11.7-41.8-12.9-63.2c-0.3-40.4-11-79.9-13.2-120c-2.2-33.1,15.8-62.4,27.5-92.2c5.9-13.1,13.6-54.1,30.5-52.3
		c5.7,0.4,12.9-2.6,18,0.1c7.6,6.4,17.1,11.4,23.9,18.7c46.7,55.6,90.5,72.5,162.2,61.2c47.5-5.9,81,31,92.9,73.7
		c12.2,37.5,10.7,80.6-13.6,113.1c-20.5,29.3-36.5,60.2-58.3,88c-19.4,24.2-51.3,34.1-78.5,44.2
		C228.6,485.5,194.5,492.8,154.8,465.9"/>
	<path vector-effect="non-scaling-stroke" class="st1" d="M186.2,461.9c-34.4-14.7-63.8-42-81.9-74.7c-13.8-28-14.1-60.6-18.1-91
		c-5-41.8-15.6-87.1,6-126.1c4.8-9.1,10.1-19.3,15.3-28.2c4.2-8,8-16.9,15.4-22.5c14.6-11.9,13.3-15.2,31.8-7
		c22,8.2,39.8,26.8,62.6,34.3c21.1,8.8,44,14.8,67,14.2c57.4-5.4,94.3-14.8,122.6,48.1c29.3,77.5-3.6,106.5-40.5,168.9
		c-20.4,37.2-42.6,59.6-84.1,71.8C251.6,459.3,218.3,473.2,186.2,461.9"/>
	<path vector-effect="non-scaling-stroke" class="st1" d="M183.2,441.6c-40.1-20.2-74.5-57.2-81.3-102.5
		c-5.3-34.7-11.4-69.6-11.3-104.5c0.7-35.8,19.9-70.8,48.2-91.7c16.4-4.1,29.5-1.3,44.2,4.5c20.7,6.7,40.9,16.3,61.8,20
		c16.6,3.7,35.7,4.8,51.4,2.9c23.9-2.4,49.3-7.9,70.4,3.7c30.3,16.8,42,55,41.8,86.9c0.5,25.5-11,48.7-23.9,68.9
		c-21.1,30.8-34.8,68.5-64.9,90.7c-17.5,13.3-40.3,18.6-59.9,23.7C233.6,450.9,207.4,453,183.2,441.6"/>
	<path vector-effect="non-scaling-stroke" class="st0" d="M304.7,416.4c30.4-15.1,44.1-49,61.9-76c12.1-20.2,26-40.4,30.9-63.8
		c7.1-35-3.5-77-36.4-95.4c-31-11.7-64.2,2.3-96.3-1c-33.3-3-64.8-17.6-98.1-19.5c-28.1-1.1-49,24.9-58.9,48.7
		c-13.2,35.8-5.2,75.1,0.8,111.6c4.4,23.6,13.1,46.8,28.6,65.4c17.8,19.2,39.5,36.9,65.1,44.1C235.4,439.1,275.1,432,304.7,416.4"/>
	<path vector-effect="non-scaling-stroke" class="st1" d="M210.3,415.9c34.2,7.3,72.4,2,101.7-17.7c21.4-19.8,34.6-46.1,50-70.4
		c11.3-18.1,22.6-37,27-58.1c5-30-4.5-70.7-37.1-80.2c-30.7-9.4-63.3,5.6-94.8,0c-35.9-3-75.4-25.2-109.6-5.6
		c-35.7,20.3-40.2,66.9-34.6,103.8c4.7,35.3,14.3,73.3,42.7,97.1C170.9,399.4,190.7,408.9,210.3,415.9"/>
	<path vector-effect="non-scaling-stroke" class="st1" d="M186.2,389c-24.5-13.1-46.5-33.5-55.1-60.5C116.5,285.9,108,222.1,154,196
		c32.5-18.2,71,1.3,105.4,3.5c33.4,5,71.5-13.2,101.7,6.5c33.6,34.1,13.6,83.5-10.4,117.1c-12.9,21.4-26,43.9-43.5,61.8
		C272.3,412,224.1,407.7,186.2,389"/>
	<path vector-effect="non-scaling-stroke" class="st1" d="M246.4,387c21.5,1.5,43.2-5.2,58.1-21.2c11.1-7.5,16.1-21.7,24.6-31.7
		c7.2-8.9,12.9-19.4,18.9-29.1c9.4-14,18.1-29.6,19.2-46.7c1.9-8.1-0.8-17.3-2.5-25.2c-1.1-8.2-8-13.9-14.7-17.8
		c-14.2-11.6-34.7-7.5-51.6-5.8c-15.5,1.9-32.3,2.2-47.8-0.6c-24.3-2.2-49.7-12.2-73.9-6.9c-29.5,4.1-47.2,33.9-47.2,61.6
		C126.2,337.1,175.3,382.5,246.4,387"/>
	<path vector-effect="non-scaling-stroke" class="st1" d="M217.6,363.7c-20.7-4.7-41.9-13.3-56.4-29.3
		c-24.8-31.9-34.5-85.5,1.3-113.2c26-14.9,55.8-4.9,82.9,0.2c27.8,6.4,57-1.6,84.5,2.2c13.1,0.7,17.9,13.3,22.3,23.2
		c2.3,8.2-1.4,17.4-2.1,25.2c-8.7,22.9-25.4,40.2-38.2,60.3c-7.8,7.2-16.7,15.8-23.7,23.2C266.9,369,241.2,367.8,217.6,363.7"/>
</g>
</svg>
