<?xml version="1.0" encoding="utf-8"?>
<!-- Generator: Adobe Illustrator 28.0.0, SVG Export Plug-In . SVG Version: 6.00 Build 0)  -->
<svg version="1.1" id="Layer_1" xmlns="http://www.w3.org/2000/svg" xmlns:xlink="http://www.w3.org/1999/xlink" x="0px" y="0px"
	 viewBox="0 0 1081 1061.7" style="enable-background:new 0 0 1081 1061.7;" xml:space="preserve">
<style type="text/css">
	.st0{fill:#D09667;stroke:#000000;stroke-miterlimit:10;}
	.st1{display:none;fill:#D09667;stroke:#000000;stroke-miterlimit:10;}
</style>
<g id="surface1207">
	<path vector-effect="non-scaling-stroke" class="st0" d="M755.8,311.3c-14.6-16.1-26.2-71.4-4.1-83.1c19.8,1.4,30.4,29.4,35.6,45.9
		c6,8.7,24.7,72,4.3,65.4C773.9,334.8,765.9,325.4,755.8,311.3"/>
	<path vector-effect="non-scaling-stroke" class="st1" d="M632.3,528.1c3.8,14.1,11.1,27.8,20.6,38.6c2.6,3,4.8,8.2,6.4,11.8
		c4.3,1.1,11,5.2,14.9,1.5c0.7-0.9,7.1-4.6,7.4-5.6c0.5-5.6,3.1-13.2,2-18.8c-1.2-16.7-9-33.7-22.2-44.2c-6-4.3-16.6-3.8-23.6-5.3
		C633.2,510.9,628.4,521.5,632.3,528.1"/>
	<path vector-effect="non-scaling-stroke" class="st1" d="M571,1025.3c8.9-7.1,19-16.1,22.9-27.2c2-16-4.8-37.3-23.5-38.6
		c-9.5,7.6-15.3,21.3-17.5,33.1C553.5,1002.6,562.5,1020.5,571,1025.3"/>
	<path vector-effect="non-scaling-stroke" class="st0" d="M867.2,1059.6c28.6,6.4,39.4-9.8,51.8-32.4c5.9-12,10.6-29.4,27.6-26.8
		c19.9-1.4,42,6.9,61.5-2.3l0,0c51-19.9,80-107.7,70.7-158.5c-13.8-70.3-65.3-50.5-63.3-137.9c-2.1-52.2-12.9-103.9-16.8-154.7
		c2.7-7.7-2.7-16.5,0.5-24.4c-1.9-5.2-1.9-12.5-0.2-17.7c-1.8-5.1-1.8-12.4-0.1-17.5c-1.6-5.2-1.4-12.5,0.2-17.7
		c-1.5-5.2-1.5-12.5-0.1-17.7c-1.9-16.9-1.1-34.9-4.9-51.7c-6.5-38.3-30.2-70.7-45.5-105.7c-10.6-25.1-24.9-49.1-39.8-71.8
		c-11.5-17.3-25.4-33.5-34.8-52.3c-22.1-38.6-25.8-86.1-49.9-123.9c-11.6-18-26.4-35.7-47.7-41.7c-6.1-1.6-14.4-1.3-20.1-4.4
		c-8.2,3.2-18.6,4-26.8,7.3c-24.8,10.1-42.2,34.9-57.8,56.1c-18.3,27-33.2,56.9-43.5,88c-7.4,26.8-10.3,55.8-9.6,83.1
		c-0.2,26.2,0.5,52.3-3.2,78.4c-3.5,13.5-9.9,26.7-13.8,40.2c-3.9,8-5.1,20.4-10.4,27.5c-7,11.7-17.6,49.1-27.6,18.6
		c-9.3-20.2-15.2-42.8-21.5-63.6c-24.3-76.3-102.9-69.1-166.7-84.5c-25.3-4.2-50.7-9.5-74.6-16.9c-27.1-9.3-51.3-13.6-79.4-6.7
		c-12.9,6.6-26.7,12-38.4,19.8c-19.5,14.6-35.5,33.5-53.4,48.9c-12.9,9.5-27.5,16.6-42,22c-7.6,2.9-15.9,3.7-22.3,8.1
		C19.6,347.4,6.3,403.3,2.2,448c-4,31.3,2.3,62.1,6.9,92.1c6.1,22.2,15.5,44,24.5,64.2C67.5,676.6,84.7,731,162,765.8
		c52.2,27,78.6,0.8,126.2-13.7c77.8-27.5,68.6,39,96.7,87.4l0,0c5.4,11.8,18.3,17.5,29.7,21.4c14.5-6.3,23-10.3,29.6-24.5
		c17.6-27.9,20.7-83.2,54.5-90.8c6.8-3.5,12,5.7,17.8,8c7,2.6,13.6,8.5,19.1,12.8c15.9,12.1,35.9,17.9,55.4,18.3
		c12.1-0.6,25.5-2.6,36.6-6.9c7.4-3.9,15.4-7.8,23-10.6c9.5-11.1,10.6-9.9,17.4,1.8c8.8,29.8-11.7,58.8-12.5,88
		c-3.1,17.6-1.7,38.7,9.1,52.9c8.1,8.5,20.4,14.6,31.8,10.5c22.1-3.4,34.1-27,47.2-42.3c12.2-14.7,24.4-30.1,37.6-43.3
		c27.7-32.7,49-10.9,78.2,4.8c19.8,10.1,45,19.7,53.1,42.5c5.2,24.1,6.2,50-0.1,73.3c-5.3,9.2-13.6,15.7-23.4,18.4
		c-11.3,7.5-24.3,14.1-32.5,24.4c-3.1,5.9-9.7,13.3-12.1,18.8c-5.5,1.9-12.9,11-13.5,16.4C846.8,1045.9,844.4,1055.6,867.2,1059.6"
		/>
	<path vector-effect="non-scaling-stroke" class="st1" d="M752.7,1054.5c10.4,39.4,35.7,40.2,58.3,9.1c4.4-5.3,9.7-12,17.1-12.7
		c-2.3-2.9-3.8-8.5-2.7-12.1c0,0,2.8-5.5,2.8-5.5c-3-1.3-9.7-6.5-13-3.6c-5.5-15.6-27.4-18.1-41.8-17.2
		C757.1,1017.7,752,1039.2,752.7,1054.5"/>
	<path vector-effect="non-scaling-stroke" class="st1" d="M602.3,1268.2c6.3,14.4,7.2,7.8,17.2,14.8c6.9-4.7,12.1-16.3,14.7-24.1
		c0.9-9.4-7.8-21.8-12-29.6c-3.2-2.1-14.4,0.3-14.9,5.3C600.5,1247,594.9,1254.3,602.3,1268.2"/>
	<path vector-effect="non-scaling-stroke" class="st1" d="M191.7,737.7c-4.2-0.5-10.8-2.2-14.8-3.9l0,0
		C116.8,717,88.7,667.1,65.7,613.9C40.1,562.4,17,506.2,25,448.1c3.9-33.4,16-68.9,45.9-86.6c16.1-8.3,34.6-13.6,49.3-23.8
		c22.8-16.1,40.4-38.2,60.3-56.9c28.7-23.1,64.5-37.3,100.2-22.1c25.8,9.8,49.4,26.7,76.7,32c32.7,6.9,67.9,4.9,99.1,18.4
		c45.6,16.3,55.1,67.6,61.3,110c5.1,32.3,13.3,64,25.5,94.8c18.2,41.6,69.8,35.5,98.3,114.5c26,57.3-27.7,157.6-93.7,105.8
		c-13.1-12.4-23.2-29-32.8-44.2c-2.4-4.1-5.4-9.5-7.8-13.6c-2.9-6.2-2.9-10.7-10.2-5.6c-3.5,1.9-10.1,2.6-13.8,4.1
		c-3.2,6.6-11.3,10.9-14.9,17.5c-11,13.1-22.1,27-31.8,41.1c-29.7,18.5-21.1,13.7-43.1-10.2c-17.2-26.2-26.6-59.9-64.5-38.1
		c-22.2,10.3-45.1,20.1-67.1,30.8C240.2,727.4,217.1,740.8,191.7,737.7"/>
	<path vector-effect="non-scaling-stroke" class="st1" d="M902.2,806.7c40.4,3.1,59.9,1.1,73.7-40.4c20.3-57.1,11.4-118.7,5.3-177
		c-7-63.6-0.5-128.4-17.5-190.2l0,0c-9.4-28.8-20.5-57.9-31.5-85.9c-5.9-15.9-11.7-32.8-20.9-46.6c-14.3-31.8-40.6-56.2-54.9-87.3
		C832.8,133.4,829.5,72.5,785.7,41C721.1,3.1,673.6,95.1,652.1,142.6c-22,53.8-12.5,113.3-12.3,169.1c0.7,32.2-6.7,65.5-1.7,96.8
		c6.6,23.5,26.9,40,43.8,54.6c25,29.7,34.6,68.4,37.6,105c4.9,43.2-8.2,86.1,3.3,127.3c3.5,19.5,15.4,38.2,33.1,44.1
		c19.3-8.2,40.5-17.1,57.5-2.9C841.1,763.5,857.6,804.8,902.2,806.7"/>
	<path vector-effect="non-scaling-stroke" class="st0" d="M1023,839.8c-9.3-3.6-19.3-11.6-29.6-9.7c-6.4,1.6-17.4,1.5-19.3,9.4
		c-13.9,27.8-13.6,64.3,1.4,91.7c23.1,25.5,50.8-2.1,57-27.7C1038.6,882.6,1038.9,856.5,1023,839.8"/>
	<path vector-effect="non-scaling-stroke" class="st1" d="M779.6,670.3c19.5,11.5,42,20.9,57.9,37.7c13.4,14.2,22.3,33.6,37.2,46.4
		c17,18.9,51.1,15.4,67.3-2.8c19.4-17.6,25-45.2,26.5-70.3c1.7-30.3-1.5-61.1-2.3-91.4c-0.8-54.9-4.1-110.5-16.5-164
		c-4-20.3-11.6-40.4-17.3-60.2c-6.6-27.6-15-55.1-26.9-80.9c-13.7-31.6-38.7-56.8-54-87.4c-26.1-41.9-28.1-98.8-66.3-132.8
		c-46.2-39.4-91.4,23.5-111.1,61.6c-15,29.8-24.7,63.7-25.4,96.9c0.4,49.4,7.3,99.2,12.8,147.5c5.7,43.7,44.8,71.7,57.5,112.3
		c15.8,34.8,19.2,73.6,26.1,110.3c4.6,24.8,6.3,52.6,26.2,70.2C771.4,663.5,779.5,670.2,779.6,670.3"/>
	<path vector-effect="non-scaling-stroke" class="st1" d="M606.6,707.4c23-22.3,21.4-62.6,4.1-88c-4.9-7.3-11.3-14.2-18.1-19.7
		c-9.2-1.9-21.2-7.1-29.8-1.3c-35.5,20.4-30,87.4-0.1,110.7c5.8,9.2,19.4,7.6,28.8,8.3C596.7,715.9,602.4,710.9,606.6,707.4"/>
	<path vector-effect="non-scaling-stroke" class="st1" d="M162,700.4c-25.2-10.7-46-30.5-59.3-54.4c-11.6-19.4-21-41.5-30.1-61.8
		c-14.9-30-28.4-62-30.7-95.3c-3.2-36.4,4.3-79.5,35.6-101.9c18.1-11.6,39.6-19.5,54.8-34.5c24.5-22.2,44.3-49.9,71.9-67.9
		c25.5-17.4,59.5-16.9,85-1c17.7,10.9,33.4,25.3,51.1,35.1c18,10.4,40.3,6.1,59.5,7.4c28.6,0.9,58.2,11.9,74.2,36.2
		c23,35.6,26,80.4,33.6,120.3c11.6,59.5-12.1,117.5-48.3,163.1c-18.9,17.6-16.5,25.9-44.5,21.4c-11.3-9.7-18.4-23.6-29.6-32.9
		c-4.9-4.5-10.6-9.6-15-13.9c-16.6-3.5-30.2,6.3-41.5,16.5c-20.8,18.2-46.2,29.3-69.8,42.4C226.6,701.5,201.2,716.9,162,700.4"/>
	<path vector-effect="non-scaling-stroke" class="st1" d="M585.9,673.2c-1.8,1.1-5.3-6.4-6.1-7.1c3.8-1.8,8.5-5.6,12.7-6.3
		C592.3,666.7,597.2,676.4,585.9,673.2"/>
	<path vector-effect="non-scaling-stroke" class="st0" d="M155.4,671.3c36.9,20,64.5,0.1,93.4-22.5c14.4-10.7,32-17.1,47-26.9
		c25.9-13.8,50.5-64.6,83-36.5c18.6,13.1,33.4,38.7,58.9,35.1c17.9-13.8,26.5-21.7,36.2-42.7c19.3-35,22.2-76.9,15-115.7
		c-10.1-56.6-34.3-120.6-104.2-106.6c-12.3,2.9-25.9,4.7-38.3,1.2c-6-4.2-11.9-9.8-17.7-14.3c-15.3-15.1-28.8-33.3-47.9-44.4
		c-31.4-18.3-62.6-9.4-88.9,13.3c-23.7,21.5-42.5,48.4-66.6,69.2c-24.2,19.1-56.9,34-62.8,67.3c-12.3,45.1,6.5,91.1,25.4,131.1
		C104.1,613.6,119.1,653.7,155.4,671.3"/>
	<path vector-effect="non-scaling-stroke" class="st1" d="M874.5,706.2c-21.7-18-45-34.3-69.3-48.5c-21.5-16.3-34.9-36.6-42.1-62.6
		c-9.4-34.3-14.1-70.2-25.6-104c-6.8-24.2-18.4-47.1-31.1-68.7c-9.2-15.3-19.6-30.6-24.8-47.9c-13-33.2-16-70-20.2-105.1
		c-8.6-59.3,4.9-122.9,43.8-169.8c25.9-32.1,60.3-45,87.9-6.6c21.1,29.6,28.7,66.6,44.5,99.1c13,30.1,35.4,55,50.9,83.8
		c14.2,22.3,20.5,48.8,28,73.8c10.6,52.7,29.3,104,34.6,157.6c4.7,57.5,4.6,116.7-4.6,173.7c-4.2,16.4-10,34.8-27.5,41
		c-5.9,4.4-13.8,3.7-20.3,0.8C888.6,720.7,881.7,713,874.5,706.2"/>
	<path vector-effect="non-scaling-stroke" class="st1" d="M216.6,637c11.3-8.8,22.8-18.3,35.4-25.3c16-8.4,33.3-15.5,47.2-27.4
		c14.8-12.3,26-29.9,40.9-42.4c6.6-6.2,11.2-3.9,18.9-1.7c10.9,1.3,17.5,11.4,25.3,17.9c11.8,8.6,22,23.9,37.2,26
		c10,4.1,17.5,2.3,24.9-5.5c9.6-7.2,16.7-17.3,20.4-28.7c18.1-45.3,11.8-100.5-12.9-142.1c-8-11.6-18.1-22.5-32.3-25.9
		c-8.5-4.8-20.6-1.2-29.7-0.2c-15.2,4.8-30.2,17-46.9,11.8c-7.1-6.3-12.5-14.9-19.6-21.2c-8-15.2-18.2-30.6-29.6-43.5
		c-72.6-78.2-125,31-174.8,74.8c-33,27.3-51,51.9-44,96.2c5,26.8,16,52.5,26.9,76.7C123.1,625,162.5,676.9,216.6,637"/>
	<path vector-effect="non-scaling-stroke" class="st1" d="M867.5,671.7c40.5,20.8,60.4,0.4,68.5-40.6c6.7-35.5,9.3-72.1,6.3-108.2
		c-6.3-60-28.7-117.1-38.4-176.6c-5.4-26.5-16.1-52-30.2-75c-13.9-22.7-30.9-44.1-41.6-68.6c-23-42.2-44.5-158.5-111.5-102.6
		c-69.7,67.4-60.3,175.3-31.7,259.4c12,34.5,36,63.6,48.5,97.4C776.4,544.5,754.4,637.7,867.5,671.7"/>
	<path vector-effect="non-scaling-stroke" class="st1" d="M132.3,595.3C109.1,558.4,91,514,95.8,469.7c6.1-20.3,19.3-36.9,32.6-52.8
		c14-16.1,27.5-33,41.1-49.5c60.9-81.3,115.4-63.1,148.6,27.1c3.9,8.2,6.1,18,10.5,25.9c6.3,10.4,11.1,22.1,13.7,33.9
		c5.1,25.8,13-4.6,19.3-12.3c17.3-16.8,25.9-34.8,53.1-36.9c7.2,3.3,17.3,6.3,23.2,11.6c11.9,15.4,21.1,33.5,24.7,52.8
		c3.6,30.6,2.3,61.5-21.9,83.7c-15.3,7.4-30.5,0.2-40.8-11.9c-8.4-7.8-17.1-17-22.7-27.1c-6.3-11.5-16.7-20.8-21.8-33.1
		c-10.5-21.1-16.8,7-21.2,16.5c-13,15.8-19.1,36.6-33.5,51.6c-18.3,22.8-47.7,30.6-71.4,46C193.4,622.4,163.4,641.5,132.3,595.3"/>
	<path vector-effect="non-scaling-stroke" class="st0" d="M815.2,628.3L815.2,628.3c-38.9-36.2-40.5-93.5-55.8-141.1
		c-11.7-46.1-39.2-86-59.2-127.8c-18.1-46.8-28.8-98.1-23.8-147.4c3.3-42.4,46.9-141,99.2-103c19.4,19.1,29,46.2,38.8,70.5
		c9.3,21.4,19.4,41.8,30.9,61.8c52.2,72.2,49.2,103.5,66.4,185c10.9,36.9,22.5,75,23,113.7c-0.5,39-1.2,101.6-45.2,115.8
		C862.4,658.5,834.8,645.7,815.2,628.3"/>
	<path vector-effect="non-scaling-stroke" class="st1" d="M429.2,524.4c-20.1,1.6-18.5-5.5-29.6-19.5c-5.6-6.4-7.9-16.9-8.9-24.8
		c-2.5-7.2-1.8-15.4,1.4-21.7c6.5-12.4,18.3-30.3,32-17.8c21.5,8.8,20.8,36.4,22,55.5c-1.9,8.2-5.8,19.1-9,26.4
		C436.5,524.5,430.6,523.9,429.2,524.4"/>
	<path vector-effect="non-scaling-stroke" class="st1" d="M132.3,559.7c-5.9-11.6-11.3-24.6-14.8-37.2l0,0c-8.8-30.6-2.5-62,15-88.2
		c32.5-40.6,86.7-147.9,146.3-87.9c35.6,47.5,51.9,125.1,16.1,176c-16.7,26.5-47.6,35.5-73.1,49.8
		C182.2,594.9,158.6,607.2,132.3,559.7"/>
	<path vector-effect="non-scaling-stroke" class="st1" d="M844.8,634c-48.8-20.6-59.7-77.8-69.9-123.8c-7.5-32.6-18.3-64.1-34-93.4
		l0,0c-13-25.2-28.7-50.2-39.1-76.4c-16.9-46.1-25.8-97.9-14.8-145.8c8.2-34.6,41.3-101.1,83.9-74.2c18.5,16.2,27.4,40.6,37.1,61.9
		c9.5,22.3,20.2,44.2,32.3,64.6c46.5,68.7,47.3,91.7,60.9,170.3c9.1,41.1,26.6,81.2,26.1,123.5C928.5,592.3,909.6,658.4,844.8,634"
		/>
	<path vector-effect="non-scaling-stroke" class="st1" d="M162,559.7c-25.6-19-33.5-53.6-29.8-83.9c5-27.8,22.2-53.3,38.2-76.3
		c24.7-38,71.8-88.4,108.1-32.9c30.5,52.6,33.1,141.7-30.1,170.4c-14.3,6.8-29.4,13.1-43.9,18.2C191,561.3,176.1,564.7,162,559.7"/>
	<path vector-effect="non-scaling-stroke" class="st0" d="M815.2,598.2c-26.4-35.8-27.6-82.7-40.7-123.9
		c-12.2-42.7-36.8-80.3-57.5-119.1c-19.1-38.2-29.4-81.5-28.4-123.9c1.6-27.9,8.7-56.5,25.3-78.7c8.3-13.1,20-22.1,34.6-26.3
		c7.7-0.8,15.6,4.7,21.9,8.3c21.8,21.5,31.4,52.8,44.9,79.6c13.3,27.2,29.5,53.1,44.8,79.1c19.9,34.7,24.5,75.7,30,114.3
		c5.8,33.2,19.5,64.3,25.8,96.9c6.6,39.7,7.8,98.5-33.5,118.8C856.6,632.2,831.6,617.4,815.2,598.2"/>
	<path vector-effect="non-scaling-stroke" class="st1" d="M904.2,490.4c-6.3-22.5-15.2-44.8-19.9-67.7c-5.2-24.2-6.4-49.9-11.8-74.1
		c-6.9-32.9-25.6-61.7-41.8-90.5c-22.2-34.9-33.3-77.8-60.4-108.9c-31.8-28.2-60.3,17.5-68.8,44.8c-14.7,49.1-3.5,103,17.1,147.9
		c19.9,39.1,45.8,74.6,59.7,115.9c14.6,39.3,15.5,83.5,34.9,120.4c13.3,28.1,50.5,47.6,76.7,26.1C918.3,573.6,915,527.6,904.2,490.4
		"/>
	<path vector-effect="non-scaling-stroke" class="st1" d="M162,525.5c-24.8-33.3-10.3-76.7,9.8-108.6c15.3-25.2,34.3-54,64.2-61.7
		c53.2,2.2,61.1,96.2,40.1,131.9c-10.4,21.9-33.6,33.7-55,40.9C202.1,534.7,177.8,541.2,162,525.5"/>
	<path vector-effect="non-scaling-stroke" class="st1" d="M247.6,496.1c19.1-13.9,27.1-38.7,26.8-61.6c0-19-6.1-37.9-16-54
		c-22.9-18-45-3.3-59.3,17.3c-16.4,18.1-26,41.9-31.5,65.5c-2.9,17.2,2.3,39.7,20.4,46.3C208.3,513.9,230.9,508.1,247.6,496.1"/>
	<path vector-effect="non-scaling-stroke" class="st1" d="M844.8,598.7c-41.7-24-40.2-78.9-52-120.1c-13.8-67.9-67.3-119.1-85.2-185
		c-7.9-34.1-11.4-71.4,3.4-103.7c7.7-18.9,21.8-37.5,44.1-36.4c26.3,11.9,35.5,42.6,48.4,66c31.5,69.2,64.8,101.2,68.8,182.1
		c3.3,42,25.2,79.4,30.4,120.6C906.2,559.5,894.1,616.1,844.8,598.7"/>
	<path vector-effect="non-scaling-stroke" class="st0" d="M187.5,457c-5.3,30.2,31.6,35.2,51,21.4c21-13.7,23.7-41.3,19.8-64
		c-1.6-11.5-13-18.2-22.3-23.2c-11.2,1.7-23.2,9.9-29.7,19c-5.5,6.8-9.7,17-14.5,24.3C188.6,441.1,188.4,449.8,187.5,457"/>
	<path vector-effect="non-scaling-stroke" class="st1" d="M811.4,527c4.6,22.4,14.2,46.4,33.6,59.8c36.6,14.5,52.3-23.9,51-54.4
		c0.2-32.8-17.5-61.9-25.8-92.8c-7.1-30.5-7.2-62.6-14.7-93.1c-8.2-31.7-26.2-59.6-40.7-88.6c-9.2-18.1-17.5-37.3-27.8-54.9
		c-5.7-10-10.9-21.7-20.6-28.4c-12.1-10.7-19.6-9.4-33.4-2.1c-12.2,10-18.9,26.8-22.1,41.8c-8.5,37.3,0,76.9,15.2,111.4
		c14.2,28.6,33.4,54.5,49,82.3C796.1,444.4,804.9,485.9,811.4,527"/>
	<path vector-effect="non-scaling-stroke" class="st1" d="M838.1,566.6c-18.7-22.2-20.3-53.7-24.8-81.3
		c-1.8-21.5-9.3-42.2-19.3-61.1c-25.6-54.3-74.7-98.9-79.3-161.7c-1.1-26.3-1-61.8,23.3-77.9c5.6-3.2,11-7,17.7-4.2
		c13.1,8.2,23.6,19.3,29.7,33.6c9.4,15.8,17.4,33,25,49.7c13.2,28.1,29.4,55.5,37.1,85.8c6.2,26.9,4.9,55.4,10.1,82.4
		c6.5,31.9,25.5,60.8,29.2,93.4c-0.7,13.6,0.9,31.4-10.5,41.2c-4.3,5.1-9.4,10.9-16.8,10.2C852.1,574.8,843.1,573,838.1,566.6"/>
	<path vector-effect="non-scaling-stroke" class="st1" d="M868.5,494.4c3.1,11.8,7.3,24.5,7.2,36.8c-3.3,10.3-2.3,32.7-18.1,29
		c-15-3.4-14.7-1.7-20.1-15.8c-7.6-17.8-9.1-38.3-10.1-57.3c-0.7-4.2-0.2-13.4,0.6-17.6c-3.1-3.9-2-10.8-5.3-14.2
		c0.2-2.9-3-6-4.1-8.3c1.7-6-6.6-17.3-8.5-24.1c-8.3-12.1-17.1-24.2-24.6-36.8c-22.9-31.6-50-62.9-60.1-101.4
		c-5.4-25.7-9.7-64.9,11.6-84.1c14.8-12.5,20.8-4.8,33.8,4.8c15.4,21.2,27,46.7,37.1,70.5c12.6,26.2,24.2,53.4,31.1,81.1
		c-0.6,9.2,3.8,19.4,2.9,28c0.6,22-1.3,44.3,4.4,65.2C849.4,467.2,860.9,479.7,868.5,494.4"/>
	<path vector-effect="non-scaling-stroke" class="st1" d="M814.9,390.4c-2.2-3.7-10.9-6.8-14.6-8.4c-4.2-4.5-11.1-13-14.9-17.9
		c-8.9-6.8-16.9-17.7-23.1-26.4c-16-17-26.2-40-30.9-61.8c-4.2-20-5.3-44.8,9.8-59.7c9.9-14.6,20.2-2,29.6,5
		c6.5,7,11.3,17,14.8,25.2c4.8,9.6,10.2,19.5,13.6,29.2c8.9,22,17.2,44.8,23.4,67.2c1.6,6.7,3.2,15.1,0.4,20.7
		C825.3,373.4,827.3,388.5,814.9,390.4"/>
</g>
</svg>
