<?xml version="1.0" encoding="utf-8"?>
<!-- Generator: Adobe Illustrator 28.0.0, SVG Export Plug-In . SVG Version: 6.00 Build 0)  -->
<svg version="1.1" id="Layer_1" xmlns="http://www.w3.org/2000/svg" xmlns:xlink="http://www.w3.org/1999/xlink" x="0px" y="0px"
	 viewBox="0 0 766.6 875.6" style="enable-background:new 0 0 766.6 875.6;" xml:space="preserve">
<style type="text/css">
	.st0{fill:#CB6E46;stroke:#000000;stroke-miterlimit:10;}
	.st1{display:none;fill:#CB6E46;stroke:#000000;stroke-miterlimit:10;}
</style>
<g id="surface1212">
	<path vector-effect="non-scaling-stroke" class="st0" d="M296.4,621.2c15.7,4,34.5,3.9,50.3-0.1c16.2-4.1,23.7-10.4,20.7-27.8
		c-7.6-6.4-18.6-9.4-27.9-12.3c-22.2-3.6-53-4.4-67.5,15.8c-0.8,6.9,4.6,12.3,7.8,17.8C283.5,617.4,292,619.6,296.4,621.2"/>
	<path vector-effect="non-scaling-stroke" class="st1" d="M-106.9-45.4c20.9,7.8,45.8,8.5,67.4,3.5c11.5-3.5,25.4-6.7,32.7-17
		C5.1-72.3-3-94.5-19.2-100.2c-29-14.1-64.8-13.5-94.3-1c-11.6,3.6-18.1,15.2-22.6,25.8C-133.2-61.2-121-49.1-106.9-45.4
		L-106.9-45.4"/>
	<path vector-effect="non-scaling-stroke" class="st1" d="M-185.8,178c23.8,9.9,51,11.2,76.1,6.1c12.6-3.1,27.4-5.9,38.3-13.3
		c5.2-1.8,6.9-8.4,11.5-11.1c1.7-2.9,5-10.2,1.7-12.4c-22.7-18.6-39.4-30.8-70.1-33.3c-22.3-2.8-45.4,1.1-65.7,10.6
		c-7.5,6.1-16.7,15-18,24.9C-208.2,162.6-198.6,173.4-185.8,178"/>
	<path vector-effect="non-scaling-stroke" class="st1" d="M65.7,875.6c33.3,11.3,70.9,9,103.7-3c20.3-7.9,38.3-21.5,56.8-32.4
		c20.4-12.5,45.1-3.7,66.6,1.3c42,10.6,86.2,9.6,129.2,7.4c34.1-1.5,69.4-1.4,101.9-13.1c17-5.4,30.7-16,36-33.6
		c-1.3-10.2-6.3-22-14.8-28.2c-14.8-12.2-34-18-49.8-28.2c-5.8,0.5-11.5-3.6-15.3-7.6c-2.7-1.7-2.1-8.4-3.1-11.1
		c-3.4-7.1,8.5-7.3,13-9.8c4.4,0.7,9.9-2.2,14-3.1c11.1-1,22.9-2.3,34-0.9c28.1,2.3,52.1,19.5,79.8,23.7c35.9,8.6,75,5.2,109-9.9
		c21.5-10.8,40.4-26.4,61.2-38.4c23.3-14.8,60.8-33.6,44.5-66.4c-8.9-14.7-24.1-25.9-32.1-41.2c-6.8-11.3-9.3-26.5-13.5-38.3
		c-2-11.9-7.7-23.8-8.5-35.6c-0.8-16.7,8.8-31.1,19.5-42.5c7.7-9.6,14.5-20.4,23.4-28.7c7.3-6,15.7-15.1,22.2-21.5
		c8.4-7.4,18-16.2,20.5-26.9c10.8-20-5.4-40.8-14.1-57.8c-7.3-12.4-11.5-26.3-16.1-39.3c-5-14.7-15.2-26.9-24.1-38.7
		c-7.2-12.2-12.8-25.5-16.5-38.7c-4.2-16-14.6-29.8-18.9-45.2c1-9.6,2.2-20.1,10.3-26c16.3-18.2,27.9-25.2,34.4-50.3
		c-8.1-56-93.5-63.4-138.1-56.7c-40.7,5.1-73.4,32.8-110.7,45.4c-24.3,8.7-50.5,11.9-75,16.6c-23.8,4.1-47.1,13.4-70.6,10.5
		c-37.1-2.5-27.2-59.5-37.9-83.5c-3.4-9.6-8.7-18.8-13.7-26.5c-11.3-12.1-20.1-30.4-6.2-42.9c42.7-55.2-42.2-72.2-82.2-62.7
		c-17.1,4.1-34.5,10.8-42.7,27.1c-3.4,7.6-4.9,17.5-5,25.3c-1.1,6.3-7.9,13.3-11.1,17.8c-12.8,7.4-26.4,12-39.3,17.5
		C153.9-6,107.4,2.6,87.8,33.8c-2.1,4.6-4.3,10.5-6.3,14.4c1.2,11,6,24.7,3.2,34.7c0.1,2.5-1.6,7.7-2.2,8.4
		c-8.1,4.3-16.6,8.4-24,12.1c-24.4,10.7-50.4,20.6-70,38.2c-3.1,3.6-8.5,5.7-12.1,7.1c-3.2,4.7-8.1,9.3-8.7,14.4
		c-2.6,7.1-2.8,15.5-2.9,21.9c-0.7,7.8-5.5,15.3-8.4,21.2c-27.4,33.9-60.5,36.6-98.4,48.3c-20.9,6.3-40.1,17.1-47.6,37.7
		c2.7,9.7,5.9,21.3,11.6,28.7c8.4,10,13.5,22,13.3,34.5c-3.6,26.7-0.3,57.2,22.7,73.7c17.4,19.2,43,25.9,63.8,38.1
		c14.6,6.7,19.4,10.8,16.1,26.2c-3,15.3-7.5,30.8-6.7,45.6c4.6,41.4-29.2,61.7-34.7,97.2c4.6,30.4,33.5,48.2,59.7,58.2
		c45.9,18.3,96.1,26.1,144.6,26c47.1,1.3,92.9-5.7,139,2.1c8.9,4.2,19.6,8.6,27.2,14.4c5.2,20.1-17,31.6-32.6,37.2
		c-23.1,2.2-45.9-7.2-67.3-11c-23.3-5.2-47.8-5-69.9,1.1c-35.5,7.1-91.4,42.8-69.4,83.2C34.8,861.8,50.3,873,65.7,875.6"/>
	<path vector-effect="non-scaling-stroke" class="st1" d="M296.9,810.6c-13.6-7.9-7.7-19-3.6-30.8c12.7-13,28.2-24.5,40.6-37.5
		c2.8-5.5,0.5-7.2-3.9-10.4c-3.2-3-6.8-6.9-10.3-9.6c-22.2-6.2-44.8-12.8-67.6-16.9c-17.9-4-36.4-3.8-54.2-5.3
		c-6.7-1.1-14.5,3-21,0.2c-9.7-0.7-20.6,3-29.7,1.3c-13.2,1.2-26,2.1-38.7,2c-53.1,0.3-110.3-4.5-156.3-34.1
		c-19-11-27.4-35.4-16.2-54.4c7.6-15.7,22.1-28.5,26.4-45.1c7.5-26.9-6-47.1,13.2-72.8c3.6-5.6,8.7-11.1,13.3-15.2
		c6.9-2.2,7.5-9.7,8.1-15.4c-5.4-9.2-16.4-13-25.9-9.5c-3.4-3.6-9.9-4.8-14.1-3.6c-6.1-4-14.8-4-21.3-6.2
		c-41.3-10.6-90.6-44.4-63-91.2c3.1-7.7,7.2-15.2,11.9-21.6c2.9-14.4-3.9-29.5-5.5-43c11.7-7.4,26-11,37.9-16.9
		c5.1-3,12.6-2.7,16.2-6.9c29.8-16.4,55.2-41.1,73.5-69.2c6.9-11.2,9.3-25.2,16-36.2c11.8-23.6,38-34.1,61.8-40.8
		c15.5-2.8,32.3-6.7,47.4-7.2c7.8-0.9,17.1-0.5,23.4-5.1c4.3,2.4,10.9-2.3,14.2-4.3l0,0l0,0c-4.2-4.3-7.1-13.6-11.8-16.7
		c-7.3-6.6-16.8-12.6-22.7-20.1c-3.6-6.6-10.1-15.3-9.4-22.2c8-20.7,27.8-30.4,46.4-39.2c31-14.1,64.1-21.6,96.9-27.2
		c29.2-0.4,58.5,9,77.8,32c12.3,13.6,14.8,33.2,13,50.4c-0.3,15.4-0.8,31.1-3,45.9c-8.6,32.2-19.6,54.8,25.5,50.6
		c9.7-1.5,19-6.6,28.3-8.9c4.7-3,10.4-6.8,15.3-8.7c24.3-10.6,48.9-21.7,74.7-26.7c34.4-8,70-12.6,103.4-23.3
		c21-8.3,39.3-22.8,59.8-30.9c29.1-10.1,62-11.6,90.6-1.2c13.2,4.1,23.1,13.1,28.6,24.9c3.3,7.5-1.6,14.8-3.8,21.4
		c-11.4,16.3-29.6,27.8-42.4,43c-6.4,15.4-5.9,30,0.1,44.7c5.1,12.9,7.2,27.2,14.2,38.1c16.9,21,40.8,36.4,53,60.6
		c4.9,14.1,7.2,29.9,13.1,42.9c16.9,25.3,22.3,50.2-1.9,72c-6.9,10.7-15.9,20.1-23.8,28.7c-9.7,13.7-21.3,25.4-31.1,37.8
		c-20.1,23.1-6.3,43.5,0.3,67.4c4.9,19.9,4.8,40.3,13,58.6c17.4,30.4,24.6,44.4-8.3,66.8c-19.2,13.2-36.6,28.3-56.5,38.9
		c-30.8,16.3-67,14.2-98.8,3c-21.8-9.2-45.1-17.1-68.6-17.7c-45.6,0.6-90.5,7.7-130.2,29.6c-5.8,0.5-5.6,6.6-5.6,10.5
		c-0.9,3.4-0.8,7.7,2.9,8.7c2.9-1.1,7.4,4.6,8.6,5.7c15.4,6.6,30.9,13.3,45.3,20.1c13.8,7.1,31.3,10.4,38.4,24.5
		c2.4,4.4,6.5,9.1,4.8,13.4c-7.1,6.5-15.3,11.8-23.4,14.8c-34.4,11.1-71,10.2-106.5,11.8C348.4,829.7,320.5,825.1,296.9,810.6"/>
	<path vector-effect="non-scaling-stroke" class="st0" d="M70.2,840.7c-5-10.5-8.8-18.2-0.1-27.8c7.2-14.2,23.1-19.8,37.5-24.1
		c24.4-5.7,48.6-1.4,69.2,11.8c11.6,22.4,1.7,28-13.6,43.5c-19.5,9.9-42.7,17-64.6,11.2C88.9,853.3,75.4,849.9,70.2,840.7"/>
	<path vector-effect="non-scaling-stroke" class="st1" d="M236.7,101.6c10.1,2.9,18.4,10.6,27.9,14c15.6,7.2,32.5-2,46.2-10.2
		c23.4-23.7,38.2-72.3,4.3-93.3c-37.3-24.3-86.9-12.1-124.4,6c-7.8,3.7-16.8,7.9-21.2,15.9c-8,11.6-10.1,14.6,0,26.1
		c8.8,12.3,24,18.7,37.1,25.3C216.8,90.2,226.3,97.4,236.7,101.6"/>
	<path vector-effect="non-scaling-stroke" class="st1" d="M11.4,298.9c-9.4-4.5-16.2-16.3-17-26.5c3.2-9.6,7.7-20.7,15.4-27.5
		c11.9-12.3,21.7-27.3,28.2-43.1c4.8-13,7.1-28.5,16.4-39.2c23-29.9,66.2-28.9,100.5-28.8l0,0c19.3,0.4,39.7,1.5,59,2.5
		c15.5,0.3,32.3-0.5,47.1,4.5c8.6,6.7,16.4,19.3,15.9,30.4c-9.8,18.1-24.9,25.9-43.8,31.8c-20.7,9.1-42,17.9-63.8,23.4
		c-19.3,6.4-39.1,13.9-56.8,23.7c-4.8,3.3-9.5,9.9-11.8,15.2c-2.5,2.5-4.4,6.6-4.1,10.2c-2.6,3.4-4,8.7-1.7,12.6
		c-5.4-3.7-10.8,0.8-15.3,3.7c-1.2,1.7-2.5,6.5-4.9,7.1C58.6,308,27.9,308.3,11.4,298.9"/>
	<path vector-effect="non-scaling-stroke" class="st1" d="M266.7,695.5c7.7,1.7,17,1.9,25.1,3.3c4.6,3.3,11.1,0.9,16.2,2
		c15,3.6,31.3,5.7,46.7,5.9c12.7-0.7,26.4-0.9,37.9-6c3.6-0.5,8.8-1.5,12.4-2.2c2.4,0.1,6.5,0.8,8.3-1.6
		c37-7.6,74.5-15.5,112.1-19.7c20.4-2.1,42-1.8,62.1,2.7c25.4,7.4,51.4,17.5,78.3,14.3c21.1-4.4,38.7-16.7,54.7-30.6
		c20.3-16.8,28.4-29,24.5-56.1c-0.7-43.6,4.7-52.7-14.2-95.2c-15.4-31.2,18.8-47.8,33.8-70.2c12.4-12.8,21.5-28.6,32.1-42.8
		c15.6-20.9,4.8-45.1-5-65.9c-5.1-16.9-5.9-37.1-18-50.8c-14-15.2-31.9-27.2-51.6-33.8c-12.4-7.7-28-11.7-42.3-14.2
		c-9.1-0.9-14.6-6.7-13.4-15.6c7.4-12,21.4-20.7,25.3-34.9c9.8-30.6,15-50.7,44.6-68.9c6.1-3.9,10.3-10.1,12.6-17
		c0.3-2.2,4-6.2,2.6-8.4C745,72,717.2,66.9,700.7,69.2c-27,2.6-48.1,21.4-72.8,30.8C574,119.3,513,114.9,462.1,143.8
		c-20,10.5-35.4,28.1-52,42.9c-13.4,6.7-27.5,13.1-42.4,16c-15.1,3.7-29.8,10.6-42.4,19.6c-9.8,10.4-23.7,15.6-36.6,20.9
		c-32.7,13.7-69.3,11.1-103.4,18.7c-16.2,2.1-31.4,8.4-46.8,13.2c-5.8,4.2-14.8,4.8-21.7,6.7c-1.8,2.3-5.8,4.9-8.6,5.7
		c-0.4,4.7-5.3,5.4-8.9,5.3c-2.4,1.2-8.1,3.2-10.8,3.4c0,6.2-2.7,13.2-6.9,17.6c-4.1,2.4-8.7-2.8-11.2-5.4c-0.7,2.9-6.2,8.5-9.4,7.8
		c-1.6-7.8-12.6-9.1-19-9.2c-1.5,4.1-4.4,11.4-9.9,9.7c-4.1-9.1-4.3-9.2-7.6,0.8c-7.6,0.5-17.7,2.2-25.2,3.8
		c-18.8,3.9-37.9,9.2-56.2,15.1c-25.4,5.7-55.2,24.9-54,53.8c4.2,28,36.4,40.5,61.3,45.6c53.5,14.4,108.2-9.2,162.3-0.6
		c9.4,3.2,19.6,10.9,23.5,20.4c-1,4.5-8,4.3-11.5,6.1c-7.9,2.7-17.9,5.4-26.1,6.9c-35.9,13.3-92.1,9.5-106.2,52.9
		c-2.8,19.6,6.3,34.3-3,53.3c-9.3,18.9-29.5,32.8-33.3,54.5c-5,15.3,9.2,31.1,21.9,38.2c56.9,32.6,125.2,26.1,188.1,22.9
		C199.6,688.6,233.4,692.3,266.7,695.5"/>
	<path vector-effect="non-scaling-stroke" class="st1" d="M381.9,809.3c-15.5,0.4-32.1-1.7-46.3-8.2c-0.4-22.6,4.6-22.8,23.6-30
		c18.4-3.7,37.9-1.4,55,4.7c14.4,2.9,17.2,13.1,17.3,25.5C414.7,805.7,399.4,809.1,381.9,809.3"/>
	<path vector-effect="non-scaling-stroke" class="st0" d="M211.9,63.6c-18.1-15.9-19.4-14.5-3.6-33.9c19.8-15.8,66-20.7,88.5-6.5
		c9.4,3.7,11.5,16.4,14.7,24.9c-6.3,19.5-21.4,34.4-42.8,33.3C249.2,81.1,227.4,75.4,211.9,63.6"/>
	<path vector-effect="non-scaling-stroke" class="st1" d="M490.6,215.3c10.2,5.5,23.1,6.2,33.1,11.5c9.1-0.5,19.7,0.8,28.2,4.1
		c8.9-2,19.2-5.4,28.3-3.8c9.5-6.4,23.8-9.4,32.7-16.4c19.8-10.3,39.8-21,52.1-39.9c6.7-13.9,9.6-29.5,8.1-44.4
		c-1.6-1.2-5.6-6.8-6.7-7.6c-4.2,0.9-13.4-1.6-17.1,0.1c-50.2,2.4-101.4,6.6-148.7,23c-13.1,3.9-24.4,11.4-33.8,20.7
		c-6.3,4.4-10.8,10.7-10.8,18.3c-2.4,8.2-2.9,12.2,4.2,17.5C468.9,206,479.2,213.1,490.6,215.3"/>
	<path vector-effect="non-scaling-stroke" class="st1" d="M96.5,217.9c24.6,2.6,50.4-3.9,73.9-11.2c15.2-6.3,38-9.5,45.4-25.7
		c5.5-7.9,8.6-12.8-2.5-16.9c-1.4,0.5-1.5,0.1-1.7-1.1c-2.5-1.2-7.4-3.3-9.9-4.3c-27.1-9.4-57.7-13-86-7.5
		c-14.1,2.4-27.1,10-37.2,19.6c-1.9,6.3-5,13.9-6.3,20.3C73.7,205.5,79.5,219.5,96.5,217.9"/>
	<path vector-effect="non-scaling-stroke" class="st1" d="M13.6,670.7c-23.1-7.7-47.8-27.3-32.5-53.3c6.7-11,17-20.6,25.4-30.4
		c4.7-4.5,11.8-9.4,14.1-15.8c8-11.2,4.5-24,0.6-35.9c0.5-5.9-0.7-13.6,2.1-19c5.2-4,9.3-10,15.5-13c35.9-19.7,80.1-15.1,116.4-34.1
		c11.6-5.8,12.4-8.4,15.7-20.3c-2.3-2.9-6.6-9-8.5-12.2c-21.6-13.8-50.8-17.5-76.4-17.8c-42.9,1.3-86,13.3-129,5.5
		c-13.1-3.9-28.8-7-37.6-18.4c-4-4-7.8-9.2-10.1-14.4c1.4-8.4,2.1-18.7,9.4-24.3c56-47.6,155.6-3.2,197.7-44
		c5.9-5.2,12.2-10.3,17.8-15.1c5.1-7.3,12.1-12.9,19.4-17.3c42.8-27,96.1-23.3,143.4-34.6c26.2-2.2,50.9-14.5,76.8-14.1
		c18.9-0.1,36.9,8.4,55.4,9.8c8,0.6,16.4,2.3,23.9,3.1c6.7,1.3,14.2-1.2,20.3,0.8c9.6,1.2,19.9-2.4,29.2-0.9
		c43.2-6.9,87.5-7.7,131.4-4c33.6,1.5,69.5,1.9,99.7,18.6c24.7,12.4,33.7,31.7,37.2,58.1c4.4,20,18,39.4,11.4,60.5
		c-11.8,34.2-39.5,60.9-65.1,85c-18.1,17.8-3.8,38,5.1,55.5c9.1,17.2,8.3,37.5,4.4,55c-5.6,18.9-10.8,38-22.8,52.8
		c-16.7,20.4-41.4,33.1-67,33.1c-28.9-3.2-58.6-10.1-86.6-6.5c-33.7,3.1-65.9,11.2-98.3,15.2c-30.7,5.1-61.4,12.8-91.4,14.8
		c-55.4,2.3-109.9-12.1-163.3-13.4C134.7,678.9,72.9,693.4,13.6,670.7"/>
	<path vector-effect="non-scaling-stroke" class="st1" d="M268.6,46.8c-2.2-1.2-0.9,2.3,0.5,1.4C269.2,47.7,269.3,47,268.6,46.8"/>
	<path vector-effect="non-scaling-stroke" class="st0" d="M124.4,179.5c0.6,2.6-2.3,12.7,2.4,12.4c7.4,0.2,19.4,2.2,24.9-3.9
		c7.3-1.8,6.6-11.2,9.3-16.9c0.1-3.5-10.7-1.6-13.8-2.4C133.5,169.1,128.6,163.9,124.4,179.5"/>
	<path vector-effect="non-scaling-stroke" class="st1" d="M549.6,208c21.7-0.2,43.9-7.8,62-19.6c11.7-8.3,25-17.2,26.3-32.8
		c4.9-19.5-45-19.8-57.8-18.5c-33.3,2.3-68.4,7.3-93.4,31.5c-2.8,7,0.1,16.3,3.1,22.9c2.8,2.3,8.8,5,12,6.8
		C516.3,205,533.6,209.5,549.6,208"/>
	<path vector-effect="non-scaling-stroke" class="st1" d="M41.9,668.9c-2.2-0.2-11.8-3.3-14.1-4l0,0c-12.9-4.4-25.8-13-31.2-25.8
		c-3.2-17.1,12.2-31.3,24.2-40.7c9.4-8.4,20.1-15.3,31.3-19.9c5.1-4.9,13.1-10.4,18.4-14.4c17.3-6.6,7.5-17.3,0.7-27.6
		c-2.1-4.5-2.9-10.9-4.1-15.4c2.6-3.1,4.7-8.1,8.9-8.4c18.6-5,38.3-13.4,57.7-18.4c18.8-6.9,40.7-10.6,55-25
		c13.7-12.9,4.9-22.2-3.6-34.1c-6.4-3.4-14.3-6.8-20.5-10c-24.6-12.3-51.8-20.2-79.2-19.9c-43.1,1.3-86.1,18.8-128.6,7.3
		c-15.2-9.8-32.2-13.4-21.2-34.4c33-33.1,98.1-15,140-19.8c22.5-1.8,44.7-12.7,60.2-28.5c32.9-44.1,77.6-52.1,128.7-56.5
		c34.4-2.7,67.8-10.2,102-11.6c28.7-0.3,58.2,4.1,86,5.4c27.6,1.1,54.7,0.4,81.7-0.9c56.7-1.9,136.8-12.1,187.4,12.2
		c22.6,9.7,30.4,29.9,32.5,52.4c2.9,15.2,10.8,29.9,12.5,44.6c0.2,24.7-14.9,47.2-30.8,64.2c-12.8,14.5-29.6,24.2-42.3,38.4
		c-6,16.4-0.8,22.6,6.8,36.4c8.7,14.8,17.7,32.6,14.1,49.9c-6.9,36.2-35,68.2-70.2,78.6c-32.4,8.1-67.6-0.5-100.1,7.4
		c-39.7,9.7-79.4,19.1-119.6,24.1c-28.2,3.6-56.6,9.3-84.7,9.6c-40.1-0.3-79.7-7.5-119.2-10.8C161,665.8,100.5,683.9,41.9,668.9"/>
	<path vector-effect="non-scaling-stroke" class="st1" d="M-9.2,400.9c-6.3-1.5-14.5-0.3-19.8-4.9c-15.8-3.8-5.7-7.1,0-15.1
		c8.9-9.7,24.9-7.5,37-8.6c2.6,1.5,7.3,2.6,10.1,1.1c6.8,1.1,16.9,2.8,23.7,4.5c2.6,2.6,6.1,10.8,7,14.5
		C29.7,396.4,10.4,401.5-9.2,400.9"/>
	<path vector-effect="non-scaling-stroke" class="st1" d="M523.6,177.6c-6.4-8.2-6.3-7.6,3.1-11.8c7.6-4.6,16.5-7.5,25.3-8.3
		c8.5-4.1,19.7-3.6,28.4-0.4c6-2.2,8.7,4.5,12.9,6.9c0.3,11.9-12,14.8-20.8,19.5c-6.4,4.2-15.4,5.7-22.8,5.5
		C539.3,191.5,529.5,186.3,523.6,177.6"/>
	<path vector-effect="non-scaling-stroke" class="st0" d="M98.6,666.4c-21.5,0.6-44.3-2.9-63.8-10.9c-6.9-5.1-16-11-19.2-19.4
		c2.6-14.7,10.1-24.7,23.2-31.8c17.5-11.8,37.7-18.6,57.4-25.7c11.1-5.9,20.8-14.4,31-21.5c3-8.4,6.7-17.6,9.1-26.2
		c1.7-6.6,3.7-15,10.4-18.2c12-5.8,23.1-14.3,35.2-20.1c15.3-7.6,30.5-17.7,36.7-34.2c1.4-4.8-4.9-10.4-7.1-14.1
		c-5.2-8.8-14.6-13.2-22.9-17.7c-17.9-10.4-36-19.2-54.6-27.5c-9.8-4.3-22.3-4.9-27.8-15.2c-6.9-8.2-9.2-3.7,0.1-12.7
		c61.9-41.5,51.3-79.3,142.4-88.7c43-4.6,86.1-8.6,128.8-9.5c52.8-0.2,106.7,3.8,159.8,3c49.9,2.1,156.1-19,189.3,22.3
		c7.9,9.2,10,21.8,11.6,33.1c2.5,9.8,6.4,20,9.6,29.3c12.9,28.7-6.4,59.1-26.4,78.7c-13.8,13.2-31.7,22.2-44.7,35.6
		c-6,8.7-3.3,22.4,3.5,29.9c6,9.8,12.8,20.1,18.1,29.9c9,27.5-5.4,51.3-26.5,67.6C640,630.9,597,623,558.6,628.5
		c-21.5,6.2-41.1,17-62.4,23c-32.5,10-66.9,14.9-100.1,20c-64,10.6-128.3,0.9-191.5-7.3C169.1,660.6,133.9,666.1,98.6,666.4"/>
	<path vector-effect="non-scaling-stroke" class="st1" d="M268.6,666.2c-28.3-4-56.6-9.5-85.1-12c-26-0.8-52.1,1.9-78,3.4
		c-9.8-2.4-21.2,1.3-31-2.7c-12.9-3.1-44-10.3-32.7-28.1c6.9-19.1,39.3-25.2,56.4-33.6c12.1-4.6,25.2-10.1,35.6-17.9
		c6.1-6,12.5-12.4,19.1-17.9c8.6-13.2,16.4-28,27-39.6c16.9-18.7,58.6-36.3,56.6-64.1c-4.8-7-10.2-15.7-17.6-20
		c-13.2-7.1-26.8-15-39.4-23c-10.6-5.5-21.1-12.2-31.4-18.2c-3.4-4.8-8.9-10.9-9.2-16.9c1.6-16.9,18.4-30,27.5-44
		c35.3-46.6,99.7-41.9,152.1-47.3c90.4-9.2,181,2.4,271.4,0.2c39.7-0.8,103.4-12.8,128.1,25.9c4.6,14.3,7.1,29.9,13.6,43.7
		c11.9,23.3,11.2,45.1-4.5,66.5c-15.8,24.5-45.3,33.3-66.2,52.1c-6.2,4.9-3,12.7-2.9,19.5c2.7,7.2,9,13.4,13.3,19.7
		c12.9,17.2,26.6,39.1,10.9,59.1c-24.7,37.1-76.6,38.4-115.1,25.2c-8.7-1.5-19-2.9-27.7-4.3c-3.9,0.2-9.5,6.4-10.2,10.4
		c-2.9,14.2-7.3,17.7-18.2,26.6c-20.5,20.5-59.1,24.7-86.7,31C373.2,669.7,320.2,675.3,268.6,666.2"/>
	<path vector-effect="non-scaling-stroke" class="st1" d="M91.6,643.5c8.6-1.3,18,2.6,26.8,1.2c22.8-1.4,46.5-1.7,69.3,1.4
		c50.1,7.3,100,21.6,151.2,18.5c40.5-2.4,81.1-9.9,120.1-21.2c12.9-3.7,23.3-11.3,31.6-21.7c6.1-13.5-0.9-31,3-44.4
		c22.3-25.7,60.2-7.2,87.1,0.8c25.4,10.3,55.9,12.5,78.8-4.7c5.5-4.3,11-10.8,13.4-17.2c-0.7-7.9,1.4-18.1-3.8-24.7
		c-7.4-15.1-24.3-26.2-29.4-41.9c-5.2-13,0-17.8,10.5-25c16.8-12.8,39-17.9,54.3-32.9c15.2-13.4,26.2-33.3,21.7-54
		c-2.1-11.7-10.3-22-14.1-33.1c-5.1-9.5-8.5-21.3-12.2-31.4c-11.9-13.8-31.2-20.2-49-21.1c-26.9-2.2-54.2,3.4-81.2,3
		c-35.3-0.4-70.8-5.4-106.1-6.7c-43.7-2.2-87.6,0-131.2,3.3c-27.8,1.9-56.5,2.3-84.1,6.7c-23.6,3.2-47.6,11.2-64,29.3
		c-11.8,13-24.4,28.7-25.5,46.9c4.7,16.7,17.1,23.7,31.1,31.8c16.3,10.2,33.6,20,50.8,28.7c34.9,30.4-7.7,55.1-28.2,78
		c-21.3,20.7-38.7,45.1-60.6,65.4c-18.5,17.3-42.3,28.5-66,35.8c-9.5,4.6-11.3,10.7-14.3,20.2c-2.1,1.8,5.4,3.8,5.9,4.6
		C81.3,641.8,87.8,642.5,91.6,643.5"/>
	<path vector-effect="non-scaling-stroke" class="st1" d="M211.9,642c-20.5-4.1-40.8-10.5-61-15.8c-0.6-2.2-14.5-2.9-9.8-5.7
		c5.8-19.6,23.7-32.5,35.7-48.5c23-24.4,48.6-47.1,70.4-72.7c12.4-15.2,39.4-38.8,17.7-57c-7.4-10.5-20.8-13.7-31.7-19.6
		c-18.9-11.6-42.8-19.6-55.2-38.9c-12.4-15.8,3-35.6,12.8-48.7c22.7-26.5,59.1-31.5,91.9-34.1c62.3-3.3,124.9-10.4,187.3-6
		c31.8,1.3,63.2,8.6,94.8,11.1c28.3,2.6,58.1-3.9,86.2,0l0,0c29.1,0.5,37.3,27.9,50.9,48.7c29.2,36.4,7.8,72.6-31,88.6
		c-26.5,12.5-68.6,20.6-42.3,57.6c8.6,7.9,16.3,17.3,22.6,27.1c6.5,6.2,6.7,13.3,4.6,21.7c0.5,9.2-9.8,12.4-16.2,16.8
		c-16.8,5.3-35.3,2.2-52.1-2c-24.9-9.3-51.2-17.5-78.1-17.2c-23.5,2.9-36.7,4.1-39.3,30.9c1.5,14.1,6.4,30.2-0.9,43
		c-21.9,22.9-55.3,26.2-84.5,32.1C326.8,664.6,268.1,657.6,211.9,642"/>
	<path vector-effect="non-scaling-stroke" class="st1" d="M240.3,642.4c-12.9-3.3-25.8-8.3-38.1-13.3c-13.5-5.1-27.5-11-26.6-27.7
		c12.1-27.5,36.6-47.6,60.1-65.5c14.3-12.7,71.4-69.3,54-88.1c-7.6-14.5-23.7-18-37.4-24.6c-20.4-10.6-45.9-18.7-59.6-38.1
		c-12.5-14.2-2.8-34.5,8-46.7c27.1-30,72-29.6,109.4-32.7c58-3.8,116.6-10.7,174.6-3.1c32.1,3.6,63.3,14.5,95.5,17.2
		c28.4,2.5,60.6-5.3,84.9,13.7c45,39,60.9,78-4,106.5c-15.8,7.5-36.6,8.8-49.3,21.2c-16.9,14.2-7,37.9,6.6,50.7
		c5.4,8.5,12.6,17.3,19.3,24.7c-8.2,27.6-46.6,13.4-66.5,8.3c-20.6-5-42.2-10-63.5-10.6c-21,0.3-64.9-1.7-58.6,30.1
		c2.4,16.4,7.8,33.6,4.5,50.3c-10,17.5-32.5,23.5-50.8,28.7l0,0C349.6,656.6,293.1,658,240.3,642.4"/>
	<path vector-effect="non-scaling-stroke" class="st0" d="M268.6,643.3c-19.7-4.2-39.1-12.3-56.9-21.6
		c-17.9-11.5-16.9-26.6-6.7-43.2c18.2-21.8,43.8-34.5,66.8-50.3c7.6-6.5,17-13.2,22.8-21.4c9.4-15.8,17.3-33.3,23.3-50.6
		c-6.1-24.6-18.6-24-38.9-31.9c-20.3-7.9-41.7-15.3-60.1-27.2c-32.8-20.4-19.1-54.1,10.3-69.7c34.3-16.2,73.5-14.7,110.5-18.3
		c56.2-4.7,115.2-10.3,170.1,4.4c22.9,6.7,45.1,15.8,68.6,18.5c22,3.7,46,0.9,66.9,8.5c22.4,9.6,44.7,26.3,49.5,51.2
		c-3,23.5-21.4,34.5-41.9,41.8c-26.3,10.5-70.9,12-66.1,50.5c0,7.4,2.8,15.6,3.5,22.6c1.5,2.8,4.7,13,1.7,14.4
		c-4.1,6.2-10,6-16.1,4.7c-7.8,1.1-16.3-0.2-23.7-0.8c-18.3-1.6-37.2-2.6-55.3-2.8c-29.7,0-60.5-0.3-89.7-1.2
		c-1.7,0.1-10.5,1.3-10.7,2.5c-3.8,7.4-14.6,12.4,0,14.4c16.7,7,20.5,13.1,31,26.1c24.4,39.3,13.2,60.6-29.3,73.5
		C356.2,649.7,311.4,652.6,268.6,643.3"/>
	<path vector-effect="non-scaling-stroke" class="st1" d="M378.3,496.4c50.9,11.8,103.3,19.8,155.6,14.9
		c52.9-0.9,21.2-48.2,55.3-66.6c17.2-8.3,37.1-10,55-16.2c21.1-7.1,32.2-12.9,37.6-36c-6.5-23.8-24-31.5-44.9-40.2
		c-25.3-5.9-51.7-6.3-77.2-10.9c-21.7-5.1-42-15.5-63.2-22.1c-64.4-19.1-132.5-4-198.2-0.1c-20.4,1.8-41.5,4.8-60.3,13.3
		c-21.4,10.8-36.8,37.5-15.2,56.3c23.6,21.4,58.7,25.3,88.3,33.9c9.2,1.4,19.6,4.3,28.2,7.9c6.9,1.5,10.1,5.4,7.7,12.3
		C344.4,481.4,335.7,483.7,378.3,496.4"/>
	<path vector-effect="non-scaling-stroke" class="st1" d="M268.6,637c-19.2-6.6-54.2-16.8-53.8-41.1c7.6-29.8,47.1-46.7,74.4-54
		c31.2-6.3,63.6,1.8,92.9,12.5c26.3,9.7,52.7,31.4,36.6,61.5c-12.6,12.6-31.9,17.7-48.8,22.1C336.7,645.2,301.6,645.7,268.6,637"/>
	<path vector-effect="non-scaling-stroke" class="st1" d="M435.5,495.8c26,6,53.2,8.2,79.7,5.5c16.4-2.1,30.7-6.4,37.6-23
		c4.6-17.9,7.3-43.2,30.2-45.6c22.3-6.4,47.1-6.1,68.2-16.6c6.7-1.8,10.3-9.1,14.2-14.3c9.4-17.3-13.7-32.1-27.7-37.8
		c-30.4-9.5-63.5-5.7-93.9-15c-17.1-3.8-31.8-15.2-48.2-20.9c-59.2-22.3-123-7.8-184.1-4.2c-25.7,2.7-53.4,4.5-74.5,21.1
		c-10.4,6.4-11.5,20.8-9.7,31.7c9.9,14.8,27.5,23.1,44.5,26.7c25.7,7.3,52.9,7.8,79.3,5.8c4.3,1.9,10.2-1.5,15-0.7
		c10.3-0.1,18.6-0.6,28.6-0.4c2,6.6,16,7.6,18.3,12.3c-5.9,3.1-12.8,8.7-16.4,14.4c-9.2,7.6-21.7,18-16.4,31.1
		C383.7,485.6,419.6,488.6,435.5,495.8"/>
	<path vector-effect="non-scaling-stroke" class="st1" d="M296.9,636.5c-102.4-17.1-70.6-77.6,14-81.9c26.1,1.6,53.3,4.8,77.1,16.7
		c23.3,13.2,28,40.6,0.8,52.4C360.2,636.1,327.4,640.1,296.9,636.5"/>
	<path vector-effect="non-scaling-stroke" class="st0" d="M438.6,435.3c-18,7.2-39.5,20.2-21.3,39.9c25.5,16.2,72.9,22.2,101.3,12.7
		c20.1-7.2,21.4-21.1,21-39.7c-3.1-13.9-8.7-12,0.3-24.7c32.4-7.1,66.7,0.1,97.1-12.3c5.9-4.8,11.2-11.9,14.2-18.7
		c-3.7-4.2-9.4-11.6-13.7-15c-21.7-9.8-45.7-9.8-68.8-10.8c-10,0.7-23.2-1.3-32.7-2.7c-10.3-1.9-18.4-8.4-26.8-13.4
		c-13.7-8.4-26.7-18.6-42.6-21.9c-44.8-10.3-91.5-2.4-136.3,1.1c-27.8,2.9-57.4,3.9-81.1,19.7c-10.4,8-13,27.5-0.5,34.1
		c12.6,11.8,31.6,15.2,48,15.8c26.9,2.9,53.9-3.7,80-7c34.4-3.2,69.4-4.6,103.5-1.1c14.8,0.5,25.9,14.1,38.1,20.6
		c2.2,5.5-0.5,4.6-4.5,4.5c-8.5,3.5-18.2,3.8-25.9,4.8C470.9,424.4,453.9,427.5,438.6,435.3L438.6,435.3"/>
	<path vector-effect="non-scaling-stroke" class="st1" d="M381.9,584.7c-23.5-18.6-61-19.5-89.6-15.4c-16,2.4-32.7,9.2-40.9,23.9
		c-2.5,12.2,7.9,24.3,18.7,28.9c20.1,8.2,42.3,10.6,63.8,8.9c16.2-2.5,34.1-4.7,47.8-14.4C393.7,604.7,394.1,596.6,381.9,584.7"/>
	<path vector-effect="non-scaling-stroke" class="st1" d="M580.3,385.9c-3.7-0.3-11.1,3.5-14.2,5.3c-4.4,2.9,17.1,6.5,19.5,10
		c9.5-0.9,20.5-2.5,30.3-1.9c10.1-9.1,8.6-6.9-2.8-11.6C603.3,382.2,590.8,386.1,580.3,385.9"/>
	<path vector-effect="non-scaling-stroke" class="st1" d="M268.6,380.8c-14.6-3.4-10.1-14.1-7.4-24.6c0.1-0.7,7-2.1,7.3-2.3
		c1.6-4.4,8.4-5.6,11.8-7c28.6-6.8,58.5-10.4,87.4-13.4c28-2.6,56.9-4.9,84.5,1c5.3,0.8,10.5,5.4,14.7,8c3.6,3.3,10,5.2,11.8,9.3
		c2.5,9.5-2.3,17.4-11.9,17.6c-8.5,5-19.2,5.2-28.4,6c-30,4.1-61.1,4.1-90.8,8.7C321.3,387.4,293.2,393.6,268.6,380.8"/>
	<path vector-effect="non-scaling-stroke" class="st1" d="M462.2,444.8c12.4-2.3,25.9-4.6,38.1-0.3c7.1,1.7,15.9,5.6,17.3,13.5
		c-1.4,12.7-7.3,21.1-20.8,21.8c-12.3,2.1-26.5,0.8-38.7-1.4c-3.6-2.3-8.1-6.4-12.4-7.7C433.2,455.1,448.7,449,462.2,444.8"/>
</g>
</svg>
