<?xml version="1.0" encoding="utf-8"?>
<!-- Generator: Adobe Illustrator 28.0.0, SVG Export Plug-In . SVG Version: 6.00 Build 0)  -->
<svg version="1.1" id="Layer_1" xmlns="http://www.w3.org/2000/svg" xmlns:xlink="http://www.w3.org/1999/xlink" x="0px" y="0px"
	 viewBox="0 0 940 857.6" style="enable-background:new 0 0 940 857.6;" xml:space="preserve">
<style type="text/css">
	.st0{fill:#37A0C1;stroke:#000000;stroke-miterlimit:10;}
	.st1{display:none;fill:#37A0C1;stroke:#000000;stroke-miterlimit:10;}
</style>
<g id="surface1222">
	<path vector-effect="non-scaling-stroke" class="st0" d="M744.4,523c9,15,9,29.3,2.8,45.3c-7.4,9.4-15.4,21.1-27.5,24.4
		c-5,1.1-11.9,4.9-16.8,2.9c-6.1-3.3-15.3-7.8-17.3-14.7c-13.8-11.3-13.3-44.4-12.2-61.3c2.8-24.1,7.1-28.4,31.7-26.7
		C719.3,501,734.9,509.1,744.4,523"/>
	<path vector-effect="non-scaling-stroke" class="st1" d="M509.1,881.5c26.3,10.2,55.2,0.1,76.5-16.7c18.2-13.2,36.7-29.2,59.5-32.9
		c33.2-4.6,67.3-10,100.8-8.1c22.3,1.6,40,16.3,57.2,29.1c31.4,24.5,65.4,25.7,97.5,1.6c53.7-39.5,79-116.1,53.7-178.7
		c-36.1-71.7-43.4-47.9-46.4-139.3c-2.8-71.5-9.9-146.2-44.6-210c-10.9-20.8-26.4-39.1-39-58.9c-13.4-22.8-26.4-46.6-34.2-72
		c-19-49-40.8-99-44-152c-2.7-25.8-2.5-52.9-13.5-77c-5.5-11.5-16.1-20.6-27.1-27c-11.6,0.2-26.2,0-36.2,6.8
		C642-40.1,620.9-15,591.4-5.6C550,8,507.8-16.9,465.8-10.7c-87.2,13.2-96,136.5-109.9,205.5c-2.9,8.9-3.9,18.9-7.9,27.2
		c-3.8,9.3-7.6,20.8-17,25c-10.5-1.9-21.4-2.7-30.3-8c-14-6.7-30-10.2-44.9-12.2c-29.2-2.7-59.1,5.1-88.1,0.4
		c-33.2-6.3-65.4-9.2-93.5,12.8c-24.9,22-37.2,53.6-52.9,81.5c-8.3,19-22.2,33.8-35.6,48.5c-14.3,11.1-30.2,20.3-45.1,29.6
		c-65.5,29.5-65.8,97-43.4,155.9c14.6,46.3,40.5,88.1,69.7,126C3.2,725,33.1,741.2,83.8,762.8c11,7.3,21.5,17.1,30.1,26.3
		c8.5,12.2,31.8,34.3,44.1,17.5c10.7-9.9,16.4-23.5,18.3-37.1c8.1-27.9,17.7-50.4,41.6-68c17.2-12.5,39.7-24.5,60.9-19.8
		c16.4,1.7,28.7,32.2,36.6,44.4c7.7,15.5,18,29.3,30.1,40.7c25.2,25.3,65.1,27.5,89.9,52.1c11.6,9.2,21.8,21.9,31.1,32.3
		C479.9,863.5,491.4,877,509.1,881.5"/>
	<path vector-effect="non-scaling-stroke" class="st1" d="M27.8,700.3C-29,661-84.9,553.4-69.3,484.2c13.7-48.7,67-69.7,93.5-110
		c28.3-38,37.9-100.7,90.4-113c26.6-5.6,54.2,2.4,81.1,2.4c54.2-1.7,102.7,8.7,117.8,67.8c6,38.3-13.7,73.2-15.7,111.2
		c-4.7,41.1,9.4,81.5,11.6,120.6c3.9,5.5-1.4,12,1,18.1c-5.4,8.5-4.2,15.1-12.9,21.9c-18,14.2-36.4,28.2-56.6,39
		c-25.9,17-54.6,30.1-79.4,48.3C124.7,724.5,69.1,727.4,27.8,700.3"/>
	<path vector-effect="non-scaling-stroke" class="st0" d="M510.6,846.2c-29.3-12.9-43.3-44.6-67.1-64c-22.4-19.8-54.6-25.1-75.3-47
		c-32.1-33.6-36.5-85.3-32.4-128.9c1.4-1.4,2.8-5.8,3.6-7.1c0.3-3.2-0.4-6.6,2.9-8.4c2.9-5,6.7-12.1,11.2-16
		c1.4-2.8,1.5-7.2,4.6-8.6c8.1-15.3,12-33.2,15.2-50.1c5.8-45.2-2-91.1-4.9-136.2c-2.5-34.5-0.4-69.4,3.4-103.7
		c9.8-73,8.3-171.4,55.8-230.3C472.9-2.7,524,34.2,577.8,33.7c34.2-0.8,63.4-27.2,97.5-26c9.2-0.8,16.2,7.7,21.9,13.9
		c10.7,13.3,13.8,30.5,20.1,46c12.2,39.2,27,77.6,41.5,116c10.9,30.8,22.4,61.4,36.4,90.9c14.7,27.9,34.5,52.8,50.4,80
		c14.6,25.6,23.2,54.3,30.2,82.8c9.8,42.2,11.3,86.3,10.8,129.3c0.5,32.1-3.7,67.9,15.8,95.7c17.8,25.2,31.3,50.3,27.3,82.3
		c-5,42.7-41.8,94.9-89.9,83c-26.7-8.9-45-39-74.7-39c-24.9-3.2-50.3,4-75,6.8c-24.5,3.7-50.3,3-73.8,11.9
		C582.8,823,551.4,865.6,510.6,846.2"/>
	<path vector-effect="non-scaling-stroke" class="st1" d="M30.5,675.1C-16.8,637.2-54.1,552.4-36,492.9c12-40.8,51.8-62.4,75.1-95.1
		c25.9-34.7,32-89.8,76.2-106.3c25.3-9.1,53.1-2,78.9-1.3c39.7,1.4,77.8,14.5,84.3,58.3c4.3,35.5-3.3,71.1-2.8,106.2
		c-1.2,35.3,4.7,71.6-5.2,105.7c-11.9,42.6-54.3,65.4-91.5,82.2C128.3,667.9,88.2,714.4,30.5,675.1"/>
	<path vector-effect="non-scaling-stroke" class="st1" d="M540.6,823.8c-43.4,3.5-60.3-44-87.6-68.9c-33.3-26.1-74.5-33.1-81-82.5
		c-6.6-36.1,11.9-70.2,19.3-104.7c9.6-37.7,5.7-76.9,2.1-115.1c-3.7-45-3.6-91.6-2.5-136.3c0.7-40.5,0.7-81,5.5-120.6
		c11.2-89.4,31.4-181.6,144.1-143.6c32.7,9.6,57.9,6.9,89.9-2.9c44-11.7,61.2,17.9,77.8,52.9c14.5,31.8,27.4,64.5,38.6,97.6
		c13.6,37.2,26.9,74.9,46.1,109.7c19.8,34.7,46.7,65.9,59.4,104.4c15.9,44.4,20.8,92.5,20,139.4c-0.2,34.2-6.8,68.9-5,103.1
		c-2.2,25.2,16.3,44.9,25.4,66.5c0.1,7.1,3.6,14.3,2.5,21.5c-0.5,3.8-2.3,9.4-4.4,12.6c1.4,3.8-3.5,9.7-5.5,12.5
		c-4.4,3.8-10.5,10.6-15,13.9c-9.4,3.9-21,2.2-30-1.5c-34.9-28.1-55.3-27.4-97.5-18.8c-24.4,5.4-49.4,11.4-74.3,12.9
		c-25.8,2.1-53.8,1.3-75.5,17C576.2,804.5,560.3,817.8,540.6,823.8"/>
	<path vector-effect="non-scaling-stroke" class="st1" d="M30.8,649.8c-33.5-33.6-51.6-83.7-46.3-130.9
		c4.6-30.9,25.6-55.4,49.7-73.8c45.5-29,38.4-92,79.4-121.4c19.4-13.2,44.8-10.7,67.1-9.7c27,0.7,59,8.8,69.9,36.5
		c13,34.1,8.3,72.2,9,108c-0.2,47-0.8,101.6-41.3,133.3c-23,15.7-51.6,20.8-74.5,36.6C106.3,657.2,75.9,683.7,30.8,649.8"/>
	<path vector-effect="non-scaling-stroke" class="st1" d="M540.6,797.3c-12-0.9-25.3-2-32.8-12.8c-16.1-14.2-24.1-35-39.1-50.1
		c-16.3-18.4-42.4-25.7-57.8-45.1c-24.5-34.6-4.9-77.5,2.1-114.8c8.1-38.5,0.6-78.1-3.9-116.3c-4.8-38.7-4.1-78.8-3.2-117.1
		c0.3-16,0.4-32.9,0.4-48.4c0.6-67-2.4-162.3,45-214.2c38.8-33,88.2-1.1,131.2,0.9c21,1.6,42.3-6.8,62.7-4.4
		c38.6,4,54.1,48,68.5,77.8c24.1,58.9,41.6,120.8,69.8,176.4c13.3,26.3,32,47.8,45.6,72.3c27.2,49.7,35.1,107.5,31.5,162.2
		c-2.5,43.4-11.9,85.5-26.5,125.2c-10.8,25.3-37.6,36.7-61.3,44.3c-29.8,10.3-58.7,19.3-89.3,23.7c-24.3,3.3-50.7,0.1-74.2,5.3
		C583.2,768,566.2,791.2,540.6,797.3"/>
	<path vector-effect="non-scaling-stroke" class="st0" d="M30.8,620.4c-15.9-26.4-29.6-59.3-21-90c-0.9-9.1,5.5-17.7,10.1-25.1
		c6.1-10.8,13.7-16.8,25.9-19.2c25.7-9.9,43.6,24.7,59.9,38.5c4.5-0.2,11,3.7,15.1,4.7c2.7-3.1,7.5-7.5,3.8-11.7
		c2.9-3.6,3.7-8.6,1-12.6c4.6-7.4,1.3-17.5-1.7-25c0-20.5-13.7-39.8-15.2-60.3c-7.6-60.9,26.4-86.9,84.4-80
		c58.8,9.9,51.4,87.1,51.4,131.7c-2.1,39.2-11.6,90.8-54.5,101.5c-10.3,1.3-20.8,3.2-30.7,1.4c-12.5-4.2-25,2.3-32,11.7
		c-1.5,7.7-8.2,13.5-11.6,19.5c-5.8,11.5-14.8,19.9-24.9,26c-10.9,9.1-24.9,8.7-37.5,5.6C46.1,632,37.5,626.1,30.8,620.4"/>
	<path vector-effect="non-scaling-stroke" class="st1" d="M567.2,754.1c22.7-13.8,49.5-14.5,75.3-12.3c21,1.8,42.8-0.3,63.2-5
		c38.8-10,80.2-24.8,106.4-56.5c37.4-52.9,46.3-123.3,36.3-186.3c-13.3-70.4-35-85.2-70-141.5c-26.2-54.3-44.2-112.3-66.3-168.3
		c-14.8-34.7-31-81-73.8-86.4c-24.7,0.3-49.9,4.9-74.2-1.8c-27-6.7-55.3-19.6-83.3-11.8c-46,15.2-53.2,76.5-59,118.2
		c-4.7,45.6-0.6,92.4-2.3,138.1c-0.8,29.4-2.1,59.3,0.8,88.5c2.3,26.2,8.5,52.7,13.3,78c5.2,24.3,8.1,49.2,5.2,73.5
		c-2.4,22.1-9.6,44.3-6.2,65.7c15.7,42.7,38.6,22.2,60.3,60.2C510.5,740.8,520.3,784.7,567.2,754.1"/>
	<path vector-effect="non-scaling-stroke" class="st1" d="M173.5,524c19.8,10.7,19.8,13.9,37.2-2.1c24.2-20.5,23.7-109.4,5.6-135.7
		c-8.6-9.1-19-19.4-32.6-16.5c-19.3-1.2-32.1,15.2-36,32.6c-2.2,21.3,2.2,42.7,6.3,63.5C157.5,486,162.3,506.9,173.5,524"/>
	<path vector-effect="non-scaling-stroke" class="st1" d="M60.8,597c-9.8-4.9-12.5-9.4-14.9-19.7c-3.8-7.1-1.7-13.4,2.2-19.8
		c0,0,12.6-1.8,12.6-1.8c5.5,7.2,13.5,15.1,10.6,25.1C70.4,590.3,71.5,594.4,60.8,597"/>
	<path vector-effect="non-scaling-stroke" class="st1" d="M626,723c46.1,10.3,94.2-0.2,135.1-22.9c76.8-41.2,93.4-141.8,73.7-220.1
		c-7.5-33.7-28.5-61.6-49.5-88.1c-13.6-17.4-22.4-38.1-30.1-58.7c-17.8-50.4-36.5-100.7-57.3-150c-11.5-26.4-27.1-56.6-57.7-63.2
		c-17.8-3.3-36.7,0.6-54.7-1.9c-37.7-5-77.3-32.7-114-10.5c-48.8,46-39.2,136.8-37.9,198.6c0.2,56.1-7.4,113.3,9.9,167.8
		c7.3,28.2,18.8,55.7,31.9,81.6c11.3,13.1,26.2,23.3,38.5,35.5c13.8,12.9,17.9,34.9,24.4,52.4c4.4,18.1,4.1,38.1,11.7,55.2
		C565.4,722.8,601.8,713.1,626,723"/>
	<path vector-effect="non-scaling-stroke" class="st0" d="M204.5,447.7c-1.9,10.9-5.5,46.6-16.4,20.4c-5.9-14.9-7.1-27.1-2.6-42.4
		c0.7-4.3,6.9-7.1,10.2-9C201.6,425.6,202.3,437.5,204.5,447.7"/>
	<path vector-effect="non-scaling-stroke" class="st1" d="M628.1,704.6c54.7,20.3,117.9-2.5,158.6-41.4
		c40.8-40.3,52.9-103.4,43.4-158.3c-9.4-70-56.7-85.7-78-144.4c-15.3-49.3-32.9-97.7-53.7-144.6c-11.3-25-22.1-54.2-46.1-69.1
		c-16.5-10-37.2-8-55.3-9.4c-41.4-2.5-84.9-39.4-123.2-10.1c-41,49.6-29,120.2-27.4,179.5c1.6,44.7-6.1,89.5,3.9,133.3
		c6.9,18.9,14.1,39.5,25.6,55.7c13.9,17.9,33.1,31.6,46.7,49c13.7,18.9,25.6,39,32.4,61.1C572,653.3,573.7,686.6,628.1,704.6"/>
	<path vector-effect="non-scaling-stroke" class="st1" d="M660.5,697.2c-44.6-8.4-66.2-40.7-78.7-81.6
		c-9.1-27.1-20.1-53.7-33.8-78.8c-14-25.5-32-48.5-52.4-69.2c-7.7-9.6-16.7-19.3-22.5-30.1c-9.7-26.5-9.7-55.7-8.6-83.4
		c1.1-33.6-4.1-67.5-7.2-100.5c-1.5-39.8-0.8-108.8,46.9-118.7c24.1-3.3,46.1,9.9,68.1,16.2c26,10.6,56.5,3.1,79.6,19.9
		c9,4.8,14.5,14.7,19.9,22.5c10.5,14.7,17.2,31.6,24.7,47.5c17.6,36.4,30.8,74.6,41.6,113.1c15.3,69.3,60.1,75.5,79.5,136.4
		c18.7,61.5,1.2,136.8-52.7,174.6C735,687.3,698,701.9,660.5,697.2"/>
	<path vector-effect="non-scaling-stroke" class="st1" d="M716.2,677.9c81.7-25.7,122.4-114.8,88.8-193.1
		c-15.8-38.1-57.9-58.3-68.4-98.9c-12.5-39.1-20-79.9-38.8-116.3c-7.8-16.1-15.5-32.7-25.7-47c-5.7-9-11.3-18.6-20-24.7
		c-14.3-12.9-33.7-15.2-51.8-17.9c-15.1-2.5-30.1-7.7-43.6-14.3c-26-12.3-57.9-20.1-73.5,10.6c-19.5,35.7-12.5,79.6-2.8,116.8
		c11.8,35.1,12.1,72.3,19.9,107.8c3.3,8.5,5.8,17.8,10.3,25.3c2.6,5.5,7.8,10.5,9.4,16.2c20.6,42.7,47.3,82,65.3,125.9
		c22.4,62.7,35.5,129.1,119.6,113.1C707.4,680.6,713.7,678.4,716.2,677.9"/>
	<path vector-effect="non-scaling-stroke" class="st1" d="M690.5,669.9c-62.3,3.4-71.7-62.8-88.5-108
		c-12.8-36.1-36.5-67.3-51.4-102.4c-8.5-19.9-15.7-41-19-62.5c-3.3-24.3-0.5-49.9-6.6-73.8c-6.5-22.6-23.7-40.6-30.3-63.1
		c-5.1-20-8.6-53.1,5.9-69.3c27-30.8,62.7,8.5,93.1,13.4c15.7,3.5,34.1,3.3,48.1,11.8c19.4,12.1,31.5,31.8,43.4,50.7
		c13.1,25.3,24.4,51.9,30.8,79.7c7.2,31.1,12.1,65.1,35,89.2c22,22.6,47.8,44.8,53.9,77.5c9.5,38.8-0.4,81.9-26.9,112
		C755.7,649.4,724.1,668.9,690.5,669.9"/>
	<path vector-effect="non-scaling-stroke" class="st0" d="M660.5,647.4c-35.7-28.3-33.9-79.3-53.9-117
		c-36.1-66.9-63.2-94.4-56.8-176.5c2.4-29.3,7.3-60.3-4.8-87.6c-5.9-9.5-10.9-11.1-12.1-23.4c-0.6-4.8-4.7-10.2-4.9-14.4
		c7.3-2.9,14.9-4.1,21.4-0.1c22.8,19.6,54.6,1.5,80.9,8.5c47.7,15.4,70,82,78.9,126.7c13.6,75,23.1,67.7,69.1,118.5
		c16.4,21.2,23.4,49.8,19.2,75.7C792.3,616.8,717.3,679.1,660.5,647.4"/>
	<path vector-effect="non-scaling-stroke" class="st1" d="M658.6,624.8c-21-27-22.7-63.3-34.7-94.4c-9.5-27.6-30.8-49.7-43.4-75.4
		c-16.4-31.2-19.2-66.8-14.2-100.8c5.8-25.7,8.1-54.7,25.3-75.4c17.1-21.2,42.8-22.8,63.3-6.3c7.5,4.3,11.5,12.7,16.4,18.9
		c8.6,11.4,14.7,24.5,19,37.9c14,39.1,9.2,86.5,37.5,119.3c11.8,12.6,26,23.2,37.2,35.9c20.4,20,26.8,51.7,21.5,78.5
		C779.3,614.9,700.2,673.4,658.6,624.8"/>
	<path vector-effect="non-scaling-stroke" class="st1" d="M683.6,625.3c18.7,4.6,26.6,2.8,44.4-3.1c19.7-10.6,35.7-27,44.9-47.5
		c19.6-59.5-15.9-82.2-55.2-116.7c-13.5-14.7-20.3-34.2-23-53.3c-4.7-27.5-5.6-56.8-18.7-81.7c-7.5-12.8-13.5-28-28.2-33.5
		c-7-5.3-15.8-6.8-23.7-3.5c-10.3,2-18,9.4-23.4,17.9c-23.3,37.1-30,86.9-15.1,128c9.9,27.2,32.4,46.8,44.9,72.1
		C650.7,543,641.3,600.4,683.6,625.3"/>
	<path vector-effect="non-scaling-stroke" class="st1" d="M657.4,545.7c3.4,21.5,9.1,44.9,25.2,60.5c6.8,3.5,15.6,5.5,22.9,7.8
		c36.3-7.7,59.8-32,60.9-69.9c-5-60.7-72.9-58.3-81.3-109c-5.6-32.9-3.5-68.5-17.7-100.1c-3-9.3-8.7-17.7-17.8-22
		c-7.6-5.8-17.8-8.7-26-2.2c-26.7,13.4-34,61.3-32.1,88.6c9.9,53.6,35.2,54.4,55.9,93.4C653.7,509.6,654.2,528.2,657.4,545.7"/>
	<path vector-effect="non-scaling-stroke" class="st1" d="M656.6,348.1c-11.1-11.3-19.9-23.1-33.4-7c-11.4,7.1-11.4,21.4-15.5,32.7
		c0.1,17.8,0.1,37.8,13.5,51.6c6.7,5.8,14.4,16.5,24.5,13.5c18.7-0.8,17.5-19.9,19.3-34c1.2-16.6-0.4-34-4.2-50.3
		C660.9,354.5,656.6,348.2,656.6,348.1"/>
</g>
</svg>
