<?xml version="1.0" encoding="utf-8"?>
<!-- Generator: Adobe Illustrator 28.0.0, SVG Export Plug-In . SVG Version: 6.00 Build 0)  -->
<svg version="1.1" id="Layer_1" xmlns="http://www.w3.org/2000/svg" xmlns:xlink="http://www.w3.org/1999/xlink" x="0px" y="0px"
	 viewBox="0 0 942.4 911.3" style="enable-background:new 0 0 942.4 911.3;" xml:space="preserve">
<style type="text/css">
	.st0{fill:#FF1C38;stroke:#000000;stroke-miterlimit:10;}
	.st1{display:none;fill:#FF1C38;stroke:#000000;stroke-miterlimit:10;}
</style>
<g id="surface1302">
	<path vector-effect="non-scaling-stroke" class="st0" d="M676.6,431.5c-2.8-0.8-12.1-3.9-15-4.8l0,0c-19.4-4.2-34-44.4-33.6-62.4
		c-4-29.9,39.9-30.8,57.8-20.2c7.4,3.6,15.3,6.8,19.5,13.8c6.6,13.1,7.8,27.4,4.7,41.3C704.5,418.9,695.6,425.9,676.6,431.5"/>
	<path vector-effect="non-scaling-stroke" class="st1" d="M132.4,161.6c31.9-21,49.6-63.1,44.3-100.7c-4.3-36.6-36.3-60.2-72.2-47.9
		C61.1,35.5,42.2,96.3,67.3,138.8c8.3,14.6,23.5,22.1,37.8,29.5C114.5,167.8,123.9,165.1,132.4,161.6"/>
	<path vector-effect="non-scaling-stroke" class="st1" d="M-105.9,579c-7.6-1.3-17.3-3.2-23-8.6c-2.2-6.1-8-11.7-8.7-18.4
		c4.9-17.8,13.2-26.1,31.9-27.8c12.6,3.5,20.3,16,23.7,27.9C-85.7,563.9-93.5,575.3-105.9,579"/>
	<path vector-effect="non-scaling-stroke" class="st0" d="M38.5,885.2c24.9-4.6,25-12,39.8-29.4c8.4-14.7,12.2-15.7,26.3-24.1
		c5,4.3,12.2,4.6,18.4,5.7c24.8,4.1,49.7,10.1,73.8,16.9c36.6,13.2,73.6,20.6,110.8,4.7c19.5-8.4,37.6-8.2,54.5,4.8
		c17.7,11.2,35.3,23.8,56.3,28.4c28,5.7,57.8,6,85.9,5.2c20.5,0.3,41.5-4,59.7-13.1c8.4-5.4,18-10.5,26.2-15.6
		c8.3-5.7,15.4-13.1,24.1-17.5c25.6-17.2,54.6-28.9,79.5-46.7c17.8-14.2,32.7-31.6,46.9-48.8c16.9-23.6,35.8-48.5,62.2-60.7
		c44.9-22.9,93.3-43.6,122.1-86.6c18.8-28,20.3-64.9,8.7-95.8c-8.3-18.6-21.9-35.7-37-48.7c-27.9-28.7-38.9-44.4-43.7-84.5
		c-3.4-28.9-9.1-57.9-17.2-85.6c-5.3-17.3-14.6-32.8-22.1-48.5c-4.5-11.1-13.3-19.9-19-29.8c-7.3-12-16.5-23.7-23.5-35.1
		C761,157.9,751.7,135,740,113.9c-30.9-47.4-68.1-39.1-113.3-50.3c-18-7.2-26.3-25.2-39.3-37.5c-22.8-21.9-58.2-19.7-83.7-5.3
		C463.5,39.3,429,90.1,462.2,129c8.1,7.2,18,14.3,27.4,17.9c10.1,2.3,18.8,7.2,27.8,10.5c1.2-0.8,2.9,7.1,3.2,6.6
		c-9.3,19.7-1.1,15.9-19.6,29.8c-7.3,11.3-18.3,18.8-28.2,26.5c-5,7.8-14.4,10.5-22.8,9.3c-10.4,1-15.2-8.4-18.6-15.6
		c-5.7-9.2-11.2-18-18.6-25c-26.1-35.3-76.6-48.4-117.7-41.3c-29.1,6.4-54.1,19.1-78.2,34.7c-17.3,5.5-34.1,16.6-52.1,19.4
		c-20.5,4.1-43.1,4.9-62,11.7C36,248.6,14.5,295.2,22.6,368.7C27.8,425,34.7,466.9,74,509.1c30.1,31.1,45.4,71.9,71.7,104.8
		c23.7,28.8,27.2,69.6,6.8,100.4c-11.8,20.5-29.4,36.1-41.2,56.2c-2.9,6-6.8,14.7-11.1,18.9c-4.2,10.5-9.5,19.2-17.7,25.1
		c-1.9,3.4-6.7,2.5-9.1,2c-2.6-0.3-10.9-0.6-12.7-0.3c-10.8,0-23.3,1.4-32.4,5.1c-14.9,7.6-26,22.3-23.4,37.9
		c3.4,6.2,5.1,12.2,8.7,17.5C21.3,880.6,29.6,885.7,38.5,885.2"/>
	<path vector-effect="non-scaling-stroke" class="st1" d="M433.4,863.2c35.9,8.5,76.6,11.4,111.6-1.8c17.6-6.7,34.2-16.8,49.1-28.1
		c12.3-7,25.2-13.9,37.4-21.1c31.8-14.1,61.3-34.5,82.6-62.3c16.4-20.9,30.2-44.7,50.7-61.9c20.8-18.3,48.8-26.7,73.3-39
		c37.9-19.9,78.3-52.2,77.1-98.7c-1.5-50.9-51.5-76.3-72.4-117.4c-9.8-20.4-9.1-43.9-11.9-65.6c-2.2-22.5-7.1-45-14.4-65.7
		c-11.9-40.4-39.7-72.5-64.8-104.7c-15.2-20.1-22.3-44.8-37.3-64.8c-22.2-32.6-67.3-30.9-94.6-6c-12,11.9-22.7,25.2-33,38.4
		c-12.7,13.5-27.1,25.8-41.5,37.1c-16.9,11.8-33,25-48,38.6c-6.6,8.6-15.1,15.9-21.7,24c-5.9,8.3-11.7,16.8-17.2,25
		c-11.8,12.5-16.4,30.5-26.3,43.9c-5.9,6.3-10.1,14.6-14.5,21.5c-4,6.4-13.1,10.6-17.7,16.1c-9.1,14.2-24.8,14.8-31.5,31
		c-7.1,2.9-16.6,3.5-22.9,8c-5-8.4-1.8-18.5,0.7-26.8c1.9-1.4,3.6-4.5,3.8-6.3c4.6-2.6,8.1-7.1,10.6-11.3c3-5.5,6.4-13.8,12.6-15.9
		c7.1-6.3,9.9-15.7,15.1-23c5.3-8.8,11.7-17.2,15.7-26.5c22.7-65-23.2-136-95.8-129.6c-47.6,3.7-82.9,41.1-125.4,58.1
		c-33.8,13.1-73.4,13-102.7,35.6C49.4,288.1,43,330,47.2,366.2c1.8,25.8,6,51.6,15.2,75.3c10.1,30.6,37.1,50,55.5,74.5
		c12.6,15,21.7,32.6,32.7,48.4c11.5,16.1,26.1,30.2,37.3,46c19.3,30.3,13.5,69.4,5.3,102.1c-5,20.9-15.9,41.5-14.9,63
		c0.8,37.5,72.8,65.8,102.6,47.9c12-6.1,21.9-15.2,29.4-25.8c5.2-8,11.4-17.1,20.4-20.7c2.6-0.2,15.5-5.5,16.3-1.5
		c8.2,13.2,21.5,24,25.9,38.9C387.1,837,407.8,854.7,433.4,863.2"/>
	<path vector-effect="non-scaling-stroke" class="st1" d="M435.6,839.9l0.2,0.1c30.9,12.5,66.9,13.6,99,5.2
		c22.4-7.8,42.4-21.3,62.8-33.2c32-18.2,67.6-32.6,92.6-60.7c22.4-24.2,37.1-55.1,61.5-77.4c28.9-24.1,67.4-31.7,98.3-52.6
		c47.3-29.9,61.2-80.2,22-123.8c-19.3-23.4-41.6-45.5-50-75.6c-6.9-34.2-3.4-70.4-14.4-104.4c-7.6-21.7-17-43.6-30.6-62.2
		c-15.2-20.7-34.8-38-50.5-58.2c-10.6-12.2-18-27-27.8-39.8c-30.2-33.4-57.9-11.9-84.9,12.8c-37,37.1-89.6,57.5-120.5,100.5
		c-25,32.4-34.2,72.9-57.4,106.1c-23.9,25.6-49.9,51.2-53.3,87.8c-2,26.4,7.4,52.4,4.9,78c1,9.2-4.8,16.1-10.3,22.3
		c-4.3,4.6-10.2,9.2-16.6,7.5c-24-2.1-48.1-9.1-68.9-20.2c-4.4-12.4-2-26.1,3.2-37.6c4.2-14.9,10.2-29.5,12.3-44.5
		c2.3-14.4,0.3-29.3-2.5-43.1c-1.6-11.3-5.3-24.4-1-35.1c3.4-15.8,16-27.1,27.2-37.5c12.4-11.1,25-23.1,34.8-36.1
		c30.5-36.1,31.8-95.1-12.3-120.4c-54.1-31.4-105.1,14.8-149.8,41.2c-33.6,21.2-77.4,18.1-109.4,41C54.8,307.9,63,364.5,70.3,405.5
		c5.8,28.1,21.2,53.2,41.9,72.1c25.5,21.7,42.5,50.5,64.7,74.6c7.4,7,16.7,13.9,24.9,19.3c8.9,4.2,16.7,10.1,21.9,18.2
		c7.2,15.7,3.4,35,2.9,51.4c-1.7,23.8-2.8,47.8-4.9,71c-2.3,30.5-9,57.4,21.8,74.9c9.4,2.5,18.3-1.8,26.6-4.5
		c8-7.4,13.9-17.7,19.9-26.2c9.8-12.5,20.6-28.7,36.4-32.4c7.2-1,17-5.2,22.7,0.3c17.2,12.2,21.8,21.8,28.9,40.6
		C390.9,794.1,404.6,826.2,435.6,839.9"/>
	<path vector-effect="non-scaling-stroke" class="st1" d="M195.1,528.1c-18.4-11.6-31.1-30.1-46.7-44.8
		c-17.8-17-39.7-31.5-51.1-53.9c-17.7-36.1-28.1-95.4,0.8-127.7c18-21,48.6-21.5,72.8-30.3c53.8-15.6,91.7-75.2,151.5-68.2
		c56.8,13,60.2,72.8,25.4,111.1c-13.3,15.2-29.4,27.9-44.8,40.2c-19.9,16-32.8,34.7-25.1,60.6c6.1,24.5,11.1,50.5,0.8,74.3
		C265.7,521.5,228.1,549.1,195.1,528.1"/>
	<path vector-effect="non-scaling-stroke" class="st1" d="M465.9,831.1c-24.5-5.3-45.5-21.5-57.2-43.6
		c-16.1-29.2-22.1-65.8-43.7-91.3c-5.6-4.3-13.1-6.9-19.4-9.9c-12.3,2.1-26.3,4.5-37.6,10c-9,4.9-19.9,7.9-29.3,11.7
		c-8.1,3.6-13.4,0.6-18.1-7.1c-12.3-18.2-10.2-42.9-5.3-63.3c7.3-28.9,30-46.7,60.1-42.8c17.8,1.7,35.2,11.4,52.9,13.9
		c7.8-4.3,19.7-5.3,24.9-12.7c15.4-21.5,16.9-48.6,12.6-73.8c-13.3-82.8,10.8-85.6,53.5-145.3c12.2-22,17.1-47.6,29-69.7
		c17.1-43.1,56.3-70.2,94.6-93.2c23.4-11.5,60.5-46.6,85.8-38.6c5.3-0.5,11.6,3.7,15.1,7.4c4.4,4,12.4,9,16.3,13.6
		c10.3,11.6,22.7,21.7,33.8,32.4c46.9,37.7,71.9,96.5,72.4,156.1c0.7,21.2,2,43.2,10.7,62.8c19.3,40.4,74.2,73.5,56.7,123.6
		c-25.1,56-96.6,56.8-137.4,94.4c-15.7,14.3-25.2,33-37.3,49.7c-18.3,29.6-45.9,52.4-76.7,67.8C572.7,808,524.8,849.3,465.9,831.1"
		/>
	<path vector-effect="non-scaling-stroke" class="st0" d="M225.1,503.6c-32.3-1.9-49.7-31.9-75-47.8c-24.5-16.8-46.6-40.3-50.6-70.9
		c-3.9-23.4-4.8-52,12.8-70.2c13.9-13.8,34.6-17.5,52.7-22.9c19-5.4,37-14.1,52.6-26.3c23.2-15.7,43.8-37,71.2-45.6
		c26.9-10.2,65.2,4.1,66.1,35.9c3.8,48.8-47.5,74.2-80.7,98.9c-34,25.6-27.1,49.1-15,84.2c4.6,17.4,1.9,35.4-8.1,49.9
		C244.7,496.4,233.7,499.4,225.1,503.6"/>
	<path vector-effect="non-scaling-stroke" class="st1" d="M556.2,804.5c-40.8,23.4-101.2,23.2-129.4-19.3
		c-14-21.3-21.5-46.3-29.1-70.4c-4.6-18.3-11.6-36.8-13.2-55.7c6.3-19.8,17.9-38,29.2-55.4c10.7-23.5,11.7-50.3,8.4-75.6
		c-6.8-39.6-6-75.2,24.4-105.1c12.5-13.9,25.3-28.4,32.1-46.2c12.8-37.1,19.1-76.9,47.3-106.5c17.2-18.4,38.7-33,61.3-43.8
		c18.4-10.9,38.1-21.5,59.3-25.2c20.2-2.9,39.2,6.8,54.7,19c10.2,8.9,22.8,15.5,32.4,25.2c53.2,42.7,63.8,98.1,63.1,162.8
		c1.1,63.1,52.2,84.5,62.5,133.2c8.4,75.3-104.5,75.2-141.6,120.6c-23.9,30.3-38.7,68.5-71,91.6c-18.6,13.6-40.2,24.4-60.1,35.2
		C576.2,793.6,566.8,802.6,556.2,804.5"/>
	<path vector-effect="non-scaling-stroke" class="st1" d="M165,429.9c-15.9-4.1-28.4-16-38.7-28.2c-9.7-22.8-11.5-46.4,0.3-68.4
		c20.3-16,47.7-18.4,70.5-29.5c19.4-12.3,34.4-30.3,52.4-44.3c14.5-12.6,31.2-24,50.7-26.5c14.4-0.7,30.3,4.3,36,18.7
		c2.2,9.7,4.3,20-1.4,28.8c-7.8,22-29.3,37.1-49.5,47c-35.6,19.5-69.6,27.3-75.3,74.2c0,11.5,0.8,25.6,0.7,37.1
		c1.5,0.8-7.7,7.3-8.3,6.9C190.7,438.1,177,436.2,165,429.9"/>
	<path vector-effect="non-scaling-stroke" class="st1" d="M491.5,806.3c28.7,3.2,55.5-10,79.8-23.8c20.7-11.6,42.1-22.9,61.7-36.3
		c16.4-12.7,30.6-28.1,40.9-46.1c9.7-15.8,16.6-33.9,29.1-47.9c34.1-38.6,95.2-36.4,129.4-75.3c32.2-38.5-12.5-79.5-31.5-112.8
		c-9.4-16.9-12.7-36.4-12.5-55.3c1.7-46.6-4.6-95.6-36.2-131.9c-23.6-25.2-77.2-64-112.6-57.1c-47.4,9.8-101.1,38.4-123.7,82.4
		c-17.1,29.2-15.8,64-26.8,94.5c-8.2,19.6-26.3,31.9-38.6,48c-31.8,35.6-9.5,84.6-14.4,126.1c-3.1,37.4-28.8,68.3-29.3,105.1
		C410.6,727.3,429.5,803,491.5,806.3"/>
	<path vector-effect="non-scaling-stroke" class="st1" d="M248.2,307.4c14.1,6.8,23.7,5.7,37.1-2.2c13.9-4,23.8-14.8,29.9-27.6
		c5.7-14.2-3.8-20.5-16-25.1c-10.1-0.5-19.6,8.7-29.1,11.6l0,0c-9.1,6.3-12.6,19-21.7,25.1C243.7,297.8,251,299.4,248.2,307.4"/>
	<path vector-effect="non-scaling-stroke" class="st0" d="M465.9,782.6c-32-23.6-41.6-67.5-42.1-105.3c0.7-26.4,12.7-50.7,19-75.9
		c10.6-36.2,3.3-74.1,6.3-110.9c12.5-62.6,63.9-38.7,61.9-125.7c0.4-51.6,27.6-94.5,74.6-115.6c44.9-22.9,77.8-20.5,120.2,5.1
		c35.3,19.3,62.1,53.3,69.3,92.7c8.7,34.1-1.8,70.1,7.7,103.6c10.1,35.8,46,61.7,43.5,101.1c-15.5,42.2-66.2,50.3-103.1,65.1
		c-19.8,7.7-38.6,20-47.5,39.7c-23.3,49.8-34.9,72.9-85.2,100.2c-33.6,19.9-70.2,45.5-110.3,33.4l0,0
		C476.1,788,469.3,785.6,465.9,782.6"/>
	<path vector-effect="non-scaling-stroke" class="st1" d="M496,777.7c-37.1-3.7-52.3-46.5-55.5-78.8c-3.9-37.2,11-72.8,17.1-109
		c2.7-16.5,5-33.6,5.7-50.3c0.6-15.5,0.2-32.4,5.8-47.1c3.9-10,11.8-18.8,19.3-26.4c7.4-3.8,16.2-8.8,22.7-14l0,0
		c7.6-6.1,13-15.5,15.1-24.9c5.8-38.9-11.6-81.6,8.5-118.3c18.5-36.6,58.2-57.3,97.1-63.1c24.1-1.4,46.7,6.6,67.7,16.8
		c41.1,19.4,70.3,60.1,72,105.5c3,34.3-7.5,70.6,8.4,102.5c7.6,16.8,20.4,31.7,26.1,48.6c13.9,29.9-4.9,53.1-31.2,65.1
		c-29.2,14.7-62.3,16.7-91.4,28.8c-33,18-33.7,61.4-52.1,89.7c-17.2,22.3-40.1,38.5-63.1,52.1C545.8,768.4,522.3,782.3,496,777.7"/>
	<path vector-effect="non-scaling-stroke" class="st1" d="M488.9,758.3c7.9,1.2,17.6,5.9,25.4,3.9c17.2-4.2,34.5-10.8,48.2-22.3
		c9-7.3,19.9-13.2,27.1-22.5c5.1-6.1,12.4-11.4,16.2-18.5c19.5-32.9,23-74.3,47.9-104c15.8-10.8,35.5-7.7,53.6-8.4
		c22.8-0.7,46.5-4.8,66.4-16.6c51.6-34.5-5-75.9-10.7-118.1c-4.1-42.5,10.4-88.1-11.2-128c-19.1-37.1-59.5-56.1-98.4-65.4
		c-43.8-7-91.6,15.3-111,55.9c-9.5,24.4-6.9,50.8-0.4,75.6c4.8,20.3,8.3,41.4,10.7,62.1c1.2,12.2,6.1,27,3.9,39.2
		c-14.1,5.4-30.3,4-45.2,4.3c-6.4,3.5-13.3,8.4-19.1,12.9c-12.3,13.6-13.7,47.8-18.6,66.2c-7.7,44.1-22,88.9-15.2,133.9
		C462.4,727.9,470.4,748.5,488.9,758.3"/>
	<path vector-effect="non-scaling-stroke" class="st1" d="M675.7,552.8c24.5,17.3,59.5,21.1,85.2,4.2c5.3-2.6,10-6.7,12.1-12.3
		c-0.2-4.6,4.1-8.9,3.9-13.4c1.2-7.2-4.4-14.2-4.7-21.1c-32.5-51.6-13.7-83.8-15-138c-1.1-37.4-24.1-71.2-57.9-86.8
		c-24.2-9.9-50.6-20.6-77.2-16.9c-32.9,3.7-66.5,26.1-73.3,60c-5.2,22.3,2.1,45.9,9.5,67c4.7,14.2,8.4,29.6,13.2,43.8l0,0
		c7.6,24.3,25.4,43.5,45.1,58.4c4.9,4,11,7.3,16.1,10.2c2.5,3.8,6.3,7.4,9.1,10.5c7.3,6.4,14.9,12.5,20,20.8
		C665,543.5,672.1,549.1,675.7,552.8"/>
	<path vector-effect="non-scaling-stroke" class="st1" d="M496,733.2c-26.1-12.4-19.2-82.4-17.3-107.9c3.2-30.3,7.5-62.7,28.9-85.9
		c25.9-12.7,61.2,11.7,83.8,25.1c23,15.3,19.4,44.6,9.7,66.9c-16.4,34.5-35.3,92.7-75,104.5C509.9,741.2,511.2,742.1,496,733.2"/>
	<path vector-effect="non-scaling-stroke" class="st0" d="M670.1,507.3c9.2,8.4,20,17.2,28.6,26.3c7,4.4,15.4,7.6,23,10.7
		c10.6,0.4,30.9-5.4,31.1-18.1c-0.5-12.6-5.5-25.4-10.4-36.8c-1.3-8-2.3-17-3.1-25.1c4.1-47.4,24.5-102.1-9.6-143.3
		c-23.8-27.2-70.8-43.7-106.4-41.6c-29.1,2-57.7,20.9-64.3,50.3c-4.3,19.6,2.9,39.8,9.5,58.1C593,461.4,601.7,469.9,670.1,507.3"/>
	<path vector-effect="non-scaling-stroke" class="st1" d="M556.2,578.6c-16.7-11.5-26.8-12.7-45.2-3.9c-11.2,19.3-13.9,43-10.1,64.8
		c1.7,7.5,4.3,16.1,7.5,23.1c1.4,3.7,1.8,7.6,6.6,5.5c7.6-1.2,18.1,1.3,22.5-6.3C561.3,639.9,588.4,606.1,556.2,578.6"/>
	<path vector-effect="non-scaling-stroke" class="st1" d="M669.1,483.1c10.3,5.7,26.1,6.5,37.7,5.8c7.6-5.6,15.1-13.6,16.8-23.2
		c1.8-6.9,5.9-14,6.9-21.2c10.6-35.9,19.1-77.2-1.8-111.1c-16-21.5-41.6-32.1-66.9-38.6c-29.1-9.4-63.1-5.5-83.5,19.1
		c-13.2,24.9-4.4,52.6,6.4,76.7c8.9,21,15.3,44.4,31.9,60.9C630.5,466.5,651.1,476.3,669.1,483.1"/>
	<path vector-effect="non-scaling-stroke" class="st1" d="M646.5,456.3c-29.1-14.2-40.4-46.5-51.2-74.9
		c-5.8-15.7-14.2-34.1-9.1-50.9c5.2-8.8,10.4-18.8,20.5-22.7c15.6-6.1,33.3-5.5,49.5-2c52.9,10.2,85.6,38.9,75.3,95.9
		c-4.7,22.5-12.8,48.2-32.6,61.7c-6.4,1.4-16,3.4-22.6,3.7C666.6,463.5,655.1,462.4,646.5,456.3"/>
	<path vector-effect="non-scaling-stroke" class="st1" d="M640.3,433c-18.3-15.1-24.6-40.3-32.4-61.8c-4.4-15-10.9-39.8,8.5-46.5
		c18.4-11.4,40.6-3.7,60.3-0.2c9.9,4.5,22.1,7,29.4,15.6c17,16.7,20.7,39.3,15.9,61.9c-5.7,14.9-11.4,32.9-25.5,41.8
		c-7.1,2.4-16,7.3-23.6,5.4C660.8,446.9,648.3,443.1,640.3,433"/>
</g>
</svg>
