<?xml version="1.0" encoding="utf-8"?>
<!-- Generator: Adobe Illustrator 28.0.0, SVG Export Plug-In . SVG Version: 6.00 Build 0)  -->
<svg version="1.1" id="Layer_1" xmlns="http://www.w3.org/2000/svg" xmlns:xlink="http://www.w3.org/1999/xlink" x="0px" y="0px"
	 viewBox="0 0 1081.1 1061.5" style="enable-background:new 0 0 1081.1 1061.5;" xml:space="preserve">
<style type="text/css">
	.st0{fill:#1B057B;stroke:#000000;stroke-width:1.0729;stroke-linecap:square;stroke-miterlimit:6.974;}
	.st1{display:none;fill:#1B057B;stroke:#000000;stroke-width:1.0729;stroke-linecap:square;stroke-miterlimit:6.974;}
</style>
<g id="surface1267">
	<path vector-effect="non-scaling-stroke" class="st0" d="M430.2,593.8c-22.3-18.4-35.2-45.7-51.4-69.2c-8.3-10-12.1-23.8-21.7-33.1
		c-2.2-4.9-0.6-11.3-0.8-16.4c-1.6-7.6,5.3-14.1,11.9-16.4c50-6.1,117.7,8.3,128.4,65.8c4.7,23.6,1.6,57.9-21.9,70.3
		C459.7,606.5,445.4,602.2,430.2,593.8"/>
	<path vector-effect="non-scaling-stroke" class="st0" d="M712.9,1052.9c10.4,6.2,24.4,7.5,36.3,8c9.1-5.1,16-13.2,22.2-21.2
		c-0.9-3.9,3.5-9.9,4.5-13.5c2.8-11.3,1.7-23.6,3.4-35c3.4-25.9,11.3-51.5,16.9-77c6.3-31.5,0.5-65.4-20.1-90.6
		c-17.7-26.4-46.4-43.4-65.4-68.5c-2.9-5.8-12.2-12.9-10.9-19.6c1.9-11.5,2.8-24.5,10-34.2c14.4-24.2,23.8-52,39.9-75
		c25.6-26.3,67.4-19.3,97.5-5c31.1,15.6,62.6,32.6,97.2,39.1c41.4,8.1,111,18.1,120.8-37.4c-0.4-39.2-34.9-66.6-14.5-106.7
		c23.9-54.6,47.6-94,11.1-151c-20.8-32.2-56.1-50.7-82.2-77.8c-12.6-18.3-26.6-37.7-30.2-60.2c-7.7-39.6-19.1-81.3-49.5-109.8
		c-50.5-46.3-108.5-34-170.2-39.8c-39.1-5.1-77.1-20.6-117.2-19.8c-25.9-0.5-53,2-78.3,6.8c-7.5,0.3-18.4,3.7-25.6,5.2
		c-8.8-2.8-18.1,5.8-25.4,9.4c-28.2,15.9-10.7,27.8-55.7,30.6c-17.8-1.9-26-18.8-33-31.5c-2.9-17.5-12.5-32.5-28.2-38.9
		c-56.6-44.2-143.4-61.1-188.2,6.9c-27.6,46.7-10.8,82.7-12.3,130.3c-0.2,14-13.9,24.4-21.1,34.3c-31.5,19.8-65.2,36.1-90.7,62.3
		c-46,43.7-72.2,117.5-37,174c21.8,41.2,68.9,61.1,86.8,103.3c10.1,32.2,10.2,66,15.4,98.1c9.6,51.1,25.9,102.9,60.7,141.6
		c30.7,32.5,71.6,52.2,108.9,74.3c46.7,25.9,93.7,49.8,146.2,26.7c123.7-67.9,96.6,10.3,167.7,78.8
		C637.1,1001.1,677.4,1023.7,712.9,1052.9"/>
	<path vector-effect="non-scaling-stroke" class="st1" d="M321.4,835.4c48,23.2,88.7,17.4,134.9-6.3c24-11.1,50.3-17.7,75.9-24
		c15.8-4.4,33.2-8.8,48.4-14.3c11.2-3.6,14-14,17.7-23.7c11.1-19.8,20-41.2,31.3-60.9c7.3-16.6,18.7-32,24.5-49.4
		c5-18.6,11.3-37.4,17.9-55.5c5.8-10.6,8.6-24.9,17.7-33.1c9.8-7.5,21.4-14.7,33.3-18.4c28.4-3,57.4-0.4,85.8,2.1
		c20.1,2.2,40.8,5.8,60.7,9.6c20.1,3.9,45.2,9.4,63-3.5c14.8-11.3,28-25.7,39.4-40.4c8.8-6.9,18.3-16.9,25.7-25.3
		c36.2-33.3,51.8-78.9,17.9-120.3c-20.6-25.7-50.5-43-69-70.3c-30.4-41-29.6-95.9-58-137.8c-50-71.3-139-34.9-210.2-60.8
		C631.1,89.7,578,90.9,536.6,119.9c-20.9,13.8-39.4,33.8-62.2,44.3c-40.5,19.9-92,15.9-132.2-2.8c-20.4-13.7-13.9-44.3-21.4-65.4
		c-5.5-20.1-20.4-34.5-38.6-43.7c-8.8-3-20.2-1.6-29.2-3.3c-22.5,6.9-39.9,22.5-43.6,46.5c-1.4,13.4,0.4,28.7,5.4,41.3
		c6.3,13.4,13.6,27.1,18,41.2c0.3,7.7-5,16-9.1,22.1c-0.3,0.4-5.5,10.6-5.9,10.9c-0.6,0.1-9.7,6.6-10.3,6.9
		c-29,24.8-64.1,40.7-96,61.1c-36.8,24.5-71.4,64.6-68.3,111c2.1,58.2,54.6,74.8,81,118.1c21.9,34.7,23.5,78.5,31.7,117.5
		C174.9,738,217.8,789.8,321.4,835.4"/>
	<path vector-effect="non-scaling-stroke" class="st1" d="M639.8,934c36.6,25.8,80.5,12.3,95.8-30c9.2-32.2-4.7-58.6-30.7-77.8
		c-20.8-18.8-94.9-39.2-106.6-3.7C588.1,860.2,603.6,915,639.8,934"/>
	<path vector-effect="non-scaling-stroke" class="st1" d="M315.5,796.1c32.8,16.2,70.5,20.7,105.8,10.2c28.8-9.5,58.7-17.5,87.1-28
		c26.6-10.1,51-25.4,68.8-47.9c19.2-24.8,35.9-53,46.5-82.6c11.3-33.1,20.1-67.6,35.9-99c12-13.8,26.5-28.4,44.8-33.1
		c28.6-8.1,58.7-1.4,87.8-1.6c52.8,2.9,108.2-2.8,152.2-34.7c18.7-10.9,34.4-27.1,45.2-45.8c1.3-7.9,1.2-17.4,1.9-25.4
		c-7.2-26.9-29.2-45.5-46.3-66.1c-20.2-21.7-33.1-48.7-42.5-76.6c-29.2-105-54.7-128.2-165.4-126c-20.6-0.5-41.5-3.9-61.4-9.1
		c-18.1-4.1-38.3-11-56.9-7.4c-78.2,0.8-104.9,84.1-184.7,84.3c-56.1,1.8-114.4-8.8-168.1,12.2c-23.5,9.1-44.2,24.6-66.1,37
		c-45.6,32.4-107.9,59.3-120,119.7c-2.5,37.1,25.7,63,49.1,87.8c13.3,18.1,22.7,39.6,30.1,60.7C193,631.7,197.8,745.3,315.5,796.1"
		/>
	<path vector-effect="non-scaling-stroke" class="st1" d="M323.9,762.2C280.7,740.1,253.6,698,234,655
		c-28.6-51.4-49.3-106.9-65.7-163.3c-9.1-29.8-27.7-55.9-43.4-82.4c-3.9-10.2-6.7-22-7-32.9c4-11.1,6.1-23.9,14.2-32.9
		c17.6-25.4,43.2-44.6,67.7-62.9c32.8-23.6,70-41.9,110-48.6c53.1-9.5,107.8,5.7,160.8-3.1c59.5-8.4,91.9-77.3,154.2-76.6
		c35.1,1.4,69.9,13.7,105.4,11.5c102.5-6,129.7,22,155.6,118.8c7.5,25.5,19.8,49.9,33.7,72.4c3.7,7.8,9.1,15.8,14.4,22.6
		c4.7,10.4,9.6,23.2,11.1,34.3c-3.6,18-11.6,28.7-26.7,38.8c-15.9,12.1-35.1,20.7-54.1,26.9c-25.6,7.9-52.9,11-79.6,10.4
		c-25-0.2-50.8-5.4-75.5-0.6c-18.7,1.9-33.7,13.2-48.6,23.6c-10.6,12.1-19.1,26.6-26.6,40.8c-22.6,66.2-37.4,143.4-98.3,186.4
		c-25.6,18.9-57.3,27.7-88,34.4C406.7,783,361.2,784.4,323.9,762.2"/>
	<path vector-effect="non-scaling-stroke" class="st0" d="M288.1,664.6c-19.5-32.8-52.6-56.3-70.4-90.5l0,0
		c-21.5-35.2-28.8-77.2-42.6-115.4c-5.5-14.7-10.1-30.4-16.2-44.3c-4.1-6.1-4.3-15.2-5.6-21.7c-1.7-8.7-2.4-18,1.2-25.8
		c10.5-39.7,45.8-68.1,78.6-89.6c46.8-30.9,104.5-34.8,158.3-30c42.6,4,88,10.7,127.5-7c32.2-13.4,56.9-40.3,88.6-51.3
		c26.7-7.5,52.9-2.5,79.2-2.8c26.7-0.7,54.2-4.9,80.3-4.3c78.1,0.2,91,66,108.7,126.4c18.4,60.9,58.8,107.9-20.5,142
		c-71.3,34.4-133.8-13-196,33.2c-40,34.3-47.2,88.3-62.9,134.1c-16.5,52.3-49.9,103.3-102.4,121.6c-46.9,18.5-105.2,22.3-148.1-4.7
		c-17-11.9-30.5-25.6-40.1-42.6C299.7,683.1,291.7,674.1,288.1,664.6"/>
	<path vector-effect="non-scaling-stroke" class="st1" d="M394.8,727.7c-42.6-13.5-63-55.2-86.2-89.7c-4.3-8.4-13.3-13.9-19.9-20.4
		c-10.6-10.2-22.4-19.6-34.1-28.5c-39.8-35.1-52.9-88.1-64-138c-7.7-25.3-18.5-52.5-13.5-79.2c7-32.9,31.3-59.7,58.2-78.7
		c101.9-71.1,204.8,4.8,310.1-29.4c26.6-8.6,51.4-23.8,77.5-33.5c20.3-8.3,42.7-12.9,64.1-17.6c34.3-7.5,72.1-18.2,106.4-6.4
		c56.9,18.9,59,99.4,74,148.5c7.9,38.2-2.1,61.9-38.4,78.3c-29.6,11.7-62.5,7.7-93.6,6.2c-38.7-3.5-76.8,12.3-101.2,42.5
		c-35.6,45.7-34.7,107.2-59.9,157.7C546,709.8,468.2,752.8,394.8,727.7"/>
	<path vector-effect="non-scaling-stroke" class="st1" d="M350.8,664.3c45.2,73.2,145.3,64.9,193.7-0.4
		c38.3-49.7,39.3-115.6,62.3-171.8c18.3-43.2,59.5-76.4,107.1-78.8c31.5-2.2,64.6,6.4,95.1-4.3c38.9-18.6,34.4-54.1,29.7-90.6
		c-14.6-108.2-69.9-115.8-160.3-74.3c-34.6,16.4-68.1,37.3-104.9,48.3c-71.7,16.8-143.3-10.2-214.2-16.6
		c-32.8-2.4-68.4,0.2-97.4,16.2c-42.6,21.1-74.2,65.7-66.2,113.8c6.6,40.5,13.9,83.1,30.7,120.6c11.4,25,31.7,44,53.3,59.3
		C311.4,604.2,332.4,633.8,350.8,664.3"/>
	<path vector-effect="non-scaling-stroke" class="st1" d="M421.8,698.1c51.5,13.2,103.1-17.7,127.5-62.7
		c17.4-31.5,24.7-67.6,31.5-102.6c8.8-58.6,35.8-125.8,97.4-143.9c30.7-9.4,63.3-4.9,94.2-7.4c33.3-6.3,41.8-35,40.2-64.5
		c-1.8-7.1-0.6-15.6-1.8-22.5c-2.7-8.1-6.1-17.2-8.6-25.2c-9.8-10.6-22.2-23.1-37.1-23.5c-32.2-3.4-62.6,18.1-87.4,35.1
		c-48,31.7-81.1,55.5-141.2,45.7c-34-5.1-68.6-12.3-101.6-20.9c-32.8-7.8-65.7-17.4-99.3-17.7c-53.4-2.4-110.7,29.6-122.8,83.7
		c-7.6,39,8.7,108.1,23.4,144.8c17.7,41.5,62.9,56.7,91.5,87.6C357.3,637.1,374.6,687.1,421.8,698.1"/>
	<path vector-effect="non-scaling-stroke" class="st1" d="M392,664.6c-12.9-11.6-22.5-27.2-32.6-41.2
		c-52.7-83.5-114.1-54.7-129.8-176c-5.7-32.1-8.5-65.9,5.7-95.9c19.7-34.4,59.1-51.2,97.5-49.8c33.6,1.1,65.9,12.1,97.5,21.7
		c29.5,9.2,59.4,17.9,88.7,26.9c15.2,4.8,30.8,11,45.3,16.3c13,5.9,28.7,11,27.9,27.6c2.4,8.9,0.2,18.1-2.3,26
		c-2.3,11.9-6.5,24.7-9,36.2c-6.5,26.2-9.2,54-12.9,80.4c-5.4,42.8-17.5,86.6-47.9,118.2C487.4,690.4,428.6,697.9,392,664.6"/>
	<path vector-effect="non-scaling-stroke" class="st0" d="M356.9,598.7c-24.2-38.2-73.8-51.3-96.1-90.6
		c-19.3-34.3-23.9-80.7-21.2-119.5c2.5-28.5,16.8-45.5,38.9-62.1c30.2-14.8,65.2-12.1,96.4-1.7c30.6,10.9,61.3,22.5,92,33.2
		c34.5,13.8,82.5,27.9,89.6,69.9c5.2,26,2.2,53.6,2.2,80.1c-1.2,46.3-9.4,95.5-40.1,132c-26.3,31.3-75.4,45.1-109.9,19.8
		C385.5,644.9,372.8,620,356.9,598.7"/>
	<path vector-effect="non-scaling-stroke" class="st1" d="M465.6,658.1c-62.2,13.2-85.7-56.8-121.8-92.3
		c-51.5-44-81.6-47.5-90-124.5c-4.3-32.1-2-69.2,22.2-93.3c7.2-6.7,18.1-8.7,26.8-13c9.8-3.8,21.9-1.9,32.2-1.9
		c37.1,5.5,69.1,27.4,104.1,39.3c39.6,14.2,86,32.6,98.3,77.2C558.2,519.5,551.6,638.6,465.6,658.1"/>
	<path vector-effect="non-scaling-stroke" class="st1" d="M494.1,631.6c54-43.5,54.3-149.3,7.8-198.1
		c-23.1-25.7-58.8-33.3-89.4-46.5c-27.4-9.9-51.7-29-80.1-35.8c-22.1,1.8-20.3-6.5-41.4,10c-34.9,22.8-25.3,96-10.3,129.5
		c6.8,8.2,14.1,16.7,21,24.8c8.3,7.4,18.4,13.7,27.2,20.5c18.8,14.3,35.4,31.8,48.6,51.4c16.3,23.6,34.7,52.4,65.4,56.9
		c10.6,3.7,21.9,0.6,32.1-2.8C481.6,640.7,489,635.2,494.1,631.6"/>
	<path vector-effect="non-scaling-stroke" class="st1" d="M430.2,627.5c-23.5-12.9-38-37.4-53.3-58.6c-12.4-17.2-27.6-33-44.4-45.9
		c-12-9-23.4-20.1-33.1-31.6c-10.9-20.2-17.4-43.3-14.8-66.1c1-11,4.6-24.1,11.6-32.9c3.5-4.6,6.9-12.2,13.1-13.2
		c35.2-6.3,62.8,21.5,94.9,30.8c43.7,12.8,86.8,26.7,107.5,71.1c14.9,33.9,17.2,75.8,0.4,109.4c-6.2,13-19.8,29.1-32.3,35.9
		C460.2,633.9,450.2,636.2,430.2,627.5"/>
	<path vector-effect="non-scaling-stroke" class="st1" d="M494.7,596.4c-8.3,14.1-26.1,20.6-41.6,22.3c-24.4-4.1-35.1-14-49.4-33.1
		c-16.5-19.4-28.1-43.4-46.7-61.1c-8.2-6.9-16.2-17.3-24-24.7c-7.7-5.9-14.7-16-17.3-24.7c-10.2-12.9-8.3-30.7-4.2-44.6
		c4.6-7.1,13.1-9.9,19.9-13c7.2-2.5,15.8,1.4,22.1,2.7c13.9,3.6,28.6,8,41.5,11.4c25.3,6.7,52,10.4,73.1,25
		C514,485.2,526.7,553.5,494.7,596.4"/>
</g>
</svg>
