<?xml version="1.0" encoding="utf-8"?>
<!-- Generator: Adobe Illustrator 28.0.0, SVG Export Plug-In . SVG Version: 6.00 Build 0)  -->
<svg version="1.1" id="Layer_1" xmlns="http://www.w3.org/2000/svg" xmlns:xlink="http://www.w3.org/1999/xlink" x="0px" y="0px"
	 viewBox="0 0 873.5 874.9" style="enable-background:new 0 0 873.5 874.9;" xml:space="preserve">
<style type="text/css">
	.st0{fill:#FFFE9E;stroke:#000000;stroke-miterlimit:10;}
	.st1{display:none;fill:#FFFE9E;stroke:#000000;stroke-miterlimit:10;}
</style>
<g id="surface1167">
	<path vector-effect="non-scaling-stroke" class="st0" d="M639.4,417.8c16.8,3.5,26.4,4.5,43.5-0.2c9.6-1,15.6-10.8,22.1-16.9
		c11-10.3,15.9-29.3,12-43.7c-5.5-18.3-19.1-35.7-37.7-41.7c-5.2,0.3-10.9-3.6-16-3.7c-9.7,1.2-21,1.3-29.7,5.6
		c-17.2,10.7-29.3,22.7-33.3,43.2c-2.6,8.3,2.6,25.1,6.5,33C616.2,402.7,626.7,413.4,639.4,417.8"/>
	<path vector-effect="non-scaling-stroke" class="st1" d="M353.1,929.4c-41.6-17.1-76.6-49.2-100.5-86.8
		c-19.2-29.2-34.3-61.4-59.6-85.9c-22.6-22.9-47.9-43.9-74.3-61.4c-32.2-20-67.2-35.5-96.1-59.5C-8.2,608-26.1,569.1-39.7,531.2
		C-52,505.7-60.9,478.8-65,451.3c-4.3-33.8,1.2-67.9,4.5-101c2.8-30.7,4.2-62.7,16-91c15.2-36.2,43.4-64,63.2-96.5
		c15.7-27.4,13.8-62.8,34.9-86.3C83.1,47.2,128,63.3,164,56.7c20.6,0.2,41-5.1,60.7-9.1c27.1-6.8,54.6-13.1,80.7-21.9
		c43.8-16.7,86.3-36,127.6-57.6c46.7-23,97.3-44.7,150.1-39.1c51.9,2.9,93.1,42,108.5,89.9c8,19.4,15.6,39.3,26,57.2
		c8,6.4,17.9,12.1,26.3,17.5c28,12.7,68.8-2.8,89.9,22.9c14.1,18.9,20.8,42.4,30.8,63c12.1,25.2,28.1,48.2,39.1,73.2
		c26.5,47.3,25.4,98.3,31.6,150c3.8,19.8,11.4,39.5,23,55.3c35.9,38.2,68,66.2,49.8,123.8C993.4,630.1,947,658.5,906.2,683
		c-68.3,44.6-149.6,62.6-225.6,87.8c-25.8,7-50,17.7-71.6,33c-11,14.2-21.4,30.9-26.4,47.9c-5.1,16.3-7.9,34.1-8.1,50.1
		c-2.6,20.6,2.5,43.9-24.4,47.2c-26.6,0.4-54.4-1.5-80.4-0.6C429.3,949.7,389.8,945.8,353.1,929.4"/>
	<path vector-effect="non-scaling-stroke" class="st1" d="M382.2,900.1c-37.5-9.6-70.7-34.6-92.5-66.4c-15-20.5-23.9-44.7-38-65.6
		c-18.1-29.6-45.6-51.7-72.8-72.5C71.7,617.4,40,634.6-13,497c-22.9-48.9-15.2-103.3-5.7-154.1c7.4-61.5,21.2-92.5,66-135.2
		c24-22.8,42.2-51.6,66.2-73.8c43.5-37.3,102.6-49,156.5-62.1c42.3-10.4,87.8-10.2,126.6-30.9c34.3-20,65-46.6,101.9-61.5
		c47.3-20.9,113-17.8,139.1,32.7C653.9,39,654.8,72,672.2,97.9c8.2,15.4,22.4,27.1,36.4,36.7c10.7,6.6,23.6,10.5,34.3,16.6
		c26.4,11.1,52.9,22.5,73.8,42.3c40.1,38,67.5,89.4,75.5,143.6c7.9,54,1.3,108.7,10.1,161.8c4.2,24.2,20,45.3,19.7,69.8
		c-2.1,16.3-8.7,31.2-18.5,43.8c-13.9,22.3-34.8,40-55.6,55.4c-11.1,8.3-23.9,15.8-36.5,21.7c-44.7,20.7-92.9,34.4-139.5,49.2
		c-29.5,8.3-59.9,13.6-85.9,30.3c-33.7,20.4-45.5,61.5-68.3,91.3C486.7,900.8,429.5,914.7,382.2,900.1"/>
	<path vector-effect="non-scaling-stroke" class="st0" d="M382.2,870.1c-32.4-8.8-58.8-32.7-75.7-61.2c-12.3-20.1-19.9-43-33.1-62.6
		c-18.1-29.9-48-49.2-76-69c-39.9-27-83.7-49.5-119.7-82c-22.9-22.2-38.3-50.8-51.6-79.5c-35.3-66.7-28.3-110.2-10-180
		c11.6-63.6,41.3-87,83.9-129.9c21.7-24.1,41.4-50.1,67.8-68.8c53.9-37.1,121.5-49.3,186-46.6c96.2,9.6,82.4-45.2,153.1-79.3
		C542.8-7,585.4-2.9,608.3,32.9c12.1,21.9,17.5,47.2,29.4,68.8c6.5,11.1,15.6,21.1,23.9,30.4c10.2,8.8,22.2,16.2,33,23.8
		c53.9,24.1,105,41.1,139.6,92.5c49.4,71.4,42.2,163.8,29.8,245.4c-3.6,27.4-2.4,56-5.1,83.1c-10,87.4-114.4,111.8-184.6,135.3
		c-40.7,11.5-85,16.8-119.8,42.1c-26.5,21.7-40.2,52.9-60.4,79.2C468.5,867.7,422.5,882,382.2,870.1"/>
	<path vector-effect="non-scaling-stroke" class="st1" d="M382.2,841.6c-29.8-8.6-49.6-35.3-62.1-62.3c-13.2-30-26.9-61.6-54-81.9
		c-54.2-39.7-119.2-65-167.4-112.7C66.9,553.6,48.5,510.9,33,469.8c-11.6-34.2-6.7-71.1,4.6-104.7c7.2-23.4,15.9-47,28.1-68.3
		c20.8-33.2,52.1-58.3,74.6-90.3c44.6-64.9,103.9-97.6,183.5-93.1c19.4,0.9,39.4,5,58.3,9.5c21.3,6,44.5,9.7,65.4,0.6
		C471,108.7,482.2,82,500,61.9c3.3-4.5,11.3-8.6,15.5-11.8c5-2.3,10.4-7.7,16.3-6.9c9.6,0.6,21.7-2.6,29.6,4.3
		c18,11.9,26.6,32.6,37.3,50.6c4.8,9.1,13,16.4,19.1,24.7c20.8,25,50.2,41.5,79.4,54.8c28.7,13.3,59.9,23.9,85,43.4
		c66,50.3,78.9,141.3,67.2,218.2c-6.6,41.6-19.8,81.8-25.2,123c-6.3,59.1-41.6,84-92.7,105.4c-45.7,21.9-96.3,30.1-144.4,44.3
		c-33.8,10.7-63.5,32.5-84.4,60.6c-15.2,20-27.2,43-47.6,57.8C434.7,846.2,406.2,850.1,382.2,841.6"/>
	<path vector-effect="non-scaling-stroke" class="st1" d="M411.3,813.8c-59.3,5.7-68-65.9-94.7-103.2
		c-16.7-25.3-45.1-38.3-71.3-51.4c-74.4-35.6-142.7-74.6-173.7-155.7c-13.8-28.2-23.6-59.8-19.3-91.4c8.6-47.3,33.6-90.4,64.3-126.9
		c27.7-30.8,46.6-67.9,71.3-100.9c34.4-41.7,91-60.8,143.9-51.2c44.5,3.8,86.9,40.2,132.1,23.5c16.5-5.8,30.2-18.5,44.3-28.4
		c8.8-5.8,16.9-16.3,28.2-15.4c10.8-1.1,22.2-1,30.9,6.3c14.5,7,27.1,18.5,41.1,25.8C663.5,191.1,743.3,196,792.5,249
		c56,62.1,55.4,155.7,29.9,230.6c-7.4,20.2-14,41.1-20.6,61.1c-6.4,21.3-11.8,43.4-24.4,61.6c-35.1,46.9-106.3,66.2-161,79.1
		c-50,10.5-95.3,37.4-131.5,72.9c-9.8,12.4-21.5,24.2-31.4,36.1C443.8,801.5,426.1,813.9,411.3,813.8"/>
	<path vector-effect="non-scaling-stroke" class="st1" d="M382.2,754.9c-15.5-16.8-23.2-39.1-36.5-57.4
		c-28-41.8-81.6-46.9-123.7-67.5c-68.5-30.7-111.4-73.7-135.2-145.3c-34-80,18.2-134.1,64.9-192c36-51,41.3-111.7,106.8-136.9
		c116-36.2,152.4,74.9,240.3,17.3c13.8-6.9,26.6-16.3,41.9-17.4c7.4-1.6,16-4.1,22.9-0.7c33.7,5.7,62.7,25.6,94.3,37.3
		c36.2,15,75.6,25.5,106.5,50.1c55.5,43.6,67.7,122.3,54.8,187.7c-10.9,48.9-36.4,92.8-58.1,137.2c-31.4,61.8-103.7,80.9-165.1,97.6
		c-26.8,8.8-52,20.7-75.4,35.4c-18.6,11.4-36.9,23.8-54.2,36.3C443.2,754.1,406.9,786.1,382.2,754.9"/>
	<path vector-effect="non-scaling-stroke" class="st1" d="M350.3,361.9c14.9-5.7,57.4-16.9,53.9,10.2c-0.8,8.8-0.5,19.5-7.3,26.1
		c-7.9,7-20.2,9.8-30.3,11c-12.6-3.6-26.2-7.3-36.6-15.5c-4-7.7,2.2-15.1,5.8-21.7C338.1,365.5,344.1,363.2,350.3,361.9"/>
	<path vector-effect="non-scaling-stroke" class="st0" d="M465.1,706.6c39.6-16.1,73.9-43.2,112.5-61.4c18.6-10,39.8-15.2,59.3-22.8
		c27.9-12.2,55.3-27.1,77.4-48c41.7-42.5,79.7-93.2,93.5-151.7c15.3-70-8-155.1-76.3-187.6c-22.4-12.4-48-19.5-72-27.8
		c-19.4-6.6-39.4-14.8-58.9-20.1c-95.5-34.9-112.9,73.7-188.9,18.9c-23.2-13.3-46.3-27.9-72-35.9c-38.5-10.8-83.9-3.8-109.9,28.6
		c-22,25.7-27.1,61-38.2,91.8c-18,48.5-71.3,70.6-85.9,122.6c-12.2,47.1,13.2,113.3,43.9,149c40.3,47.3,102.2,64.4,160.5,76.8
		c28.8,5,52.8,23.4,70.1,46.1C403.8,716.6,429.6,725.5,465.1,706.6"/>
	<path vector-effect="non-scaling-stroke" class="st1" d="M232.8,325.3c5.4,8.8,14.8,16.9,25.5,17.3c12.9-0.1,26.8-0.8,39.4-4.2
		c33.5-5.3,67.1-15.7,95.3-35c11.1-6.8,18.8-13,24-25.2c-2-4.7,0.6-10.4,3.1-14.4c-5.7-7.4-7.9-17.4-12.4-25.5
		c-1.7-5.2-7.4-8.3-11.1-12c-6.1-5.3-11.8-11.8-18.1-16.8c-18.6-14-40.8-23.7-63.8-27C234.7,177.1,212.1,261.6,232.8,325.3"/>
	<path vector-effect="non-scaling-stroke" class="st1" d="M436.3,678.1c51.4,10.5,105-46.6,144.9-73.2
		c31.7-19.7,66.1-34.6,98.8-52.5c17.9-10.2,36.7-19.3,51.6-33.7C764,493.1,787.9,456,797,415.6c8.6-46.6,2.2-99.6-28.4-137.3
		c-29.9-37.8-79.4-50.5-123.9-62.8c-32.2-8.3-67.9-21-100.5-7.9c-30.5,13.3-56,37.9-74.5,65.2c-13.4,12.3-13.6,32.4-15.2,49.3
		c-1.7,20.1-4,40.8-6.4,60.9c-13.3,74.1-18.2,88.5-94.8,61.6c-16.4-4.1-32.1-12-47.7-18.4c-11.3-5.4-24.2-9.4-33.5-18.3
		c-7-6.4-16.7-11.2-23.8-17.3c-11-10.7-13.2-20.5-31.3-20.9c-12.7-2.7-24.6,4.1-36.6,7.4c-11.9,7.5-25.8,16.4-33.9,27.9
		c-25.1,35.8-16.9,84.6-0.4,121.6c26.8,59.3,93.5,86.3,154.6,89.2c40.1,1.9,71.3,1,97.7,35.6C409.5,662.6,420.4,675.1,436.3,678.1"
		/>
	<path vector-effect="non-scaling-stroke" class="st1" d="M293.1,305.2c26.4,4.2,58.9-4,76.1-25.3c5.9-9.3,11.9-19.5,6.7-30.6
		c-1.4-14.8-10.7-21.5-21.6-29.9c-11-11.1-26.4-15.1-41.5-16.8c-29.2-0.1-37.3,9.3-54.4,31C249,265,256.7,298.7,293.1,305.2"/>
	<path vector-effect="non-scaling-stroke" class="st1" d="M556.8,530.2c-15.9-7.5-31.9-20.1-40.6-35.8c-13-11.5-22.8-27.3-31.2-42.3
		c-23.8-51.8-8.5-117.7,15.6-167c36.9-76.4,93.6-70.9,165.5-52.1c70.8,16.6,116.8,55.4,123.1,130.9c6.4,73.6-41.6,139.5-113.2,156.6
		C637.7,532.2,596.2,536.8,556.8,530.2"/>
	<path vector-effect="non-scaling-stroke" class="st0" d="M231.5,586.3c44,16.4,95.1,12.9,137.4-6.7c7.7-1.7,15.4-7.4,20.7-13
		c1.3-5,3.7-11.2,5.5-16c1.2-20.4-6-39.7-17.8-56.1c-28.6-26.6-65.7-40.3-102-53c-40.1-15.9-98.5-34.8-114.9,20.9
		C146.7,514.4,181.5,569.7,231.5,586.3"/>
	<path vector-effect="non-scaling-stroke" class="st1" d="M436.7,613.7c1.5,18.5,17.6,20.6,32.7,22.4c9.9-1.1,19.6-8.7,29.1-11.7
		c6-9,11.8-19.9,17.5-28.8c-0.9-12.4-1.5-27.9-16.5-30C472.7,565.2,419.5,577,436.7,613.7"/>
	<path vector-effect="non-scaling-stroke" class="st1" d="M324,265.9c-19.2,8.5-31.9-2.9-23.1-22.6c1.4-3.6,2.5-9.4,7.1-9.9
		c4-0.7,12-0.7,14.5,3C327.9,245.1,340.8,262.3,324,265.9"/>
	<path vector-effect="non-scaling-stroke" class="st1" d="M608.3,501.2c105.1,17.2,193.3-56.6,165.3-165.8
		c-18.3-66.9-80.9-90.6-144.1-97c-60.6-8.3-93.7,18.4-116.3,72.9c-19.4,43.7-27.3,99.9,7.3,138.3
		C543.7,477.2,573.7,492.7,608.3,501.2"/>
	<path vector-effect="non-scaling-stroke" class="st1" d="M207.6,553.2c-9.3-5.9-13.4-16.7-18.3-26c-5.7-9.9-7.8-29.2-3.5-39.8
		c11.9-37.2,57.6-32.5,87.4-23.3c24.5,8.1,55.5,19.3,68.6,42c10.2,11.6,8,25.9,6.1,39.4c-9.4,12.9-22.8,23.4-37.5,28.7
		C274.8,584,235.6,577.9,207.6,553.2"/>
	<path vector-effect="non-scaling-stroke" class="st0" d="M585.9,470.4c-83.9-40.3-85-114.1-35.3-184.1
		c28.2-38,80.9-37.8,122.5-27.7c55.4,11.1,89.2,50.6,94.1,106C772.9,466.5,669.9,508.7,585.9,470.4"/>
	<path vector-effect="non-scaling-stroke" class="st1" d="M262.2,555.9c16.1-0.4,40-1.1,45.9-19.1c2.4-6.6,5-13.8,1.8-20.5
		c-19.9-22.2-21.3-23.6-50.1-30.4c-13.1,0.3-28.8-0.8-39.2,8.6c-8.2,18.6-10.1,24.9,2.9,41.7c2.9,5.8,5.6,11.2,13,10.7
		C242.8,552.6,254,554.3,262.2,555.9"/>
	<path vector-effect="non-scaling-stroke" class="st1" d="M644.1,467.4c-76.7-6.7-134.9-70.9-92.9-146
		c16.5-36.2,53.3-57.6,92.9-54.2c40.6,0.7,84.3,18.6,101.9,57.4C780.8,401.1,728.1,475.5,644.1,467.4"/>
	<path vector-effect="non-scaling-stroke" class="st1" d="M609.3,442.5c63.7,27.9,136.9-0.6,136.2-77c-4.9-35.5-20.5-61.2-53.8-76.4
		c-31.8-12-72.6-12.4-99.5,11c-20,14.9-30,39.4-34.9,63.2C555.3,400.8,577.4,426.1,609.3,442.5"/>
	<path vector-effect="non-scaling-stroke" class="st1" d="M579.8,385.2c10.1,33.4,45.7,50.9,78.7,52.8c21.6,0.6,41.8-8.9,58-22.7
		c28.7-41.2,15-101.8-36.1-115.5l0,0c-26-8.4-57-3.4-77.7,14.4C584.4,333.4,572.2,358.9,579.8,385.2"/>
</g>
</svg>
